<?xml version="1.0" encoding="UTF-8"?>
<svg width="32px" height="18px" viewBox="0 0 32 18" version="1.1" xmlns="http://www.w3.org/2000/svg" xmlns:xlink="http://www.w3.org/1999/xlink">
    <!-- Generator: sketchtool 55.2 (78181) - https://sketchapp.com -->
    <title>253BB4B7-C6B1-47E1-A6D2-BA75357166E3</title>
    <desc>Created with sketchtool.</desc>
    <g id="Asset-Artboard-Page" stroke="none" stroke-width="1" fill="none" fill-rule="evenodd">
        <g id="icon-/-ecom-/-Afterpay-logo" fill-rule="nonzero">
            <g id="Afterpay-logo">
                <path d="M16.8153033,7.74965375 C17.9282379,7.10143689 18.9745802,6.49173836 20.0935441,5.84009173 C19.7312179,5.20031722 19.8195709,5.35412693 19.489492,4.75049637 C19.1397502,4.11098568 19.2716245,3.8595609 19.993918,3.85428441 C22.0970884,3.83951023 24.2007838,3.83766346 26.3039542,3.84874409 C26.9287185,3.85217381 27.0794694,4.12127484 26.7661694,4.67583403 C25.7258582,6.51680168 24.67401,8.3511737 23.6127244,10.1800055 C23.2737314,10.7638492 22.9772113,10.76253 22.623012,10.1913499 C22.2591132,9.60434025 22.3561182,9.7494438 21.9667876,9.08407828 C20.8695835,9.72517192 19.7731665,10.3660017 18.6990335,10.9936403 C18.7635291,11.1630157 18.845852,11.2717114 18.9132307,11.389641 C19.7225659,12.8071702 20.0841058,13.484144 20.9204453,14.8855799 C21.9114682,16.5463555 23.9889464,16.646345 25.1687356,15.1114137 C25.2998227,14.9407193 25.4198989,14.7594718 25.5271285,14.5726841 C27.5120583,11.112889 29.4980374,7.65388548 31.471169,4.18723098 C31.6712083,3.83634434 31.8515856,3.45300728 31.9383651,3.06149166 C32.2841745,1.5009695 31.1337496,0.0256626635 29.516914,0.0169564536 C25.2633808,-0.00573245985 21.0090605,-0.00916217598 16.7555273,0.0285647276 C14.818052,0.0457133258 13.6537304,1.99775111 14.5047521,3.7134021 C14.7821335,4.27191866 15.1148343,4.80273363 15.4265607,5.34383777 C16.0130466,6.36246428 16.1679929,6.63051004 16.8153033,7.74965375" id="Fill-16" fill="#306E9A"></path>
                <path d="M7.02491593,17.9890943 C7.02676774,16.6945002 7.03020608,14.1603729 7.03020608,14.1603729 C7.03020608,14.1603729 6.50254233,14.154787 5.78946832,14.154787 C5.06343421,14.154787 4.9137312,13.8967726 5.27211958,13.2655682 C6.31633881,11.4272819 7.37219603,9.59537949 8.43889711,7.77012694 C8.75576014,7.22803059 9.03638708,7.18041763 9.38260863,7.78316059 C10.4358208,9.61772301 11.4924713,11.4504235 12.5319292,13.2929656 C12.8638685,13.881079 12.7136367,14.1385613 12.0442043,14.1601069 C11.3530833,14.1601069 10.7622055,14.1593089 10.7622055,14.1593089 L10.7619411,17.999468 C10.7619411,17.999468 13.5793223,18 15.2263217,18 C17.1526258,17.9712726 18.2828053,16.2133165 17.5554491,14.4154614 C17.474779,14.2156997 17.379297,14.0201939 17.2724415,13.832934 C15.2942969,10.3672948 13.3169456,6.90112366 11.3271631,3.44213438 C11.1256188,3.09208594 10.8867816,2.74230349 10.5937234,2.47019137 C9.42519167,1.3852008 7.57797103,1.64560918 6.75804234,3.04846289 C4.60057093,6.73966514 2.45949884,10.4412412 0.353867809,14.1625008 C-0.605184457,15.8576822 0.488495368,17.8518412 2.39205328,17.9726026 C3.01176068,18.0119697 5.65801555,17.9890943 7.02491593,17.9890943" id="Fill-18" fill="#1F4066"></path>
            </g>
        </g>
    </g>
</svg>