<?xml version="1.0" encoding="UTF-8"?>
<svg width="36px" height="28px" viewBox="0 0 576 512" version="1.1" xmlns="http://www.w3.org/2000/svg" xmlns:xlink="http://www.w3.org/1999/xlink">
  <g class="fa-group">
    <path fill="#adb5bd" d="M0 432a48 48 0 0 0 48 48h480a48 48 0 0 0 48-48V256H0zm192-68a12 12 0 0 1 12-12h136a12 12 0 0 1 12 12v40a12 12 0 0 1-12 12H204a12 12 0 0 1-12-12zm-128 0a12 12 0 0 1 12-12h72a12 12 0 0 1 12 12v40a12 12 0 0 1-12 12H76a12 12 0 0 1-12-12zM528 32H48A48 48 0 0 0 0 80v48h576V80a48 48 0 0 0-48-48z"></path>
    <path fill="#495057" d="M576 256H0V128h576z"></path>
  </g>
</svg>
