<?xml version="1.0" encoding="UTF-8"?>
<svg width="52px" height="23px" viewBox="0 0 52 23" version="1.1" xmlns="http://www.w3.org/2000/svg" xmlns:xlink="http://www.w3.org/1999/xlink">
    <!-- Generator: sketchtool 55.2 (78181) - https://sketchapp.com -->
    <title>9E5C305E-FCE6-48F3-B928-535D97A6C08C</title>
    <desc>Created with sketchtool.</desc>
    <g id="Asset-Artboard-Page" stroke="none" stroke-width="1" fill="none" fill-rule="evenodd">
        <g id="images-/-pay-/-paypal">
            <g id="PayPal-logo" transform="translate(2.418605, 4.842105)">
                <path d="M6.31941746,0.565712099 L2.61300381,0.565712099 C2.35934158,0.565712099 2.14363,0.750187057 2.10400951,1.00091496 L0.604958283,10.5145955 C0.575204962,10.7024135 0.720480104,10.8715408 0.910688832,10.8715408 L2.68010059,10.8715408 C2.93376283,10.8715408 3.1494744,10.6872178 3.18909489,10.4360341 L3.59334537,7.8699479 C3.63235865,7.61876412 3.84852563,7.43428917 4.10173246,7.43428917 L5.27501519,7.43428917 C7.7164573,7.43428917 9.12548956,6.25161322 9.493611,3.90814304 C9.6593795,2.88274188 9.50059392,2.07722149 9.02089753,1.51300772 C8.49414231,0.893481855 7.55979696,0.565712099 6.31941746,0.565712099 Z M6.74689373,4.0404969 C6.54423718,5.37178603 5.52807019,5.37178603 4.54560339,5.37178603 L3.9862106,5.37178603 L4.37862047,2.88547708 C4.40199808,2.7351923 4.53194115,2.62456812 4.68374381,2.62456812 L4.9401385,2.62456812 C5.60943641,2.62456812 6.24078367,2.62456812 6.56700758,3.00643429 C6.76161859,3.23421678 6.82112523,3.57277542 6.74689373,4.0404969 L6.74689373,4.0404969 Z" id="Fill-1" fill="#28356A"></path>
                <path d="M17.3984313,3.99764513 L15.6235546,3.99764513 C15.4723591,3.99764513 15.3416571,4.10826931 15.3184312,4.25855409 L15.2397975,4.75545119 L15.1157747,4.57538298 C14.7315622,4.01709553 13.8746361,3.8304932 13.0195317,3.8304932 C11.0580896,3.8304932 9.3829472,5.31753754 9.05672329,7.40344165 C8.88715971,8.44388643 9.12822234,9.43889628 9.71797568,10.1327287 C10.2588486,10.7706413 11.0327385,11.0365648 11.9534217,11.0365648 C13.5338392,11.0365648 14.4100441,10.0193693 14.4100441,10.0193693 L14.3309549,10.5130754 C14.3012016,10.7018051 14.4464768,10.8710844 14.6356229,10.8710844 L16.2342567,10.8710844 C16.4885262,10.8710844 16.7031751,10.6866094 16.743251,10.4354257 L17.702492,4.35459047 C17.7328526,4.16738031 17.5880328,3.99764513 17.3984313,3.99764513 Z M14.9243514,7.45556281 C14.753118,8.47047897 13.9484121,9.15185104 12.9219226,9.15185104 C12.4065526,9.15185104 11.994712,8.98637062 11.73012,8.67288477 C11.467805,8.3615263 11.3682224,7.91826976 11.4515621,7.42456373 C11.6115621,6.41830908 12.4297784,5.71459943 13.4406322,5.71459943 C13.9446171,5.71459943 14.3543324,5.88235919 14.6242375,6.19842831 C14.894598,6.51799242 15.0019225,6.96398417 14.9243514,7.45556281 L14.9243514,7.45556281 Z" id="Fill-2" fill="#28356A"></path>
                <path d="M26.8511821,3.99764513 L25.0675009,3.99764513 C24.8973301,3.99764513 24.7374819,4.08228479 24.6410872,4.22390806 L22.1811252,7.85095299 L21.1383928,4.36537937 C21.0728141,4.14732208 20.8718274,3.99764513 20.6441234,3.99764513 L18.8915617,3.99764513 C18.6784308,3.99764513 18.530575,4.20597721 18.598279,4.40671149 L20.562909,10.1777079 L18.7159261,12.7877093 C18.5706509,12.9933061 18.7169887,13.2759449 18.9679185,13.2759449 L20.7493226,13.2759449 C20.9184308,13.2759449 21.0766091,13.1934326 21.1725484,13.0546965 L27.1046925,4.48314551 C27.2467798,4.27815646 27.1008974,3.99764513 26.8511821,3.99764513" id="Fill-3" fill="#28356A"></path>
                <path d="M32.756154,0.565712099 L29.049285,0.565712099 C28.7962299,0.565712099 28.5805184,0.750187057 28.5408979,1.00091496 L27.0418467,10.5145955 C27.0120933,10.7024135 27.1573685,10.8715408 27.3465146,10.8715408 L29.2487536,10.8715408 C29.4253001,10.8715408 29.5764956,10.7425299 29.6041237,10.5667165 L30.0296265,7.8699479 C30.0686398,7.61876412 30.2849586,7.43428917 30.5380136,7.43428917 L31.7108409,7.43428917 C34.1527384,7.43428917 35.5613152,6.25161322 35.929892,3.90814304 C36.0962677,2.88274188 35.9364195,2.07722149 35.4567232,1.51300772 C34.9304234,0.893481855 33.9966852,0.565712099 32.756154,0.565712099 Z M33.1837821,4.0404969 C32.981581,5.37178603 31.9654141,5.37178603 30.9823401,5.37178603 L30.4237063,5.37178603 L30.8165716,2.88547708 C30.8397974,2.7351923 30.9688296,2.62456812 31.1210877,2.62456812 L31.3774824,2.62456812 C32.0461731,2.62456812 32.6781275,2.62456812 33.0043514,3.00643429 C33.1989624,3.23421678 33.2580136,3.57277542 33.1837821,4.0404969 L33.1837821,4.0404969 Z" id="Fill-4" fill="#298FC2"></path>
                <path d="M43.8347112,3.99764513 L42.0608971,3.99764513 C41.9086391,3.99764513 41.7791514,4.10826931 41.756381,4.25855409 L41.6777472,4.75545119 L41.5531173,4.57538298 C41.1689047,4.01709553 40.312586,3.8304932 39.4573298,3.8304932 C37.4960395,3.8304932 35.8215044,5.31753754 35.4952805,7.40344165 C35.3261724,8.44388643 35.5661724,9.43889628 36.1557739,10.1327287 C36.6978611,10.7706413 37.4705367,11.0365648 38.3913716,11.0365648 C39.9716372,11.0365648 40.8479939,10.0193693 40.8479939,10.0193693 L40.7689047,10.5130754 C40.7391514,10.7018051 40.8842748,10.8710844 41.0746353,10.8710844 L42.6728136,10.8710844 C42.9258687,10.8710844 43.1415802,10.6866094 43.1812007,10.4354257 L44.1408971,4.35459047 C44.170195,4.16738031 44.0249199,3.99764513 43.8347112,3.99764513 Z M41.3607833,7.45556281 C41.1906126,8.47047897 40.3846923,9.15185104 39.3582027,9.15185104 C38.8438953,9.15185104 38.4309921,8.98637062 38.1664001,8.67288477 C37.9042369,8.3615263 37.8055652,7.91826976 37.8878422,7.42456373 C38.0489048,6.41830908 38.8660585,5.71459943 39.8769124,5.71459943 C40.3808972,5.71459943 40.7906126,5.88235919 41.0605177,6.19842831 C41.3319408,6.51799242 41.4392653,6.96398417 41.3607833,7.45556281 L41.3607833,7.45556281 Z" id="Fill-5" fill="#298FC2"></path>
                <path d="M45.9271587,0.826773046 L44.4059444,10.5145956 C44.3761911,10.7024136 44.5213144,10.871541 44.7104605,10.871541 L46.2398722,10.871541 C46.4941417,10.871541 46.7097014,10.687218 46.7487147,10.4360342 L48.2488285,0.922809433 C48.2787336,0.734991434 48.1334585,0.565256236 47.9443124,0.565256236 L46.2318267,0.565256236 C46.0806312,0.565712105 45.9505364,0.676488255 45.9271587,0.826773046" id="Fill-6" fill="#298FC2"></path>
            </g>
        </g>
    </g>
</svg>