<?xml version="1.0" encoding="UTF-8"?>
<svg width="307px" height="171px" viewBox="0 0 307 171" version="1.1" xmlns="http://www.w3.org/2000/svg" xmlns:xlink="http://www.w3.org/1999/xlink">
    <title>AB-D-gift-card</title>
    <defs>
        <rect id="path-1" x="0" y="0" width="299" height="163" rx="4"></rect>
        <filter x="-2.0%" y="-3.1%" width="104.0%" height="107.4%" filterUnits="objectBoundingBox" id="filter-3">
            <feOffset dx="0" dy="1" in="SourceAlpha" result="shadowOffsetOuter1"></feOffset>
            <feGaussianBlur stdDeviation="1.5" in="shadowOffsetOuter1" result="shadowBlurOuter1"></feGaussianBlur>
            <feColorMatrix values="0 0 0 0 0.2471   0 0 0 0 0.2471   0 0 0 0 0.2667  0 0 0 0.12 0" type="matrix" in="shadowBlurOuter1" result="shadowMatrixOuter1"></feColorMatrix>
            <feMorphology radius="0.5" operator="dilate" in="SourceAlpha" result="shadowSpreadOuter2"></feMorphology>
            <feOffset dx="0" dy="0" in="shadowSpreadOuter2" result="shadowOffsetOuter2"></feOffset>
            <feColorMatrix values="0 0 0 0 0.2471   0 0 0 0 0.2471   0 0 0 0 0.2667  0 0 0 0.07 0" type="matrix" in="shadowOffsetOuter2" result="shadowMatrixOuter2"></feColorMatrix>
            <feMerge>
                <feMergeNode in="shadowMatrixOuter1"></feMergeNode>
                <feMergeNode in="shadowMatrixOuter2"></feMergeNode>
            </feMerge>
        </filter>
    </defs>
    <g id="Gift-Card" stroke="none" stroke-width="1" fill="none" fill-rule="evenodd">
        <g id="Giftcard---Desktop-1.0" transform="translate(-366.000000, -290.000000)">
            <g id="product-image" transform="translate(312.000000, 255.000000)">
                <g id="with-icon" transform="translate(58.000000, 38.000000)">
                    <g id="Bitmap">
                        <mask id="mask-2" fill="white">
                            <use xlink:href="#path-1"></use>
                        </mask>
                        <g id="Mask">
                            <use fill="black" fill-opacity="1" filter="url(#filter-3)" xlink:href="#path-1"></use>
                            <use fill="#000000" fill-rule="evenodd" xlink:href="#path-1"></use>
                        </g>
                    </g>
                    <g id="Digital-Gift-Card" transform="translate(47.364000, 94.720000)" fill="#FFFFFF" fill-rule="nonzero">
                        <path d="M0,0.08 L4.432,0.08 C5.59466667,0.08 6.62666667,0.32 7.528,0.8 C8.42933333,1.28 9.13066667,1.944 9.632,2.792 C10.1333333,3.64 10.384,4.60266667 10.384,5.68 C10.384,6.75733333 10.1333333,7.72 9.632,8.568 C9.13066667,9.416 8.42933333,10.08 7.528,10.56 C6.62666667,11.04 5.59466667,11.28 4.432,11.28 L0,11.28 L0,0.08 Z M4.368,10.544 C5.40266667,10.544 6.31466667,10.3386667 7.104,9.928 C7.89333333,9.51733333 8.50133333,8.944 8.928,8.208 C9.35466667,7.472 9.568,6.62933333 9.568,5.68 C9.568,4.73066667 9.35466667,3.888 8.928,3.152 C8.50133333,2.416 7.89333333,1.84266667 7.104,1.432 C6.31466667,1.02133333 5.40266667,0.816 4.368,0.816 L0.816,0.816 L0.816,10.544 L4.368,10.544 Z" id="Shape"></path>
                        <polygon id="Path" points="16.416 0.08 17.232 0.08 17.232 11.28 16.416 11.28"></polygon>
                        <path d="M32.336,5.728 L33.12,5.728 L33.12,9.92 C32.6293333,10.3893333 32.0346667,10.7466667 31.336,10.992 C30.6373333,11.2373333 29.8986667,11.36 29.12,11.36 C28.0106667,11.36 27.0106667,11.1146667 26.12,10.624 C25.2293333,10.1333333 24.5306667,9.456 24.024,8.592 C23.5173333,7.728 23.264,6.75733333 23.264,5.68 C23.264,4.60266667 23.5173333,3.632 24.024,2.768 C24.5306667,1.904 25.2293333,1.22666667 26.12,0.736 C27.0106667,0.245333333 28.016,0 29.136,0 C29.9573333,0 30.712,0.130666667 31.4,0.392 C32.088,0.653333333 32.6773333,1.03466667 33.168,1.536 L32.656,2.08 C32.1866667,1.61066667 31.6613333,1.272 31.08,1.064 C30.4986667,0.856 29.856,0.752 29.152,0.752 C28.192,0.752 27.3253333,0.965333333 26.552,1.392 C25.7786667,1.81866667 25.1733333,2.408 24.736,3.16 C24.2986667,3.912 24.08,4.752 24.08,5.68 C24.08,6.59733333 24.3013333,7.432 24.744,8.184 C25.1866667,8.936 25.792,9.528 26.56,9.96 C27.328,10.392 28.192,10.608 29.152,10.608 C30.432,10.608 31.4933333,10.2666667 32.336,9.584 L32.336,5.728 Z" id="Path"></path>
                        <polygon id="Path" points="39.904 0.08 40.72 0.08 40.72 11.28 39.904 11.28"></polygon>
                        <polygon id="Path" points="49.968 0.816 45.936 0.816 45.936 0.08 54.816 0.08 54.816 0.816 50.784 0.816 50.784 11.28 49.968 11.28"></polygon>
                        <path d="M66.4,8.128 L59.904,8.128 L58.48,11.28 L57.6,11.28 L62.752,0.08 L63.568,0.08 L68.72,11.28 L67.84,11.28 L66.4,8.128 Z M66.096,7.44 L63.152,0.976 L60.224,7.44 L66.096,7.44 Z" id="Shape"></path>
                        <polygon id="Path" points="73.952 0.08 74.768 0.08 74.768 10.544 81.216 10.544 81.216 11.28 73.952 11.28"></polygon>
                        <path d="M101.824,5.728 L102.608,5.728 L102.608,9.92 C102.117333,10.3893333 101.522667,10.7466667 100.824,10.992 C100.125333,11.2373333 99.3866667,11.36 98.608,11.36 C97.4986667,11.36 96.4986667,11.1146667 95.608,10.624 C94.7173333,10.1333333 94.0186667,9.456 93.512,8.592 C93.0053333,7.728 92.752,6.75733333 92.752,5.68 C92.752,4.60266667 93.0053333,3.632 93.512,2.768 C94.0186667,1.904 94.7173333,1.22666667 95.608,0.736 C96.4986667,0.245333333 97.504,0 98.624,0 C99.4453333,0 100.2,0.130666667 100.888,0.392 C101.576,0.653333333 102.165333,1.03466667 102.656,1.536 L102.144,2.08 C101.674667,1.61066667 101.149333,1.272 100.568,1.064 C99.9866667,0.856 99.344,0.752 98.64,0.752 C97.68,0.752 96.8133333,0.965333333 96.04,1.392 C95.2666667,1.81866667 94.6613333,2.408 94.224,3.16 C93.7866667,3.912 93.568,4.752 93.568,5.68 C93.568,6.59733333 93.7893333,7.432 94.232,8.184 C94.6746667,8.936 95.28,9.528 96.048,9.96 C96.816,10.392 97.68,10.608 98.64,10.608 C99.92,10.608 100.981333,10.2666667 101.824,9.584 L101.824,5.728 Z" id="Path"></path>
                        <polygon id="Path" points="109.392 0.08 110.208 0.08 110.208 11.28 109.392 11.28"></polygon>
                        <polygon id="Path" points="118.128 0.816 118.128 5.6 124.096 5.6 124.096 6.336 118.128 6.336 118.128 11.28 117.312 11.28 117.312 0.08 124.8 0.08 124.8 0.816"></polygon>
                        <polygon id="Path" points="132.832 0.816 128.8 0.816 128.8 0.08 137.68 0.08 137.68 0.816 133.648 0.816 133.648 11.28 132.832 11.28"></polygon>
                        <path d="M154.944,11.36 C153.845333,11.36 152.856,11.1146667 151.976,10.624 C151.096,10.1333333 150.402667,9.456 149.896,8.592 C149.389333,7.728 149.136,6.75733333 149.136,5.68 C149.136,4.60266667 149.389333,3.632 149.896,2.768 C150.402667,1.904 151.096,1.22666667 151.976,0.736 C152.856,0.245333333 153.845333,0 154.944,0 C155.754667,0 156.501333,0.130666667 157.184,0.392 C157.866667,0.653333333 158.448,1.04 158.928,1.552 L158.416,2.08 C157.52,1.19466667 156.373333,0.752 154.976,0.752 C154.037333,0.752 153.184,0.965333333 152.416,1.392 C151.648,1.81866667 151.045333,2.408 150.608,3.16 C150.170667,3.912 149.952,4.752 149.952,5.68 C149.952,6.608 150.170667,7.448 150.608,8.2 C151.045333,8.952 151.648,9.54133333 152.416,9.968 C153.184,10.3946667 154.037333,10.608 154.976,10.608 C156.362667,10.608 157.509333,10.16 158.416,9.264 L158.928,9.792 C158.448,10.304 157.864,10.6933333 157.176,10.96 C156.488,11.2266667 155.744,11.36 154.944,11.36 Z" id="Path"></path>
                        <path d="M171.488,8.128 L164.992,8.128 L163.568,11.28 L162.688,11.28 L167.84,0.08 L168.656,0.08 L173.808,11.28 L172.928,11.28 L171.488,8.128 Z M171.184,7.44 L168.24,0.976 L165.312,7.44 L171.184,7.44 Z" id="Shape"></path>
                        <path d="M186.816,11.28 L184.144,7.536 C183.749333,7.58933333 183.386667,7.616 183.056,7.616 L179.856,7.616 L179.856,11.28 L179.04,11.28 L179.04,0.08 L183.056,0.08 C184.464,0.08 185.568,0.413333333 186.368,1.08 C187.168,1.74666667 187.568,2.672 187.568,3.856 C187.568,4.74133333 187.341333,5.48533333 186.888,6.088 C186.434667,6.69066667 185.786667,7.11466667 184.944,7.36 L187.744,11.28 L186.816,11.28 Z M183.056,6.896 C184.250667,6.896 185.162667,6.632 185.792,6.104 C186.421333,5.576 186.736,4.82666667 186.736,3.856 C186.736,2.88533333 186.421333,2.136 185.792,1.608 C185.162667,1.08 184.250667,0.816 183.056,0.816 L179.856,0.816 L179.856,6.896 L183.056,6.896 Z" id="Shape"></path>
                        <path d="M193.76,0.08 L198.192,0.08 C199.354667,0.08 200.386667,0.32 201.288,0.8 C202.189333,1.28 202.890667,1.944 203.392,2.792 C203.893333,3.64 204.144,4.60266667 204.144,5.68 C204.144,6.75733333 203.893333,7.72 203.392,8.568 C202.890667,9.416 202.189333,10.08 201.288,10.56 C200.386667,11.04 199.354667,11.28 198.192,11.28 L193.76,11.28 L193.76,0.08 Z M198.128,10.544 C199.162667,10.544 200.074667,10.3386667 200.864,9.928 C201.653333,9.51733333 202.261333,8.944 202.688,8.208 C203.114667,7.472 203.328,6.62933333 203.328,5.68 C203.328,4.73066667 203.114667,3.888 202.688,3.152 C202.261333,2.416 201.653333,1.84266667 200.864,1.432 C200.074667,1.02133333 199.162667,0.816 198.128,0.816 L194.576,0.816 L194.576,10.544 L198.128,10.544 Z" id="Shape"></path>
                    </g>
                    <g id="logo" transform="translate(46.000000, 58.700000)" fill="#FFFFFF">
                        <path d="M73.1159325,11.7312976 L73.1159325,4.77695502 L74.2938218,4.77695502 C77.3402751,4.77695502 78.8636834,5.89816609 78.8636834,8.14058824 C78.8636834,10.5345156 77.2977664,11.7312976 74.1662958,11.7312976 L73.1159325,11.7312976 Z M80.7515035,12.1004325 C81.6405519,10.9839446 82.0852578,9.64982699 82.0852578,8.09807958 C82.0852578,6.11107266 81.3756903,4.51245675 79.9565554,3.30114187 C78.6700329,2.2133564 76.5787526,1.66910035 73.6834412,1.66910035 L69.8093408,1.66910035 L69.8093408,23.582128 L73.1159325,23.582128 L73.1159325,14.6124394 L73.7121436,14.6124394 L79.9707249,23.582128 L84.0155865,23.582128 L77.2316419,14.2436678 C78.6885623,13.9312111 79.8620917,13.2169204 80.7515035,12.1004325 L80.7515035,12.1004325 Z" id="Fill-6"></path>
                        <polygon id="Fill-8" points="87.3085173 23.582019 99.4002301 23.582019 99.4002301 20.473801 90.6154723 20.473801 90.6154723 13.1506869 99.1448149 13.1506869 99.1448149 10.0424689 90.6154723 10.0424689 90.6154723 4.77720934 99.4002301 4.77720934 99.4002301 1.66899135 87.3085173 1.66899135"></polygon>
                        <path d="M112.38626,19.593981 C111.685775,20.1807457 110.588543,20.4739464 109.093474,20.4739464 L107.049789,20.4739464 L107.049789,13.8462301 L108.724702,13.8462301 C110.503163,13.8462301 111.738093,14.16341 112.428768,14.7970433 C113.138336,15.4404862 113.493301,16.2354343 113.493301,17.1811609 C113.493301,18.1559533 113.124166,18.9603478 112.38626,19.593981 L112.38626,19.593981 Z M107.049789,4.7061436 L108.213872,4.7061436 C109.329997,4.7061436 110.181623,4.97354844 110.768388,5.50799481 C111.354789,6.0428045 111.648353,6.82576298 111.648353,7.85687024 C111.648353,8.91667993 111.362055,9.71853114 110.78946,10.2624239 C110.216865,10.8066799 109.315827,11.0784446 108.085983,11.0784446 L107.049789,11.0784446 L107.049789,4.7061436 Z M112.982471,11.7880121 C114.183612,10.7002266 114.78491,9.37083218 114.78491,7.80019204 C114.78491,6.93911938 114.600343,6.0878564 114.231208,5.24531315 C113.871519,4.41294291 113.384668,3.71754498 112.769564,3.15911938 C112.16427,2.61994983 111.421277,2.23664533 110.541311,2.0095692 C109.670429,1.78249308 108.502349,1.66913668 107.035619,1.66913668 L103.743197,1.66913668 L103.743197,23.5821644 L108.753042,23.5821644 C110.247747,23.5821644 111.492125,23.445192 112.485446,23.1705208 C113.393751,22.8867664 114.211952,22.3806592 114.940775,21.6518356 C116.15209,20.4692232 116.757384,19.0217491 116.757384,17.3090502 C116.757384,16.0032716 116.416952,14.858808 115.735723,13.8745692 C115.063578,12.8808841 114.14619,12.1854862 112.982471,11.7880121 L112.982471,11.7880121 Z" id="Fill-10"></path>
                        <polygon id="Fill-12" points="119.622176 23.582019 131.713889 23.582019 131.713889 20.473801 122.929131 20.473801 122.929131 13.1506869 131.458474 13.1506869 131.458474 10.0424689 122.929131 10.0424689 122.929131 4.77720934 131.713889 4.77720934 131.713889 1.66899135 119.622176 1.66899135"></polygon>
                        <path d="M141.50592,15.151827 L144.912062,7.70082353 L148.161976,15.151827 L141.50592,15.151827 Z M170.239588,14.8680727 C170.239588,16.7791453 169.932218,18.1561349 169.317114,18.9979516 C168.399363,20.2564983 167.103031,20.8854083 165.428481,20.8854083 C163.763014,20.8854083 162.471405,20.2564983 161.554017,18.9979516 C160.93855,18.1274325 160.631543,16.7508062 160.631543,14.8680727 L160.631543,1.66895502 L157.324588,1.66895502 L157.324588,15.150737 L151.641872,15.150737 L144.96874,0.29232872 L134.126128,23.5819827 L137.688135,23.5819827 L140.129294,18.260045 L149.510263,18.260045 L151.809363,23.5819827 L155.428412,23.5819827 L153.038118,18.2593183 L157.646491,18.2593183 C157.986924,19.4869827 158.596941,20.5620519 159.481993,21.4816194 C161.090419,23.1470865 163.072339,23.9794567 165.428481,23.9794567 C167.78426,23.9794567 169.771266,23.1470865 171.389138,21.4816194 C172.827529,19.9869135 173.546543,18.0849239 173.546543,15.7763772 L173.546543,1.66895502 L170.239588,1.66895502 L170.239588,14.8680727 Z" id="Fill-14"></path>
                        <path d="M35.646955,18.4302249 C34.8520069,19.1492388 33.9625952,19.6746021 32.9787197,20.0055882 C31.994481,20.3176817 30.7599135,20.47391 29.274654,20.47391 L27.784308,20.47391 L27.784308,4.77695502 L29.274654,4.77695502 C32.0940311,4.77695502 34.2278201,5.44401384 35.6752941,6.77813149 C37.2837197,8.27320069 38.0881142,10.2224221 38.0881142,12.6254325 C38.0881142,15.0099135 37.2742734,16.9449654 35.646955,18.4302249 L35.646955,18.4302249 Z M7.37979239,15.1519723 L10.7859343,7.70060554 L14.0362111,15.1519723 L7.37979239,15.1519723 Z M38.0310727,4.49320069 C36.9145848,3.47153979 35.6702076,2.74743945 34.2986678,2.32198962 C33.0212284,1.8867301 31.2801903,1.66910035 29.075917,1.66910035 L24.4777163,1.66910035 L24.4777163,15.1508824 L17.5161073,15.1508824 L10.8426125,0.292474048 L0,23.582128 L3.56200692,23.582128 L6.00316609,18.259827 L15.3841349,18.259827 L17.6835986,23.582128 L21.3026471,23.582128 L18.9119896,18.2591003 L24.4777163,18.2591003 L24.4777163,23.582128 L29.0192388,23.582128 C31.2424048,23.582128 32.959827,23.3786678 34.1711419,22.9717474 C35.4671107,22.5651903 36.7064014,21.8414533 37.8893772,20.800173 C40.2451557,18.7190657 41.423045,15.9941522 41.423045,12.6254325 C41.423045,9.26688581 40.2923875,6.55614187 38.0310727,4.49320069 L38.0310727,4.49320069 Z" id="Fill-1"></path>
                        <path d="M61.1083651,18.5011817 C59.5279152,20.0907145 57.5885035,20.8852993 55.2894031,20.8852993 C53.1697837,20.8852993 51.301583,20.1048841 49.6837111,18.5436903 C48.0560294,16.9824965 47.2425519,14.9911298 47.2425519,12.5688633 C47.2425519,10.2603166 48.0276903,8.32054152 49.5983304,6.74990138 C51.1689706,5.16036851 53.0942128,4.36542042 55.3747837,4.36542042 C57.6644377,4.36542042 59.5849567,5.16036851 61.1367042,6.74990138 C62.6978979,8.32998789 63.4783131,10.2886557 63.4783131,12.6255415 C63.4783131,14.9344516 62.6884516,16.8927561 61.1083651,18.5011817 M55.4172924,1.25756574 C52.2571194,1.25756574 49.5507353,2.36424394 47.2992301,4.57832699 C45.0379152,6.79241003 43.9072578,9.4417526 43.9072578,12.5263547 C43.9072578,16.0367699 45.1465484,18.8750398 47.6258564,21.0415277 C49.8773616,23.0001955 52.4177076,23.9793478 55.2468945,23.9793478 C58.4448529,23.9793478 61.1744896,22.8773927 63.4358045,20.6727561 C65.687673,18.4779291 66.8136073,15.8046073 66.8136073,12.6538806 C66.8136073,9.52241003 65.6923962,6.84000519 63.449974,4.60666609 C61.2169983,2.37405363 58.5396799,1.25756574 55.4172924,1.25756574" id="Fill-3"></path>
                        <polygon id="Fill-17" points="176.498351 4.77710035 181.536535 4.77710035 181.536535 23.58191 184.84349 23.58191 184.84349 4.77710035 189.867503 4.77710035 189.867503 1.66888235 176.498351 1.66888235"></polygon>
                        <polygon id="Fill-19" points="205.937372 1.66899135 200.913358 10.4257734 195.903514 1.66899135 192.099898 1.66899135 199.252978 14.1156696 199.252978 23.582019 202.559569 23.582019 202.559569 14.1156696 209.740988 1.66899135"></polygon>
                    </g>
                </g>
            </g>
        </g>
    </g>
</svg>