<?xml version="1.0" encoding="UTF-8"?>
<svg xmlns="http://www.w3.org/2000/svg" xmlns:xlink="http://www.w3.org/1999/xlink" width="195pt" height="48pt" viewBox="0 0 195 48" version="1.1">
<g id="surface1">
<path style=" stroke:none;fill-rule:nonzero;fill:rgb(0%,0%,0%);fill-opacity:1;" d="M 44.613281 28.652344 C 43.992188 29.214844 43.34375 29.601562 42.574219 29.867188 C 41.835938 30.105469 40.890625 30.222656 39.738281 30.222656 L 38.617188 30.222656 L 38.617188 18.222656 L 39.738281 18.222656 C 41.894531 18.222656 43.519531 18.726562 44.613281 19.761719 C 45.855469 20.917969 46.445312 22.398438 46.445312 24.238281 C 46.476562 26.042969 45.855469 27.527344 44.613281 28.652344 M 23.339844 26.164062 L 25.941406 20.472656 L 28.421875 26.164062 Z M 46.414062 18.015625 C 45.558594 17.246094 44.613281 16.679688 43.578125 16.355469 C 42.605469 16.03125 41.273438 15.851562 39.589844 15.851562 L 36.074219 15.851562 L 36.074219 26.164062 L 31.050781 26.164062 L 25.96875 15.082031 L 17.726562 32.59375 L 20.445312 32.59375 L 22.308594 28.535156 L 29.457031 28.535156 L 31.199219 32.59375 L 33.949219 32.59375 L 32.117188 28.535156 L 36.074219 28.535156 L 36.074219 32.59375 L 39.53125 32.59375 C 41.214844 32.59375 42.546875 32.445312 43.460938 32.117188 C 44.4375 31.820312 45.382812 31.257812 46.296875 30.460938 C 48.101562 28.859375 48.988281 26.785156 48.988281 24.207031 C 49.015625 21.660156 48.128906 19.585938 46.414062 18.015625 "/>
<path style=" stroke:none;fill-rule:nonzero;fill:rgb(0%,0%,0%);fill-opacity:1;" d="M 64.203125 28.621094 C 62.992188 29.867188 61.484375 30.488281 59.683594 30.488281 C 58.027344 30.488281 56.578125 29.867188 55.339844 28.652344 C 54.066406 27.4375 53.449219 25.867188 53.449219 23.96875 C 53.449219 22.164062 54.066406 20.652344 55.28125 19.40625 C 56.492188 18.164062 57.996094 17.539062 59.769531 17.539062 C 61.542969 17.539062 63.050781 18.164062 64.230469 19.40625 C 65.441406 20.652344 66.035156 22.191406 66.035156 24 C 66.0625 25.808594 65.441406 27.347656 64.203125 28.621094 M 59.800781 15.082031 C 57.347656 15.082031 55.25 15.941406 53.507812 17.6875 C 51.761719 19.4375 50.878906 21.511719 50.878906 23.910156 C 50.878906 26.667969 51.851562 28.890625 53.773438 30.578125 C 55.515625 32.117188 57.496094 32.890625 59.683594 32.890625 C 62.164062 32.890625 64.289062 32.03125 66.035156 30.3125 C 67.777344 28.59375 68.664062 26.488281 68.664062 24.03125 C 68.664062 21.570312 67.808594 19.464844 66.0625 17.71875 C 64.289062 15.96875 62.222656 15.082031 59.800781 15.082031 "/>
<path style=" stroke:none;fill-rule:nonzero;fill:rgb(0%,0%,0%);fill-opacity:1;" d="M 73.449219 23.554688 L 73.449219 18.222656 L 74.335938 18.222656 C 76.671875 18.222656 77.824219 19.082031 77.824219 20.800781 C 77.824219 22.636719 76.640625 23.554688 74.246094 23.554688 Z M 79.269531 23.820312 C 79.949219 22.964844 80.273438 21.957031 80.273438 20.769531 C 80.273438 19.257812 79.742188 18.015625 78.648438 17.097656 C 77.675781 16.265625 76.078125 15.851562 73.863281 15.851562 L 70.910156 15.851562 L 70.910156 32.59375 L 73.421875 32.59375 L 73.421875 25.75 L 73.863281 25.75 L 78.648438 32.621094 L 81.722656 32.621094 L 76.550781 25.480469 C 77.703125 25.214844 78.589844 24.679688 79.269531 23.820312 "/>
<path style=" stroke:none;fill-rule:nonzero;fill:rgb(0%,0%,0%);fill-opacity:1;" d="M 83.96875 32.59375 L 93.1875 32.59375 L 93.1875 30.222656 L 86.507812 30.222656 L 86.507812 24.621094 L 93.007812 24.621094 L 93.007812 22.25 L 86.507812 22.25 L 86.507812 18.222656 L 93.1875 18.222656 L 93.1875 15.851562 L 83.96875 15.851562 Z M 83.96875 32.59375 "/>
<path style=" stroke:none;fill-rule:nonzero;fill:rgb(0%,0%,0%);fill-opacity:1;" d="M 104.828125 18.695312 C 103.792969 16.679688 101.992188 16.621094 101.546875 16.621094 C 99.566406 16.621094 98.445312 18.042969 98.445312 19.734375 C 98.445312 21.539062 99.6875 22.132812 101.371094 22.964844 C 103.023438 23.761719 103.851562 24.117188 104.710938 24.710938 C 105.449219 25.214844 106.480469 26.105469 106.480469 27.941406 C 106.480469 30.753906 104.117188 32.828125 101.28125 32.828125 C 99.125 32.828125 98.03125 31.792969 97.410156 31.082031 C 96.761719 30.339844 96.496094 29.6875 96.347656 29.246094 L 97.292969 28.800781 C 97.53125 29.453125 97.941406 30.105469 98.210938 30.398438 C 98.949219 31.347656 100.1875 31.820312 101.339844 31.820312 C 103.585938 31.820312 105.359375 30.164062 105.359375 27.941406 C 105.359375 27.023438 105.003906 26.074219 103.734375 25.304688 C 103.261719 25.035156 102.285156 24.535156 100.898438 23.851562 C 99.242188 23.050781 98.414062 22.605469 97.855469 21.628906 C 97.46875 21.007812 97.324219 20.386719 97.324219 19.734375 C 97.324219 17.808594 98.621094 15.554688 101.605469 15.554688 C 103.289062 15.554688 104.796875 16.355469 105.65625 17.957031 Z M 104.828125 18.695312 "/>
<path style=" stroke:none;fill-rule:nonzero;fill:rgb(0%,0%,0%);fill-opacity:1;" d="M 126.039062 24.265625 C 126.039062 29.097656 122.257812 32.890625 117.382812 32.890625 C 112.480469 32.890625 108.726562 29.097656 108.726562 24.265625 C 108.726562 19.4375 112.507812 15.613281 117.382812 15.613281 C 122.257812 15.613281 126.039062 19.4375 126.039062 24.265625 Z M 124.886719 24.265625 C 124.886719 19.96875 121.699219 16.621094 117.382812 16.621094 C 113.070312 16.621094 109.878906 19.96875 109.878906 24.265625 C 109.878906 28.535156 113.070312 31.882812 117.382812 31.882812 C 121.699219 31.882812 124.886719 28.535156 124.886719 24.265625 Z M 124.886719 24.265625 "/>
<path style=" stroke:none;fill-rule:nonzero;fill:rgb(0%,0%,0%);fill-opacity:1;" d="M 135.644531 19.257812 C 134.226562 17.570312 132.15625 16.621094 130 16.621094 C 125.714844 16.621094 122.523438 20.058594 122.523438 24.296875 C 122.523438 29.273438 126.660156 31.851562 130.03125 31.851562 C 131.714844 31.851562 133.929688 31.171875 135.644531 29.304688 L 135.644531 30.753906 C 133.929688 32.265625 131.890625 32.828125 130.089844 32.828125 C 125.066406 32.828125 121.371094 28.890625 121.371094 24.207031 C 121.371094 19.378906 125.242188 15.554688 130.03125 15.554688 C 133.21875 15.554688 135.140625 17.273438 135.644531 17.75 Z M 135.644531 19.257812 "/>
<path style=" stroke:none;fill-rule:nonzero;fill:rgb(0%,0%,0%);fill-opacity:1;" d="M 140.339844 15.851562 L 140.339844 32.59375 L 139.246094 32.59375 L 139.246094 15.851562 Z M 140.339844 15.851562 "/>
<path style=" stroke:none;fill-rule:nonzero;fill:rgb(0%,0%,0%);fill-opacity:1;" d="M 152.867188 16.859375 L 145.953125 16.859375 L 145.953125 22.933594 L 152.71875 22.933594 L 152.71875 23.941406 L 145.953125 23.941406 L 145.953125 31.613281 L 152.867188 31.613281 L 152.867188 32.621094 L 144.863281 32.621094 L 144.863281 15.851562 L 152.867188 15.851562 Z M 152.867188 16.859375 "/>
<path style=" stroke:none;fill-rule:nonzero;fill:rgb(0%,0%,0%);fill-opacity:1;" d="M 160.019531 16.859375 L 160.019531 32.59375 L 158.925781 32.59375 L 158.925781 16.859375 L 154.582031 16.859375 L 154.582031 15.851562 L 163.800781 15.851562 L 163.800781 16.859375 Z M 160.019531 16.859375 "/>
<path style=" stroke:none;fill-rule:nonzero;fill:rgb(0%,0%,0%);fill-opacity:1;" d="M 170.773438 25.453125 L 165.277344 15.851562 L 166.519531 15.851562 L 171.363281 24.324219 L 176.269531 15.851562 L 177.507812 15.851562 L 171.867188 25.453125 L 171.867188 32.59375 L 170.773438 32.59375 Z M 170.773438 25.453125 "/>
</g>
</svg>
