<?xml version="1.0" encoding="UTF-8"?>
<svg width="242px" height="24px" viewBox="0 0 242 24" version="1.1" xmlns="http://www.w3.org/2000/svg" xmlns:xlink="http://www.w3.org/1999/xlink">
    <title>Be-Rewarded-Logo-Black-RGB-01</title>
    <g id="APP---Adore-Society" stroke="none" stroke-width="1" fill="none" fill-rule="evenodd">
        <g id="AB-APP-Social-Sign-Pre-form" transform="translate(-67.000000, -124.000000)" fill="#FFFFFF" fill-rule="nonzero">
            <g id="Be-Rewarded-Logo-Black-RGB-01" transform="translate(67.000000, 124.000000)">
                <path d="M237.589645,20.0881086 C238.778149,20.1058919 239.904863,19.5608518 240.627153,18.6187358 L240.627153,19.8928541 L242,19.8928541 L242,10.5007817 L240.627153,10.5007817 L240.627153,15.6832995 C240.627153,17.5398719 239.353787,18.8106809 237.785292,18.8106809 C236.312963,18.8106809 235.132447,17.6391539 235.132447,15.9745265 L235.132447,10.5007817 L233.766232,10.5007817 L233.766232,15.9778359 C233.766232,18.4234813 235.42426,20.0881086 237.589645,20.0881086 M225.940339,18.8139903 C224.445429,18.9091086 223.044215,18.0824577 222.407038,16.7295076 C221.769862,15.3765574 222.026268,13.7723768 223.053591,12.6844062 C224.080914,11.5964356 225.670289,11.2458707 227.061359,11.8004218 C228.452429,12.354973 229.362374,13.7018942 229.355877,15.1968179 C229.409813,17.1355287 227.88273,18.7527622 225.940339,18.8139903 M225.940339,20.0881086 C227.931216,20.128446 229.748651,18.9626364 230.538697,17.1384513 C231.328743,15.3142662 230.934336,13.194361 229.540792,11.7748021 C228.147249,10.3552431 226.031612,9.91824443 224.187943,10.6691358 C222.344273,11.4200272 221.139099,13.2095284 221.138689,15.1968179 C221.12099,16.4822267 221.617996,17.7215414 222.519446,18.6398202 C223.420895,19.5580989 224.652252,20.0794129 225.940339,20.0881086 M212.102435,23.9999116 C213.475283,23.9999116 214.257872,23.2187994 215.043778,21.262945 L219.354651,10.5007817 L217.882322,10.5007817 L214.84813,18.1322542 L211.807306,10.5007817 L210.354874,10.5007817 L214.178287,19.8928541 L213.67093,21.262945 C213.319428,22.2557645 212.788859,22.7290085 211.906788,22.7290085 C211.566591,22.7197553 211.230343,22.6537593 210.911971,22.533754 L210.911971,23.8045629 C211.290205,23.9367077 211.688441,24.0027606 212.089171,23.9999116 M199.080282,18.4234813 C197.422254,18.4234813 196.039458,16.9574178 196.039458,15.0015634 C196.039458,13.045709 197.412306,11.5763362 199.080282,11.5763362 C200.844424,11.5763362 202.213955,13.0423996 202.213955,15.0015634 C202.213955,16.9607272 200.83116,18.4234813 199.080282,18.4234813 M198.9808,23.9998174 C200.218408,23.995586 201.40263,23.4962533 202.268357,22.6136042 C203.134083,21.7309552 203.609005,20.5387121 203.586803,19.3037812 L203.586803,10.5007817 L202.213955,10.5007817 L202.213955,11.7715907 C202.213955,11.7715907 201.331884,10.3055272 199.080282,10.3055272 C196.629716,10.3055272 194.666611,12.3573542 194.666611,15.0015634 C194.666611,17.6457727 196.616452,19.6975996 199.080282,19.6975996 C201.331884,19.6975996 202.213955,18.2282268 202.213955,18.2282268 L202.213955,19.3037812 C202.213955,21.262945 200.744942,22.7290085 198.9808,22.7290085 C197.781753,22.6981002 196.662764,22.1214414 195.943293,21.1636631 L195.061222,22.043963 C195.978614,23.2846053 197.435854,24.0117624 198.9808,23.9998174 M183.395335,19.8928541 L184.768183,19.8928541 L184.768183,14.707027 C184.768183,12.8471451 186.041548,11.5763362 187.709525,11.5763362 C189.178538,11.5763362 190.256256,12.6518906 190.256256,14.316518 L190.256256,19.8928541 L191.629103,19.8928541 L191.629103,14.316518 C191.629103,11.8708726 190.060609,10.3055051 187.80569,10.3055051 C186.597899,10.3013677 185.464067,10.8856751 184.768183,11.8708726 L184.768183,10.5007817 L183.395335,10.5007817 L183.395335,19.8928541 Z M178.98498,8.25039713 C179.341745,8.25039713 179.66338,8.03591266 179.799908,7.70696711 C179.936435,7.37802156 179.860969,6.99938886 179.608699,6.74762484 C179.356428,6.49586082 178.977034,6.42054609 178.647426,6.55679979 C178.317819,6.6930535 178.102903,7.01404281 178.102903,7.3700909 C178.102024,7.60383076 178.194672,7.82825232 178.360284,7.99353254 C178.525897,8.15881276 178.75077,8.25127457 178.98498,8.25039713 M178.298557,19.8928541 L179.671404,19.8928541 L179.671404,10.5007817 L178.298557,10.5007817 L178.298557,19.8928541 Z M167.501477,14.5117725 C167.709589,12.8718225 169.082343,11.6267528 170.737948,11.5763362 C172.395976,11.5763362 173.675974,12.8471451 173.874937,14.5117725 L167.501477,14.5117725 Z M170.834114,20.0881086 C172.371821,20.0658016 173.81568,19.3459308 174.757008,18.1322542 L173.878253,17.2519543 C173.160677,18.2132641 172.038332,18.7897994 170.83743,18.8139903 C169.083474,18.783625 167.639569,17.4285639 167.501477,15.6832995 L175.148303,15.6832995 C175.211693,15.454788 175.244038,15.2188136 175.244469,14.981707 C175.244469,12.2415252 173.284679,10.2856708 170.737948,10.2856708 C168.287382,10.2856708 166.12863,12.4367797 166.12863,15.1769615 C166.12863,17.9171433 168.287382,20.0682522 170.834114,20.0682522 M159.168227,18.7941339 C157.510199,18.7941339 155.935072,17.2320979 155.935072,15.1769615 C155.935072,13.1218252 157.503567,11.5564798 159.168227,11.5564798 C160.935685,11.5564798 162.404698,13.0225432 162.404698,15.1769615 C162.404698,17.3313798 160.945633,18.8139903 159.168227,18.8139903 M159.168227,20.0881747 C161.718275,20.0881747 163.777546,18.0329723 163.777546,15.1968179 C163.777546,12.3606636 161.718275,10.3055272 159.168227,10.3055272 C157.905508,10.2983479 156.711014,10.8766671 155.935072,11.8708726 L155.935072,6.1952545 L154.562225,6.1952545 L154.562225,19.8928541 L155.935072,19.8928541 L155.935072,18.5227632 C156.711014,19.5169687 157.905508,20.095288 159.168227,20.0881747 M142.800173,19.8928541 L144.17302,19.8928541 L144.17302,14.707027 C144.138358,13.9096516 144.433871,13.1331532 144.990199,12.5597902 C145.546527,11.9864272 146.314681,11.6666868 147.114362,11.6756181 L147.701304,11.6756181 L147.701304,10.3055272 L147.310009,10.3055272 C146.090004,10.2674343 144.924864,10.8119594 144.17302,11.7715907 L144.17302,10.5007817 L142.800173,10.5007817 L142.800173,19.8928541 Z M134.957699,18.8139903 C133.464202,18.8994788 132.069802,18.0662429 131.440087,16.7120112 C130.810372,15.3577795 131.073013,13.7571135 132.102644,12.6740592 C133.132275,11.591005 134.720145,11.2451447 136.108316,11.8015679 C137.496486,12.3579911 138.403515,13.7038866 138.39645,15.1968179 C138.422305,16.130795 138.075153,17.0367359 137.431433,17.7151646 C136.787713,18.3935932 135.900207,18.7888808 134.964331,18.8139903 M134.964331,20.0881086 C136.955209,20.128446 138.772644,18.9626364 139.56269,17.1384513 C140.352736,15.3142662 139.958328,13.194361 138.564785,11.7748021 C137.171242,10.3552431 135.055605,9.91824443 133.211935,10.6691358 C131.368266,11.4200272 130.163092,13.2095284 130.162682,15.1968179 C130.144983,16.4822267 130.641988,17.7215414 131.543438,18.6398202 C132.444888,19.5580989 133.676245,20.0794129 134.964331,20.0881086 M124.469013,19.8928541 L125.84186,19.8928541 L125.84186,11.7715907 L128.096779,11.7715907 L128.096779,10.5007817 L125.84186,10.5007817 L125.84186,8.73356301 C125.84186,7.74074351 126.332637,7.26419016 127.115226,7.26419016 C127.556588,7.27343161 127.99126,7.37371253 128.391908,7.55872661 L128.391908,6.29453645 C127.960069,6.10131224 127.492315,6.00095834 127.01906,6 C125.450566,6 124.469013,6.99281949 124.469013,8.74018181 L124.469013,10.5007817 L123,10.5007817 L123,11.7715907 L124.469013,11.7715907 L124.469013,19.8928541 Z" id="Shape"></path>
                <path d="M115.807464,6.52568002 C115.807464,6.52568002 115.771084,6.54543485 115.751239,6.5520198 C115.731395,6.55860474 115.751239,6.52568002 115.751239,6.5158026 L115.807464,6.45983057 C115.810824,6.48165295 115.810824,6.50385764 115.807464,6.52568002 L115.807464,6.52568002 Z M105.465389,17.3480363 C105.443346,17.183268 105.437828,17.0167306 105.448852,16.850873 C105.481908,16.5085885 105.551763,16.1708231 105.657215,15.8433765 C105.809353,15.3527981 106.02433,14.891852 106.206234,14.4210285 C106.265688,14.2961612 106.333074,14.1751922 106.407983,14.0588565 C106.487359,13.9139878 106.560121,13.769119 106.659341,13.5715707 L106.914007,13.2423234 C107.148828,12.9130762 107.38365,12.583829 107.625087,12.2809215 C107.956485,11.857418 108.321462,11.461051 108.716511,11.0956315 C109.220509,10.5845571 109.797858,10.1507187 110.429717,9.80827486 C110.515708,9.76547272 110.581855,9.67986844 110.671154,9.65352866 C110.869594,9.59097169 111.071343,9.54816955 111.243325,9.50536741 C111.396955,9.51206981 111.532593,9.60723228 111.590596,9.74901036 C111.666138,9.94059108 111.726948,10.137609 111.7725,10.3383629 C111.789002,10.4583484 111.795638,10.5794745 111.792344,10.7005348 C111.537679,11.0100272 111.292935,11.3096422 111.044884,11.6026722 C110.796833,11.8957023 110.495864,12.221657 110.227969,12.5377344 C109.784784,13.0612375 109.344907,13.594618 108.90503,14.124706 L107.823527,15.4416949 C107.532481,15.790697 107.244742,16.1429915 106.940466,16.4821161 C106.63619,16.8212408 106.388139,17.0582988 106.093785,17.331574 C105.954367,17.4730288 105.773935,17.5674451 105.577838,17.6015567 C105.530778,17.5325712 105.494015,17.4571573 105.468696,17.3776686 M115.506496,6.84175735 C115.506496,6.92736163 115.506496,6.92736163 115.403968,7.0261358 C115.393422,7.07943479 115.376777,7.13135544 115.354358,7.180882 C115.192298,7.43769483 115.000472,7.67804531 114.861563,7.94473556 C114.688423,8.19102795 114.533665,8.44963219 114.398534,8.71846654 C114.131538,9.06078844 113.889484,9.42168657 113.674225,9.79839744 C113.442711,10.1276447 113.313724,10.506279 113.08221,10.8322337 C112.850696,11.1581885 112.8077,11.5532852 112.553034,11.8529001 C112.084771,12.7437221 111.698441,13.6748986 111.39877,14.6350392 C111.235773,15.1451604 111.111942,15.6668724 111.028347,16.195671 C110.96447,16.6459709 110.940124,17.1009549 110.955585,17.5554621 C110.961116,17.8605543 111.049085,18.1585324 111.210251,18.4180898 C111.300877,18.5686299 111.452027,18.6732282 111.625347,18.7053434 C111.798667,18.7374587 111.977499,18.694004 112.116464,18.5860059 C112.22742,18.5154852 112.263714,18.3709623 112.199148,18.2567587 L111.709661,18.1711544 C111.676587,18.0526254 111.640206,17.9505588 111.617055,17.8419072 C111.538267,17.3499545 111.573334,16.8465884 111.719583,16.3701721 C111.887708,15.6772178 112.108843,14.9980841 112.381052,14.3387167 C112.754783,13.4629191 113.141742,12.5969989 113.551853,11.7376636 C113.633546,11.6110538 113.706477,11.4790491 113.770138,11.3425669 C113.8794,11.0624119 114.021497,10.7960743 114.193479,10.5490811 C114.238711,10.4792157 114.279579,10.406644 114.315851,10.3317779 C114.472947,10.0124173 114.648531,9.70240352 114.841719,9.40330077 C114.960783,9.21892233 115.050082,9.01478905 115.172454,8.82711813 C115.294825,8.63944721 115.410583,8.45836123 115.529647,8.27069031 C115.714859,7.97766028 115.896763,7.68463025 116.081974,7.39489269 C116.412709,6.89772938 116.7236,6.40715102 117.04772,5.90011029 C117.37184,5.39306956 117.709189,4.85310411 118.063075,4.33947844 C118.416962,3.82585277 118.823765,3.24967012 119.197496,2.69324231 C119.356248,2.46606172 119.495157,2.22571125 119.660524,2.00840808 C120.037562,1.49807488 120.427829,0.997619095 120.811481,0.490578367 C120.877628,0.404974088 120.933853,0.309492392 121,0.20413328 C120.95039,0.138283835 120.904087,0.0724343897 120.854477,0 C120.78406,0.017503696 120.717017,0.0464249331 120.656036,0.0856042787 C120.536971,0.197548336 120.427829,0.325954754 120.325301,0.447776227 C119.892039,0.912014816 119.508386,1.41905554 119.108197,1.90963391 C118.3442,2.84140356 117.573588,3.76000332 116.793054,4.68518802 C116.23742,5.34368248 115.681785,6.02851671 115.13938,6.70018105 C114.388612,7.62207328 113.654381,8.5571354 112.860618,9.43951797 C112.811007,9.48890505 112.777934,9.55146202 112.69525,9.52841472 C112.604462,9.32591554 112.493672,9.13290515 112.364516,8.95223207 C112.212912,8.79125857 112.045621,8.64567503 111.865106,8.51762573 C111.7881,8.51716496 111.711448,8.50721178 111.636899,8.48799348 C111.57645,8.4590496 111.511653,8.4401427 111.445073,8.43202146 C111.197739,8.41254678 110.948912,8.43821021 110.710842,8.50774832 C110.265812,8.65935534 109.847337,8.87931619 109.470586,9.15965782 C109.140563,9.38879034 108.823665,9.63611169 108.521378,9.90046408 C108.222408,10.1629752 107.937579,10.4410279 107.668082,10.7334596 C107.298834,11.1080732 106.966574,11.5171195 106.675878,11.9549668 C106.60856,12.0900442 106.531172,12.2199115 106.444363,12.3434785 C106.277009,12.5091169 106.142383,12.7045637 106.047482,12.9196611 C105.954667,13.1274107 105.844011,13.3267966 105.716747,13.5155986 C105.709107,13.5265913 105.703506,13.5388574 105.70021,13.5518158 C105.70021,13.7888738 105.534843,13.950205 105.448852,14.1510458 C105.32648,14.4440758 105.21403,14.7371058 105.118117,15.0367208 C104.917557,15.5943635 104.80596,16.1798344 104.787382,16.7718537 C104.756958,17.1331442 104.84142,17.4948122 105.028819,17.80569 C105.143471,18.0004593 105.362331,18.1100419 105.58776,18.0855501 C105.80838,18.0673742 106.019344,17.9874773 106.196312,17.8550771 C106.500761,17.6172382 106.77903,17.3479464 107.026457,17.0517138 C107.357191,16.6895419 107.661467,16.2878603 107.969051,15.8993485 C108.385776,15.3824304 108.785965,14.8523424 109.205999,14.3420092 C109.811243,13.6044954 110.429717,12.8801515 111.041577,12.1525151 C111.253247,11.8957023 111.471532,11.6454744 111.703046,11.3952465 C111.749349,11.3425669 111.798959,11.2964723 111.88495,11.335982 C111.912775,11.4496305 111.952689,11.560003 112.004015,11.6652292 C112.059234,11.7428694 112.136352,11.8024534 112.225607,11.8364378 C112.275217,11.8594851 112.351286,11.8364378 112.430662,11.8364378 C112.654833,11.3165987 112.767483,10.7558847 112.761397,10.1902016 C112.810877,10.102902 112.864973,10.0182764 112.923457,9.93668128 C113.135128,9.68316091 113.350105,9.43622549 113.561775,9.18270513 L114.593668,7.94144309 C114.821875,7.66487542 115.046774,7.38501528 115.278289,7.10844761 C115.321284,7.05576805 115.360972,6.99650355 115.443656,7.00967344 C115.384124,6.9076068 115.433734,6.85492724 115.503188,6.80883263 L115.506496,6.84175735 Z M97.1374874,12.6101688 C97.200327,12.4422527 97.2830107,12.2809215 97.3723091,12.0866657 C97.6600483,11.7804657 97.961017,11.4281712 98.2917517,11.098924 C98.933249,10.4677648 99.732545,10.0187621 100.606895,9.79839744 L101.000469,9.89387914 C101.018558,9.95027459 101.02749,10.0091823 101.026953,10.0683802 C100.90621,10.5550215 100.63977,10.9936459 100.262931,11.3261046 C99.3561434,12.1878839 98.318014,12.9013049 97.1870976,13.4398718 C97.095187,13.4739586 97.0013113,13.5025444 96.9059731,13.525476 C96.8843692,13.4562882 96.8754076,13.3838034 96.8795143,13.3114653 C96.952276,13.0744073 97.0316523,12.8373493 97.1209507,12.6068763 M106.880933,12.1228829 C106.796172,12.149116 106.715886,12.1879681 106.642804,12.2381194 C105.938339,12.6529709 105.260333,13.1172095 104.542639,13.5123062 C104.059766,13.7789964 103.576893,14.0423942 103.087406,14.299207 C102.290324,14.7339447 101.44586,15.0763971 100.570514,15.3198734 C99.9174313,15.4992104 99.2393735,15.571493 98.5629542,15.5338841 C97.983215,15.5200894 97.4311597,15.2842214 97.0217303,14.8753897 C96.9820421,14.6943037 96.8431335,14.5461424 96.8960511,14.2926221 C97.0514964,14.2300651 97.2267858,14.1609232 97.3789238,14.1016587 C98.1222127,13.8390452 98.8213484,13.4660738 99.4526307,12.995388 C99.7635214,12.75833 100.090949,12.5344419 100.378688,12.2710441 C100.860394,11.8574763 101.263663,11.3612326 101.569333,10.805894 C101.648439,10.6670669 101.70956,10.5188231 101.751237,10.3647027 C101.848401,10.0889086 101.804267,9.7832663 101.633002,9.54588487 C101.461737,9.30850344 101.18489,9.16925139 100.891327,9.17282771 C100.820011,9.16295675 100.747665,9.16295675 100.676349,9.17282771 C100.467986,9.21233738 100.259624,9.26172446 100.051261,9.31111155 C99.3794498,9.50588029 98.7578257,9.84281033 98.2289121,10.2988532 C97.7118785,10.6812492 97.2644338,11.1489531 96.9059731,11.6816916 C96.5680581,12.140945 96.3344584,12.6678313 96.2213522,13.2258611 C96.1750493,13.5057212 96.1320538,13.7855813 96.0824436,14.0819039 C96.1386685,14.2300651 96.2081228,14.3913962 96.2643477,14.5593123 C96.4937282,15.3029581 97.0928942,15.8757696 97.8485671,16.0738496 C98.5902937,16.2745168 99.3723737,16.2745168 100.1141,16.0738496 C100.816767,15.8801895 101.506131,15.6415369 102.177885,15.3593831 C103.039798,15.0229296 103.862605,14.5946098 104.631937,14.0819039 C105.061892,13.7987512 105.491847,13.5123062 105.915188,13.2159836 C106.245923,12.9822181 106.576657,12.7319902 106.907392,12.4850548 C107.012635,12.4244323 107.068239,12.3044975 107.046301,12.1854398 C106.993383,12.1854398 106.927236,12.1360527 106.874319,12.1492226 M95.5698047,6.52568002 C95.5698047,6.52568002 95.5334239,6.54543485 95.5135798,6.5520198 C95.4937357,6.55860474 95.5135798,6.52568002 95.5135798,6.5158026 L95.5698047,6.45983057 C95.5731648,6.48165295 95.5731648,6.50385764 95.5698047,6.52568002 L95.5698047,6.52568002 Z M85.2310362,17.3480363 C85.208994,17.183268 85.2034761,17.0167306 85.2144995,16.850873 C85.2475561,16.5085885 85.3174103,16.1708231 85.4228624,15.8433765 C85.5750004,15.3527981 85.789978,14.891852 85.9718821,14.4210285 C86.031336,14.2961612 86.098722,14.1751922 86.1736303,14.0588565 C86.2530066,13.9139878 86.3257683,13.769119 86.4249887,13.5715707 L86.6796545,13.2423234 C86.9144761,12.9130762 87.1492978,12.583829 87.3907342,12.2809215 C87.7221322,11.857418 88.0871102,11.461051 88.4821589,11.0956315 C88.9839955,10.5789868 89.560274,10.1395673 90.1920576,9.7918125 C90.2780486,9.74901036 90.3475029,9.66340608 90.4334939,9.6370663 C90.6319348,9.57450933 90.833683,9.53170719 91.0056651,9.48890505 C91.159295,9.49560745 91.2949329,9.59076992 91.3529366,9.732548 C91.4284784,9.92412872 91.4892881,10.1211467 91.5348407,10.3219005 C91.5513421,10.441886 91.5579788,10.5630121 91.5546848,10.6840725 C91.300019,10.9935649 91.0552753,11.2931798 90.8072242,11.5862099 C90.5591731,11.8792399 90.2582045,12.2051947 89.9903094,12.521272 C89.5471248,13.0447751 89.1072476,13.5781556 88.6673703,14.1082436 L87.5858677,15.4252325 C87.2948211,15.7742346 87.0070819,16.1265291 86.7028059,16.4656538 C86.3985299,16.8047784 86.1504789,17.0418364 85.8561249,17.3151116 C85.7171153,17.4571112 85.5364945,17.5516258 85.3401787,17.5850943 C85.2931187,17.5161089 85.2563554,17.4406949 85.2310362,17.3612062 M95.2688361,6.82529499 C95.2688361,6.91089927 95.2688361,6.91089927 95.1663083,7.00967344 C95.1557627,7.06297243 95.1391174,7.11489308 95.1166981,7.16441964 C94.954638,7.42123247 94.7628119,7.66158295 94.6239033,7.9282732 C94.4507634,8.17456559 94.2960053,8.43316983 94.1608746,8.70200418 C93.8970837,9.05532014 93.6594313,9.42725138 93.4497949,9.8148598 C93.2182806,10.144107 93.089294,10.5227413 92.8577797,10.8486961 C92.6262654,11.1746508 92.5832698,11.5697475 92.3286041,11.8693625 C91.8646607,12.7552476 91.4816713,13.6808665 91.1842618,14.6350392 C91.0179053,15.1448943 90.8907567,15.6666106 90.8039169,16.195671 C90.7400396,16.6459709 90.7156937,17.1009549 90.7311552,17.5554621 C90.7366852,17.8605543 90.8246546,18.1585324 90.985821,18.4180898 C91.0764469,18.5686299 91.2275968,18.6732282 91.4009169,18.7053434 C91.5742371,18.7374587 91.7530688,18.694004 91.8920342,18.5860059 C92.0029896,18.5154852 92.0392836,18.3709623 91.9747179,18.2567587 L91.4852305,18.1711544 C91.452157,18.0526254 91.4157762,17.9505588 91.3926247,17.8419072 C91.313837,17.3499545 91.3489038,16.8465884 91.4951525,16.3701721 C91.663278,15.6772178 91.8844131,14.9980841 92.156622,14.3387167 C92.5303523,13.4629191 92.9173119,12.5969989 93.327423,11.7376636 C93.4091156,11.6110538 93.4820462,11.4790491 93.545708,11.3425669 C93.6549702,11.0624119 93.7970666,10.7960743 93.9690485,10.5490811 C94.0142806,10.4792157 94.0551486,10.406644 94.0914203,10.3317779 C94.2485164,10.0124173 94.4241011,9.70240352 94.6172886,9.40330077 C94.7363531,9.21892233 94.8256515,9.01478905 94.9480233,8.82711813 C95.0703952,8.63944721 95.1894597,8.45836123 95.3052169,8.27069031 C95.4904283,7.97766028 95.6723325,7.68463025 95.8575439,7.39489269 C96.1882787,6.89772938 96.4991693,6.40715102 96.8232894,5.90011029 C97.1474095,5.39306956 97.4847589,4.85310411 97.8386451,4.33947844 C98.1925313,3.82585277 98.599335,3.24967012 98.9730653,2.69324231 C99.131818,2.46606172 99.2707266,2.22571125 99.436094,2.00840808 C99.8131316,1.49807488 100.203399,0.997619095 100.587051,0.490578367 C100.655547,0.398906904 100.718498,0.303255882 100.77557,0.20413328 C100.72596,0.138283835 100.679657,0.0724343897 100.630046,0 C100.55963,0.017503696 100.492587,0.0464249331 100.431606,0.0856042787 C100.312541,0.197548336 100.203399,0.325954754 100.100871,0.447776227 C99.6676083,0.912014816 99.283956,1.41905554 98.8837669,1.90963391 C98.1197696,2.84140356 97.3491577,3.76000332 96.5686236,4.68518802 C96.0129893,5.34368248 95.4573549,6.02851671 94.9149499,6.70018105 C94.164182,7.62207328 93.4299508,8.5571354 92.6361874,9.43951797 C92.5898845,9.48890505 92.5535037,9.55146202 92.47082,9.52841472 C92.3800317,9.32591554 92.2692418,9.13290515 92.1400853,8.95223207 C91.9884818,8.79125857 91.8211907,8.64567503 91.6406758,8.51762573 C91.5636697,8.51716496 91.4870173,8.50721178 91.4124688,8.48799348 C91.3520198,8.4590496 91.2872224,8.4401427 91.2206427,8.43202146 C90.9733088,8.41254678 90.7244817,8.43821021 90.4864115,8.50774832 C90.0367536,8.65809617 89.6137284,8.87810214 89.2329268,9.15965782 C88.902903,9.38879034 88.5860056,9.63611169 88.283718,9.90046408 C87.984748,10.1629752 87.6999191,10.4410279 87.4304224,10.7334596 C87.0611739,11.1080732 86.7289143,11.5171195 86.4382181,11.9549668 C86.3709005,12.0900442 86.2935125,12.2199115 86.2067038,12.3434785 C86.0393492,12.5091169 85.904723,12.7045637 85.8098221,12.9196611 C85.7170075,13.1274107 85.6063518,13.3267966 85.4790873,13.5155986 C85.4714471,13.5265913 85.4658465,13.5388574 85.4625506,13.5518158 C85.4625506,13.7888738 85.2971832,13.950205 85.2144995,14.1510458 C85.0888203,14.4440758 84.9763705,14.7371058 84.8837647,15.0367208 C84.6832044,15.5943635 84.5716074,16.1798344 84.55303,16.7718537 C84.5226053,17.1331442 84.6070672,17.4948122 84.7944664,17.80569 C84.9091183,18.0004593 85.1279787,18.1100419 85.3534081,18.0855501 C85.574028,18.0673742 85.7849914,17.9874773 85.96196,17.8550771 C86.2664085,17.6172382 86.5446775,17.3479464 86.7921043,17.0517138 C87.122839,16.6895419 87.427115,16.2878603 87.7346983,15.8993485 C88.1514241,15.3824304 88.5516132,14.8523424 88.9716463,14.3420092 C89.5768909,13.6044954 90.1953649,12.8801515 90.8072242,12.1525151 C91.0188945,11.8957023 91.2371794,11.6454744 91.4686937,11.3952465 C91.5149966,11.3425669 91.5646068,11.2964723 91.6505978,11.335982 C91.6784229,11.4496305 91.7183365,11.560003 91.7696623,11.6652292 C91.8248817,11.7428694 91.9020002,11.8024534 91.9912546,11.8364378 C92.0408648,11.8594851 92.1169338,11.8364378 92.1963102,11.8364378 C92.4204807,11.3165987 92.5331302,10.7558847 92.5270449,10.1902016 C92.5765246,10.102902 92.6306205,10.0182764 92.689105,9.93668128 C92.9007752,9.68316091 93.1157528,9.43622549 93.327423,9.18270513 C93.6746945,8.7711461 94.0153513,8.35629459 94.3593155,7.94144309 C94.5875225,7.66487542 94.8124221,7.38501528 95.0439364,7.10844761 C95.0869319,7.05576805 95.1266201,6.99650355 95.2093038,7.00967344 C95.1530789,6.9076068 95.1960744,6.85492724 95.2655287,6.80883263 L95.2688361,6.82529499 Z M86.1703229,12.4224978 C85.8958131,12.6167537 85.63784,12.8307644 85.3600228,13.0184353 C84.1826071,13.8185061 83.0911824,14.7338134 81.9699916,15.6063185 C80.9579432,16.3899269 79.985583,17.2097525 78.9933788,18.0164082 C78.5634236,18.3719952 78.1268537,18.7209973 77.7266646,19.1062165 C76.9064425,19.8898249 76.1093717,20.6997731 75.3023789,21.4932589 C75.0009919,21.8016524 74.6595103,22.0685153 74.2870232,22.2867447 C74.1206717,22.4112357 73.9064698,22.4536411 73.70493,22.4019813 C73.527422,22.207269 73.4440829,21.9451501 73.476723,21.6842223 C73.4773965,21.204286 73.563622,20.7282769 73.7313888,20.2783366 C73.9174258,19.7704444 74.1464558,19.2791983 74.4160097,18.809894 C74.8790384,18.0131157 75.408214,17.2492622 75.9241602,16.5051634 C76.24945,16.0377088 76.5433422,15.5493581 76.8039147,15.0433058 C77.1301782,14.5011473 77.2106834,13.8468445 77.025507,13.2423234 C76.9703329,13.1904888 76.9234838,13.1305251 76.8865984,13.0645299 C76.7579732,12.7713864 76.5712384,12.5071021 76.3375787,12.2875065 C76.1986701,12.1426377 76.0696835,11.9813066 75.940697,11.8364378 C75.9704631,11.7705883 75.9770778,11.7146163 76.0101513,11.684984 C76.3011979,11.4117089 76.4334918,11.0264896 76.7245383,10.7499219 C76.7927172,10.6805506 76.8407236,10.5940726 76.8634469,10.499694 C76.9083619,10.3868458 76.9602771,10.2768849 77.0188923,10.1704468 C77.1954684,9.85639053 77.1668399,9.46775819 76.9461306,9.18270513 C76.8667543,9.15307288 76.7741486,9.1267331 76.6881575,9.09051591 C76.613166,9.05158679 76.540302,9.00872442 76.4698726,8.96210949 C75.8661671,9.07003579 75.3509266,9.4593187 75.084094,10.0091157 C74.7257908,10.5377297 74.6551218,11.2091514 74.8955751,11.8002206 L75.398292,12.4521301 C75.6972861,12.7172691 75.95974,13.020612 76.178826,13.3542675 C76.1986701,13.5419384 76.2218215,13.713147 76.2383582,13.8646007 C76.0832644,14.3917716 75.8284418,14.8845968 75.4875904,15.3165809 C75.1899291,15.7478948 74.8790384,16.1693313 74.5747624,16.5973527 C74.4556979,16.7652687 74.3630922,16.9529397 74.2440277,17.1208557 C73.8125328,17.7719326 73.4574312,18.470104 73.1856765,19.2016982 C72.9733404,19.7673275 72.831175,20.3566508 72.762336,20.9565859 C72.7184466,21.4338795 72.7701584,21.9150985 72.914474,22.372349 C72.9832681,22.6439978 73.1947631,22.8570631 73.466801,22.9287768 C73.754776,23.0439689 74.0803052,23.0183848 74.3465555,22.8596349 C74.5247022,22.7558957 74.6949391,22.6392467 74.855887,22.5106328 C75.2130805,22.1813856 75.5636593,21.8521384 75.8977015,21.5228912 C76.6120885,20.7765974 77.3463197,20.0467661 78.1003949,19.3333971 C78.900773,18.5761285 79.7342246,17.8583695 80.5809056,17.1570729 C81.7517066,16.1912811 82.9335321,15.2397566 84.1263822,14.3024995 C84.8771501,13.7098545 85.6113812,13.0908697 86.4216814,12.5706591 C86.5741589,12.4808338 86.6988759,12.3509824 86.7821822,12.1953172 C86.5552317,12.2005113 86.336933,12.2830219 86.1637082,12.4290828 M65.4001803,14.424321 C65.3932713,14.361953 65.3932713,14.299018 65.4001803,14.23665 C65.5465982,13.759513 65.8116605,13.3269019 66.1707923,12.9789256 C66.3526964,12.7846698 66.5643667,12.6167537 66.7429634,12.4192054 C67.0292138,12.1051508 67.4209057,11.9060873 67.8443102,11.8594851 C68.0096775,12.0175237 68.0096775,12.0175237 68.0262143,12.2578742 C67.2438185,13.0797206 66.3668322,13.8068871 65.4134097,14.424321 M75.4611316,12.0767882 C75.3352395,12.1431128 75.2147103,12.2190679 75.1006307,12.3039688 C74.3167893,12.8603966 73.54287,13.4365793 72.7524139,13.9798372 C72.3130188,14.2850763 71.8545781,14.5622026 71.3798647,14.8095402 C70.9706884,15.0711968 70.484581,15.187245 70.0007008,15.1387874 C69.6734069,14.9794267 69.4319601,14.6861865 69.3392313,14.3354242 C69.202806,13.9479921 69.15094,13.5360528 69.1870933,13.1270869 C69.2275984,12.6309945 69.3389644,12.1431878 69.517828,11.6783991 C69.6137411,11.4314637 69.6898101,11.1779433 69.7758011,10.917838 L69.6170485,10.7894316 C69.2863137,10.8256488 69.193708,11.1878207 68.9125834,11.28001 L68.4958576,10.9145455 C68.2461512,10.8330876 67.9846927,10.7930442 67.7219383,10.7960165 C67.3817072,10.8338206 67.0541323,10.9462694 66.7628075,11.1252638 C66.3386648,11.3930259 65.9601733,11.7264677 65.6416167,12.1130054 C65.2412255,12.6110886 64.9076869,13.1589521 64.6494124,13.7427792 C64.4453604,14.1460539 64.4166621,14.6150643 64.5700361,15.0400133 C64.7262254,15.170739 64.909017,15.2662168 65.1058264,15.3198734 C65.4736468,15.2408391 65.8151429,15.0697258 66.0980307,14.8227101 C66.5346005,14.4539532 66.9513263,14.068734 67.3680521,13.6769298 C67.6491767,13.4102395 67.9137645,13.1237944 68.1882743,12.8472268 C68.2874947,12.8472268 68.3767931,12.8472268 68.4660915,12.814302 C68.5355646,12.8013931 68.6040747,12.7837926 68.6711471,12.7616225 C68.7439087,12.7418676 68.7769822,12.6332161 68.8795099,12.6628483 C68.7339867,13.6900997 68.7637528,14.661379 69.5972044,15.4087702 C69.6737053,15.4265446 69.7488569,15.4496488 69.822104,15.4779121 C70.140314,15.6060554 70.4960982,15.6060554 70.8143083,15.4779121 C70.9345658,15.4442418 71.0527316,15.4035645 71.1681945,15.3560906 C71.8576227,15.0601668 72.5066188,14.6784945 73.0996854,14.2201877 C73.3609659,14.006177 73.6387831,13.8119211 73.9033709,13.6044954 C74.3972681,13.2225686 74.887858,12.8362518 75.3751405,12.4455451 C75.4809757,12.3632333 75.6099622,12.2875065 75.6132696,12.1162979 C75.5570447,12.1162979 75.4942051,12.0932506 75.4578242,12.1162979 M65.6614608,12.0142313 C65.0217583,11.7785948 64.3552246,11.6226639 63.6770523,11.5499927 C62.9328991,11.4907282 62.1854385,11.4446336 61.4412853,11.3886615 C61.067555,11.3623218 60.6971321,11.329397 60.3300165,11.2997648 C60.2257928,11.190404 60.1153674,11.0870709 59.9992818,10.9902724 C59.8928486,10.8917147 59.7499876,10.8417438 59.6050193,10.8523644 C59.4600511,10.8629851 59.3260776,10.9332375 59.2352845,11.0462444 C59.1889816,11.1022165 59.202211,11.210868 59.1889816,11.2767175 C59.3146608,11.4150013 59.4171886,11.5368228 59.5197164,11.6388894 L59.9000613,11.810098 C59.9744079,12.0233571 59.9744079,12.2553333 59.9000613,12.4685924 C59.8000396,12.901635 59.6639682,13.3256339 59.4932576,13.7361943 C59.1926198,14.4026131 58.8211831,15.0350787 58.3852962,15.6227809 C57.9520336,16.1857936 57.5518446,16.7685612 57.0921233,17.3151116 C56.6176894,17.8909054 56.1120144,18.4404696 55.5773581,18.9613477 C55.3253985,19.1880225 55.0579655,19.3970463 54.77698,19.5869175 C54.6275961,19.7244746 54.404417,19.7460188 54.2312676,19.639597 C54.1059936,19.4871843 54.0371061,19.2965616 54.0361341,19.0996316 C53.9891926,18.5852942 54.0002863,18.0673402 54.0692076,17.5554621 C54.247796,16.2684219 54.5467558,15.0008016 54.9621915,13.769119 C55.0944854,13.3641449 55.1837837,12.9460009 55.2929262,12.5344419 C55.2995066,12.4841698 55.2995066,12.4332602 55.2929262,12.3829882 C55.2499184,12.2153281 55.1383764,12.0732443 54.9853429,11.991184 L54.472704,12.1228829 C53.8410006,12.6891881 53.3052103,13.2851256 52.6999657,13.8086287 C52.3890751,14.0786114 52.0914138,14.3584715 51.7805231,14.6251618 C51.4696324,14.891852 51.1785859,15.1256176 50.8776172,15.3758455 C50.3715931,15.7972819 49.885413,16.2285958 49.3628521,16.6434473 C49.0718055,16.8805053 48.7642221,17.0912235 48.4632535,17.3019417 C48.4197082,17.3461851 48.3601067,17.3711172 48.2978861,17.3711172 C48.2356656,17.3711172 48.1760641,17.3461851 48.1325188,17.3019417 C48.1304205,17.2057709 48.1392969,17.1096738 48.1589775,17.0154966 C48.221756,16.8109847 48.2979898,16.6108086 48.3871845,16.4162667 C48.8257566,15.4642563 49.3504833,14.5539719 49.9548673,13.6966846 C50.249376,13.2503475 50.5742568,12.8246218 50.9272274,12.4224978 C51.2315034,12.0932506 51.5027059,11.7640034 51.7904452,11.4084164 C51.9460605,11.2357739 52.0592788,11.0295161 52.1211799,10.805894 C52.1185456,10.7133069 52.0995119,10.6219099 52.064955,10.5359112 L51.6349998,10.5095715 C51.5159353,10.618223 51.4001781,10.7038273 51.3042651,10.8091864 C50.9272274,11.210868 50.5468825,11.6125497 50.1896889,12.0274012 C49.7132994,12.5319309 49.3021996,13.0938212 48.9659703,13.6999771 C48.75951,13.941044 48.5890785,14.2105118 48.4599462,14.5000478 C47.925223,15.3257275 47.5724008,16.2548738 47.4247464,17.2262149 C47.4578199,17.3908385 47.4942007,17.5554621 47.5338889,17.7563029 L47.9406926,18.0131157 C48.1738017,18.0118177 48.4022701,17.9481342 48.6021621,17.8287373 C49.1222003,17.5182881 49.6165598,17.1670769 50.0805465,16.7784386 C51.2579622,15.8280116 52.3989971,14.833685 53.5036512,13.7954588 C53.6790498,13.6355434 53.8864378,13.5143631 54.1122031,13.4398718 C54.1241109,13.4725568 54.1297212,13.5071839 54.1287399,13.5419384 C53.9865239,14.0851963 53.8310786,14.6317467 53.69217,15.1881745 C53.5731055,15.6557056 53.5069585,16.1298216 53.4275822,16.5973527 C53.3074274,17.317287 53.2996183,18.0513708 53.4044308,18.7736768 C53.4306187,19.2454199 53.6406414,19.688382 53.9898313,20.0083539 L54.320566,20.1038356 C54.7931628,20.0248694 55.2266046,19.7935063 55.5542067,19.4453412 C55.8887051,19.1512875 56.2066914,18.839128 56.5067228,18.510279 C57.0491278,17.8945867 57.574996,17.269017 58.0876349,16.6269849 C58.7953126,15.7374879 59.4124112,14.7801586 59.9298275,13.769119 C60.1998322,13.2724554 60.3684382,12.72751 60.4259296,12.165685 C60.4392892,12.0735775 60.4580631,11.9823291 60.4821545,11.8924098 C60.9683346,11.9352119 61.4280559,11.991184 61.8877772,12.0142313 C62.3693907,12.0278413 62.8497843,12.069618 63.3264734,12.1393452 C63.7828874,12.2150721 64.245916,12.2644592 64.70233,12.3336011 C65.158744,12.402743 65.6482314,12.4883473 66.1377188,12.5673666 L66.2468613,12.3336011 C66.0874769,12.1565003 65.8829015,12.0256603 65.6548461,11.9549668 L65.6614608,12.0142313 Z M39.7450854,15.0861079 C39.7205089,14.9277832 39.7306636,14.7660381 39.7748515,14.6119919 C39.8689173,14.1471735 40.0292945,13.6981414 40.2511096,13.2785406 C40.3271785,13.1435493 40.3966328,13.0085579 40.4693945,12.8702741 C40.6197921,12.5690378 40.7910863,12.2785973 40.9820334,12.0010614 C41.3804323,11.416665 41.8156714,10.8580178 42.2851283,10.3284855 C42.5054703,10.0915603 42.7542929,9.88256048 43.0259741,9.70620822 C43.1766149,9.5956944 43.3581247,9.53469596 43.5452277,9.53170719 C43.7218942,9.61092547 43.813425,9.8071822 43.7602053,9.99265331 C43.7244168,10.2054268 43.6633539,10.4132122 43.5783012,10.6116381 C43.406048,10.9890615 43.1931294,11.3467456 42.9432905,11.6783991 C42.0744452,12.8525157 41.0978872,13.9437222 40.0262099,14.9379466 C39.9574959,15.0003519 39.8833393,15.0565456 39.8046176,15.1058627 C39.8046176,15.1058627 39.7748515,15.1058627 39.731856,15.1058627 M50.2988314,12.3006764 C50.0454484,12.8110548 49.7103353,13.276991 49.3066271,13.6802222 C49.1081863,13.8744781 48.9064381,14.0654415 48.7013825,14.2564049 C48.0025666,14.9070617 47.2415697,15.4881994 46.4292348,15.9915378 C46.2473049,16.1121371 46.0584655,16.2220727 45.8636783,16.320785 C45.1110644,16.6629033 44.3190887,16.9117014 43.5055395,17.0615912 C42.9614292,17.1695401 42.4058982,17.2093584 41.8518658,17.1801202 C41.2743438,17.1622753 40.7211394,16.9445502 40.2874904,16.5644279 C40.0616592,16.3581576 39.9095503,16.0842059 39.8542278,15.784112 C39.9236821,15.7149701 39.9732924,15.6557056 40.0295173,15.603026 C40.0857422,15.5503465 40.1419671,15.4976669 40.198192,15.4482798 C41.1331701,14.6196404 41.9930895,13.7107051 42.768001,12.7319902 C43.1644312,12.2420499 43.5289833,11.727374 43.8594257,11.1911132 C44.0160605,10.9083484 44.1434938,10.6105029 44.2397707,10.3021457 C44.317572,10.064658 44.317572,9.80870457 44.2397707,9.57121686 C44.1817543,9.36799561 44.0434418,9.19687849 43.8564453,9.09697504 C43.6694487,8.99707158 43.4497515,8.97692101 43.2475664,9.04112882 C43.0266628,9.10973485 42.8163184,9.2083404 42.6224777,9.33415885 C42.0217198,9.74354653 41.4959464,10.2524779 41.0680244,10.8388187 C40.7769778,11.2306229 40.4859312,11.6224271 40.2246508,12.0372786 C39.9793002,12.3907301 39.7583036,12.7603345 39.5631813,13.1435493 C39.2240177,13.8042886 39.0860771,14.5492509 39.1662996,15.2869487 C39.1762256,15.4228582 39.1762256,15.5593058 39.1662996,15.6952153 C39.0770012,15.7775271 38.9976248,15.8499615 38.9149411,15.9191034 C38.6106652,16.1792087 38.3063892,16.439314 37.9921912,16.6895419 C37.476245,17.1043934 36.9470693,17.506075 36.4278158,17.917634 C35.9085622,18.3291931 35.3297764,18.7177048 34.774142,19.0996316 C34.1961627,19.4855528 33.5716757,19.7974982 32.9154127,20.0281088 C32.6952971,20.0986055 32.4678267,20.1438949 32.2374064,20.1631001 C31.9168759,20.1894097 31.6237884,19.9823924 31.5428634,19.6725217 C31.4608547,19.3103068 31.4943829,18.9316466 31.6387765,18.5892984 C31.7695186,18.2119096 31.9344627,17.8471382 32.1315713,17.4994901 C32.4469421,16.9347172 32.8028557,16.3933449 33.1965372,15.8795937 C33.4545103,15.5503465 33.7422496,15.2210993 34.00353,14.8720972 C34.1814264,14.6415638 34.3438396,14.3995896 34.4897101,14.1477533 C34.7336948,13.8012457 34.6542998,13.3240909 34.3111133,13.0744073 C34.1755121,12.9427085 34.0299888,12.8307644 33.9010023,12.695773 C33.6352548,12.4644963 33.4471047,12.1576858 33.3619046,11.8166829 C33.4346662,11.566455 33.6397218,11.4347562 33.7885524,11.2635476 C34.1172314,10.8755546 34.4053553,10.4552413 34.6484628,10.0091157 C34.7582897,9.79732166 34.7773768,9.55030526 34.7013804,9.32428144 L34.4632513,9.1036858 C34.2739122,9.04057681 34.0660687,9.06598666 33.8976949,9.17282771 C33.4456319,9.4447868 33.0967425,9.85809791 32.9054906,10.3482403 C32.7302219,10.7279389 32.6605482,11.147512 32.7037424,11.5631626 L32.6607469,11.6125497 C32.6706255,11.739081 32.7031056,11.8628422 32.75666,11.9780141 C32.8368569,12.0882608 32.8807638,12.2205393 32.8823392,12.3566484 L33.3652119,12.9591708 C33.6013913,13.1820734 33.8131445,13.4292954 33.9969153,13.6966846 C33.9030713,13.8965782 33.792433,14.0882229 33.6661806,14.2695748 C33.2428401,14.83588 32.7798114,15.3758455 32.366393,15.9487356 C31.9015774,16.5633836 31.5314897,17.243635 31.2683536,17.9670211 C31.083656,18.4412943 30.9926925,18.9466104 31.0004585,19.4552186 C31.0513424,20.1353011 31.6286143,20.6564175 32.3134754,20.6405086 C32.6671033,20.6013269 33.0140325,20.5160917 33.3453679,20.3869882 C33.8186986,20.1959395 34.2745968,19.9646093 34.7079951,19.6955691 C34.9858122,19.5342379 35.2702441,19.3663218 35.5381393,19.1918208 C36.6145529,18.4425215 37.6511488,17.6380748 38.6437386,16.7817311 C38.8587162,16.6039376 39.0770012,16.432729 39.3052082,16.258228 C39.3154279,16.2462857 39.3294235,16.2381583 39.3448963,16.2351807 C39.3675899,16.2408897 39.3897266,16.2486027 39.4110433,16.258228 C39.4408094,16.3010302 39.4871123,16.3635871 39.5268004,16.4261441 C39.8498038,16.9421455 40.3645368,17.310187 40.9588819,17.450103 C41.5613969,17.5962388 42.1854412,17.6330446 42.8010745,17.5587546 C43.4753618,17.4867063 44.140364,17.3454773 44.785483,17.1373181 C45.6658278,16.8437579 46.4982022,16.4233415 47.2560717,15.8894711 C47.6628754,15.609611 48.0332983,15.2803638 48.4268727,14.9807488 C48.8802566,14.6331367 49.2989192,14.2428193 49.6770501,13.8152136 C50.0540098,13.4334218 50.347864,12.9783712 50.5402678,12.4784699 C50.4972723,12.3632333 50.4741208,12.2512893 50.3186755,12.2776291" id="Shape"></path>
                <path d="M14.1162719,15.9792758 C14.328413,14.2099348 15.7272406,12.8660677 17.4152568,12.8099095 C19.107044,12.8099095 20.4164872,14.1819914 20.6161181,15.9792758 L14.1162719,15.9792758 Z M17.4998462,22 C19.0676694,21.9748342 20.5394725,21.1977057 21.499231,19.8882801 L20.5992002,18.9378275 C19.8687573,19.9760366 18.7243898,20.5987456 17.4998462,20.6243449 C15.7185739,20.5825007 14.2564928,19.1234299 14.1162719,17.247737 L21.8984928,17.247737 C21.9653968,17.0014212 21.9995594,16.7464813 22,16.4902334 C22,13.5316818 20.0003076,11.4199619 17.398339,11.4199619 C14.8978776,11.4199619 12.6985543,13.7424964 12.6985543,16.7010481 C12.6985543,19.6595998 14.8978776,21.9821343 17.4998462,21.9821343 M1.51245771,13.2101 L1.51245771,8.47927585 L5.41371886,8.47927585 C6.91264226,8.47927585 7.81267302,9.42972844 7.81267302,10.8018104 C7.81267302,12.2810862 6.91264226,13.2101 5.41371886,13.2101 L1.51245771,13.2101 Z M1.51245771,20.3099095 L1.51245771,14.5929014 L5.71485697,14.5929014 C6.46558183,14.571905 7.19135563,14.8783519 7.72142327,15.4401433 C8.25149091,16.0019347 8.53905394,16.7694714 8.51645647,17.5621725 C8.51645647,19.1486422 7.41679483,20.3099095 5.71824054,20.3099095 L1.51245771,20.3099095 Z M0.0135342971,21.7891853 L5.71485697,21.7891853 C8.31344202,21.7891853 10.0153799,20.0026203 10.0153799,17.5621725 C10.0102169,15.9577335 9.10751182,14.5081921 7.71454937,13.867556 C7.71454937,13.867556 9.31498001,13.1279181 9.31498001,10.8018104 C9.31498001,8.69009052 7.71454937,7 5.41371886,7 L0,7 L0.0135342971,21.7891853 Z" id="Shape"></path>
            </g>
        </g>
    </g>
</svg>