<svg id="Layer_1" data-name="Layer 1" xmlns="http://www.w3.org/2000/svg" viewBox="0 0 766.92 102.67"><path d="M119.15,180.65l.95-.47,1.1.07a2.43,2.43,0,0,1,1.25,1.82,9.77,9.77,0,0,1,.16,2.09c-.07,1.18-.06,2.37-.16,3.54a106.41,106.41,0,0,1-1.66,11.67q-1,5.08-2.35,10.1c-1,3.71-2,7.4-3.18,11.05-.81,2.48-1.71,4.92-2.64,7.36-1.06,2.79-2.1,5.6-3.3,8.33s-2.33,5.5-3.75,8.13c-1,1.79-1.79,3.66-2.75,5.46a45.35,45.35,0,0,1-3.6,5.78c-.65.87-1.42,1.66-2.15,2.46a4.68,4.68,0,0,1-2.86,1.5l-1.39-.29A5.37,5.37,0,0,1,90.7,256a39.22,39.22,0,0,1-1.34-8.7,24.32,24.32,0,0,0-.23-2.52,24.28,24.28,0,0,1-.21-3c0-1.74-.09-3.48-.09-5.22,0-2.32,0-4.64.08-7,.08-2.08.32-4.15.43-6.23a49.64,49.64,0,0,1,.74-6.21c.09-.46.25-.91.42-1.52v-1.51c-.33-.06-.46.17-.6.34-1.16,1.31-2.3,2.65-3.47,4-1.77,2-3.56,3.93-5.35,5.88-1.37,1.5-2.73,3-4.14,4.49-2.13,2.21-4.27,4.43-6.47,6.57a49.64,49.64,0,0,1-4,3.37,13.54,13.54,0,0,1-2.31,1.4,5.85,5.85,0,0,1-3.35.66,3.75,3.75,0,0,1-2.82-3,14.6,14.6,0,0,1-.37-5.22c.16-1.94.48-3.85.83-5.76.52-2.9,1.22-5.75,1.93-8.6.17-.68.36-1.37.58-2,.67-2,1.19-4.08,2-6.07.49-1.28.89-2.6,1.31-3.91.3-1,.8-1.8,1.1-2.75a27.62,27.62,0,0,1,1.14-2.76c.39-.92.81-1.82,1.21-2.73.14-.3.25-.61.37-.93l-.28-.52a.58.58,0,0,1,0-.26c.29-.6.56-1.21.87-1.79,1-1.92,2.06-3.84,3.12-5.74.83-1.49,1.68-3,2.54-4.43.24-.4.56-.76.81-1.17a1.47,1.47,0,0,1,1.64-.69l.67.73c-.13.54-.25,1.08-.41,1.61a3,3,0,0,1-.42.74,73.63,73.63,0,0,0-5.11,9.19c-1.6,3.13-3,6.32-4.42,9.55-1,2.43-2,4.89-2.93,7.38-1.41,3.82-2.49,7.75-3.57,11.68a48.56,48.56,0,0,0-1.42,6.8,34.66,34.66,0,0,0-.37,5.09,8,8,0,0,0,.4,2.37c.4,1.17.76,1.51,2.09,2a7.83,7.83,0,0,0,3.26-1.21A27.77,27.77,0,0,0,68.88,235c2.05-1.91,3.92-4,5.81-6,1-1.07,2-2.14,2.94-3.26,1.3-1.57,2.64-3.11,3.9-4.7,1.8-2.26,3.6-4.52,5.37-6.81.67-.85,1.26-1.77,1.89-2.67a2.06,2.06,0,0,1,.35-.43,4.74,4.74,0,0,0,1.08-1.47,6.9,6.9,0,0,1,1.51-2.05,2.35,2.35,0,0,1,1.22-.67l1.56.75c.16.26.33.55.51.83a45,45,0,0,1-.77,6.46,36.42,36.42,0,0,0-.69,4.05c-.22,1.93-.61,3.84-.93,5.75a4.8,4.8,0,0,0-.13,1,1.86,1.86,0,0,1-.44,1.32,6.11,6.11,0,0,1,.08,2.55,55.75,55.75,0,0,0-.47,5.93c0,.94-.13,1.87-.12,2.81,0,1.23,0,2.45-.07,3.68a97,97,0,0,0,.28,10.37c.08.85.14,1.7.24,2.55a8.07,8.07,0,0,0,1.46,3,2,2,0,0,0,2-.33A11.5,11.5,0,0,0,98.13,255a51.41,51.41,0,0,0,3.77-5.84c2-3.31,3.58-6.79,5.2-10.27a136.31,136.31,0,0,0,6.43-16.56c1.18-3.76,2.24-7.54,3.26-11.34.94-3.53,1.56-7.14,2.29-10.71.23-1.11.34-2.25.46-3.38.19-1.79.34-3.58.53-5.37a28.7,28.7,0,0,0-.13-6.93,6.29,6.29,0,0,0-.53-1.76A4,4,0,0,1,119.15,180.65Z" transform="translate(-57.53 -169.88)"/><path d="M153.36,225a.75.75,0,0,1-.37.8c-.87.66-1.74,1.33-2.63,2-1.12.79-2.26,1.56-3.4,2.32a34.31,34.31,0,0,1-6.53,3.4A46.15,46.15,0,0,1,135,235.4a11.5,11.5,0,0,1-6,0,6,6,0,0,1-4.18-4.09c-.14-.45-.33-.88-.48-1.27.13-.8.24-1.54.37-2.29a10.4,10.4,0,0,1,1.82-4.12,14.93,14.93,0,0,1,3.49-3.69,12.8,12.8,0,0,1,4.84-2.61c.55-.13,1.1-.26,1.66-.37a1.82,1.82,0,0,1,.57,0,2.39,2.39,0,0,1,2.28,3.18,5.22,5.22,0,0,1-.48,1.18,14,14,0,0,1-3.2,3.94c-.76.7-1.63,1.3-2.45,1.93a21.24,21.24,0,0,1-5.48,3c-.44.16-.87.34-1.29.51-.13.64.23,1.07.34,1.55A6,6,0,0,0,130.8,234a16.6,16.6,0,0,0,5.34-.57,31.36,31.36,0,0,0,6.68-2.73c1.3-.68,2.59-1.39,3.87-2.1,1.91-1,3.71-2.29,5.58-3.4a2.27,2.27,0,0,1,.63-.3C153,224.89,153.22,225,153.36,225Zm-27,3a1.83,1.83,0,0,0,.07.57,4.87,4.87,0,0,0,.75-.23,31.5,31.5,0,0,0,8.14-5.63,6.74,6.74,0,0,0,2-3.35,1.58,1.58,0,0,0-.08-.47l-1-.25a13.27,13.27,0,0,0-6.16,3.47c-.88.85-1.68,1.79-2.44,2.62-.24.53-.46.94-.63,1.39C126.74,226.81,126.52,227.44,126.33,228.07Z" transform="translate(-57.53 -169.88)"/><path d="M185.93,187.77a5.29,5.29,0,0,1-.08,2,16.5,16.5,0,0,1-2,4.7,60.63,60.63,0,0,1-5.83,8.05c-1.68,2-3.38,4-5.15,5.87-.74.8-1.49,1.58-2.25,2.35l-3.42,3.42c-2.62,2.6-5.3,5.14-8.09,7.56L155.27,225l-3.13,2.67a50.62,50.62,0,0,0-2.26,7.91,18.47,18.47,0,0,0-.4,6.07,6.3,6.3,0,0,0,.74,2.43,2.4,2.4,0,0,0,2.53,1.2,11.43,11.43,0,0,0,2.3-.74,27.19,27.19,0,0,0,4.28-2.53,77.12,77.12,0,0,0,9.79-8.44c.47-.46,1-.9,1.44-1.37,2.25-2.24,4.5-4.47,6.74-6.72.6-.6,1.16-1.25,1.78-1.84.32-.3.6-.72,1.18-.76,0,.18.07.35,0,.44a9.45,9.45,0,0,1-.92,1.26q-3.58,3.75-7.22,7.46c-1.6,1.62-3.21,3.23-4.84,4.81a59.23,59.23,0,0,1-7.91,6.49,36.84,36.84,0,0,1-3.81,2.19,9.57,9.57,0,0,1-2.15.73,3.67,3.67,0,0,1-4.59-2.1,6.4,6.4,0,0,1-.62-1.73,16.76,16.76,0,0,1-.26-3.68,37.81,37.81,0,0,1,1.9-10,5.1,5.1,0,0,0,.13-.7l-.41-.73c0-.9.77-1.14,1.35-1.8.35-.83.79-1.82,1.18-2.84a59.39,59.39,0,0,1,2.77-6.08c.46-.88.91-1.77,1.4-2.63.94-1.7,1.87-3.4,2.86-5.07s1.89-3.17,2.94-4.69c2-3,4-5.95,6.3-8.76a56.18,56.18,0,0,1,4.79-5.43,18.86,18.86,0,0,1,6.08-4.08,7.13,7.13,0,0,1,4.6-.43A2.64,2.64,0,0,1,185.93,187.77Zm-1,.53c0-1.2-.53-1.87-2-2.08a3.06,3.06,0,0,0-.85.07,11.17,11.17,0,0,0-3,.94,19.75,19.75,0,0,0-5.63,4.26,46.33,46.33,0,0,0-4.28,5.11c-.69.9-1.28,1.88-2,2.78-1.88,2.5-3.42,5.22-5.11,7.85-.79,1.23-1.41,2.57-2.18,3.81s-1.37,2.48-2,3.73c-1.13,2.19-2.17,4.42-3.23,6.64a5.43,5.43,0,0,0-.56,1.6,6.29,6.29,0,0,0,.72-.4c.92-.75,1.86-1.48,2.74-2.26,2.85-2.56,5.79-5,8.52-7.71,1.21-1.19,2.51-2.3,3.72-3.5s2.4-2.56,3.61-3.83a86.09,86.09,0,0,0,8.49-10.08,22.09,22.09,0,0,0,2.5-4.45A6.89,6.89,0,0,0,185,188.3Z" transform="translate(-57.53 -169.88)"/><path d="M211,224.51l.59.45a5.7,5.7,0,0,1-.55.77,16.42,16.42,0,0,1-2.71,2c-2.7,1.63-5.41,3.26-8.15,4.82q-3.26,1.88-6.59,3.6a63.25,63.25,0,0,1-6.5,2.93,21,21,0,0,1-4.85,1.4,12.22,12.22,0,0,1-2.7.11A4.65,4.65,0,0,1,175,236a11.74,11.74,0,0,1,.67-4.47,25.06,25.06,0,0,1,2.22-5,21.47,21.47,0,0,1,2.16-3.21c.64-.76,1.2-1.6,1.85-2.34a32.37,32.37,0,0,1,4.38-4.22,35.52,35.52,0,0,1,4.21-3,17.18,17.18,0,0,1,5-2.15,7.11,7.11,0,0,1,3.08.08,4.19,4.19,0,0,1,.88.4l.6,1.08c.26,2.12-.89,3.5-2.52,4.92a9.18,9.18,0,0,1-5,3.69c-.7-.17-.9-.72-1-1.38a3.18,3.18,0,0,1,.45-.59c.64-.58,1.32-1.12,2-1.7a21.74,21.74,0,0,0,3.38-3.4,2.3,2.3,0,0,0,.56-1.22c-.07,0-.16-.17-.27-.19a3.6,3.6,0,0,0-1-.1,12.85,12.85,0,0,0-3.75,1,31.77,31.77,0,0,0-4.88,2.94,22.39,22.39,0,0,0-2.31,2.06l-.48.44a31.6,31.6,0,0,0-5.68,7.37,32.19,32.19,0,0,0-2.13,4.58,10.94,10.94,0,0,0-.67,4,4.45,4.45,0,0,0,.45,1.75,2.68,2.68,0,0,0,1.65,1.37A5.16,5.16,0,0,0,181,239a16.93,16.93,0,0,0,3.8-.81,60.17,60.17,0,0,0,7.75-3.31c1.13-.55,2.28-1.06,3.39-1.63s2.21-1.17,3.31-1.77c1.86-1,3.73-2,5.58-3.07,1.69-1,3.36-2,5-3A13.39,13.39,0,0,0,211,224.51Z" transform="translate(-57.53 -169.88)"/><path d="M246.05,207.8c.7-.08,1,.09,1.28.64-.14.26-.22.68-.48.88a11.28,11.28,0,0,0-2.53,3.22c-.9,1.48-1.77,3-2.66,4.49-.1.18-.17.37-.3.64.21,0,.38.06.47,0,.87-.6,1.72-1.24,2.59-1.83a6.16,6.16,0,0,1,3-1.09,1.93,1.93,0,0,1,1.3,2.22c-.1.88-.16,1.77-.25,2.77,1.46-.77,2.65-2.1,4.31-1.77a1.72,1.72,0,0,1,.7,1.68c-.11.94-.28,1.88-.42,2.81s-.31,2.09-.47,3.12a7.07,7.07,0,0,0,.35,3.13,4.37,4.37,0,0,0,4,3.23,9.19,9.19,0,0,0,5-1.34,14.72,14.72,0,0,0,4.91-4.86c.64-.94,1.47-1.81,1.52-2.93.55-.32.81-.06,1.15.23a5.69,5.69,0,0,1-.89,2.65,17.39,17.39,0,0,1-6.55,6,10.52,10.52,0,0,1-4.09,1.17,5.79,5.79,0,0,1-6.41-4.45,10.44,10.44,0,0,1-.2-4.06c.19-1.42.41-2.81.69-4.21a4.16,4.16,0,0,0,0-.71,1.6,1.6,0,0,0-.61.12,21.43,21.43,0,0,0-5.24,5c-.37.51-.63,1.1-1,1.64a3.52,3.52,0,0,1-2,1.71c-.24-.21-.49-.4-.7-.57a1.45,1.45,0,0,1,0-1.27,17.26,17.26,0,0,1,.8-1.54,38.48,38.48,0,0,0,3.39-7.13,2.55,2.55,0,0,0,0-.69,18.71,18.71,0,0,0-3.22,2.18c-1.69,1.34-3.28,2.82-4.92,4.23a18,18,0,0,0-2.93,3.91,58.29,58.29,0,0,1-4.59,6.44,11.09,11.09,0,0,0-.74,1l-1.55.44-1-1.06A6,6,0,0,1,229,231.2a78.53,78.53,0,0,1,6.66-8.23,18.78,18.78,0,0,0,1.62-2.14c1.79-2.61,3.25-5.42,5-8.08a2.16,2.16,0,0,0,.15-.45c-.11,0-.22-.11-.28-.09a13.94,13.94,0,0,0-1.31.56,88.91,88.91,0,0,1-13,5.09,37.16,37.16,0,0,1-6.75,1.65l-1.8.19a2,2,0,0,0-.46,1.24,19.77,19.77,0,0,1-1.17,3.91,14.67,14.67,0,0,1-2.68,4.26,6.66,6.66,0,0,1-2,1.5,2.62,2.62,0,0,1-2.08.09l-.93-.87a6.82,6.82,0,0,1,.15-6.31,4.8,4.8,0,0,0,.26-.57,20.88,20.88,0,0,1,3.87-6.3,7.46,7.46,0,0,1,1.48-1.38,3.14,3.14,0,0,1,1.31-.48,1.26,1.26,0,0,1,1.11.54c.36,1.06.73,2.14,1.12,3.3a3.37,3.37,0,0,0,1.79.06,28.13,28.13,0,0,0,5-1,80.1,80.1,0,0,0,10.73-3.83,44.72,44.72,0,0,0,6.78-3.74,10.9,10.9,0,0,0,1.31-1.15C245.26,208.58,245.67,208.17,246.05,207.8Zm-33.57,21.09a12.28,12.28,0,0,0,4.09-6,7.23,7.23,0,0,0,.59-3.54l-.84-.49c-.61.52-1.21.95-1.71,1.47a6.42,6.42,0,0,0-1,1.41c-.87,1.61-1.93,3.14-2.15,5.37.12.34-.31,1.13.21,1.75a1.7,1.7,0,0,0,.35.11A3.59,3.59,0,0,0,212.48,228.89Z" transform="translate(-57.53 -169.88)"/><path d="M295.83,225a.77.77,0,0,1-.38.8c-.87.66-1.73,1.33-2.63,2-1.12.79-2.26,1.56-3.4,2.32a34.31,34.31,0,0,1-6.53,3.4,46.15,46.15,0,0,1-5.48,1.91,11.46,11.46,0,0,1-6,0,6,6,0,0,1-4.18-4.09c-.15-.45-.34-.88-.48-1.27.12-.8.24-1.54.36-2.29a10.54,10.54,0,0,1,1.82-4.12,15.12,15.12,0,0,1,3.49-3.69,12.8,12.8,0,0,1,4.84-2.61c.56-.13,1.11-.26,1.66-.37a1.82,1.82,0,0,1,.57,0,2.39,2.39,0,0,1,2.29,3.18,5.26,5.26,0,0,1-.49,1.18,14,14,0,0,1-3.2,3.94c-.76.7-1.62,1.3-2.45,1.93a21.08,21.08,0,0,1-5.48,3c-.44.16-.87.34-1.28.51-.14.64.23,1.07.33,1.55a6,6,0,0,0,4.09,1.78,16.6,16.6,0,0,0,5.34-.57,31.66,31.66,0,0,0,6.69-2.73c1.3-.68,2.58-1.39,3.87-2.1,1.9-1,3.7-2.29,5.58-3.4a2.22,2.22,0,0,1,.62-.3C295.51,224.89,295.69,225,295.83,225Zm-27,3a1.38,1.38,0,0,0,.07.57,5.07,5.07,0,0,0,.74-.23,31.34,31.34,0,0,0,8.14-5.63,6.67,6.67,0,0,0,2-3.35,1.52,1.52,0,0,0-.07-.47l-1-.25a13.27,13.27,0,0,0-6.16,3.47c-.87.85-1.68,1.79-2.44,2.62-.24.53-.46.94-.62,1.39C269.2,226.81,269,227.44,268.8,228.07Z" transform="translate(-57.53 -169.88)"/><path d="M393.25,196.45c-1.45.31-2.87.9-4.49.66l-.56-.76.34-1c-.23-.4-.58-.38-.91-.4-1.94-.12-3.88-.28-5.82-.35-1.7-.07-3.4-.12-5.1-.17-2.18-.06-4.36,0-6.54,0s-4.55,0-6.83,0c-1.42,0-2.84.08-4.26.11-3.08.06-6.16.1-9.24.17-3.32.09-6.63.21-9.94.31-1.8,1-2.68,2.56-3.6,4.1s-1.89,3.28-2.89,4.89c-1.53,2.45-2.83,5-4.16,7.58-2,3.86-3.74,7.85-5.47,11.84-.24.57-.45,1.15-.67,1.72-1.26,3.18-2.46,6.37-3.5,9.62-.59,1.85-1.2,3.69-1.74,5.55-.4,1.41-.72,2.85-1,4.28s-.54,2.78-.74,4.18a18,18,0,0,0,0,4.4,4.76,4.76,0,0,0,.23.82,2.4,2.4,0,0,0,2.2,1.92,2.23,2.23,0,0,1,.43.17.93.93,0,0,1-.92.73,5.41,5.41,0,0,1-1.13-.05l-1.12-.7a6.41,6.41,0,0,1-1.38-3.91,23.37,23.37,0,0,1,.35-5.66,78.21,78.21,0,0,1,2.54-10.76,177.28,177.28,0,0,1,6.83-18.53c1.34-3.13,2.87-6.18,4.46-9.2,1-1.92,2.08-3.82,3.18-5.69.88-1.5,1.86-2.95,2.79-4.43.43-.68.84-1.37,1.25-2.07a2,2,0,0,0,.11-.56,12.77,12.77,0,0,0-2.89-.06c-3,.09-6,.19-8.94.34-2.27.11-4.54.28-6.81.45-2.89.21-5.77.4-8.65.67-1.46.14-2.91.39-4.35.65a20.17,20.17,0,0,0-3.08.5c-.4.14-.81.21-1.22.32a3.94,3.94,0,0,1-2.28,0c-.1-.21-.2-.42-.32-.62s-.26-.38-.41-.59c0-.33.09-.65.15-1,1.35-1.44,3.12-1.57,4.95-1.57l.58.41c1.25-.09,2.52-.17,3.79-.28s2.54,0,3.81-.15a32.76,32.76,0,0,1,3.83-.2c1.28,0,2.54-.13,3.81-.09s2.56-.1,3.83-.13,2.56-.05,3.85-.07,2.55,0,3.83,0,2.56,0,3.84,0,2.55-.1,3.87-.16a10,10,0,0,0,1.39-1.75c.43-.73,1-1.39,1.48-2.08a77.49,77.49,0,0,1,6.56-8.22c.81-.86,1.61-1.73,2.44-2.59a4.05,4.05,0,0,1,.59-.41c.63.08,1.25.13,1.47,1a9.14,9.14,0,0,1-1.66,3.31c-1.56,2-3.17,4-4.69,6.07a17.47,17.47,0,0,0-1.85,2.49,6.45,6.45,0,0,1-.67.91,7.51,7.51,0,0,0-.7,1c.19.34.44.27.66.27,1.66,0,3.31-.06,5-.06,2.42,0,4.83,0,7.25,0s5-.11,7.53-.13c2.13,0,4.26,0,6.39,0,3.36,0,6.74,0,10.1.08,4,.08,8.06.22,12.09.35.65,0,1.31.16,2.09.26l1.11.64A1.61,1.61,0,0,1,393.25,196.45Z" transform="translate(-57.53 -169.88)"/><path d="M372.2,224.75a1,1,0,0,1-.19.58c-.51.11-1,.24-1.52.32a60,60,0,0,1-10.37.65c-.82,0-1.65,0-2.48,0-3.1-.15-6.12-.63-8.84-2.52-.22.41-.43.72-.57,1.06a29,29,0,0,1-9,12,12.31,12.31,0,0,1-1.53,1,3.24,3.24,0,0,1-2.8.36,2.94,2.94,0,0,1-1.33-1.48,5.19,5.19,0,0,1-.17-2.92,22,22,0,0,1,2.16-5.14c.64-1.08,1.38-2.12,2.12-3.15a68.23,68.23,0,0,1,6.61-7.89,2.26,2.26,0,0,1,1.44-2,3.68,3.68,0,0,1,3.34,3.08,6.34,6.34,0,0,1,.1,3.09,10.54,10.54,0,0,0-.11,1.13,11.39,11.39,0,0,0,6.66,2.23,81.67,81.67,0,0,0,8.57-.06,43.7,43.7,0,0,0,6.45-.89h0a1.41,1.41,0,0,0,.31.1C371.77,224.33,372.21,224.38,372.2,224.75ZM347,222.15l-1.66-2.05a5.62,5.62,0,0,0-1.88,1.76c-1.7,2.22-3.38,4.45-5.07,6.68a2.1,2.1,0,0,0-.24.41c-.76,1.52-1.52,3-2.33,4.64.26.73-.65,1.62.27,2.46a7.36,7.36,0,0,0,.86-.35,24.48,24.48,0,0,0,6.29-6,33.3,33.3,0,0,0,3.65-6.24A1.67,1.67,0,0,0,347,222.15Zm.06-3.81a1.93,1.93,0,0,0-1,1.13,2.69,2.69,0,0,0,1.33,1.54A2.17,2.17,0,0,0,347.09,218.34Z" transform="translate(-57.53 -169.88)"/><path d="M490,228.31a2.85,2.85,0,0,1-1.27,2.32s-.08,0-.17,0a2.36,2.36,0,0,1,.1-.38c.19-.44.43-.87.59-1.32a1.62,1.62,0,0,0-.35-1.76,6.19,6.19,0,0,0-1.22-1,16.92,16.92,0,0,0-4.79-1.66,83.09,83.09,0,0,0-8.6-1.49c-2.35-.29-4.72-.49-7.08-.73a2.42,2.42,0,0,0-.61.1c-.5,1-.83,2.07-1.24,3.09-.93,2.29-1.83,4.59-2.74,6.89l-1.78,4.44c-.93,2.34-1.8,4.7-2.79,7-.88,2-1.56,4.14-2.41,6.19-1.23,2.95-2.38,5.93-3.58,8.9-.15.37-.27.86-.86.85a.68.68,0,0,1-.49-.65c-.05-.58-.1-1.15-.13-1.74a11.81,11.81,0,0,0-1.75-5.6,25.11,25.11,0,0,0-5.62-6.23,30.48,30.48,0,0,0-7.42-4.49,46.26,46.26,0,0,0-6.33-2.15A31.74,31.74,0,0,0,425,238c-2.21-.28-4.44-.46-6.66-.67-.43,0-.86,0-1.24-.07a13.26,13.26,0,0,0-2.31,2.52c-1.37,1.57-2.7,3.16-4,4.77q-1.38,1.68-2.65,3.43c-.84,1.13-1.62,2.3-2.41,3.45-.54.8-1.1,1.59-1.58,2.42a39.66,39.66,0,0,0-1.83,3.55c.31.2.39-.05.52-.13s.39-.29.6-.4a3.19,3.19,0,0,1,.59-.14l.64.43a7.91,7.91,0,0,1-.06.85,1,1,0,0,1-.22.37,8.48,8.48,0,0,0-1.53,3.72l-.23-.86c-.24-.12-.36.06-.47.19-.42.54-.81,1.1-1.24,1.62-.27.33-.59.62-.91.94l-1.18.06-.79-.53a2.49,2.49,0,0,0-.12-.81,2.13,2.13,0,0,1,0-1.68,37,37,0,0,1,1.9-4.83,58.31,58.31,0,0,1,4-6.87,27.34,27.34,0,0,1,2.29-3c.8-.9,1.43-1.95,2.19-2.89,1.1-1.35,2.25-2.66,3.38-4,.09-.11.2-.21.29-.32.44-.56.87-1.13,1.32-1.72-.42-.38-.89-.23-1.29-.23-2.42.05-4.85.1-7.27.21-5.53.26-11,.61-16.55,1.12-2.42.22-4.83.38-7.25.55a11.24,11.24,0,0,1-1.24-.06c-.08-.17-.17-.37-.28-.59a4.21,4.21,0,0,1,1.55-.89c4.81-1.93,9.61-3.9,14.46-5.75,3-1.14,6-2.15,9.06-3.15a134.74,134.74,0,0,1,15.15-4c2.14-.44,4.27-.86,6.45-1.29l3.09-3.24c1.7-1.79,3.41-3.57,5.1-5.36.57-.59,1.1-1.22,1.68-1.8,2.74-2.74,5.46-5.49,8.25-8.19,2.12-2.05,4.33-4,6.49-6,.64-.6,1.23-1.24,1.89-1.81,1.29-1.09,2.46-2.31,3.75-3.39s2.54-2.25,3.81-3.36,2.54-2.25,3.85-3.33c2.65-2.2,5.31-4.36,8-6.54a5.79,5.79,0,0,1,1.78-1.23.63.63,0,0,0,.23-.17c2.85-2.64,6.1-4.77,9.17-7.12.46-.35,1-.64,1.45-1a4.57,4.57,0,0,1,2.8-.9,1.67,1.67,0,0,1,.78,1.8,5.26,5.26,0,0,1-.33,1.41c-.63,1.51-1.27,3-2,4.52-1.78,3.82-3.6,7.61-5.37,11.43-1.16,2.51-2.24,5.05-3.42,7.55-.89,1.87-1.58,3.82-2.43,5.71s-1.57,3.76-2.35,5.64-1.47,3.48-2.17,5.23c-1,2.52-2,5.05-3,7.58a3.75,3.75,0,0,0-.1.39c.12.31.38.31.62.34l2.45.28c2.84.36,5.68.68,8.51,1.09a40.13,40.13,0,0,1,6.52,1.44,11.58,11.58,0,0,1,3.66,1.76A2.58,2.58,0,0,1,490,228.31Zm-69.31,1c.49-.54.95-1.09,1.44-1.63a11.4,11.4,0,0,1,1.39-1.47,8.08,8.08,0,0,0,1.33-1.68,7.27,7.27,0,0,0-1.12,0c-2.27.48-4.55,1-6.82,1.48-3.5.8-6.95,1.75-10.38,2.8-4,1.25-8,2.6-12,4.11-3.62,1.38-7.23,2.79-10.84,4.2-.45.17-.89.39-1.32.6-.06,0-.07.15-.13.32,2.69-.12,5.33-.46,8-.61s5.31-.35,8-.51,5.42-.32,8.13-.42,5.32-.13,7.95-.19l.63-.68C416.81,233.58,418.73,231.47,420.64,229.34Zm43.93-7.12c-1.43-.36-1.91-.38-11.79-.45-4,0-7.94.22-11.9.53s-7.8.79-11.77,1.43c-.37.35-.83.71-1.21,1.14-2.07,2.32-4.11,4.65-6.16,7L418.07,236a2,2,0,0,0-.16.42,2.44,2.44,0,0,0,.41.16l3.62.34a50.65,50.65,0,0,1,11.79,2.43,31.55,31.55,0,0,1,6.2,2.82,34.37,34.37,0,0,1,6.82,5.39,18.75,18.75,0,0,1,4.46,6.88,7.75,7.75,0,0,0,.41.82,5.47,5.47,0,0,0,.36-.6c.45-1.12.91-2.24,1.34-3.37,1-2.71,2-5.44,3.08-8.15,1.59-4.06,3.22-8.1,4.85-12.14.5-1.25,1.13-2.46,1.54-3.74a44.27,44.27,0,0,1,1.6-4.2A4.33,4.33,0,0,0,464.57,222.22Zm2-4.84q1.26-3.16,2.55-6.33c.92-2.23,1.81-4.48,2.78-6.69,1.13-2.57,2-5.25,3.39-7.71a44.64,44.64,0,0,1,2.1-4.94c.81-1.75,1.57-3.52,2.39-5.27,1.21-2.59,2.52-5.12,3.7-7.72.77-1.67,1.61-3.31,2.37-5a3,3,0,0,0,.31-1.89,6.75,6.75,0,0,0-.83.44l-3.93,3c-2.11,1.62-4.27,3.18-6.31,4.88-.85.71-1.69,1.43-2.55,2.13q-4.9,4-9.68,8.14c-1.57,1.36-3.14,2.73-4.69,4.11s-3.08,2.8-4.61,4.21c-.72.65-1.38,1.38-2.15,1.95s-1.24,1.49-2.1,2c-2.09,2.07-4.16,4.17-6.27,6.23-.86.84-1.71,1.71-2.55,2.58s-1.71,1.7-2.53,2.59c-1.67,1.81-3.42,3.55-5.06,5.4-.73.83-1.54,1.6-2.3,2.41a3.48,3.48,0,0,0-.33.71c.54,0,.83-.05,1.11-.09,1.24-.15,2.49-.33,3.74-.46,1.88-.2,3.76-.38,5.65-.56,3.18-.29,6.38-.43,9.58-.5,2.32-.06,4.65,0,7,0,2,0,4.07,0,6.1.23a5.16,5.16,0,0,0,1.65-.07C465.61,219.89,466.1,218.63,466.61,217.38Z" transform="translate(-57.53 -169.88)"/><path d="M511.86,211.22c-.22,0-.33.12-.45.26l-1.82,2.23L506.86,217c-.56.67-1.14,1.33-1.7,2a8,8,0,0,0-.44.68,10.84,10.84,0,0,1-.83,4.39c-.21,0-.41.1-.55,0a1.38,1.38,0,0,1-.59-.47,4.67,4.67,0,0,1-.32-.91c-.22-.11-.36,0-.48.15-.58.67-1.15,1.34-1.72,2-1.63,1.94-3.27,3.88-4.88,5.85-1.12,1.36-2.18,2.77-3.28,4.15-.82,1-1.61,2.11-2.51,3.08a14.84,14.84,0,0,1-2.2,2.14,3.08,3.08,0,0,1-1.62.62,1.51,1.51,0,0,1-1.48-.75,4.55,4.55,0,0,1-.65-2.76,15.27,15.27,0,0,1,.85-4.63c.28-.8.59-1.58.91-2.36.23-.53.67-1,.67-1.6,0,0,0-.07,0-.1A10.44,10.44,0,0,0,487,227a4.91,4.91,0,0,1,1.05-1.54,8,8,0,0,0,.61-1,22.42,22.42,0,0,1,2.63-3.27,31.73,31.73,0,0,1,2.27-2.22,29.93,29.93,0,0,1,2.52-2,11.86,11.86,0,0,1,3.33-1.68,5.42,5.42,0,0,1,2-.21,1.7,1.7,0,0,1,.5.15,2.83,2.83,0,0,0,.61.09,8.75,8.75,0,0,1,1.33,1.15,9.17,9.17,0,0,1,.84,1.55c.22.05.31-.11.44-.25,2.11-2.35,4.06-4.85,6.05-7.3,1.46-1.8,2.94-3.59,4.41-5.38,2-2.47,4.09-4.93,6.12-7.41,1.07-1.31,2.09-2.66,3.23-3.91.3-.32.59-.66.91-1a1.75,1.75,0,0,1,.53-.23l.38.55a7.7,7.7,0,0,1-.5.76c-1,1.35-2.05,2.69-3.06,4-.44.59-.81,1.22-1.22,1.83-1,1.45-2,2.89-3,4.36s-1.8,2.77-2.7,4.16-1.71,2.66-2.56,4c-.5.78-1,1.56-1.47,2.34-.31.5-.65,1-1,1.48s-.53,1-.85,1.55a21.47,21.47,0,0,0-1.4,2.47,6.55,6.55,0,0,1-.32.58,9.8,9.8,0,0,0-1.13,2.12,9.88,9.88,0,0,1-.58,1c-1.09,2.29-2.12,4.61-3.11,6.94a36.32,36.32,0,0,0-1.79,5.43,8.53,8.53,0,0,0-.27,3.92,9,9,0,0,0,.24.88l1.3.22a.67.67,0,0,1-.22.9,1.64,1.64,0,0,1-2.41-.45,4.46,4.46,0,0,1-.67-2.3,20.94,20.94,0,0,1,.19-3.63,28.16,28.16,0,0,1,1-4.17,43.61,43.61,0,0,1,3.07-7.42c.67-.8.8-1.88,1.4-2.73s1-1.9,1.58-2.76a25.6,25.6,0,0,1,1.88-3,17.31,17.31,0,0,1,1.24-2.06c.37-.71.87-1.36,1.31-2a1.77,1.77,0,0,0,.12-.41c.31-.26.31-.26.28-.5A.46.46,0,0,0,511.86,211.22Zm-26.13,28.21a2.47,2.47,0,0,0,1.37-.72c.78-.72,1.54-1.48,2.25-2.27s1.57-1.84,2.35-2.78c1-1.15,1.91-2.31,2.87-3.47,1.18-1.42,2.34-2.84,3.53-4.24.71-.84,1.45-1.65,2.16-2.49s1.31-1.58,2-2.41a6.18,6.18,0,0,0-.05-1,12.06,12.06,0,0,0-.49-1.58,1,1,0,0,0-.91-.65c-.47.12-1,.22-1.53.39-.23.07-.41.3-.64.42a19.57,19.57,0,0,0-4.55,3.43,28,28,0,0,0-2.9,3.16c-.64.85-1.26,1.71-1.89,2.57l-.68.92-.66,1.31a7.59,7.59,0,0,0-.54,1c-.48,1.26-1.05,2.49-1.46,3.8a13,13,0,0,0-.55,2.69,6.48,6.48,0,0,0,0,1.32A2.34,2.34,0,0,0,485.73,239.43Zm27.19-29.7c0,.06-.11.1-.15.16s0,.06,0,.09.12,0,.15-.07S512.92,209.8,512.92,209.73Z" transform="translate(-57.53 -169.88)"/><path d="M542.64,218c-.5.21-1,.39-1.51.65a38.42,38.42,0,0,1-11.51,4,15.46,15.46,0,0,1-3.59.29,15.21,15.21,0,0,1-2.19-.38c-.4-.08-.79-.22-1.27-.35-.05.29-.09.5-.12.72a18.87,18.87,0,0,1-1.86,6.09,29.21,29.21,0,0,1-4.14,6.07,21.28,21.28,0,0,1-3.36,3.28c-.37.26-.78.47-1.16.7-.51-.06-1-.13-1.45-.2l-.7-.77a6.93,6.93,0,0,1,.51-4.25,25.44,25.44,0,0,1,1.37-2.89,5,5,0,0,1,.92-1.37,2.52,2.52,0,0,0,.44-.7,31.19,31.19,0,0,1,5.47-6.95c.62-.62,1.25-1.23,1.89-1.85l1-.9,1-.11.67.47c.34.58.07,1.08,0,1.48a1.4,1.4,0,0,0,1,.66,10.92,10.92,0,0,0,4.69.15,33.7,33.7,0,0,0,7.62-2.12,56.29,56.29,0,0,0,5.15-2.43,1.49,1.49,0,0,0,.81-.77c0-.61-.06-1.25-.1-1.9a7.9,7.9,0,0,1,1.59-5.07,10.14,10.14,0,0,1,3.78-3.18,2.19,2.19,0,0,1,.65-.23c.5-.08,1-.11,1.47-.16,1.79.56,1.82.6,2.27,2.45a7.35,7.35,0,0,1-2.28,4.19,24.14,24.14,0,0,1-4.6,3.77,6.54,6.54,0,0,0-.76.68c.33.84.62,1.67,1,2.46s.86,1.63,1.31,2.44a9.43,9.43,0,0,1,.91,2.76,3.72,3.72,0,0,1-.08,1.65,9.63,9.63,0,0,1-1.34,3c-1.13,1.63-2.36,3.19-3.65,4.72-.54.63-1,1.32-1.53,2-.32.39-.67.76-1,1.14-.09.1-.22.18-.28.3-.66,1.43-1.7,2.63-2.31,4.09a9.79,9.79,0,0,0-.94,4.41,2.36,2.36,0,0,0,.09.36c.23.23.45.16.68.11a9.3,9.3,0,0,0,3.39-1.86c2.24-1.65,4.3-3.51,6.38-5.36,1-.92,2-1.9,3.09-2.77s2.21-1.84,3.34-2.73,2.19-1.71,3.32-2.53c1.3-.95,2.63-1.88,4-2.77.8-.54,1.68-1,2.51-1.45a22.21,22.21,0,0,1,2.49-1.24c.89-.4,1.79-.76,2.7-1.1a4.86,4.86,0,0,1,1-.19l.54.59c-.1.12-.15.24-.21.25a9.22,9.22,0,0,0-3.54,1.52c-1.13.63-2.25,1.29-3.34,2-.81.52-1.57,1.13-2.36,1.69-2.76,2-5.39,4.09-8,6.25-1.35,1.12-2.63,2.33-3.94,3.5s-2.79,2.59-4.23,3.83a27.49,27.49,0,0,1-4.91,3.59,5.47,5.47,0,0,1-3.13.9l-1.34-.9a6.27,6.27,0,0,1-.59-3.18,14.91,14.91,0,0,1,1.65-5.68,21.33,21.33,0,0,1,2.56-4.12c1.41-1.65,2.73-3.37,4.2-5,.74-.82,1.4-1.73,2.09-2.6a3.65,3.65,0,0,0,.5-3.56,19.6,19.6,0,0,0-.92-2.17c-.46-1-.94-2-1.42-3A2.73,2.73,0,0,0,542.64,218ZM512.5,236.13a16,16,0,0,0,1.55-1.32c.81-.88,1.59-1.81,2.34-2.74a21.09,21.09,0,0,0,3.94-7.44.93.93,0,0,0-.06-.38C517.91,226.23,513,233.68,512.5,236.13Zm38-27.81c-.49-.65-.55-.75-.81-.78a2.28,2.28,0,0,0-.94,0,7.68,7.68,0,0,0-1.6.79,8.65,8.65,0,0,0-2.74,3.26,5.56,5.56,0,0,0-.56,3.24c0,.21,0,.46.38.55l.42-.26a29.39,29.39,0,0,0,4.71-4.28A4.25,4.25,0,0,0,550.5,208.32Z" transform="translate(-57.53 -169.88)"/><path d="M596.35,225a.76.76,0,0,1-.37.8c-.87.66-1.74,1.33-2.63,2-1.12.79-2.26,1.56-3.41,2.32a34.23,34.23,0,0,1-6.52,3.4,46.78,46.78,0,0,1-5.48,1.91,11.5,11.5,0,0,1-6.05,0,6,6,0,0,1-4.18-4.09c-.15-.45-.33-.88-.48-1.27.13-.8.24-1.54.37-2.29a10.53,10.53,0,0,1,1.81-4.12A15.12,15.12,0,0,1,572.9,220a12.84,12.84,0,0,1,4.85-2.61c.55-.13,1.1-.26,1.66-.37a1.75,1.75,0,0,1,.56,0,2.39,2.39,0,0,1,2.29,3.18,5.22,5.22,0,0,1-.48,1.18,14,14,0,0,1-3.2,3.94c-.77.7-1.63,1.3-2.46,1.93a21,21,0,0,1-5.47,3c-.44.16-.87.34-1.29.51-.14.64.23,1.07.34,1.55a6,6,0,0,0,4.09,1.78,16.57,16.57,0,0,0,5.33-.57,31.44,31.44,0,0,0,6.69-2.73c1.3-.68,2.59-1.39,3.87-2.1,1.91-1,3.7-2.29,5.58-3.4a2.27,2.27,0,0,1,.63-.3C596,224.89,596.21,225,596.35,225Zm-27,3c-.05.15,0,.34.07.57a4.87,4.87,0,0,0,.75-.23,31.67,31.67,0,0,0,8.14-5.63,6.66,6.66,0,0,0,2-3.35,1.27,1.27,0,0,0-.07-.47l-1-.25a13.22,13.22,0,0,0-6.16,3.47c-.88.85-1.68,1.79-2.45,2.62-.24.53-.45.94-.62,1.39C569.72,226.81,569.51,227.44,569.32,228.07Z" transform="translate(-57.53 -169.88)"/><path d="M660,224.68a7.56,7.56,0,0,0,1.23-.07,48.36,48.36,0,0,1,10-.92,14.48,14.48,0,0,1,4.75.75,4,4,0,0,1,2.24,1.66,1,1,0,0,1,.12,1c-.11-.05-.28-.06-.32-.15a4.19,4.19,0,0,0-3.29-2,25.31,25.31,0,0,0-6.39-.27,72.34,72.34,0,0,0-7.17,1,3.9,3.9,0,0,0-.56.24c.05.59.08,1.15.14,1.71a12.49,12.49,0,0,1-.93,5.81,21.52,21.52,0,0,1-4.88,6.92,34.26,34.26,0,0,1-5.59,4.61,59.94,59.94,0,0,1-8.19,4.81c-1.28.61-2.54,1.27-3.86,1.82a62,62,0,0,1-6,2.21,28,28,0,0,1-7.42,1.22,7.63,7.63,0,0,1-4.52-1,6.93,6.93,0,0,0-1.05-.44,4.69,4.69,0,0,0-.38-.44,4.28,4.28,0,0,1-1.09-4.58,11.42,11.42,0,0,1,1.48-3,22.43,22.43,0,0,1,4.72-5.28,47.61,47.61,0,0,1,10.59-6.87A76.58,76.58,0,0,1,642,230c2.15-.75,4.29-1.5,6.46-2.19,1.44-.46,2.91-.84,4.38-1.23s2.75-.71,4.13-1.06a2,2,0,0,0,.41-.21,2.89,2.89,0,0,0-.75-1.5,19.22,19.22,0,0,0-2.65-2.76q-1.52-1.19-3.06-2.31a7.52,7.52,0,0,0-1.13-.58c-1.19-.58-2.26-1.35-3.49-1.87s-2.29-1.13-3.44-1.69c-2-1-4-1.76-6-2.59s-4-1.47-6-2.18c-2.18-.77-4.37-1.53-6.51-2.41a11.88,11.88,0,0,1-5-3.47,6.21,6.21,0,0,1-1.57-4.44,6,6,0,0,0-.05-1.27,5.34,5.34,0,0,1,.3-2.24,13,13,0,0,1,4.78-6.69,12.1,12.1,0,0,1,1.91-1.47,20.4,20.4,0,0,0,2-1.5c.67-.45,1.4-.8,2.09-1.21.93-.56,1.82-1.18,2.78-1.68s2-1.1,3-1.62,1.91-1.06,2.89-1.53,2.24-1,3.37-1.51c.9-.4,1.8-.82,2.72-1.2a75.31,75.31,0,0,1,9.93-3.36,76.11,76.11,0,0,1,9.77-1.86,42.75,42.75,0,0,1,9.66-.1,13,13,0,0,1,5.49,1.81,7.05,7.05,0,0,1,3.35,4.72,6.89,6.89,0,0,1-.26,3.52,12.29,12.29,0,0,1-1.8,3.51,26.12,26.12,0,0,1-2.33,3,36.94,36.94,0,0,1-4,4.05,22,22,0,0,0-1.61,1.59,11.72,11.72,0,0,1-2.41,2c-.45.81-1.37,1.09-2,1.76a14.62,14.62,0,0,1-2.23,1.71c-.31.22-.63.42-.92.66a3,3,0,0,1-1.79.67l-1-.55c-.06-.42-.12-.79-.18-1.17l.65-1.15c.42-.31.88-.64,1.42-1.05a3.82,3.82,0,0,0,2-.74,49.13,49.13,0,0,0,5.53-4.42c1-.88,2-1.74,3-2.67A27.51,27.51,0,0,0,679,183.1a7.49,7.49,0,0,0,1-2.81,5.12,5.12,0,0,0-2.92-4.95,14,14,0,0,0-4.76-1.39,30,30,0,0,0-5.53-.13,64.16,64.16,0,0,0-19.22,4.27,47.42,47.42,0,0,0-4.73,1.94,6.16,6.16,0,0,0-2,1c-.68.33-1.37.65-2,1-1.95,1.07-3.89,2.18-5.85,3.24a38.55,38.55,0,0,0-3.82,2.37,47.75,47.75,0,0,0-4,2.91,19,19,0,0,0-2.68,2.53,11,11,0,0,0-2.07,4.33,6.38,6.38,0,0,0,.36,3.75,5.27,5.27,0,0,0,2,2.36,12.91,12.91,0,0,0,3.13,1.67,42.58,42.58,0,0,0,5.52,1.85,15.84,15.84,0,0,1,1.88.61,114.82,114.82,0,0,1,11.95,4.9,53.44,53.44,0,0,1,8,4.55,22.46,22.46,0,0,1,4.6,4A13.25,13.25,0,0,1,660,224.68Zm-2.09,1.81a24.11,24.11,0,0,0-3.31.76c-3,.77-6,1.69-9,2.65-2,.64-4,1.3-5.88,2.09-1.52.63-3,1.3-4.53,2a66.87,66.87,0,0,0-6.12,3.32c-1.12.7-2.24,1.42-3.3,2.22s-1.9,1.56-2.81,2.39a21.48,21.48,0,0,0-3.54,4.07,9.87,9.87,0,0,0-1.47,3.21,3.06,3.06,0,0,0,2.19,3.78,11.08,11.08,0,0,0,2.94.47,19,19,0,0,0,6.17-.79,46.59,46.59,0,0,0,7.61-2.72,68.85,68.85,0,0,0,9.68-5.3,43.36,43.36,0,0,0,3.86-2.87,36.76,36.76,0,0,0,3.54-3.29,19.64,19.64,0,0,0,3.18-4.51,13.6,13.6,0,0,0,1-2.56,9.69,9.69,0,0,0,.13-3.79A8.17,8.17,0,0,0,657.93,226.49Z" transform="translate(-57.53 -169.88)"/><path d="M718,225.13l-2.14,1.55c-.27.2-.51.43-.77.63a36.53,36.53,0,0,1-4.83,3.45c-1.31.75-2.59,1.55-3.91,2.29a32.1,32.1,0,0,1-5.59,2.39c-.8.27-1.64.43-2.43.7a6.56,6.56,0,0,1-3.08.18,3.09,3.09,0,0,1-2.67-3.31,9.24,9.24,0,0,1,.48-2.79,28.7,28.7,0,0,1,3.35-6.69c.12-.18.21-.39.37-.68a7.41,7.41,0,0,0-2.19.32,19.84,19.84,0,0,1-5.48.57,13,13,0,0,1-4.57-.79c-.34-.15-.67-.33-1-.49l-.68-.35c-.36.19-.26.45-.27.66a15.1,15.1,0,0,1-2.61,7.51c-.34.51-.62,1.06-1,1.53a11.23,11.23,0,0,1-3,3,2.36,2.36,0,0,1-2,.34,3,3,0,0,1-1.05-1.74,18,18,0,0,1,1.71-5.67c.5-1,.94-1.94,1.5-2.84a16,16,0,0,1,4-5,3.94,3.94,0,0,1,.48-.31,3.09,3.09,0,0,1,.48-.13,10.76,10.76,0,0,1,1.46,1,9.17,9.17,0,0,0,7.18,2.31,32.07,32.07,0,0,0,8.12-1.75,3.92,3.92,0,0,0,1.41-.92,8.67,8.67,0,0,1,2.65-1.87c.61-.26,1.21-.56,1.71-.34.81-.26,1.17-1,2-.94l.5,1.06a2.39,2.39,0,0,1-.08.47,10.87,10.87,0,0,0-.82,3,4.9,4.9,0,0,1-.66,1.7c-.26.51-.53,1-.82,1.48a2,2,0,0,1-1.22,1c-.36-.23-.75-.48-1.14-.71v-1.48a4.92,4.92,0,0,0,1.19-2.76,3,3,0,0,0-1.88.84,13.52,13.52,0,0,0-1.6,1.61,29.38,29.38,0,0,0-4,6.48,11.58,11.58,0,0,0-.85,2.55,2.39,2.39,0,0,0,.54,2.31,3.19,3.19,0,0,0,1.88.25,17.26,17.26,0,0,0,4.74-1.34c1.31-.53,2.6-1.13,3.88-1.75A41.19,41.19,0,0,0,710,229c1.66-1.09,3.25-2.26,5-3.24.61-.35,1.15-.82,1.75-1.18a5.08,5.08,0,0,1,1-.38C718.08,224.37,718.11,224.62,718,225.13Zm-42.81,7.47a7.82,7.82,0,0,0,1.07-.72,13.34,13.34,0,0,0,4-7.28,4,4,0,0,0,0-.78,13.84,13.84,0,0,0-2.13,2.43,24.85,24.85,0,0,0-2.51,4.69A7.87,7.87,0,0,0,675.16,232.6Z" transform="translate(-57.53 -169.88)"/><path d="M731.57,224.62a.9.9,0,0,1-.41,1c-1.39,1.06-2.76,2.16-4.17,3.18a84,84,0,0,1-8.33,5.39,13.36,13.36,0,0,1-4.93,1.72,3.14,3.14,0,0,1-2.78-.84,4.91,4.91,0,0,1,0-3.52,15.33,15.33,0,0,1,2.52-4.7c.55-.75,1.16-1.46,1.74-2.19s1.23-1.3,1.86-1.95a2.86,2.86,0,0,1,1.35-.84,3,3,0,0,1,.49.18,2,2,0,0,1,.33.28,2.16,2.16,0,0,1-.71,1.65c-1.2,1.52-2.49,3-3.65,4.53a13.91,13.91,0,0,0-2.36,4.49,1.08,1.08,0,0,0,.16,1.13,2.3,2.3,0,0,0,1.6.1,18.68,18.68,0,0,0,4.36-1.66,66.4,66.4,0,0,0,7.79-4.93c.87-.65,1.82-1.19,2.72-1.79.66-.45,1.3-.94,2-1.44Zm-8.9-10.16a3.61,3.61,0,0,1,.33-2.22l.6-.33c1.15.42,1.11,1.57,1.58,2.36a4.93,4.93,0,0,1-.9,1.84Z" transform="translate(-57.53 -169.88)"/><path d="M824.44,193l-.47.79-.35.14a9,9,0,0,1-3.42.39,4.7,4.7,0,0,1-2.43-.86c-.4-.29-.54-.54-.81-1.47-.36-.07-.74-.18-1.14-.22-2.19-.2-4.38-.4-6.57-.56-2.35-.17-4.71-.35-7.06-.45-3.2-.15-6.4-.22-9.59-.33l-1,0c-.4.41-.78.81-1.19,1.22-2.22,2.18-4.44,4.37-6.71,6.51-1.41,1.32-2.76,2.7-4.18,4s-2.76,2.58-4.13,3.89a4,4,0,0,0-.71.87c-1.72,2.88-3.51,5.73-5.1,8.68a85.3,85.3,0,0,0-4.68,9.85A83.37,83.37,0,0,0,762,234c-.48,1.78-.84,3.59-1.2,5.39a22.3,22.3,0,0,0-.28,3.66,7.92,7.92,0,0,0,.32,1.53l1.65,1.78c-.1.09-.19.23-.3.26a2.75,2.75,0,0,1-1.58-.35,4.52,4.52,0,0,1-1.51-3.58,24.34,24.34,0,0,1,.63-6.19c.43-2.18,1.1-4.3,1.67-6.44a35.6,35.6,0,0,1,1.32-3.89c.74-1.89,1.5-3.77,2.35-5.61a69.09,69.09,0,0,1,3.23-6.29c.36-.61.66-1.26,1-1.86a5.49,5.49,0,0,1,.64-.73,1.8,1.8,0,0,0-.05-.19l0,.21-.32-.19a9.09,9.09,0,0,0-1.19.88c-1.85,1.82-3.74,3.6-5.73,5.28-.75.64-1.42,1.36-2.13,2-.41.4-.82.78-1.25,1.16q-2.1,1.91-4.21,3.78c-.74.66-1.5,1.3-2.26,1.94l-1.3,1.09a86.25,86.25,0,0,1-9.87,7.35,37.3,37.3,0,0,1-4.3,2.46,25.86,25.86,0,0,1-4.1,1.52,4.41,4.41,0,0,1-6-5,17,17,0,0,1,.88-5.15,32.86,32.86,0,0,1,3.25-6.89,33.33,33.33,0,0,1,3.33-4.39,16.94,16.94,0,0,1,4.84-3.87,5.61,5.61,0,0,1,3.31-1,3.06,3.06,0,0,1,1.88,1.71,6.3,6.3,0,0,1-.9,3.87,13.12,13.12,0,0,1-2.47,3.08,26.24,26.24,0,0,1-5.92,4.29,9,9,0,0,1-4,1.25c-.27.59-.58,1.17-.81,1.78a16.37,16.37,0,0,0-1.3,5.77,4.25,4.25,0,0,0,.34,1.8,1.68,1.68,0,0,0,1.55,1.05,5.44,5.44,0,0,0,1.27-.1,17.37,17.37,0,0,0,4.78-1.7,63.57,63.57,0,0,0,10-6.5c2-1.51,3.86-3.21,5.77-4.82.87-.73,1.74-1.46,2.6-2.2s1.48-1.3,2.22-2c2.24-2,4.49-4,6.72-6.07,1.43-1.31,2.8-2.69,4.26-4q1.92-1.68,3.75-3.46a10.77,10.77,0,0,0,1.24-1.53c1.39-2,2.69-4.11,4.18-6.07,1.1-1.46,2.08-3,3.18-4.48s2.11-2.79,3.16-4.2H782.3c-1.92,0-3.84.1-5.75.14-2.24.06-4.47.09-6.71.17s-4.4.2-6.59.31c-1.72.09-3.44.18-5.15.3-1.88.13-3.75.31-5.62.45-2.55.17-5.08.57-7.63.85-1,.11-2,.32-3,.46l-6.16.89-1.3.21-1.27.2-1.13-.72c-.35-.49-.12-.94,0-1.4a3.27,3.27,0,0,1,2.64-1.15c.64,0,1.27-.12,1.91-.17a1.41,1.41,0,0,1,1.49.87c.57,0,1.17,0,1.76-.07.83-.09,1.66-.23,2.49-.33,2-.25,4-.52,5.95-.71,1.75-.17,3.51-.25,5.27-.35,2.11-.13,4.23-.24,6.34-.34,1.2-.06,2.4-.08,3.6-.11l4.78-.14c1.8,0,3.6-.12,5.4-.15s3.83,0,5.75,0l5.59,0,1.73-2.2c.29-.34.58-.65.85-1a95.11,95.11,0,0,1,6.73-7.47,42.45,42.45,0,0,1,5.15-4.42,12.68,12.68,0,0,1,1.63-.86,2,2,0,0,1,.69-.15.85.85,0,0,1,1,.8,4.61,4.61,0,0,1-.15,1.53,11.3,11.3,0,0,1-1.35,2.8,57.36,57.36,0,0,1-5.45,7.24,1.78,1.78,0,0,0-.28.48L793.92,188l-1.54,1.58c2.23.07,4.47.19,6.7.31s4.24.22,6.35.36c2.64.18,5.27.36,7.9.6,2.35.22,4.7.47,7,.78a21.3,21.3,0,0,1,3.88.88A4.62,4.62,0,0,1,824.44,193Zm-90.85,30.9c.67-.46,1.37-.92,2-1.41a42.56,42.56,0,0,0,3.68-3.29,3.39,3.39,0,0,0,.44-.56c.33-.45.66-.91,1-1.38.21-.31.39-.64.57-1,0,0-.07-.14-.11-.24l-.85.13c-.37.32-.64.58-.94.81a25.54,25.54,0,0,0-5.93,6.38A.33.33,0,0,0,733.59,223.92Zm56.31-33.56c-.69,0-1.39-.06-2.08-.06s-1.18,0-1.77,0c-.76,1-1.53,2-2.28,3-.9,1.22-1.76,2.46-2.63,3.69-.66.92-1.32,1.83-1.93,2.78-.13.19-.48.39-.21.8.22-.18.44-.33.63-.51q3.57-3.33,7.13-6.67c1-.94,2-1.89,2.94-2.86Zm-3.25-.84c1.34,0,2.67,0,4,0,.27-.28.54-.55.8-.84a.21.21,0,0,0,0-.06s.08,0,.12,0a4.71,4.71,0,0,0,1.35-1.48,5.08,5.08,0,0,0,.43-.38h.05l.1-.13,0,0h0c.11-.15.22-.32.35-.48.89-1,1.78-2.08,2.68-3.11a35.19,35.19,0,0,0,4.42-6.53,3.78,3.78,0,0,0,.57-1.86c-.27,0-.44,0-.54.07a18.14,18.14,0,0,0-1.66,1.08,40.58,40.58,0,0,0-4.9,4.46c-.49.51-1,1-1.44,1.55-1.38,1.55-2.78,3.07-4,4.74a.78.78,0,0,0-.09.27,5.29,5.29,0,0,0-.8,1.33c-.09.06-.16.12-.25.17s-.06.11-.11.16a2.31,2.31,0,0,0-1,.81A2.27,2.27,0,0,0,786.65,189.52Z" transform="translate(-57.53 -169.88)"/><path d="M813.7,225.14a2.38,2.38,0,0,1-1.14.76l-1.17.53-1.29.59-1.16.55c-.39.19-.76.4-1.14.59l-1.16.55c-.43.2-.86.39-1.28.6l-1.13.62c-.37.2-.76.38-1.14.58s-.75.41-1.13.6l-1.27.64c-.38.19-.75.41-1.13.61l-1.13.59c-.38.19-.77.37-1.15.57l-1.23.71c-.38.2-.77.38-1.14.58l-1.09.64c-1.53,2.92-2.94,5.7-4.44,8.45-1.79,3.29-3.7,6.51-5.8,9.61-1.2,1.76-2.5,3.45-3.81,5.13a75.25,75.25,0,0,1-7.21,7.83,36.24,36.24,0,0,1-5.35,4.22,13.75,13.75,0,0,1-3.49,1.59,5.41,5.41,0,0,1-3,.12,2.46,2.46,0,0,1-1.84-1.8,5.55,5.55,0,0,1-.13-2.53,16.36,16.36,0,0,1,1.16-3.8,34.89,34.89,0,0,1,4.51-7.23,69.08,69.08,0,0,1,5.15-5.68c1.64-1.65,3.37-3.2,5.13-4.7,2-1.69,4-3.3,6.16-4.8,2.37-1.66,4.88-3.1,7.36-4.58,1.13-.69,2.34-1.25,3.51-1.87.13-.06.24-.15.45-.28,2.49-5.27,4.7-10.73,6.88-16.39a2.42,2.42,0,0,0-1.22.7c-2.47,2.14-4.9,4.33-7.4,6.43s-5.35,4.39-8,6.57c-.29.24-.61.45-.92.67a3.22,3.22,0,0,1-2.35.65,1.91,1.91,0,0,1-.94-1.85,7.43,7.43,0,0,1,.39-2.24,45,45,0,0,1,3.31-7.52c.54-1,1.12-2,1.73-2.92a29,29,0,0,1,4.05-5.12,5.65,5.65,0,0,1,2.28-1.22l.74.37c.16.43.32.87.47,1.3a6.57,6.57,0,0,1-1.84,2.5c-.75.8-1.57,1.52-2.35,2.29a3.84,3.84,0,0,0-.56.64c-1.57,2.37-3.1,4.76-4.46,7.26a35.57,35.57,0,0,0-1.63,3.76,5.07,5.07,0,0,0-.19.77.33.33,0,0,0,.53.11c1.76-1.21,3.46-2.49,5.09-3.86s3.39-3,5.12-4.53q1.73-1.49,3.42-3c.49-.44.95-.93,1.44-1.38,1.08-1,2.15-2,3.24-3a2.3,2.3,0,0,1,1.61-.76,1.46,1.46,0,0,1,.94.84,2,2,0,0,1-.05,1.39,37.47,37.47,0,0,1-2.46,6c-.19.36-.24.8-.41,1.19-.49,1.13-1,2.25-1.5,3.37-.74,1.64-1.5,3.27-2.25,4.91a1.67,1.67,0,0,0-.06.39c.24.26.46.1.65,0,2-1,4-2.05,6-3,3.19-1.57,6.4-3.11,9.6-4.64a20.9,20.9,0,0,1,2-.74A2,2,0,0,1,813.7,225.14Zm-22.29,11.72a10.71,10.71,0,0,0-1.14.47c-1,.56-2,1.11-2.92,1.73-2.38,1.55-4.81,3-7.09,4.72s-4.53,3.4-6.65,5.29a71.11,71.11,0,0,0-7.54,7.69,35.45,35.45,0,0,0-4.4,6.26,22.11,22.11,0,0,0-1.7,4.05,6.69,6.69,0,0,0-.22,2.81,1.93,1.93,0,0,0,1.89,1.77,7.35,7.35,0,0,0,1.69-.17,11.4,11.4,0,0,0,4-2,44.8,44.8,0,0,0,6.71-5.9c1.43-1.44,2.7-3,4-4.6a74.56,74.56,0,0,0,5.24-7.25c1.46-2.27,2.82-4.6,4.11-7S790.09,239.74,791.41,236.86Z" transform="translate(-57.53 -169.88)"/></svg>