<?xml version="1.0" encoding="UTF-8"?>
<svg width="129px" height="19px" viewBox="0 0 129 19" version="1.1" xmlns="http://www.w3.org/2000/svg" xmlns:xlink="http://www.w3.org/1999/xlink">
    <title>icon / logos / Adore Society / full Copy</title>
    <defs>
        <filter x="-4.8%" y="-45.0%" width="110.7%" height="200.0%" filterUnits="objectBoundingBox" id="filter-1">
            <feOffset dx="0" dy="2" in="SourceAlpha" result="shadowOffsetOuter1"></feOffset>
            <feGaussianBlur stdDeviation="2" in="shadowOffsetOuter1" result="shadowBlurOuter1"></feGaussianBlur>
            <feColorMatrix values="0 0 0 0 0   0 0 0 0 0   0 0 0 0 0  0 0 0 0.16529174 0" type="matrix" in="shadowBlurOuter1" result="shadowMatrixOuter1"></feColorMatrix>
            <feMerge>
                <feMergeNode in="shadowMatrixOuter1"></feMergeNode>
                <feMergeNode in="SourceGraphic"></feMergeNode>
            </feMerge>
        </filter>
    </defs>
    <g id="APP---Adore-Society" stroke="none" stroke-width="1" fill="none" fill-rule="evenodd">
        <g id="AB-APP-AdoreSociety---v2-signed-in" transform="translate(-19.000000, -2529.000000)" fill="#FFFFFF">
            <g id="AB-App-cta" transform="translate(0.000000, 2519.000000)" filter="url(#filter-1)">
                <g id="icon-/-logos-/-Adore-Society-/-full-Copy" transform="translate(22.914667, 12.658537)">
                    <path d="M21.1355789,10.6362667 C20.6589649,11.0674421 20.1259825,11.3825649 19.5361404,11.5806526 C18.9461754,11.7679333 18.2061404,11.8615123 17.3156667,11.8615123 L16.4222456,11.8615123 L16.4222456,2.45179298 L17.3156667,2.45179298 C19.0057368,2.45179298 20.2850175,2.85177544 21.1525263,3.65161754 C22.1166842,4.54761754 22.5989474,5.71612632 22.5989474,7.15665263 C22.5989474,8.58600351 22.1111579,9.7461614 21.1355789,10.6362667 L21.1355789,10.6362667 Z M4.42375439,8.67123158 L6.46566667,4.20461754 L8.414,8.67123158 L4.42375439,8.67123158 Z M22.5646842,2.28182807 C21.895386,1.66914386 21.1495789,1.23514386 20.3272632,0.980073684 C19.5614386,0.719354386 18.5179474,0.588564912 17.1965439,0.588564912 L14.4402632,0.588564912 L14.4402632,8.67098596 L10.4998772,8.67098596 L6.4994386,7.36842106e-05 L1.65793305e-13,13.7248632 L2.13524561,13.7248632 L3.59849123,10.5343368 L9.22194737,10.5343368 L10.6003333,13.7248632 L12.7697193,13.7248632 L11.3366842,10.5340912 L14.4402632,10.5340912 L14.4402632,13.7248632 L17.1625263,13.7248632 C18.4953509,13.7248632 19.5247193,13.602793 20.2507544,13.3588982 C21.0278772,13.1153719 21.770614,12.6813719 22.4797018,12.0572667 C23.8918596,10.8094246 24.598,9.17596842 24.598,7.15665263 C24.598,5.14335439 23.9202281,3.51824912 22.5646842,2.28182807 L22.5646842,2.28182807 Z" id="Fill-48"></path>
                    <path d="M36.1827421,10.5966491 C35.2193211,11.5733333 34.0370579,12.0618596 32.6355842,12.0618596 C31.3435316,12.0618596 30.2046193,11.5821754 29.2186018,10.6226842 C28.2263211,9.6634386 27.7303035,8.43954386 27.7303035,6.95112281 C27.7303035,5.53245614 28.2090053,4.34049123 29.1664088,3.37510526 C30.1239351,2.39842105 31.2974789,1.91014035 32.6877772,1.91014035 C34.0833561,1.91014035 35.2541982,2.39842105 36.1999351,3.37510526 C37.1518123,4.34626316 37.6274439,5.54989474 37.6274439,6.986 C37.6274439,8.40491228 37.1459175,9.60829825 36.1827421,10.5966491 M32.7135667,2.61778903e-15 C30.7873386,2.61778903e-15 29.1374263,0.68022807 27.7650579,2.04092982 C26.3866719,3.40138596 25.6973561,5.0295614 25.6973561,6.92508772 C25.6973561,9.08231579 26.4527421,10.8265439 27.9642509,12.1577719 C29.3366193,13.3616491 30.885093,13.9631579 32.6097947,13.9631579 C34.5589877,13.9631579 36.2230228,13.286 37.6014088,11.9313158 C38.9741456,10.5825263 39.660514,8.93973684 39.660514,7.0034386 C39.660514,5.07917544 38.9769702,3.43049123 37.6100053,2.05836842 C36.2488123,0.686245614 34.6169526,2.61778903e-15 32.7135667,2.61778903e-15" id="Fill-50"></path>
                    <path d="M42.8315509,6.62074737 L42.8315509,2.45181754 L43.5375684,2.45181754 C45.3637088,2.45181754 46.2769018,3.12394035 46.2769018,4.46806316 C46.2769018,5.90330877 45.3381649,6.62074737 43.4613053,6.62074737 L42.8315509,6.62074737 Z M47.4086912,6.84204561 C47.9415509,6.17274737 48.2080421,5.37290526 48.2080421,4.44276491 C48.2080421,3.25141404 47.7828842,2.29339649 46.9320772,1.56699298 C46.1610947,0.915133333 44.9073579,0.588957895 43.1718491,0.588957895 L40.8494456,0.588957895 L40.8494456,13.7247649 L42.8315509,13.7247649 L42.8315509,8.34802807 L43.1890421,8.34802807 L46.9406737,13.7247649 L49.3653754,13.7247649 L45.2988667,8.12648421 C46.1720246,7.93957193 46.8754632,7.51134386 47.4086912,6.84204561 L47.4086912,6.84204561 Z" id="Fill-52"></path>
                    <polygon id="Fill-55" points="50.7381246 13.7247158 57.9863175 13.7247158 57.9863175 11.8616105 52.7204754 11.8616105 52.7204754 7.47150526 57.8333 7.47150526 57.8333 5.60815439 52.7204754 5.60815439 52.7204754 2.45176842 57.9863175 2.45176842 57.9863175 0.588663158 50.7381246 0.588663158"></polygon>
                    <path d="M68.5546842,2.83199123 C67.7569298,1.27541228 66.3560702,1.23660526 66.0058246,1.23660526 C64.4688947,1.23660526 63.5935263,2.34555263 63.5935263,3.64914912 C63.5935263,5.05000877 64.5661579,5.51692105 65.8697544,6.15895614 C67.1538246,6.78146491 67.7958596,7.05385088 68.4574211,7.52088596 C69.0217193,7.9099386 69.8387544,8.59102632 69.8387544,10.030693 C69.8387544,12.2096579 68.0099123,13.8245702 65.7920175,13.8245702 C64.1186491,13.8245702 63.2625614,13.0268158 62.7762456,12.4626404 C62.2702807,11.8790614 62.0564737,11.3732193 61.9396842,11.0423772 L62.6789825,10.6921316 C62.8542281,11.1980965 63.1848246,11.7039386 63.3793509,11.9373947 C63.9630526,12.676693 64.9164035,13.0464649 65.8112982,13.0464649 C67.5624035,13.0464649 68.9437368,11.7622719 68.9437368,10.0500965 C68.9437368,9.34972807 68.6714737,8.61042982 67.679193,8.00720175 C67.3094211,7.79327193 66.5505965,7.40409649 65.4807018,6.87872807 C64.1966316,6.2562193 63.5543509,5.90597368 63.1068421,5.16667544 C62.8150526,4.68035965 62.6985088,4.19379825 62.6985088,3.68795614 C62.6985088,2.18995614 63.7100702,0.458377193 66.0254737,0.458377193 C67.3290702,0.458377193 68.5157544,1.08088596 69.1773158,2.30662281 L68.5546842,2.83199123 Z" id="Fill-56"></path>
                    <path d="M84.3494474,7.15115088 C84.3494474,10.8866947 81.4115351,13.824607 77.6176579,13.824607 C73.8041316,13.824607 70.8857456,10.8866947 70.8857456,7.15115088 C70.8857456,3.41560702 73.8236579,0.458291228 77.6176579,0.458291228 C81.4115351,0.458291228 84.3494474,3.41560702 84.3494474,7.15115088 M83.4544298,7.15115088 C83.4544298,3.82418596 80.9641491,1.23664211 77.6176579,1.23664211 C74.2711667,1.23664211 71.7807632,3.82418596 71.7807632,7.15115088 C71.7807632,10.4587123 74.2711667,13.0463789 77.6176579,13.0463789 C80.9641491,13.0463789 83.4544298,10.4587123 83.4544298,7.15115088" id="Fill-58"></path>
                    <path d="M91.3371544,3.27946316 C90.2283298,1.97586667 88.6329439,1.23656842 86.9595754,1.23656842 C83.6326105,1.23656842 81.142207,3.90209474 81.142207,7.19012982 C81.142207,11.0423404 84.3523825,13.0464281 86.9791018,13.0464281 C88.2826982,13.0464281 90.0142772,12.5210596 91.3371544,11.081393 L91.3371544,12.2097439 C90.0142772,13.3771474 88.4188912,13.8245333 87.0180316,13.8245333 C83.1267684,13.8245333 80.2473123,10.7699544 80.2473123,7.1512 C80.2473123,3.41565614 83.2435579,0.458340351 86.9791018,0.458340351 C89.4499789,0.458340351 90.9481018,1.78134035 91.3371544,2.15098947 L91.3371544,3.27946316 Z" id="Fill-60"></path>
                    <polygon id="Fill-63" points="93.1562456 13.6105912 94.0123333 13.6105912 94.0123333 0.633450877 93.1562456 0.633450877"></polygon>
                    <polygon id="Fill-64" points="101.647 1.26951754 96.2771404 1.26951754 96.2771404 5.9779386 101.530211 5.9779386 101.530211 6.75616667 96.2771404 6.75616667 96.2771404 12.6902018 101.647 12.6902018 101.647 13.4684298 95.4210526 13.4684298 95.4210526 0.491289474 101.647 0.491289474"></polygon>
                    <polygon id="Fill-65" points="107.191565 1.26951754 107.191565 13.4684298 106.335477 13.4684298 106.335477 1.26951754 102.969705 1.26951754 102.969705 0.491289474 110.139179 0.491289474 110.139179 1.26951754"></polygon>
                    <polygon id="Fill-66" points="115.557437 7.92350877 111.296647 0.49122807 112.269402 0.49122807 116.004946 7.04801754 119.818226 0.49122807 120.791104 0.49122807 116.413525 7.92350877 116.413525 13.4684912 115.557437 13.4684912"></polygon>
                </g>
            </g>
        </g>
    </g>
</svg>