<?xml version="1.0" encoding="UTF-8"?>
<svg width="292px" height="29px" viewBox="0 0 292 29" version="1.1" xmlns="http://www.w3.org/2000/svg" xmlns:xlink="http://www.w3.org/1999/xlink">
    <title>297B44D6-1BCB-41B9-9F79-3325F28AB9B4</title>
    <g id="APP---Adore-Society" stroke="none" stroke-width="1" fill="none" fill-rule="evenodd">
        <g id="AB-APP-bit-Sign-In-Social---Refresh" transform="translate(-40.000000, -294.000000)" fill="#231F20" fill-rule="nonzero">
            <g id="Be-Rewarded-Logo-Black-RGB-01" transform="translate(40.000000, 294.000000)">
                <path d="M286.6631,24.2187994 C288.10129,24.2405345 289.464709,23.5743744 290.338739,22.4228993 L290.338739,23.980155 L292,23.980155 L292,12.5009554 L290.338739,12.5009554 L290.338739,18.8351438 C290.338739,21.1042879 288.79786,22.6574989 286.89985,22.6574989 C285.118208,22.6574989 283.689684,21.2256325 283.689684,19.191088 L283.689684,12.5009554 L282.036449,12.5009554 L282.036449,19.1951328 C282.036449,22.1842549 284.042802,24.2187994 286.6631,24.2187994 M272.56646,22.6615437 C270.757493,22.7777994 269.061907,21.7674483 268.29087,20.1138426 C267.519833,18.4602369 267.830106,16.4995716 269.073253,15.1698298 C270.3164,13.840088 272.239678,13.4116198 273.922989,14.0894045 C275.6063,14.7671892 276.707411,16.4134262 276.699549,18.2405552 C276.764816,20.6100906 274.916917,22.5867094 272.56646,22.6615437 M272.56646,24.2187994 C274.97559,24.2681007 277.174839,22.8432222 278.13086,20.6136627 C279.086882,18.3841031 278.609616,15.7931079 276.923312,14.0580914 C275.237007,12.3230749 272.676909,11.7889654 270.445914,12.7067216 C268.214919,13.6244777 266.756557,15.8116458 266.756061,18.2405552 C266.734643,19.8116104 267.336062,21.3263284 268.426892,22.4486691 C269.517722,23.5710098 271.007767,24.2081713 272.56646,24.2187994 M255.821435,28.999892 C257.482695,28.999892 258.429694,28.0451993 259.380706,25.6547106 L264.597225,12.5009554 L262.815583,12.5009554 L259.143956,21.8283107 L255.464304,12.5009554 L253.706738,12.5009554 L258.333389,23.980155 L257.719445,25.6547106 C257.294098,26.8681566 256.652065,27.4465659 255.584685,27.4465659 C255.173018,27.4352565 254.76613,27.3545947 254.380873,27.2079215 L254.380873,28.7611325 C254.838567,28.9226427 255.320467,29.003374 255.805384,28.999892 M240.063535,22.1842549 C238.057181,22.1842549 236.383882,20.3923996 236.383882,18.0019108 C236.383882,15.6114221 238.045143,13.815522 240.063535,13.815522 C242.198295,13.815522 243.855543,15.6073773 243.855543,18.0019108 C243.855543,20.3964444 242.182244,22.1842549 240.063535,22.1842549 M239.943153,28.9997769 C241.440762,28.9946052 242.873771,28.3843096 243.921373,27.3055163 C244.968975,26.226723 245.54367,24.769537 245.516803,23.2601771 L245.516803,12.5009554 L243.855543,12.5009554 L243.855543,14.0541664 C243.855543,14.0541664 242.788163,12.262311 240.063535,12.262311 C237.098144,12.262311 234.722622,14.7700995 234.722622,18.0019108 C234.722622,21.2337222 237.082093,23.7415107 240.063535,23.7415107 C242.788163,23.7415107 243.855543,21.9456105 243.855543,21.9456105 L243.855543,23.2601771 C243.855543,25.6547106 242.077913,27.4465659 239.943153,27.4465659 C238.492206,27.4087892 237.138134,26.703984 236.267514,25.533366 L235.200134,26.6092882 C236.310256,28.1256286 238.073639,29.0143763 239.943153,28.9997769 M221.083431,23.980155 L222.744692,23.980155 L222.744692,17.6419219 C222.744692,15.3687329 224.285571,13.815522 226.303963,13.815522 C228.081592,13.815522 229.385721,15.1300885 229.385721,17.1646331 L229.385721,23.980155 L231.046982,23.980155 L231.046982,17.1646331 C231.046982,14.175511 229.148972,12.2622841 226.420331,12.2622841 C224.958802,12.2572271 223.58677,12.9713807 222.744692,14.175511 L222.744692,12.5009554 L221.083431,12.5009554 L221.083431,23.980155 Z M215.746531,9.75048538 C216.178246,9.75048538 216.567451,9.48833769 216.732661,9.08629313 C216.897871,8.68424858 216.806551,8.22147527 216.501282,7.91376369 C216.196014,7.60605211 215.736915,7.51400077 215.338062,7.68053308 C214.939209,7.84706539 214.679143,8.23938565 214.679143,8.67455555 C214.678079,8.96023759 214.790191,9.23453061 214.990596,9.43653977 C215.191001,9.63854892 215.463117,9.75155781 215.746531,9.75048538 M214.9159,23.980155 L216.577161,23.980155 L216.577161,12.5009554 L214.9159,12.5009554 L214.9159,23.980155 Z M201.850527,17.4032775 C202.10236,15.3988942 203.763508,13.8771423 205.766929,13.815522 C207.773282,13.815522 209.322187,15.3687329 209.562949,17.4032775 L201.850527,17.4032775 Z M205.883297,24.2187994 C207.744052,24.1915353 209.491243,23.3116932 210.630329,21.8283107 L209.566962,20.7523886 C208.698634,21.9273228 207.340503,22.6319771 205.88731,22.6615437 C203.764876,22.6244306 202.01763,20.9682448 201.850527,18.8351438 L211.103829,18.8351438 C211.180537,18.555852 211.219676,18.2674389 211.220197,17.9776419 C211.220197,14.6285308 208.848688,12.2380421 205.766929,12.2380421 C202.801538,12.2380421 200.189266,14.8671752 200.189266,18.2162863 C200.189266,21.5653974 202.801538,24.1945305 205.883297,24.1945305 M191.766594,22.6372748 C189.760241,22.6372748 187.854205,20.7281196 187.854205,18.2162863 C187.854205,15.704453 189.752215,13.7912531 191.766594,13.7912531 C193.905367,13.7912531 195.682996,15.5831084 195.682996,18.2162863 C195.682996,20.8494642 193.917405,22.6615437 191.766594,22.6615437 M191.766594,24.2188802 C194.852366,24.2188802 197.344257,21.7069661 197.344257,18.2405552 C197.344257,14.7741444 194.852366,12.262311 191.766594,12.262311 C190.238598,12.2535363 188.79316,12.9603709 187.854205,14.175511 L187.854205,7.23864439 L186.192944,7.23864439 L186.192944,23.980155 L187.854205,23.980155 L187.854205,22.3055995 C188.79316,23.5207396 190.238598,24.2275742 191.766594,24.2188802 M171.959873,23.980155 L173.621134,23.980155 L173.621134,17.6419219 C173.579189,16.667352 173.936786,15.7182984 174.609989,15.0175214 C175.283192,14.3167443 176.212723,13.9259506 177.180405,13.9368666 L177.890654,13.9368666 L177.890654,12.262311 L177.417154,12.262311 C175.940845,12.215753 174.530928,12.8812837 173.621134,14.0541664 L173.621134,12.5009554 L171.959873,12.5009554 L171.959873,23.980155 Z M162.469821,22.6615437 C160.662564,22.7660297 158.975222,21.7476303 158.213214,20.0924582 C157.451206,18.437286 157.769024,16.4809164 159.014964,15.1571835 C160.260904,13.8334506 162.18236,13.4107325 163.862164,14.0908052 C165.541967,14.770878 166.639548,16.4158614 166.630998,18.2405552 C166.662285,19.3820828 166.242203,20.4893439 165.463247,21.3185345 C164.684291,22.1477251 163.610334,22.6308543 162.477847,22.6615437 M162.477847,24.2187994 C164.886976,24.2681007 167.086225,22.8432222 168.042247,20.6136627 C168.998268,18.3841031 168.521002,15.7931079 166.834698,14.0580914 C165.148393,12.3230749 162.588295,11.7889654 160.3573,12.7067216 C158.126305,13.6244777 156.667943,15.8116458 156.667447,18.2405552 C156.64603,19.8116104 157.247448,21.3263284 158.338278,22.4486691 C159.429108,23.5710098 160.919153,24.2081713 162.477847,24.2187994 M149.777629,23.980155 L151.43889,23.980155 L151.43889,14.0541664 L154.167531,14.0541664 L154.167531,12.5009554 L151.43889,12.5009554 L151.43889,10.3410215 C151.43889,9.12757541 152.03277,8.5451213 152.979769,8.5451213 C153.513855,8.55641641 154.039845,8.67898198 154.524661,8.9051103 L154.524661,7.35998899 C154.0021,7.12382607 153.436079,7.0011713 152.863401,7 C150.96539,7 149.777629,8.21344605 149.777629,10.3491111 L149.777629,12.5009554 L148,12.5009554 L148,14.0541664 L149.777629,14.0541664 L149.777629,23.980155 Z" id="Shape"></path>
                <path d="M139.711262,7.94430611 C139.711262,7.94430611 139.667201,7.96835547 139.643168,7.97637193 C139.619134,7.98438838 139.643168,7.94430611 139.643168,7.93228143 L139.711262,7.86414157 C139.715332,7.89070793 139.715332,7.91773974 139.711262,7.94430611 L139.711262,7.94430611 Z M127.185859,21.1193486 C127.159164,20.918761 127.152481,20.7160199 127.165832,20.5141063 C127.205867,20.0974121 127.290468,19.6862194 127.418182,19.2875888 C127.602438,18.690363 127.8628,18.1292112 128.083106,17.5560347 C128.155111,17.4040224 128.236723,17.2567557 128.327446,17.1151297 C128.423579,16.9387677 128.511702,16.7624057 128.631869,16.5219121 L128.940297,16.1210894 C129.224692,15.7202667 129.509087,15.319444 129.801494,14.9506871 C130.202854,14.4351175 130.644882,13.9525839 131.12333,13.5077253 C131.733727,12.8855478 132.432961,12.3573966 133.198213,11.9405085 C133.302358,11.8884016 133.382469,11.7841877 133.490619,11.7521219 C133.730953,11.6759655 133.975293,11.6238586 134.183582,11.5717516 C134.369645,11.5799111 134.533918,11.695761 134.604167,11.8683604 C134.695656,12.1015891 134.769303,12.3414371 134.824473,12.5858331 C134.844458,12.7319024 134.852495,12.8793602 134.848506,13.0267381 C134.540077,13.4035114 134.243666,13.7682601 133.943248,14.1249923 C133.642831,14.4817245 133.278324,14.878539 132.953874,15.2633288 C132.417128,15.9006369 131.884388,16.5499697 131.351647,17.1952943 L130.041828,18.7985851 C129.689338,19.2234572 129.340854,19.6523375 128.972342,20.0651849 C128.60383,20.4780322 128.303412,20.7666246 127.946917,21.0993074 C127.778067,21.2715133 127.559543,21.3864549 127.322049,21.4279821 C127.265054,21.3439998 127.220529,21.2521915 127.189865,21.1554226 M139.346756,8.32909591 C139.346756,8.43330981 139.346756,8.43330981 139.222583,8.55355663 C139.209811,8.61844235 139.189652,8.6816501 139.1625,8.7419433 C138.966227,9.05458501 138.733904,9.34718559 138.565671,9.67185199 C138.355979,9.9716862 138.16855,10.2865088 138.004892,10.6137854 C137.681529,11.0305251 137.388375,11.4698793 137.127673,11.9284838 C136.847283,12.3293066 136.691066,12.7902527 136.410677,13.1870672 C136.130287,13.5838816 136.078215,14.0648689 135.769786,14.4296176 C135.202667,15.5140965 134.734778,16.6477026 134.371844,17.8165695 C134.174436,18.4375866 134.024463,19.0727142 133.92322,19.7164691 C133.845858,20.2646602 133.816372,20.8185538 133.835098,21.3718669 C133.841795,21.7432835 133.948336,22.1060394 134.143527,22.4220224 C134.253285,22.6052886 134.436344,22.7326256 134.646254,22.7717224 C134.856164,22.8108192 135.072749,22.7579179 135.241051,22.626442 C135.375431,22.5405907 135.419387,22.3646498 135.341191,22.2256193 L134.748367,22.1214054 C134.708311,21.9771092 134.66425,21.8528541 134.636211,21.7205826 C134.54079,21.1216837 134.58326,20.5088902 134.760384,19.9289051 C134.964002,19.0853086 135.231821,18.2585372 135.561497,17.455829 C136.014126,16.3896406 136.482777,15.3354769 136.979467,14.2893296 C137.078406,14.1351959 137.166733,13.9744946 137.243834,13.8083424 C137.376163,13.4672841 137.548257,13.1430469 137.756546,12.8423596 C137.811328,12.7573061 137.860823,12.6689579 137.904752,12.5778166 C138.095013,12.1890297 138.307666,11.8116217 138.541637,11.4474966 C138.685838,11.2230359 138.793988,10.9745258 138.942194,10.7460568 C139.0904,10.5175879 139.230595,10.2971354 139.374795,10.0686665 C139.599107,9.71193426 139.819413,9.35520205 140.043724,9.00247806 C140.444281,8.39723577 140.820804,7.80000993 141.213349,7.18274296 C141.605895,6.56547599 142.014462,5.90812674 142.443058,5.28284332 C142.871653,4.65755989 143.364338,3.95612015 143.816967,3.27872977 C144.009234,3.0021621 144.177468,2.70956152 144.377746,2.44501853 C144.83438,1.82374333 145.307037,1.21449281 145.771683,0.597225838 C145.851794,0.493011933 145.919889,0.376773347 146,0.24851008 C145.939917,0.168345538 145.883839,0.0881809962 145.823755,0 C145.738473,0.0213088473 145.657276,0.0565173099 145.583421,0.104213905 C145.439221,0.240493626 145.307037,0.396814483 145.182865,0.545118885 C144.658136,1.11027891 144.19349,1.72754588 143.708817,2.32477172 C142.783531,3.45909999 141.850234,4.57739535 140.904921,5.70370716 C140.231986,6.50535258 139.559051,7.33906382 138.902138,8.15674214 C137.992875,9.27904573 137.103639,10.4173822 136.142304,11.4915871 C136.08222,11.5517105 136.042164,11.6278668 135.942025,11.5998092 C135.832071,11.3532885 135.697892,11.1183193 135.541469,10.8983695 C135.35786,10.7024017 135.155252,10.5251696 134.936628,10.3692835 C134.843365,10.3687226 134.750531,10.3566057 134.660244,10.3332095 C134.587034,10.2979734 134.508557,10.2749563 134.427922,10.2650696 C134.128373,10.2413613 133.827016,10.2726037 133.538686,10.3572588 C132.999706,10.5418239 132.492886,10.8096023 132.036599,11.1508878 C131.636904,11.4298317 131.253106,11.7309186 130.887002,12.0527389 C130.524916,12.3723176 130.179957,12.7108166 129.853566,13.0668203 C129.406365,13.5228717 129.003962,14.0208412 128.651896,14.5538726 C128.570367,14.7183147 128.476642,14.8764141 128.371507,15.0268434 C128.168822,15.2284902 128.005775,15.4664254 127.890839,15.7282831 C127.77843,15.9811956 127.644414,16.2239263 127.490282,16.4537722 C127.481029,16.4671546 127.474246,16.4820872 127.470255,16.4978627 C127.470255,16.7864551 127.269976,16.9828582 127.165832,17.2273601 C127.017626,17.5840923 126.881437,17.9408245 126.765275,18.3055732 C126.522374,18.9844426 126.387218,19.6971897 126.364719,20.4179088 C126.327871,20.8577408 126.430164,21.2980323 126.657125,21.6764921 C126.795981,21.9136026 127.061045,22.0470075 127.334065,22.0171914 C127.601261,21.9950642 127.856761,21.8977985 128.071089,21.7366156 C128.43981,21.4470726 128.776825,21.119239 129.076486,20.7586081 C129.477043,20.3177032 129.845555,19.8286995 130.218072,19.3557287 C130.722774,18.726437 131.207447,18.0811124 131.716154,17.4598372 C132.449172,16.5619944 133.198213,15.6801844 133.939243,14.7943662 C134.195599,14.4817245 134.459966,14.1770992 134.740356,13.872474 C134.796434,13.8083424 134.856517,13.7522272 134.960662,13.8003259 C134.994361,13.9386806 135.042701,14.0730471 135.104862,14.2011486 C135.171739,14.2956671 135.265138,14.3682041 135.373235,14.4095764 C135.433319,14.437634 135.525447,14.4095764 135.62158,14.4095764 C135.893076,13.7767289 136.029507,13.0941205 136.022137,12.4054629 C136.082062,12.2991851 136.147578,12.1961625 136.218409,12.0968294 C136.474766,11.7881959 136.735127,11.4875789 136.991483,11.1789454 L138.24122,9.66784376 C138.517604,9.33115268 138.789982,8.99045338 139.070372,8.6537623 C139.122444,8.58963067 139.170511,8.51748258 139.27065,8.53351549 C139.19855,8.40926045 139.258633,8.34512882 139.34275,8.28901364 L139.346756,8.32909591 Z M117.099846,15.3515098 C117.175952,15.1470902 117.276091,14.9506871 117.384241,14.7142017 C117.732725,14.3414366 118.097232,13.9125563 118.497788,13.5117335 C119.274713,12.7433659 120.242749,12.1967539 121.301684,11.9284838 L121.778346,12.0447224 C121.800253,12.1133778 121.811071,12.1850915 121.810421,12.2571585 C121.664187,12.8495914 121.341499,13.3835689 120.885105,13.7883012 C119.786885,14.8374239 118.529595,15.7059364 117.159929,16.361583 C117.048615,16.40308 116.934921,16.4378801 116.819456,16.4657969 C116.793292,16.3815682 116.782438,16.2933258 116.787412,16.2052622 C116.875534,15.9166698 116.971668,15.6280775 117.079818,15.3475016 M128.900241,14.7582922 C128.797586,14.7902282 128.700351,14.8375264 128.611841,14.8985801 C127.758655,15.4036167 126.937514,15.9687768 126.068307,16.449764 C125.483494,16.7744304 124.898682,17.0950886 124.305858,17.4077303 C123.340503,17.9369761 122.317764,18.3538747 121.257623,18.6502807 C120.466667,18.868604 119.645463,18.9566002 118.826245,18.9108154 C118.124116,18.8940219 117.455516,18.6068783 116.959651,18.10917 C116.911584,17.8887175 116.743351,17.7083473 116.80744,17.3997138 C116.995701,17.3235575 117.207996,17.2393847 117.392252,17.1672367 C118.292458,16.8475333 119.139189,16.3934812 119.903742,15.8204724 C120.280265,15.53188 120.676816,15.2593206 121.0253,14.9386624 C121.608699,14.4351885 122.097103,13.8310658 122.467303,13.1550013 C122.563109,12.9859945 122.637134,12.8055238 122.68761,12.6178989 C122.805286,12.2821496 122.751835,11.9100633 122.544414,11.6210772 C122.336992,11.3320911 122.0017,11.1625669 121.646163,11.1669207 C121.559791,11.1549039 121.472173,11.1549039 121.385801,11.1669207 C121.13345,11.2150194 120.8811,11.2751428 120.628749,11.3352662 C119.815111,11.572376 119.062256,11.9825517 118.421682,12.5377344 C117.795497,13.0032599 117.253592,13.5726385 116.819456,14.2211897 C116.410204,14.7802808 116.127289,15.4217077 115.990304,16.1010483 C115.934226,16.4417476 115.882154,16.7824469 115.822071,17.1431873 C115.890165,17.3235575 115.974282,17.5199606 116.042377,17.7243802 C116.320182,18.6296881 117.045838,19.3270239 117.961042,19.5681647 C118.859356,19.8124552 119.806541,19.8124552 120.704855,19.5681647 C121.555863,19.3324046 122.390759,19.0418711 123.204327,18.6983794 C124.2482,18.2887839 125.244711,17.767351 126.176457,17.1431873 C126.69718,16.7984798 127.217904,16.449764 127.730616,16.0890236 C128.131173,15.8044394 128.531729,15.4998142 128.932286,15.1991972 C129.059747,15.1253959 129.12709,14.9793882 129.10052,14.8344485 C129.036431,14.8344485 128.956319,14.7743251 128.89223,14.790358 M115.201208,7.94430611 C115.201208,7.94430611 115.157147,7.96835547 115.133113,7.97637193 C115.10908,7.98438838 115.133113,7.94430611 115.133113,7.93228143 L115.201208,7.86414157 C115.205277,7.89070793 115.205277,7.91773974 115.201208,7.94430611 L115.201208,7.94430611 Z M102.679811,21.1193486 C102.653115,20.918761 102.646432,20.7160199 102.659783,20.5141063 C102.699818,20.0974121 102.784419,19.6862194 102.912133,19.2875888 C103.096389,18.690363 103.356751,18.1292112 103.577057,17.5560347 C103.649063,17.4040224 103.730674,17.2567557 103.821397,17.1151297 C103.91753,16.9387677 104.005653,16.7624057 104.12582,16.5219121 L104.434248,16.1210894 C104.718643,15.7202667 105.003038,15.319444 105.295445,14.9506871 C105.696805,14.4351175 106.138833,13.9525839 106.617281,13.5077253 C107.225061,12.8787666 107.922999,12.3438211 108.688159,11.9204674 C108.792303,11.8683604 108.87642,11.7641465 108.980565,11.7320807 C109.220899,11.6559244 109.465238,11.6038174 109.673528,11.5517105 C109.859591,11.5598699 110.023863,11.6757199 110.094112,11.8483193 C110.185602,12.081548 110.259249,12.321396 110.314418,12.565792 C110.334403,12.7118612 110.342441,12.8593191 110.338452,13.0066969 C110.030023,13.3834703 109.733611,13.7482189 109.433194,14.1049512 C109.132776,14.4616834 108.76827,14.8584979 108.443819,15.2432877 C107.907073,15.8805958 107.374333,16.5299286 106.841593,17.1752531 L105.531773,18.778544 C105.179283,19.203416 104.830799,19.6322963 104.462287,20.0451437 C104.093775,20.4579911 103.793358,20.7465835 103.436862,21.0792663 C103.268506,21.2521353 103.049754,21.3671967 102.811994,21.4079409 C102.754999,21.3239586 102.710475,21.2321503 102.679811,21.1353815 M114.836701,8.30905477 C114.836701,8.41326868 114.836701,8.41326868 114.712529,8.53351549 C114.699757,8.59840122 114.679598,8.66160897 114.652445,8.72190217 C114.456173,9.03454388 114.22385,9.32714446 114.055616,9.65181085 C113.845925,9.95164506 113.658495,10.2664676 113.494837,10.5937442 C113.175357,11.023868 112.887533,11.4766539 112.63364,11.948525 C112.353251,12.3493477 112.197034,12.8102938 111.916644,13.2071083 C111.636255,13.6039228 111.584182,14.08491 111.275754,14.4496587 C110.713867,15.5281275 110.250024,16.6549679 109.889828,17.8165695 C109.688352,18.4372627 109.534361,19.0723956 109.429188,19.7164691 C109.351826,20.2646602 109.32234,20.8185538 109.341066,21.3718669 C109.347763,21.7432835 109.454304,22.1060394 109.649494,22.4220224 C109.759252,22.6052886 109.942312,22.7326256 110.152222,22.7717224 C110.362132,22.8108192 110.578717,22.7579179 110.747019,22.626442 C110.881399,22.5405907 110.925355,22.3646498 110.847158,22.2256193 L110.254335,22.1214054 C110.214279,21.9771092 110.170218,21.8528541 110.142179,21.7205826 C110.046758,21.1216837 110.089228,20.5088902 110.266351,19.9289051 C110.46997,19.0853086 110.737789,18.2585372 111.067464,17.455829 C111.520093,16.3896406 111.988744,15.3354769 112.485435,14.2893296 C112.584373,14.1351959 112.6727,13.9744946 112.749802,13.8083424 C112.882131,13.4672841 113.054225,13.1430469 113.262514,12.8423596 C113.317295,12.7573061 113.366791,12.6689579 113.41072,12.5778166 C113.600981,12.1890297 113.813634,11.8116217 114.047605,11.4474966 C114.191805,11.2230359 114.299956,10.9745258 114.448162,10.7460568 C114.596368,10.5175879 114.740568,10.2971354 114.880763,10.0686665 C115.105074,9.71193426 115.32538,9.35520205 115.549692,9.00247806 C115.950249,8.39723577 116.326772,7.80000993 116.719317,7.18274296 C117.111863,6.56547599 117.52043,5.90812674 117.949026,5.28284332 C118.377621,4.65755989 118.870306,3.95612015 119.322935,3.27872977 C119.515202,3.0021621 119.683436,2.70956152 119.883714,2.44501853 C120.340348,1.82374333 120.813005,1.21449281 121.277651,0.597225838 C121.360607,0.485625796 121.436847,0.369181074 121.505968,0.24851008 C121.445884,0.168345538 121.389806,0.0881809962 121.329723,0 C121.244441,0.0213088473 121.163244,0.0565173099 121.089389,0.104213905 C120.945189,0.240493626 120.813005,0.396814483 120.688832,0.545118885 C120.164103,1.11027891 119.699458,1.72754588 119.214784,2.32477172 C118.289499,3.45909999 117.356202,4.57739535 116.410889,5.70370716 C115.737954,6.50535258 115.065019,7.33906382 114.408106,8.15674214 C113.498843,9.27904573 112.609607,10.4173822 111.648271,11.4915871 C111.592193,11.5517105 111.548132,11.6278668 111.447993,11.5998092 C111.338038,11.3532885 111.20386,11.1183193 111.047437,10.8983695 C110.863828,10.7024017 110.66122,10.5251696 110.442596,10.3692835 C110.349333,10.3687226 110.256499,10.3566057 110.166212,10.3332095 C110.093002,10.2979734 110.014525,10.2749563 109.933889,10.2650696 C109.634341,10.2413613 109.332983,10.2726037 109.044654,10.3572588 C108.500068,10.540291 107.987738,10.8081243 107.526545,11.1508878 C107.126849,11.4298317 106.743051,11.7309186 106.376947,12.0527389 C106.014861,12.3723176 105.669902,12.7108166 105.343512,13.0668203 C104.896311,13.5228717 104.493907,14.0208412 104.141842,14.5538726 C104.060313,14.7183147 103.966587,14.8764141 103.861452,15.0268434 C103.658767,15.2284902 103.49572,15.4664254 103.380784,15.7282831 C103.268376,15.9811956 103.134359,16.2239263 102.980228,16.4537722 C102.970975,16.4671546 102.964192,16.4820872 102.9602,16.4978627 C102.9602,16.7864551 102.759922,16.9828582 102.659783,17.2273601 C102.507571,17.5840923 102.371382,17.9408245 102.259226,18.3055732 C102.016325,18.9844426 101.881169,19.6971897 101.85867,20.4179088 C101.821822,20.8577408 101.924115,21.2980323 102.151076,21.6764921 C102.289932,21.9136026 102.554996,22.0470075 102.828016,22.0171914 C103.095212,21.9950642 103.350712,21.8977985 103.565041,21.7366156 C103.933761,21.4470726 104.270776,21.119239 104.570437,20.7586081 C104.970994,20.3177032 105.339506,19.8286995 105.712024,19.3557287 C106.216725,18.726437 106.701398,18.0811124 107.210105,17.4598372 C107.943123,16.5619944 108.692164,15.6801844 109.433194,14.7943662 C109.68955,14.4817245 109.953917,14.1770992 110.234307,13.872474 C110.290385,13.8083424 110.350468,13.7522272 110.454613,13.8003259 C110.488312,13.9386806 110.536652,14.0730471 110.598813,14.2011486 C110.66569,14.2956671 110.759089,14.3682041 110.867186,14.4095764 C110.92727,14.437634 111.019398,14.4095764 111.115531,14.4095764 C111.387027,13.7767289 111.523458,13.0941205 111.516088,12.4054629 C111.576013,12.2991851 111.641529,12.1961625 111.71236,12.0968294 C111.968717,11.7881959 112.229078,11.4875789 112.485435,11.1789454 C112.906019,10.677917 113.318592,10.1728804 113.735171,9.66784376 C114.011555,9.33115268 114.283933,8.99045338 114.564323,8.6537623 C114.616395,8.58963067 114.664462,8.51748258 114.764601,8.53351549 C114.696507,8.40926045 114.748579,8.34512882 114.832696,8.28901364 L114.836701,8.30905477 Z M103.817391,15.1230408 C103.484929,15.3595262 103.172495,15.620061 102.836028,15.8485299 C101.410046,16.8225291 100.08821,17.9368163 98.7303231,18.9989964 C97.5046201,19.9529545 96.3269839,20.951003 95.1253143,21.9330187 C94.6045908,22.3659072 94.0758561,22.7907793 93.5911827,23.2597419 C92.5978025,24.2136999 91.6324613,25.1997238 90.6551033,26.1657065 C90.2900902,26.5411421 89.876518,26.8660187 89.4253948,27.1316892 C89.2239246,27.2832435 88.9645023,27.3348674 88.7204153,27.2719772 C88.5054333,27.0349362 88.4045004,26.715835 88.4440312,26.3981837 C88.4448469,25.8139133 88.5492756,25.2344241 88.7524598,24.6866707 C88.9777713,24.0683671 89.255152,23.4703283 89.5816118,22.8990014 C90.142391,21.9290105 90.7832814,20.9991018 91.4081496,20.0932424 C91.8021116,19.5241672 92.1580478,18.9296534 92.47363,18.3135896 C92.8687714,17.6535706 92.9662721,16.8570281 92.7420029,16.1210894 C92.675181,16.0579863 92.6184415,15.9849871 92.5737691,15.9046451 C92.4179897,15.5477747 92.1918332,15.2260373 91.9088453,14.9587035 C91.7406115,14.7823415 91.5843945,14.5859384 91.4281774,14.4095764 C91.4642275,14.3294119 91.4722387,14.261272 91.5122943,14.225198 C91.8647841,13.8925151 92.0250067,13.4235526 92.3774964,13.0868615 C92.4600686,13.0024094 92.5182097,12.8971318 92.5457302,12.7822362 C92.6001272,12.6448558 92.6630022,12.5109903 92.7339918,12.3814135 C92.947845,11.9990841 92.9131728,11.5259665 92.6458693,11.1789454 C92.5497357,11.1428713 92.4375799,11.1108055 92.3334352,11.066715 C92.2426122,11.0193231 92.1543657,10.9671428 92.0690679,10.9103942 C91.3379135,11.0417827 90.7139,11.5156923 90.390736,12.1850104 C89.9567911,12.8285405 89.871203,13.6459234 90.1624188,14.3654859 L90.7712647,15.1591149 C91.1333799,15.4818928 91.4512407,15.8511798 91.7165781,16.2573691 C91.7406115,16.4858381 91.7686505,16.6942659 91.7886783,16.8786443 C91.6008425,17.5204176 91.292224,18.1203787 90.879415,18.6462725 C90.5189141,19.1713502 90.142391,19.6844033 89.7738789,20.2054728 C89.6296786,20.4098924 89.5175228,20.6383613 89.3733224,20.8427809 C88.8507342,21.6353962 88.4206666,22.485344 88.0915415,23.3759804 C87.8343789,24.0645726 87.6622008,24.7820096 87.5788291,25.5123655 C87.5256742,26.0934185 87.5883029,26.6792503 87.7630851,27.2359031 C87.8464025,27.5666061 88.1025465,27.8259899 88.4320145,27.9132935 C88.7807843,28.0535273 89.1750363,28.0223815 89.4974949,27.8291207 C89.7132505,27.7028296 89.9194262,27.5608221 90.114352,27.4042487 C90.5469531,27.003426 90.971543,26.6026032 91.3761051,26.2017805 C92.2413072,25.2932491 93.1305427,24.4047587 94.0438116,23.5363095 C95.0131584,22.6144173 96.0225609,21.7406238 97.0479857,20.8868714 C98.4659558,19.7111248 99.8972778,18.5527472 101.341952,17.4117385 C102.251215,16.6902576 103.140451,15.9367109 104.121814,15.3034111 C104.306481,15.1940585 104.457527,15.0359786 104.558421,14.8464732 C104.283558,14.8527963 104.019174,14.9532441 103.80938,15.1310573 M78.6624406,17.5600429 C78.654073,17.4841168 78.654073,17.4075001 78.6624406,17.331574 C78.8397689,16.7507115 79.1607889,16.2240544 79.5957373,15.8004312 C79.8160434,15.5639458 80.0723996,15.3595262 80.2887002,15.1190326 C80.6353812,14.7367053 81.1097635,14.4943672 81.6225534,14.437634 C81.8228317,14.6300289 81.8228317,14.6300289 81.8428595,14.9226295 C80.8952913,15.9231381 79.8331635,16.8083843 78.6784629,17.5600429 M90.8473705,14.702177 C90.6949011,14.7829199 90.5489269,14.875387 90.4107638,14.9787447 C89.4614448,15.656135 88.5241426,16.3575748 87.5668124,17.0189323 C87.0346561,17.3905276 86.4794335,17.7278989 85.9045028,18.0290055 C85.4089448,18.347544 84.8202148,18.48882 84.234182,18.4298282 C83.8377928,18.2358239 83.545374,17.8788358 83.433069,17.4518208 C83.2678429,16.9801643 83.2050274,16.478673 83.248813,15.9808014 C83.2978692,15.3768629 83.4327458,14.7830112 83.6493695,14.2171815 C83.7655309,13.9165645 83.8576589,13.607931 83.9618036,13.2912811 L83.7695365,13.1349602 C83.3689799,13.1790507 83.2568241,13.6199557 82.916351,13.732186 L82.4116498,13.2872728 C82.1092275,13.1881067 81.7925723,13.1393581 81.4743475,13.1429767 C81.0622899,13.188999 80.6655603,13.3258932 80.3127335,13.5437994 C79.7990496,13.8697706 79.3406543,14.2756998 78.9548469,14.7462675 C78.4699287,15.3526296 78.0659764,16.0195938 77.7531773,16.7303399 C77.5060475,17.221283 77.4712908,17.7922522 77.6570437,18.3095814 C77.8462063,18.4687257 78.0675872,18.5849595 78.3059453,18.6502807 C78.7514166,18.554065 79.1650064,18.3457531 79.5076149,18.0450384 C80.0363495,17.596117 80.5410508,17.1271544 81.045752,16.6501754 C81.3862251,16.325509 81.7066703,15.9767932 82.0391322,15.6401021 C82.1592992,15.6401021 82.2674494,15.6401021 82.3755997,15.6000199 C82.4597394,15.5843046 82.5427127,15.5628779 82.6239448,15.5358882 C82.7120672,15.5118389 82.7521229,15.3795674 82.8762954,15.4156414 C82.7000505,16.6662083 82.7361006,17.8486353 83.7455031,18.7585028 C83.8381542,18.7801413 83.9291712,18.8082681 84.0178815,18.8426756 C84.4032692,18.9986762 84.8341634,18.9986762 85.2195511,18.8426756 C85.3651964,18.8016857 85.5083083,18.7521655 85.6481466,18.6943712 C86.4831209,18.3341161 87.2691272,17.8694715 87.9873968,17.3115328 C88.3038365,17.0509981 88.6403039,16.8145127 88.9607492,16.5619944 C89.5589136,16.09704 90.1530725,15.6267414 90.7432258,15.1510984 C90.8714039,15.0508928 91.0276209,14.9587035 91.0316265,14.7502757 C90.9635319,14.7502757 90.8874261,14.7222181 90.8433649,14.7502757 M78.9788803,14.6260207 C78.2041295,14.3391589 77.3968832,14.1493299 76.5755411,14.0608607 C75.6742889,13.9887126 74.7690311,13.9325974 73.8677789,13.8644575 C73.41515,13.8323917 72.9665267,13.7923094 72.5219089,13.7562354 C72.3956825,13.6231005 72.2619449,13.4973037 72.1213524,13.3794621 C71.99245,13.2594788 71.8194294,13.1986446 71.6438567,13.2115741 C71.4682841,13.2245036 71.3060274,13.3100283 71.1960668,13.4476019 C71.1399889,13.5157418 71.1560111,13.6480133 71.1399889,13.7281778 C71.2922003,13.8965233 71.4163729,14.0448278 71.5405454,14.1690828 L72.0011854,14.3775106 C72.0912274,14.6371304 72.0912274,14.9195362 72.0011854,15.179156 C71.880048,15.7063382 71.7152504,16.2225108 71.5085009,16.7223235 C71.1443951,17.533616 70.694544,18.3035741 70.1666365,19.0190376 C69.6419074,19.7044444 69.157234,20.4139006 68.6004604,21.0792663 C68.0258683,21.7802327 67.4134396,22.4492673 66.7659115,23.0833799 C66.4607605,23.3593318 66.1368693,23.6137955 65.7965647,23.844943 C65.6156442,24.0124038 65.3453494,24.0386316 65.1356464,23.9090746 C64.9839256,23.7235287 64.9004952,23.4914663 64.899318,23.2517254 C64.8424666,22.6255755 64.8559022,21.9950228 64.9393737,21.3718669 C65.155664,19.8050354 65.5177376,18.2618455 66.0208763,16.7624057 C66.1810989,16.2693938 66.2892492,15.7603489 66.4214329,15.2593206 C66.4294024,15.1981198 66.4294024,15.1361429 66.4214329,15.0749421 C66.3693456,14.8708342 66.2342559,14.6978626 66.0489153,14.5979631 L65.4280526,14.7582922 C64.6629897,15.4477072 64.0140881,16.1731963 63.2810696,16.8105044 C62.9045465,17.1391791 62.5440456,17.4798784 62.1675224,17.8045448 C61.7909993,18.1292112 61.4385095,18.4137953 61.0740031,18.7184205 C60.4611516,19.2314736 59.8723335,19.7565514 59.2394542,20.261588 C58.8869644,20.5501803 58.5144468,20.8067069 58.1499404,21.0632334 C58.0972022,21.1170948 58.0250181,21.1474471 57.9496621,21.1474471 C57.8743062,21.1474471 57.802122,21.1170948 57.7493838,21.0632334 C57.7468426,20.9461559 57.757593,20.8291681 57.7814284,20.7145176 C57.85746,20.4655466 57.9497876,20.221854 58.0578124,19.9850203 C58.5889719,18.8260511 59.2244742,17.7178788 59.9564504,16.6742247 C60.3131332,16.1308579 60.7065999,15.612583 61.1340866,15.1230408 C61.5025986,14.7222181 61.8310549,14.3213954 62.1795391,13.8885069 C62.3680066,13.6783334 62.5051266,13.427237 62.5800957,13.1550013 C62.5769053,13.0422867 62.5538533,12.9310208 62.5120011,12.8263267 L61.9912776,12.7942609 C61.8470772,12.9265324 61.7068824,13.0307463 61.590721,13.1590096 C61.1340866,13.6480133 60.6734466,14.137017 60.2408455,14.6420536 C59.6638848,15.2562637 59.1659973,15.9403041 58.7587863,16.678233 C58.5087399,16.9717058 58.3023284,17.2997535 58.1459348,17.6522321 C57.4983256,18.6574074 57.0710188,19.788542 56.8921928,20.9710442 C56.9322485,21.1714555 56.9763097,21.3718669 57.0243765,21.6163687 L57.517061,21.9290105 C57.799382,21.9274302 58.0760827,21.8499025 58.3181741,21.7045497 C58.9479981,21.3266117 59.5467225,20.8990502 60.1086618,20.4259253 C61.5346431,19.2688837 62.9165632,18.0583992 64.254422,16.7944715 C64.4668492,16.599792 64.7180192,16.4522681 64.991446,16.361583 C65.0058677,16.4013734 65.0126623,16.4435282 65.0114738,16.4858381 C64.8392345,17.1471955 64.650973,17.8125612 64.4827392,18.4899516 C64.3385389,19.0591199 64.2584276,19.6363046 64.162294,20.2054728 C64.0167731,21.0819146 64.0073155,21.9755818 64.134255,22.8549109 C64.1659715,23.4292068 64.4203324,23.9684651 64.8432401,24.3579961 L65.2437966,24.4742347 C65.8161639,24.3781019 66.34111,24.0964424 66.7378725,23.6725892 C67.1429872,23.3146109 67.528104,22.9345906 67.8914753,22.5342527 C68.5483881,21.7847143 69.185273,21.0231511 69.8061356,20.2415468 C70.6632119,19.1586809 71.4105869,17.9932365 72.0372355,16.7624057 C72.3642413,16.1577718 72.5684418,15.4943601 72.6380703,14.8103991 C72.6542503,14.6982682 72.6769875,14.5871833 72.7061649,14.4777163 C73.294983,14.5298232 73.8517566,14.5979631 74.4085302,14.6260207 C74.9918176,14.6425894 75.5736277,14.693448 76.1509511,14.7783333 C76.7037192,14.8705225 77.2644983,14.9306459 77.8172663,15.0148187 C78.3700343,15.0989915 78.962858,15.2032054 79.5556817,15.2994028 L79.6878654,15.0148187 C79.4948331,14.7992177 79.2470696,14.6399343 78.9708691,14.5538726 L78.9788803,14.6260207 Z M47.5912701,18.3656966 C47.5615052,18.1729535 47.5738037,17.9760464 47.6273202,17.7885119 C47.7412443,17.222646 47.9354789,16.6759982 48.2041216,16.1651799 C48.2962496,16.0008426 48.3803664,15.8365053 48.4684889,15.6681597 C48.6506371,15.3014374 48.8580934,14.9478575 49.0893515,14.6099878 C49.5718569,13.8985487 50.0989798,13.2184565 50.6675443,12.5738084 C50.9344029,12.2853778 51.2357547,12.0309432 51.5647909,11.8162535 C51.7472336,11.6817149 51.9670622,11.607456 52.1936647,11.6038174 C52.4076274,11.7002571 52.5184814,11.9391783 52.4540264,12.1649692 C52.4106826,12.4239978 52.3367286,12.676954 52.2337203,12.9185159 C52.0251026,13.377988 51.7672345,13.8134294 51.4646518,14.2171815 C50.4123836,15.6465409 49.2296634,16.9749662 47.9317431,18.1853263 C47.8485228,18.261298 47.7587109,18.3297077 47.6633702,18.3897459 C47.6633702,18.3897459 47.6273202,18.3897459 47.5752478,18.3897459 M60.3730292,14.9747364 C60.0661542,15.5960668 59.660295,16.1632934 59.1713595,16.6541836 C58.9310256,16.890669 58.6866861,17.1231462 58.4383411,17.3556233 C57.5919974,18.1477273 56.6703456,18.8551993 55.6865177,19.467959 C55.4661803,19.6147756 55.2374749,19.7486103 55.001566,19.8687817 C54.0900669,20.2852736 53.1308963,20.5881583 52.1455979,20.7706328 C51.4866199,20.9020488 50.81381,20.9505233 50.1428152,20.914929 C49.4433719,20.8932047 48.7733799,20.6281481 48.2481828,20.1653905 C47.9746762,19.9142789 47.7904553,19.5807724 47.7234537,19.2154407 C47.8075706,19.1312679 47.8676541,19.0591199 47.9357487,18.9949882 C48.0038433,18.9308566 48.0719379,18.866725 48.1400325,18.8066015 C49.2723948,17.7978231 50.3138528,16.6912932 51.2523568,15.4998142 C51.7324778,14.9033651 52.1739909,14.2768032 52.5741934,13.6239639 C52.7638955,13.2797285 52.9182314,12.917134 53.0348334,12.5417426 C53.1290594,12.2526271 53.1290594,11.9410317 53.0348334,11.6519162 C52.9645691,11.4045164 52.7970573,11.1961999 52.5705837,11.0745783 C52.3441101,10.9529567 52.0780324,10.9284256 51.8331638,11.0065916 C51.5656249,11.090112 51.3108745,11.2101535 51.0761119,11.3633238 C50.3485273,11.8617088 49.7117573,12.4812775 49.1934962,13.1950836 C48.8410065,13.6720626 48.4885167,14.1490417 48.172077,14.6540783 C47.8749302,15.084367 47.6072788,15.5343202 47.370964,16.0008426 C46.9601992,16.8052209 46.7931378,17.7121315 46.8902961,18.6101984 C46.9023177,18.7756534 46.9023177,18.9417636 46.8902961,19.1072186 C46.7821459,19.2074243 46.6860123,19.2956053 46.5858732,19.379778 C46.2173611,19.696428 45.8488491,20.0130779 45.4683204,20.3177032 C44.8434522,20.8227398 44.2025618,21.3117435 43.573688,21.8127719 C42.9448142,22.3138003 42.2438403,22.7867711 41.5709053,23.2517254 C40.8709082,23.7215426 40.114585,24.1013021 39.3197776,24.3820454 C39.0531931,24.4678675 38.7777012,24.5230025 38.4986367,24.5463827 C38.1104386,24.5784118 37.755477,24.3263907 37.657468,23.9491569 C37.5581463,23.5081996 37.5987526,23.047222 37.7736294,22.6304502 C37.9319726,22.1710204 38.1317382,21.7269509 38.3704586,21.303727 C38.7524076,20.6161775 39.1834585,19.9571155 39.6602506,19.3316793 C39.9726847,18.9308566 40.3211689,18.5300339 40.6376086,18.1051618 C40.8530608,17.8245124 41.0497613,17.5299351 41.2264267,17.2233518 C41.5219193,16.8015165 41.4257631,16.2206324 41.0101262,15.9166698 C40.845898,15.7563407 40.6696531,15.620061 40.5134361,15.4557237 C40.1915863,15.1741694 39.9637157,14.8006609 39.8605289,14.3855271 C39.9486513,14.0809018 40.1969964,13.9205727 40.3772468,13.7121449 C40.7753136,13.2398056 41.1242636,12.7281198 41.4186938,12.1850104 C41.5517064,11.9271742 41.574823,11.6264586 41.4827829,11.3512991 L41.1943822,11.0827479 C40.9650715,11.0059196 40.7133498,11.0368533 40.5094305,11.1669207 C39.961932,11.4980013 39.5393881,12.0011627 39.3077609,12.5978578 C39.0954909,13.0600995 39.0111084,13.5708841 39.0634214,14.0768936 L39.011349,14.137017 C39.0233131,14.2910551 39.0626501,14.441721 39.1275104,14.5819302 C39.2246378,14.7161435 39.277814,14.8771782 39.2797219,15.0428763 L39.8645345,15.7763819 C40.1505739,16.0477415 40.4070306,16.3487074 40.6295975,16.6742247 C40.5159419,16.9175735 40.3819467,17.1508801 40.2290409,17.3716562 C39.7163286,18.0610713 39.1555494,18.7184205 38.6548537,19.4158521 C38.0919105,20.1641192 37.643693,20.9922513 37.325006,21.8728953 C37.1013168,22.4502713 36.9911498,23.0654387 37.0005552,23.6846139 C37.0621814,24.5125405 37.7613218,25.146943 38.5907647,25.1275757 C39.0190473,25.0798763 39.4392172,24.9761116 39.8405011,24.8189422 C40.4137572,24.5863611 40.9659006,24.3047418 41.490794,23.9772145 C41.8272615,23.7808114 42.1717401,23.5763918 42.4961909,23.3639558 C43.7998474,22.4517654 45.0552803,21.4724389 46.2574168,20.4299335 C46.5177785,20.2134893 46.7821459,20.0050614 47.0585299,19.7926254 C47.0709071,19.7780869 47.0878574,19.7681927 47.1065967,19.7645678 C47.1340811,19.7715179 47.1608911,19.7809077 47.186708,19.7926254 C47.2227581,19.8447324 47.278836,19.9208887 47.3269028,19.997045 C47.7180957,20.6252206 48.3414945,21.0732711 49.0613126,21.2436036 C49.7910251,21.4215081 50.5468121,21.4663152 51.2924125,21.3758751 C52.1090493,21.2881642 52.9144408,21.1162332 53.6957517,20.862822 C54.761947,20.5054443 55.7700449,19.9936331 56.687909,19.343704 C57.1805936,19.0030047 57.6292169,18.602182 58.1058792,18.2374333 C58.6549775,17.8142533 59.1620244,17.3390843 59.6199829,16.8185209 C60.076523,16.3537309 60.4324131,15.7997562 60.6654354,15.1911807 C60.6133631,15.0508928 60.5853241,14.914613 60.3970625,14.9466788" id="Shape"></path>
                <path d="M117.499462,6.76600098 C117.801376,6.30213803 118.111342,5.8222798 118.425333,5.35441803 C118.699069,4.95453618 118.988906,4.55465432 119.266668,4.15477247 C119.447816,3.89484926 119.628965,3.63892488 119.806088,3.37900167 C119.878548,3.27503239 119.951007,3.16706429 120.019441,3.05909619 C120.12813,2.89114581 120.240845,2.71519779 120.365636,2.55124623 C120.675602,2.15136438 120.997644,1.71949198 121.307609,1.3156113 L121.766519,0.711789701 C121.826145,0.632268752 121.881247,0.549497237 121.931566,0.463862951 L122,0.359893669 L122,0.323904302 L121.975847,0.291913754 L121.802749,0.0399881855 L121.774571,0 L121.726264,0 L121.641728,0.0319905484 C121.577589,0.0498500415 121.517472,0.079709216 121.464605,0.119964556 C121.355916,0.223933839 121.251252,0.339899576 121.150614,0.447867677 L121.049976,0.559834597 C120.671576,0.959716451 120.313305,1.41158295 119.971135,1.83545771 C119.838292,2.00340809 119.701425,2.17535729 119.568582,2.33930885 C118.988906,3.04709973 118.40118,3.74689298 117.817478,4.45068504 L116.766816,5.71031288 C115.981838,6.65403406 115.337754,7.43380368 114.754053,8.16158865 L114.150224,8.9053689 C113.453808,9.76111607 112.733239,10.6488538 111.980465,11.4846069 L111.956312,11.5125986 C111.916057,11.5565856 111.895929,11.5765797 111.867751,11.5765797 L111.771138,11.3846364 C111.700442,11.2085846 111.605618,11.0430706 111.489351,10.8927817 C111.359007,10.7417686 111.210263,10.6074439 111.046543,10.4928999 C110.986385,10.4507583 110.928599,10.4053702 110.873446,10.35694 L110.873446,10.35694 L110.873446,10.35694 L110.760731,10.35694 C110.708658,10.3588527 110.656707,10.3507043 110.607761,10.3329471 C110.529891,10.2971587 110.447158,10.2729077 110.362204,10.2609684 C110.052944,10.2379092 109.742032,10.2704196 109.444384,10.35694 C108.883814,10.5197491 108.352621,10.7694137 107.870403,11.0967215 C107.489463,11.367216 107.122663,11.6568403 106.771434,11.9644651 L106.715077,12.0124509 C106.380958,12.2923682 106.075018,12.6122737 105.777129,12.9161839 L105.672466,13.0281508 C105.221287,13.4859226 104.816768,13.9868778 104.464808,14.523709 C104.42383,14.5863109 104.387504,14.6517987 104.356119,14.7196511 C104.312152,14.8148785 104.255266,14.9036772 104.187047,14.9835731 L104.042128,15.1475247 L103.712034,15.3954514 C103.534911,15.5274124 103.349737,15.6673711 103.160537,15.7953333 C102.130003,16.4951265 101.147774,17.2788949 100.177622,18.0386705 C99.7951975,18.3425807 99.416798,18.6424921 99.0303475,18.9424035 C98.0440936,19.702179 97.0658907,20.5059415 96.119892,21.2817123 L95.3912718,21.8575422 L95.2906336,21.9375185 C94.803545,22.3374004 94.3003542,22.7372823 93.8414442,23.1851499 C93.2054111,23.7929704 92.5734034,24.4207849 91.9574979,25.0286053 L90.8907335,26.0842934 C90.5333871,26.4543541 90.1271255,26.7745166 89.6830756,27.0360122 C89.4983352,27.1718551 89.263955,27.2227856 89.0389914,27.1759708 C88.8471844,26.9557547 88.7579958,26.6652734 88.7934343,26.3762071 C88.7911219,25.8011942 88.8948114,25.2306196 89.0993743,24.6927045 C89.3144594,24.0784327 89.58388,23.4842872 89.9044796,22.9172291 C90.4680532,21.949515 91.1121374,21.0337856 91.736094,20.1180561 C92.1336338,19.5456453 92.4939803,18.9486071 92.814935,18.3305842 C93.222349,17.65962 93.3219453,16.8477664 93.0886708,16.0992435 L93.0886708,16.0992435 C93.0720698,16.0761108 93.0531909,16.054678 93.0323134,16.0352624 C92.99018,15.9944136 92.9548512,15.9471712 92.9276498,15.8953037 C92.7677347,15.5332783 92.5379795,15.2058757 92.2513613,14.9315885 C92.1386466,14.8156227 92.0299574,14.6916593 91.9252937,14.5716948 L91.7924514,14.4157409 C91.7942001,14.3984562 91.7942001,14.3810409 91.7924514,14.3637562 C91.8004278,14.3366943 91.8126548,14.3110528 91.8286811,14.2877787 C92.0016336,14.1129909 92.1529883,13.9183406 92.27954,13.70795 C92.3971007,13.5062506 92.5390474,13.3195869 92.7022203,13.1521142 C92.7910695,13.058716 92.8547599,12.9445588 92.8873945,12.8202123 C92.9139596,12.7381791 92.9490359,12.6591109 92.9920582,12.584282 C93.0202369,12.5282985 93.0484155,12.472315 93.0725687,12.4123328 C93.300718,12.0063364 93.2626893,11.5042257 92.9759561,11.1367097 L92.9759561,11.1367097 L92.9759561,11.1367097 L92.8672669,11.1007203 C92.7989378,11.0802885 92.7317508,11.0562617 92.6659905,11.0287416 C92.5938951,10.9928875 92.5239973,10.9528293 92.4566632,10.908777 L92.3801782,10.8607912 L92.356025,10.8607912 C91.6060992,10.9988443 90.9658739,11.4806455 90.6290743,12.1604072 C90.1954443,12.813737 90.1098057,13.6360839 90.3996193,14.3637562 L90.7659422,14.8556109 L90.6612785,14.9275896 L89.7555351,15.5634018 C89.1235275,16.0192671 88.4754178,16.4871289 87.8232825,16.9349965 C87.2829186,17.31389 86.7181342,17.6571914 86.1325615,17.9626929 C85.6548055,18.2685063 85.0887739,18.4090753 84.522351,18.3625748 C84.1449146,18.1720904 83.8678778,17.829912 83.7615266,17.4228524 C83.6011409,16.9607019 83.5394471,16.4704259 83.5803779,15.9832777 C83.6322843,15.3850499 83.7677686,14.7969115 83.9829305,14.235794 C84.063441,14.0358531 84.1278495,13.8359122 84.1962834,13.6239748 C84.2325131,13.5200055 84.2647174,13.4160362 84.3009471,13.3120669 L84.3009471,13.2720788 L84.2003089,13.1921024 C84.1591437,13.155332 84.1161509,13.1206322 84.0714921,13.0881331 L84.0513645,13.0881331 L84.0272113,13.0881331 C83.8121797,13.122799 83.6204678,13.2425454 83.4958419,13.420035 C83.4138507,13.5264667 83.3094346,13.6138126 83.1899019,13.6759594 L82.8960385,13.4160362 L82.6987877,13.2400882 L82.6987877,13.2400882 C82.6062006,13.2400882 82.5136135,13.2001 82.4210264,13.1761071 C82.1993839,13.1033287 81.9654452,13.07479 81.7326614,13.0921319 C81.3051947,13.1346155 80.8926372,13.2712222 80.5250035,13.4920138 C80.0694332,13.7776405 79.6538858,14.1218566 79.289167,14.5157113 L79.2529372,14.5157113 L79.2529372,14.5157113 C78.4748922,14.2268838 77.6634562,14.0361181 76.8376215,13.9478791 L75.1630026,13.8239157 L74.1123403,13.751937 L73.2388011,13.6799582 L72.7839166,13.6439689 L72.6631508,13.5240043 C72.5833257,13.4366116 72.4972217,13.3550882 72.4055172,13.2800764 C72.2619162,13.1524283 72.0721683,13.0883919 71.8800085,13.1027272 C71.6878486,13.1170624 71.509857,13.2085323 71.387059,13.3560539 C71.3435442,13.425418 71.3224707,13.5063618 71.3266761,13.5879854 C71.3266761,13.6159772 71.3266761,13.6399701 71.3266761,13.663963 L71.3266761,13.6919547 L71.3468038,13.7159476 L71.7292288,14.1558177 L72.1881387,14.367755 C72.2731359,14.6084932 72.2731359,14.8707971 72.1881387,15.1115353 C72.1599601,15.2195034 72.1277559,15.3274715 72.0995772,15.4394384 C71.9998434,15.8499254 71.8651747,16.2512511 71.6970245,16.639084 C71.3352928,17.4451914 70.8857799,18.209523 70.3565243,18.9184105 L69.8171038,19.6381979 C69.4870107,20.0820667 69.1448409,20.5419309 68.7825436,20.9738033 C68.2045569,21.6714405 67.5905091,22.3388079 66.9428781,22.9732126 C66.6474104,23.2271625 66.333954,23.4596928 66.0049305,23.669007 L65.9405221,23.712994 C65.7110671,23.8729467 65.5379695,23.8969396 65.3608463,23.7849727 C65.2205381,23.6205325 65.1422543,23.4126894 65.1394424,23.1971464 L65.1394424,23.161157 C65.0822224,22.5418156 65.0957267,21.9180316 65.1796976,21.3017064 C65.400139,19.7689989 65.7598805,18.2592755 66.2545131,16.7910391 C66.3752789,16.4271466 66.467866,16.0512576 66.5564276,15.6833663 L66.6530402,15.2834845 C66.6608725,15.2344726 66.6608725,15.1845401 66.6530402,15.1355282 C66.6512064,15.1182479 66.6512064,15.1008239 66.6530402,15.0835436 L66.6530402,15.0835436 C66.5942375,14.8657819 66.4489615,14.6810623 66.2504876,14.5716948 L66.23036,14.5716948 L66.23036,14.5716948 L65.6104289,14.7036558 L65.6104289,14.7036558 L65.6104289,14.7036558 C65.244106,15.0275601 64.9059618,15.3634609 64.5798942,15.6873652 C64.2538266,16.0112695 63.8391974,16.4151501 63.4527469,16.7510509 C63.2675727,16.9070048 63.0904495,17.0709564 62.9093008,17.2309091 C62.7281522,17.3908619 62.5309014,17.5748075 62.3336506,17.7427579 C62.1363998,17.9107083 61.9069448,18.1026516 61.6935919,18.2746008 L61.2346819,18.6504897 L60.5704701,19.2103243 C60.1679175,19.5342286 59.789518,19.8701294 59.3909909,20.1900348 C59.1051786,20.4219663 58.7992386,20.6419013 58.5053752,20.8498399 L58.3000733,21.001795 C58.2074862,21.0657761 58.1310012,21.1097631 58.0102355,21.0297867 C58.0102355,21.0097926 58.0102355,20.9897986 58.0102355,20.9698045 C58.0060337,20.8890751 58.0141773,20.8081796 58.0343886,20.7298753 C58.1107255,20.4859131 58.2021445,20.2468627 58.3081244,20.0140868 C58.841492,18.8596873 59.4787743,17.755523 60.2121983,16.7150615 L60.3088109,16.5791017 C60.6345339,16.0866889 60.9964769,15.6188838 61.3916775,15.1795152 C61.6372346,14.9155932 61.8707151,14.6316771 62.0961446,14.3557586 L62.4423398,13.9558767 C62.6350558,13.739293 62.7730502,13.4802139 62.8448924,13.2001 C62.8576289,13.1187116 62.8464467,13.0354011 62.8126882,12.9601709 C62.8126882,12.9241815 62.7885351,12.8841934 62.780484,12.8442052 L62.780484,12.8002182 L62.7321777,12.8002182 L62.3658548,12.7762253 L62.1847061,12.7762253 L62.1645785,12.7762253 L62.0196596,12.9041874 C61.9270725,12.9841638 61.8385109,13.0601414 61.7580004,13.1441166 L61.4963411,13.4240339 C61.1300183,13.8239157 60.7516188,14.2237976 60.3973725,14.6236794 L60.3128364,14.7236499 C59.7645391,15.3085236 59.2912907,15.9586166 58.9039023,16.6590781 C58.7167077,16.8500902 58.566593,17.0737684 58.4610944,17.3188831 L58.3644818,17.49883 C57.5811077,18.2068529 56.7334775,18.8413697 55.8324258,19.39427 L55.7398387,19.4502534 C55.5520859,19.571114 55.3571648,19.6806139 55.1561374,19.7781565 C54.2435195,20.2087918 53.2808353,20.5257667 52.2899627,20.7218777 C51.6278602,20.8540821 50.9513866,20.9011211 50.2771996,20.8618364 C49.5864502,20.8457056 48.9235813,20.5879814 48.4053299,20.1340514 C48.141829,19.9009714 47.9611123,19.5896203 47.8900626,19.2463137 L47.9504455,19.1823326 L48.0792623,19.0503716 L48.2805386,18.8624271 C49.4148665,17.8560112 50.4575026,16.7520476 51.3962959,15.5634018 C51.8789864,14.965209 52.3214136,14.3360276 52.720694,13.6799582 C52.9149668,13.3316793 53.0727872,12.9645349 53.1916806,12.584282 C53.2900399,12.2854907 53.2900399,11.9633449 53.1916806,11.6645537 C53.1149187,11.3978068 52.9316558,11.1738601 52.6844643,11.0447368 C52.4463032,10.9199094 52.1672384,10.8968083 51.9115633,10.9807557 C51.637279,11.0649672 51.3758803,11.1860542 51.1346367,11.3406494 C50.3988375,11.842868 49.7548727,12.4663314 49.2305628,13.1841047 C48.9004697,13.6239748 48.5301212,14.1198283 48.2000281,14.6396747 L48.0631602,14.8556109 C47.8178368,15.2197621 47.5985765,15.6005878 47.4069994,15.9952742 C46.9879171,16.807197 46.8185233,17.7236426 46.9199108,18.6304956 C46.9320094,18.7394663 46.9320094,18.8494281 46.9199108,18.9583987 C46.9199108,19.0023857 46.9199108,19.0463727 46.9199108,19.0903597 L46.8877066,19.1223503 C46.8031705,19.1983278 46.72266,19.2743054 46.6381239,19.3422853 L46.4046434,19.5382274 C46.118831,19.7861542 45.8169166,20.0380797 45.5190276,20.2780088 C45.2211387,20.517938 44.8065095,20.8378434 44.4522632,21.1177607 L43.6149537,21.7695682 C43.0151503,22.2454276 42.3750917,22.6773 41.7511351,23.0931771 L41.5941396,23.2011452 C40.8969712,23.6687585 40.141994,24.0450866 39.347896,24.3208144 C39.0868359,24.4055579 38.8165806,24.4592503 38.5427907,24.4807671 C38.1823362,24.5135395 37.8513168,24.2813292 37.7618386,23.932929 C37.6662525,23.5046816 37.7070483,23.0575076 37.8785789,22.6533071 C38.0342112,22.1967943 38.2337241,21.756225 38.4743568,21.3376958 C38.8551864,20.6533934 39.2871283,19.9984173 39.7665507,19.3782747 C39.9275717,19.1663373 40.1006694,18.9543999 40.2657159,18.7504602 C40.4307625,18.5465204 40.5917836,18.3505783 40.7447536,18.1546362 C40.9643979,17.872345 41.16478,17.57577 41.344557,17.2668985 C41.6539513,16.820556 41.5525812,16.2110708 41.115102,15.8873061 L40.9098001,15.7033604 C40.8070339,15.6179915 40.7089392,15.5272219 40.6159367,15.4314408 C40.3050896,15.1624683 40.0822092,14.8073901 39.9758781,14.411742 C40.0498217,14.2304044 40.1672912,14.0697839 40.3180478,13.9438803 C40.3744052,13.8878968 40.4307625,13.8359122 40.4830944,13.7759299 C40.8859602,13.3007776 41.2393272,12.7863018 41.5377822,12.2403836 C41.6788099,11.9696562 41.7034964,11.6537458 41.6062162,11.3646423 L41.6062162,11.3646423 L41.6062162,11.3646423 L41.3163783,11.1007203 L41.2922251,11.1007203 C41.0468225,11.0139138 40.7747821,11.0449244 40.5555538,11.1846955 C39.5597604,11.824056 38.9899672,12.9484329 39.0661091,14.1238271 L39.0137773,14.1878082 L39.0137773,14.2157999 C39.0227588,14.2567252 39.029478,14.2981083 39.0339049,14.3397633 C39.0436588,14.4605075 39.079348,14.5777733 39.1385686,14.6836617 C39.2320281,14.80552 39.2829093,14.9543429 39.2834876,15.1075365 L39.2834876,15.1075365 L39.2834876,15.1075365 L39.8712144,15.8433191 C39.961189,15.9494125 40.0565852,16.0508493 40.1570267,16.1472293 C40.3380364,16.3073493 40.4940564,16.4933311 40.6199623,16.6990663 C40.579707,16.771045 40.5475028,16.8390249 40.511273,16.9110036 C40.4431207,17.0688809 40.3580971,17.219031 40.2576649,17.3588713 C40.036261,17.6547839 39.8027804,17.9466976 39.577351,18.2306138 C39.2754365,18.6105015 38.9614455,18.9983869 38.6756331,19.3982688 C38.1028266,20.1480416 37.6481131,20.9799726 37.3270818,21.8655398 C37.1024155,22.4499501 36.991758,23.0714923 37.000478,23.6969987 C37.0396272,24.1297421 37.2495635,24.5295702 37.5847155,24.8086703 C37.87312,25.0586728 38.2493808,25.1851777 38.6313523,25.1605663 C39.069345,25.1166079 39.4989255,25.011608 39.9074441,24.8486584 C40.4828551,24.6182515 41.0376632,24.3400126 41.5659609,24.0169042 L41.6665991,23.9569219 C41.9725391,23.7809739 42.2865301,23.6010271 42.5803935,23.3970873 C43.8922306,22.4858325 45.1565387,21.5088576 46.3684137,20.4699521 C46.5495624,20.317997 46.7347366,20.1700407 46.9199108,20.0220845 L47.1574168,19.8301412 L47.1574168,19.8301412 L47.1574168,19.8301412 L47.1574168,19.8301412 L47.1775444,19.8541341 L47.2902592,20.0140868 C47.6900335,20.6539411 48.3280994,21.1109904 49.0655162,21.2857111 C49.8067357,21.4654029 50.5746105,21.510113 51.3318875,21.4176721 C52.1590841,21.3295967 52.9751055,21.1580963 53.7673308,20.9058234 C54.8444667,20.5471666 55.862978,20.03388 56.790501,19.3822735 C57.0521602,19.2023267 57.3017428,18.9823916 57.5472999,18.8064436 C57.230446,19.4853845 57.0187269,20.2080031 56.9193179,20.9498104 L56.9193179,20.9498104 L57.0602113,21.6296095 L57.0843644,21.6296095 L57.5795042,21.9415174 L57.5795042,21.9415174 L57.5795042,21.9415174 C57.8637795,21.9361727 58.1415614,21.8561504 58.3846094,21.7095859 C59.0200331,21.3309229 59.6243949,20.903055 60.1920707,20.429964 C61.6291835,19.2703066 63.0300666,18.0306728 64.3625158,16.8030355 C64.5514859,16.6286714 64.7730453,16.4928137 65.0146511,16.4031537 C65.0146511,16.4031537 65.0146511,16.4271466 65.0146511,16.4311454 C64.9395079,16.7323897 64.8589974,17.0323011 64.7731195,17.3308796 C64.6765068,17.6867744 64.5758687,18.0546657 64.4832816,18.4185582 C64.3625158,18.8904188 64.2860308,19.3742759 64.2095458,19.8421376 L64.1612395,20.1380502 C64.0131267,21.0176439 64.0036202,21.9147686 64.1330608,22.7972645 C64.1651332,23.3867416 64.4298204,23.9399026 64.8697321,24.3368097 L65.2924124,24.4687707 L65.2924124,24.4687707 C65.8788563,24.3752325 66.4186695,24.0944829 66.8301634,23.669007 C67.2377102,23.3081397 67.6260302,22.9264003 67.9935404,22.5253449 C68.6698288,21.7615705 69.3179386,20.9897986 69.917742,20.2380207 C70.7843899,19.1545163 71.5421224,17.9892965 72.1800877,16.7590485 C72.5231303,16.1418095 72.7354666,15.4613979 72.8040443,14.7596393 C72.810805,14.690528 72.8242863,14.6222294 72.8442995,14.5556995 L72.8442995,14.4917184 L73.3112606,14.5357054 C73.7138132,14.5756936 74.1163658,14.611683 74.5189184,14.6316771 L74.5954034,14.6316771 C75.1535002,14.6489351 75.7100371,14.6996793 76.2619713,14.7836322 C76.5719368,14.831618 76.8899534,14.875605 77.1999189,14.9155932 L77.9365902,15.0155636 L78.6249551,15.1275306 C78.3171195,15.5943124 78.0478699,16.0851075 77.8198499,16.595097 C77.5678126,17.0993654 77.5315211,17.6833864 77.7192118,18.2146185 L77.7192118,18.2146185 L77.7192118,18.2146185 C77.9155423,18.3772052 78.1448325,18.4958633 78.3914746,18.5625157 L78.4236788,18.5625157 C78.8719569,18.4613873 79.2873188,18.2495828 79.6313367,17.9466976 C80.1747827,17.4908323 80.6940756,17.0069753 81.1771388,16.5551088 C81.4186703,16.3271761 81.6521509,16.087247 81.8775803,15.8553155 C81.9701674,15.7553451 82.0667801,15.6553746 82.1633927,15.559403 L82.2439032,15.559403 C82.3236173,15.5532111 82.4029135,15.5425304 82.4814093,15.5274124 C82.5468087,15.5174366 82.6113884,15.5027352 82.6746345,15.4834254 L82.7390429,15.4634313 C82.7828864,15.44879 82.821864,15.4225163 82.8517577,15.3874538 L82.908115,15.3474656 C82.9121406,16.6030946 82.9121406,17.8107378 83.9587774,18.7624566 L83.9829305,18.7624566 L84.0916197,18.7944472 C84.1451362,18.8063322 84.1976297,18.8223769 84.2486153,18.842433 C84.6517395,19.0026318 85.1014552,19.0026318 85.5045794,18.842433 L85.6575494,18.7904484 C85.75373,18.7637547 85.8478931,18.7303482 85.9393363,18.6904779 C86.7835879,18.3279759 87.5787855,17.8618146 88.3063457,17.3028879 C88.4915199,17.1509327 88.7088983,17.0029765 88.8819959,16.859019 L89.2845485,16.5551088 L91.0276014,15.1875128 L91.0276014,15.1875128 C91.3837837,15.5009434 91.6964831,15.8599772 91.9574979,16.2551974 L91.9574979,16.3391726 C91.9816511,16.5231182 92.0017787,16.6990663 92.0178808,16.8550202 C91.8433013,17.4554889 91.555021,18.0173667 91.1684948,18.5105311 L91.116163,18.5825098 C90.8384017,18.9823916 90.5445382,19.3822735 90.2587259,19.7821554 L90.0051177,20.1300526 C89.9286327,20.2380207 89.8601988,20.3539864 89.7917648,20.4699521 C89.7353434,20.5717685 89.6735321,20.6705444 89.6065906,20.7658647 C89.0788363,21.5600128 88.6452292,22.4120805 88.3143967,23.3051145 C88.0511832,23.996393 87.8767111,24.7178649 87.7951038,25.45248 C87.736412,26.040105 87.7994302,26.6334449 87.980278,27.1959649 C88.0709611,27.5452906 88.3427111,27.819813 88.6927962,27.9157523 C88.8611951,27.9672801 89.0359326,27.995537 89.2120891,27.9998692 C89.4266651,28.0032268 89.6372454,27.9418664 89.815918,27.8237794 L89.9970667,27.7118125 C90.1558114,27.6174595 90.3065919,27.5104737 90.4479256,27.391907 C90.8303506,27.0520075 91.2812095,26.6401292 91.7159664,26.1922615 C92.6418374,25.2285462 93.5194021,24.3568038 94.3969668,23.5330471 C95.2745315,22.7092905 96.264811,21.8375481 97.4120859,20.8938269 C98.8330967,19.7221731 100.282286,18.5545181 101.723425,17.4268512 L102.278947,16.9869812 C102.6815,16.6710745 103.084052,16.351169 103.486605,16.0392612 C103.44635,16.1072411 103.402069,16.175221 103.357788,16.2432009 C103.313507,16.3111809 103.289354,16.3471702 103.253124,16.4071525 C103.238008,16.426688 103.229548,16.4504989 103.228971,16.4751324 C103.215827,16.6427368 103.155882,16.803377 103.055874,16.9389954 C103.008166,17.0163539 102.965151,17.0964728 102.927057,17.1789245 C102.770061,17.5548134 102.633193,17.9067095 102.524504,18.2586055 C102.282471,18.9433416 102.146734,19.6606752 102.121952,20.385977 C102.08218,20.8372023 102.190954,21.2890581 102.431917,21.6735965 C102.578778,21.9324786 102.867323,22.0789436 103.164563,22.0454866 C103.445588,22.0231929 103.714069,21.9204021 103.937464,21.7495741 C104.248818,21.5156324 104.532421,21.2473256 104.782824,20.9498104 L104.955922,20.7618659 C105.269913,20.4259651 105.559751,20.0580738 105.837512,19.702179 L106.107223,19.3622794 L106.723128,18.5865086 C107.00894,18.2146185 107.310855,17.8347307 107.612769,17.4708382 C108.184394,16.7750438 108.776146,16.0752506 109.347771,15.403449 L109.846936,14.8076251 C110.064315,14.5477019 110.289744,14.2917775 110.515174,14.0318543 L110.63594,13.8918956 C110.688271,13.8319134 110.71645,13.8159181 110.756705,13.8279145 C110.796961,13.839911 110.776833,13.8878968 110.784884,13.9198874 C110.80815,14.0277245 110.847497,14.1315055 110.901624,14.2277964 C110.975188,14.3324255 111.077072,14.4142241 111.195488,14.4637267 C111.259701,14.4836974 111.328525,14.4836974 111.392738,14.4637267 L111.477275,14.4637267 L111.521555,14.4637267 L111.521555,14.4277373 C111.792168,13.7956868 111.929184,13.1151505 111.924108,12.428328 L111.980465,12.340354 C112.019675,12.272694 112.062681,12.2072768 112.109282,12.1444119 L112.564167,11.6045714 C112.672856,11.480608 112.781545,11.3566447 112.886209,11.2286825 C113.204225,10.8527935 113.514191,10.4729058 113.828182,10.0970168 L114.138147,9.72112789 C114.279041,9.55717633 114.411883,9.38922595 114.5407,9.22527439 C114.669517,9.06132283 114.822487,8.87737717 114.96338,8.70942679 L114.96338,8.6894327 L115.003635,8.6454457 C114.999401,8.66362188 114.992626,8.68111982 114.983508,8.69743034 C114.915074,8.80139962 114.84664,8.9053689 114.77418,9.00933819 C114.627705,9.20780608 114.493282,9.41477953 114.371628,9.62915506 C114.299671,9.7596762 114.218979,9.88525453 114.130096,10.005044 C113.995125,10.1752797 113.885327,10.3637954 113.804029,10.5648786 C113.593492,10.8071837 113.41617,11.0761074 113.276685,11.3646423 C113.178348,11.5565331 113.068105,11.7421693 112.946592,11.9204781 C112.808603,12.1237237 112.684861,12.3361631 112.576243,12.5562902 C112.476394,12.7726668 112.357869,12.9800471 112.221997,13.1761071 C112.101747,13.3616632 112.003158,13.5602171 111.928133,13.7679323 C111.845415,14.0028541 111.727334,14.2239666 111.577913,14.4237385 C111.005509,15.5096925 110.532616,16.6445996 110.164953,17.8147366 L110.108596,18.0106787 C109.930997,18.5675156 109.796422,19.1370003 109.706043,19.7141754 C109.627238,20.265003 109.597602,20.8216721 109.617481,21.377684 C109.62284,21.7595843 109.732778,22.1328278 109.935498,22.457365 C110.055569,22.6642783 110.259386,22.809936 110.495046,22.8572468 C110.718997,22.8948739 110.948529,22.8367825 111.127054,22.6972941 C111.291444,22.5942957 111.344733,22.3807916 111.24782,22.213437 L111.24782,22.1854453 L110.688271,22.0494855 C110.688271,22.0134961 110.668144,21.9775067 110.656067,21.9415174 C110.628683,21.8601883 110.605837,21.7774203 110.587633,21.6935906 C110.496876,21.1051812 110.539511,20.5040664 110.712425,19.9341105 C110.916504,19.0949425 111.185676,18.2727281 111.51753,17.474837 C112.012669,16.3231773 112.475605,15.2874833 112.942566,14.3197692 C112.97477,14.2517893 113.015026,14.191807 113.055281,14.1238271 C113.119316,14.0331947 113.172034,13.9351725 113.212276,13.8319134 C113.31962,13.5420879 113.462963,13.2667064 113.638982,13.0121556 L113.73962,12.848204 C113.787927,12.7722264 113.832207,12.6922501 113.872463,12.6122737 C114.061518,12.2266348 114.273919,11.8527269 114.508496,11.4926045 C114.593032,11.3646423 114.661466,11.2286825 114.7299,11.0927226 C114.798334,10.9567628 114.838589,10.8807853 114.898972,10.7808148 C114.959355,10.6808443 115.076095,10.5008975 115.164657,10.3809329 L115.333729,10.1170109 C115.434367,9.961057 115.530979,9.80510308 115.627592,9.64914915 L116.005991,9.05332519 C116.352187,8.52014938 116.701066,7.98030888 117.052628,7.43380368 L117.499462,6.76600098 Z M82.0224993,14.8796038 L81.7044827,15.183514 C80.877735,16.0332302 79.9567236,16.7871515 78.9590738,17.43085 L78.9590738,17.43085 C78.9553844,17.3976273 78.9553844,17.3641023 78.9590738,17.3308796 C79.1342756,16.7607034 79.4513228,16.2435907 79.8809193,15.8273238 C79.9815575,15.7233545 80.0902467,15.6233841 80.1949104,15.5234136 C80.299574,15.4234431 80.4565696,15.2794857 80.597463,15.1475247 C80.9302809,14.7851475 81.3832213,14.5537928 81.8735548,14.4957172 C81.9872353,14.5890952 82.0436862,14.7345906 82.0224993,14.8796038 Z M47.8055265,18.290596 L47.7612457,18.3225866 L47.7612457,18.3225866 C47.7412157,18.1509898 47.7548866,17.9771626 47.801501,17.8107378 C47.9186606,17.2521766 48.1166236,16.7134108 48.3892278,16.2112104 C48.489866,16.0352624 48.5784276,15.8633132 48.6549126,15.7113581 C48.8399935,15.3491583 49.0484122,14.9992009 49.2788691,14.6636676 C49.7606051,13.9549839 50.2876935,13.2777879 50.8568754,12.6362666 C51.1210683,12.3524879 51.4199319,12.1026245 51.7465167,11.8924864 C51.9172991,11.7701742 52.1199592,11.6993666 52.330218,11.6885466 C52.5192478,11.7725512 52.6132794,11.9853134 52.5475964,12.1804013 C52.5068378,12.4325372 52.4337858,12.67846 52.330218,12.9121851 C52.1216106,13.3669417 51.8652388,13.7985419 51.565368,14.1998047 C50.5067704,15.6212697 49.3196757,16.9437081 48.0188794,18.1506374 C47.950108,18.2067263 47.8743395,18.2537674 47.7934499,18.290596 L47.8055265,18.290596 Z M104.162893,17.298889 C104.193557,17.255141 104.221778,17.2097527 104.247429,17.1629292 C104.331965,17.0029765 104.416502,16.8430237 104.521165,16.6310863 L104.545318,16.5791017 L104.641931,16.4471407 L104.855284,16.1592257 L105.100841,15.8273238 C105.306143,15.5474065 105.503394,15.2674892 105.720772,14.9915707 C106.124141,14.4809351 106.566947,14.0022944 107.04517,13.5599937 C107.65202,12.9408604 108.349609,12.4164209 109.114291,12.0044533 C109.163207,11.9789341 109.209112,11.9480866 109.251159,11.9124805 C109.294331,11.8725159 109.344919,11.8412778 109.400103,11.8205076 C109.573201,11.7645242 109.750324,11.724536 109.923421,11.6845478 L110.080417,11.6485584 C110.240466,11.6554512 110.381167,11.7559585 110.438689,11.9044828 C110.530378,12.1345204 110.604391,12.3711278 110.660093,12.6122737 C110.670365,12.7053005 110.670365,12.7991642 110.660093,12.892191 C110.660093,12.9321792 110.660093,12.9721674 110.660093,13.0161544 L110.430638,13.288074 C110.205208,13.5679913 109.98783,13.8319134 109.7624,14.0878377 C109.60943,14.2677846 109.452435,14.4437326 109.295439,14.6196806 C109.138444,14.7956286 108.941193,15.0195625 108.768095,15.2235022 C108.417875,15.6233841 108.067654,16.0552565 107.721459,16.4751324 L107.153859,17.1509327 L106.574184,17.850726 L105.85764,18.7184696 L105.591955,19.0383751 C105.330296,19.3502829 105.060586,19.6741872 104.78685,19.9780975 C104.513114,20.2820077 104.154842,20.6419013 103.760341,21.0097926 C103.609624,21.1628291 103.416074,21.2673216 103.204818,21.309704 L103.172614,21.2537206 C103.140129,21.2074201 103.11564,21.1560647 103.100154,21.1017655 C103.081332,20.9062694 103.081332,20.7094352 103.100154,20.5139391 C103.139805,20.1063241 103.22348,19.7041286 103.349737,19.3142936 C103.470503,18.9144117 103.627498,18.5505192 103.776443,18.1866268 C103.856953,17.9866858 103.941489,17.7867449 104.017974,17.5908028 C104.050685,17.4893534 104.093853,17.3915301 104.146791,17.298889 L104.162893,17.298889 Z" id="Shape"></path>
                <path d="M146.766486,0 L146.721422,0.020104884 L146.635391,0.0482517217 C146.570117,0.0662101778 146.508936,0.096234808 146.455134,0.136713211 C146.344522,0.241258608 146.238007,0.357866936 146.135589,0.46643331 L146.03317,0.57902066 C145.623497,0.981118341 145.283468,1.4395097 144.931148,1.86975422 L144.521475,2.36835534 C143.931545,3.08006823 143.333421,3.78373918 142.739395,4.49143109 L141.670147,5.75803879 C140.871283,6.70698931 140.215805,7.49107979 139.621779,8.22289757 L139.007268,8.96677828 C138.298533,9.83128829 137.565217,10.7239451 136.799128,11.5643293 L136.774547,11.5924761 C136.73358,11.6367069 136.713096,11.6568118 136.684419,11.6568118 C136.651645,11.5924761 136.618871,11.5281405 136.590194,11.4638049 C136.515218,11.287399 136.417461,11.1211784 136.299326,10.9692247 C136.166676,10.8173749 136.015301,10.6823058 135.848685,10.567127 C135.787462,10.524752 135.728654,10.4791124 135.672525,10.4304138 L135.672525,10.4304138 L135.672525,10.4304138 L135.557817,10.4304138 C135.504823,10.4323371 135.451953,10.4241435 135.402141,10.406288 C135.322893,10.3703012 135.238697,10.3459159 135.15224,10.3339104 C134.837509,10.3107235 134.521098,10.343414 134.218184,10.4304138 C133.657133,10.607198 133.127715,10.8690469 132.649134,11.2064624 C132.244611,11.4694184 131.856122,11.7553971 131.485661,12.0629304 L131.42421,12.1152031 C131.094203,12.3989586 130.779683,12.6996096 130.481961,13.0159019 L130.359059,13.1365312 C129.90092,13.597727 129.489328,14.1013561 129.130038,14.6403766 C129.088336,14.7033254 129.051367,14.7691761 129.019426,14.8374044 C128.974682,14.9331595 128.91679,15.0224503 128.847364,15.1027889 L128.757235,15.2073343 C128.507334,15.3520895 128.265627,15.5048866 128.028016,15.6536627 C127.532311,15.955236 127.024316,16.2728931 126.508127,16.5543615 C125.991939,16.8358299 125.324171,17.1936968 124.705564,17.511354 C123.722321,18.0408124 122.680388,18.4577035 121.600238,18.7538358 C120.800577,18.9703107 119.970537,19.0585688 119.142196,19.0151993 C118.441274,18.9912084 117.776682,18.7032165 117.286375,18.211004 C117.268594,18.140472 117.243898,18.0717951 117.212634,18.0059341 C117.142418,17.8736172 117.112549,17.7242396 117.126602,17.5756896 L117.282278,17.515375 L117.691952,17.3545359 C118.613352,17.0282211 119.479317,16.5673229 120.260605,15.9874038 L120.559667,15.7662501 C120.846438,15.5571593 121.141403,15.3400265 121.407691,15.1027889 C122.017738,14.5859007 122.527158,13.9646479 122.911193,13.2692235 L122.911193,13.2410766 C123.005512,13.0749956 123.078446,12.8980583 123.12832,12.7143287 C123.232643,12.3551854 123.172844,11.9692732 122.964451,11.6568118 C122.730917,11.3692859 122.38029,11.197214 122.005815,11.1863575 C121.912135,11.1722824 121.816819,11.1722824 121.72314,11.1863575 C121.473239,11.2346092 121.223338,11.2909029 120.977534,11.3471966 L120.948857,11.3471966 C120.108043,11.5819733 119.329385,11.9936027 118.666975,12.5534896 C118.027477,13.0278743 117.473563,13.604165 117.028281,14.2583838 C116.60762,14.8279648 116.315708,15.4791339 116.172063,16.1683477 C116.135192,16.3814595 116.102418,16.5985923 116.065548,16.815725 L116,17.2178227 L116,17.2178227 C116.020484,17.2741164 116.045064,17.338452 116.073741,17.3987666 C116.122902,17.5274379 116.17616,17.6601301 116.221224,17.8008643 C116.503953,18.7347659 117.258627,19.458753 118.216334,19.7148493 C119.154654,19.9693551 120.145729,19.9693551 121.084049,19.7148493 C121.82938,19.5157289 122.561377,19.2713181 123.275803,18.9830315 L123.644509,18.8422973 C124.717587,18.4286708 125.742206,17.9029178 126.700674,17.2741164 C127.184089,16.9604802 127.597859,16.6870538 127.974759,16.4297112 L127.925598,16.5061098 C127.910214,16.5257536 127.901604,16.5496964 127.901018,16.5744664 C127.887641,16.7429995 127.826635,16.9045298 127.724858,17.0408997 C127.676307,17.1186869 127.63253,17.1992498 127.593762,17.2821583 C127.438086,17.6520882 127.294701,18.0179971 127.184089,18.3678221 C126.937775,19.0563525 126.799636,19.7776609 126.774415,20.5069817 C126.73394,20.9607074 126.844638,21.4150671 127.089864,21.8017362 C127.239322,22.0620528 127.532971,22.2093294 127.83547,22.1756871 C128.121466,22.1532698 128.394697,22.0499095 128.622043,21.8781348 C128.938904,21.6428968 129.227525,21.3731033 129.482358,21.0739394 L129.654421,20.9090794 C129.973966,20.5713173 130.268931,20.2013875 130.551606,19.8435205 L130.826087,19.5017375 L131.452888,18.721668 C131.743756,18.3477172 132.051011,17.9657244 132.358266,17.5998155 C132.931809,16.9082075 133.525836,16.2165995 134.099379,15.5450963 L134.631955,14.9218449 L135.283336,14.1699223 L135.434915,14.0010412 C135.484076,13.9407266 135.516849,13.9246427 135.557817,13.9367056 C135.569801,13.9667579 135.579389,13.9976784 135.586494,14.0291881 C135.609495,14.1378165 135.649576,14.2422709 135.705299,14.3388033 C135.778007,14.4459643 135.882359,14.5287438 136.004361,14.5760409 C136.06971,14.5961223 136.139752,14.5961223 136.205101,14.5760409 L136.291133,14.5760409 L136.336197,14.5760409 L136.336197,14.5398521 C136.611596,13.9042993 136.751036,13.2199921 136.74587,12.5293637 L136.803225,12.4409022 C136.843127,12.3728673 136.886895,12.3070876 136.93432,12.2438744 L137.397251,11.7010425 C137.507863,11.5763922 137.618475,11.4517419 137.72499,11.3230707 C138.036342,10.9571618 138.347694,10.5872319 138.654949,10.2173021 L138.999075,9.81520439 C139.142461,9.64632336 139.285846,9.47744234 139.408749,9.30454033 L139.818422,8.79789725 L139.818422,8.77779237 L139.859389,8.73356163 C139.85508,8.75183852 139.848185,8.76943343 139.838906,8.78583432 C139.769261,8.89037972 139.699617,8.99492512 139.625876,9.09947052 C139.476809,9.29903816 139.340008,9.50715849 139.216202,9.72272192 C139.142972,9.85396631 139.060853,9.98024048 138.970398,10.1006937 C138.833039,10.2718727 138.721299,10.461433 138.638562,10.6636305 C138.424301,10.9072782 138.243843,11.1776921 138.10189,11.4678259 C138.001814,11.6607799 137.88962,11.8474448 137.765957,12.0267416 C137.625528,12.2311135 137.499597,12.4447301 137.389058,12.6660769 C137.28587,12.8828587 137.165321,13.0912631 137.028545,13.2893283 C136.906168,13.4759126 136.805835,13.6755668 136.729483,13.8844329 C136.645301,14.1206565 136.525131,14.3429943 136.373067,14.5438731 C135.807346,15.6296295 135.34121,16.7626542 134.980177,17.9295356 L134.922823,18.1305844 C134.740169,18.6886202 134.603176,19.2600723 134.513149,19.8394996 C134.43295,20.3933794 134.40279,20.9531331 134.423021,21.5122259 C134.428475,21.8962425 134.540357,22.2715542 134.746663,22.5978897 C134.893606,22.8477002 135.165608,23.0011325 135.459495,23 C135.64101,22.9982852 135.81681,22.9374688 135.959297,22.8270853 C136.126595,22.7235162 136.180827,22.5088291 136.082199,22.3405471 L136.082199,22.3124003 L135.484076,22.2118759 C135.484076,22.1716661 135.459495,22.1354773 135.451302,22.0992885 C135.422933,22.0190236 135.399673,21.9371058 135.381657,21.8540089 C135.287325,21.2624196 135.330745,20.6575425 135.508656,20.0847792 C135.715724,19.2407887 135.989673,18.4139714 136.328003,17.6118784 C136.831902,16.4457951 137.307123,15.4083831 137.778248,14.4353067 C137.811022,14.3709711 137.851989,14.3106565 137.892956,14.2422999 C137.958124,14.1511652 138.011775,14.0525999 138.052729,13.9487685 C138.161971,13.6573372 138.30785,13.3804297 138.486983,13.1244683 L138.589401,12.9596083 C138.638562,12.8832097 138.683626,12.8027902 138.724594,12.7223706 C138.915884,12.3332353 139.133498,11.9571034 139.375975,11.5964971 C139.453813,11.4678259 139.527554,11.3311126 139.597198,11.1943994 C139.666843,11.0576862 139.70781,10.9812877 139.769261,10.8807632 C139.830712,10.7802388 139.949518,10.5952739 140.043743,10.4585607 C140.137967,10.3218475 140.158451,10.2896797 140.211709,10.2012182 C140.31003,10.048421 140.408352,9.8996449 140.502577,9.74684778 L140.912251,9.13163833 C141.231796,8.64107916 141.554073,8.15051999 141.87908,7.65996082 L142.399366,6.83566057 C142.706621,6.36922726 143.02207,5.88671005 143.341615,5.41625576 C143.66116,4.94580147 143.919255,4.58793454 144.206026,4.20996272 L144.746795,3.44195615 C144.820537,3.33741075 144.890181,3.23286535 144.959826,3.12429898 C145.02947,3.01573261 145.189243,2.774474 145.316242,2.60961395 C145.627593,2.20751627 145.951236,1.78129273 146.262588,1.37919504 L146.741906,0.759964617 C146.806279,0.678908092 146.863823,0.592843073 146.913969,0.502622101 L147,0.369929866 L146.766486,0 Z M128.810493,17.4269135 C128.845186,17.3766106 128.876655,17.3242366 128.904718,17.2700954 C128.982556,17.1253402 129.060394,16.9765641 129.154619,16.7875782 L129.207876,16.6830328 L129.306198,16.5503405 L129.523325,16.2608302 L129.785516,15.9110052 C129.990353,15.6335578 130.19519,15.3561104 130.404123,15.1068099 C130.814627,14.5933447 131.265266,14.1120517 131.751949,13.6673002 C132.370359,13.0456542 133.080139,12.5184196 133.857671,12.1031402 C133.907453,12.0774796 133.95417,12.0464612 133.99696,12.0106577 C134.041964,11.9718623 134.093178,11.9406157 134.14854,11.9181753 C134.324699,11.8618816 134.504956,11.8216718 134.681115,11.781462 L134.840888,11.7452733 C135.003768,11.7522043 135.146959,11.8532685 135.205498,12.0026158 C135.298235,12.2341264 135.373544,12.4720024 135.430818,12.7143287 C135.441136,12.8065339 135.441136,12.8995708 135.430818,12.9917761 C135.430818,13.0360068 135.430818,13.0762166 135.430818,13.1204473 L135.197304,13.3978947 C134.967887,13.6713211 134.746663,13.9407266 134.517246,14.2020901 C134.36157,14.383034 134.201797,14.559957 134.042025,14.73688 C133.882252,14.913803 133.681512,15.1389777 133.505352,15.3440475 L132.427911,16.6146762 L131.862561,17.2821583 L131.293115,17.9938712 L130.567993,18.8543602 L130.297608,19.1720174 C130.03132,19.4896746 129.756839,19.8153737 129.478261,20.1209679 C129.199683,20.4265622 128.835073,20.7884501 128.4254,21.15838 C128.271864,21.312065 128.074956,21.4171011 127.86005,21.4599532 L127.827276,21.4036595 C127.792618,21.356546 127.767577,21.3032942 127.753535,21.2468415 C127.734391,21.051605 127.734391,20.8550153 127.753535,20.6597788 C127.793887,20.2499051 127.879042,19.845481 128.007533,19.4534858 C128.130435,19.0513881 128.290207,18.6854792 128.441787,18.3195703 C128.523721,18.1185215 128.609753,17.9174727 128.687591,17.7204448 C128.71826,17.6187458 128.759441,17.5203907 128.810493,17.4269135 L128.810493,17.4269135 Z M117.106119,16.3533127 C117.19215,16.0638023 117.294569,15.778313 117.401084,15.4928236 C117.454341,15.3561104 117.515792,15.2274392 117.589534,15.090726 C117.622307,15.0263903 117.655081,14.9540127 117.687855,14.8816352 L118.015594,14.5277892 C118.273688,14.2503418 118.535879,13.9648525 118.834941,13.691426 C119.619313,12.9325337 120.594724,12.3914096 121.661689,12.1232451 L121.833752,12.1634548 L122.095943,12.2277905 L122.095943,12.2760422 C122.100874,12.3093756 122.100874,12.3432332 122.095943,12.3765666 C121.945786,12.9567481 121.623558,13.4801313 121.170081,13.8804119 C120.051816,14.9216152 118.776336,15.7869539 117.388793,16.4457951 C117.323059,16.4743792 117.254386,16.4959482 117.183957,16.5101308 L117.118409,16.5101308 L117.118409,16.477963 C117.105704,16.4376683 117.101522,16.3952507 117.106119,16.3533127 L117.106119,16.3533127 Z" id="Shape"></path>
                <path d="M17.3245155,18.1765126 C17.5848706,16.1712594 19.3016135,14.6482101 21.3732698,14.5845641 C23.449554,14.5845641 25.056598,16.1395903 25.3015995,18.1765126 L17.3245155,18.1765126 Z M21.477084,25 C23.4012306,24.9714787 25.2075344,24.0907331 26.3854199,22.6067175 L25.2808367,21.5295379 C24.384384,22.7061748 22.979933,23.4119116 21.477084,23.4409242 C19.290977,23.3935008 17.4966048,21.7398872 17.3245155,19.614102 L26.8754229,19.614102 C26.9575325,19.3349441 26.9994592,19.0460122 27,18.7555979 C27,15.4025727 24.5458321,13.0092901 21.3525069,13.0092901 C18.2837588,13.0092901 15.5845894,15.641496 15.5845894,18.9945212 C15.5845894,22.3475465 18.2837588,24.9797523 21.477084,24.9797523 M1.85619809,15.0381134 L1.85619809,9.67651263 L6.6441095,9.67651263 C8.48369732,9.67651263 9.58828053,10.7536922 9.58828053,12.3087184 C9.58828053,13.9852311 8.48369732,15.0381134 6.6441095,15.0381134 L1.85619809,15.0381134 Z M1.85619809,23.0845641 L1.85619809,16.6052882 L7.0136881,16.6052882 C7.93503224,16.5814924 8.82575463,16.9287988 9.47629219,17.5654957 C10.1268298,18.2021927 10.479748,19.0720675 10.4520148,19.9704621 C10.4520148,21.7684612 9.10243002,23.0845641 7.01784066,23.0845641 L1.85619809,23.0845641 Z M0.0166102738,24.7610767 L7.0136881,24.7610767 C10.2028607,24.7610767 12.2916026,22.736303 12.2916026,19.9704621 C12.2852662,18.152098 11.1774009,16.5092844 9.46785604,15.7832301 C9.46785604,15.7832301 11.4320209,14.9449738 11.4320209,12.3087184 C11.4320209,9.91543592 9.46785604,8 6.6441095,8 L0,8 L0.0166102738,24.7610767 Z" id="Shape"></path>
            </g>
        </g>
    </g>
</svg>