<svg width="280" height="280" viewBox="0 0 280 280" fill="none" xmlns="http://www.w3.org/2000/svg">
<rect width="280" height="280" fill="#F7F7F7"/>
<rect width="280" height="280" fill="#FBFBFB"/>
<path fill-rule="evenodd" clip-rule="evenodd" d="M166.827 150.643C165 152.228 162.165 153.087 158.259 153.087H152.967V134.982H157.314C161.913 134.982 165.126 135.848 166.959 137.559C168.78 139.344 169.724 141.524 169.724 144.108C169.724 146.744 168.78 148.925 166.827 150.643ZM152.967 110.006H155.991C158.889 110.006 161.094 110.798 162.606 112.252C164.181 113.706 164.937 115.814 164.937 118.662C164.937 121.509 164.181 123.683 162.669 125.197C161.22 126.657 158.826 127.45 155.676 127.45H152.967V110.006ZM123.861 138.881H107.23L115.734 119.329L123.861 138.815V138.881ZM175.52 135.049C173.819 132.333 171.425 130.423 168.402 129.366C171.488 126.393 173.063 122.758 173.063 118.463C173.063 116.151 172.622 113.845 171.614 111.525C170.669 109.206 169.409 107.362 167.835 105.843C166.26 104.323 164.307 103.338 162.039 102.671C159.771 102.07 156.747 101.746 152.904 101.746H144.336V138.815H132.555L115.923 99.8958L88.771 161.155H97.6601L103.828 147.008H127.2L132.933 160.944H142.005L136.02 147.008H144.336V161.539H157.377C161.283 161.539 164.496 161.155 167.079 160.415C169.472 159.629 171.551 158.235 173.504 156.259C176.654 153.021 178.229 149.123 178.229 144.425C178.229 140.863 177.284 137.758 175.52 135.049Z" fill="#E3E1DD"/>
</svg>
