<?xml version="1.0" encoding="UTF-8"?>
<svg
  width="215px"
  height="247px"
  viewBox="0 0 215 247"
  version="1.1"
  xmlns="http://www.w3.org/2000/svg"
  xmlns:xlink="http://www.w3.org/1999/xlink"
>
  <g id="Category-Page" stroke="none" stroke-width="1" fill="none" fill-rule="evenodd">
    <g id="Sub-Category-Desktop---v3.1" transform="translate(-783.000000, -1954.000000)">
      <rect
        fill="#FFFFFF"
        fill-opacity="0"
        x="0"
        y="0"
        width="1440"
        height="2654"
      />
      <g
        id="Concerns-Products"
        transform="translate(369.000000, 313.000000)"
        fill="#020303"
        opacity="0.240036232"
      >
        <g id="loading" transform="translate(493.000000, 1741.000000)">
          <g id="Lipstick-loading" transform="translate(21.000000, 0.000000)">
            <polygon
              id="Fill-0"
              points="1.914 44.8313 13.087 44.8313 13.087 35.8313 1.914 35.8313"
              style="display:none;"
            />
            <polygon
              id="Fill-1"
              points="3.914 44.8313 11.087 44.8313 11.087 15.8313 3.914 15.8313"
              style="display:none;"
            />
            <polygon
              id="Fill-2"
              points="5.914 44.8313 9.087 44.8313 9.087 5.8313 5.914 2.8313"
              style="display:none;"
            />
            <path
              id="Fill-1"
              d="M1.4995,26.7773 C1.1775,26.7773 0.9995,26.9553 0.9995,27.2773 L0.9995,45.2773 C0.9995,45.5993 1.1775,45.7773 1.4995,45.7773 L13.4995,45.7773 C13.8215,45.7773 13.9995,45.5993 13.9995,45.2773 L13.9995,27.2773 C13.9995,26.9553 13.8215,26.7773 13.4995,26.7773 L11.9995,26.7773 L11.9995,15.2773 C11.9995,14.9553 11.8215,14.7773 11.4995,14.7773 L9.9995,14.7773 L9.9995,5.9233 C9.5665,5.2633 8.8935,4.4783 7.9455,3.5313 C7.1385,2.7233 5.8115,1.9793 4.9995,1.5653 L4.9995,14.7773 L3.4995,14.7773 C3.1775,14.7773 2.9995,14.9553 2.9995,15.2773 L2.9995,26.7773 L1.4995,26.7773 Z M13.4995,46.7773 L1.4995,46.7773 C0.6165,46.7773 -0.0005,46.1603 -0.0005,45.2773 L-0.0005,27.2773 C-0.0005,26.4083 0.6305,25.7773 1.4995,25.7773 L1.9995,25.7773 L1.9995,15.2773 C1.9995,14.4083 2.6305,13.7773 3.4995,13.7773 L3.9995,13.7773 L3.9995,0.0003 L4.7025,0.3113 C4.8085,0.3583 7.3035,1.4743 8.6525,2.8243 C9.7125,3.8833 10.4545,4.7623 10.9235,5.5123 L10.9995,5.6333 L10.9995,13.7773 L11.4995,13.7773 C12.3685,13.7773 12.9995,14.4083 12.9995,15.2773 L12.9995,25.7773 L13.4995,25.7773 C14.3685,25.7773 14.9995,26.4083 14.9995,27.2773 L14.9995,45.2773 C14.9995,46.1603 14.3825,46.7773 13.4995,46.7773 Z"
            />
          </g>
        </g>
      </g>
    </g>
  </g>
</svg>
