<?xml version="1.0" encoding="UTF-8"?>
<svg width="156px" height="19px" viewBox="0 0 156 19" version="1.1" xmlns="http://www.w3.org/2000/svg" xmlns:xlink="http://www.w3.org/1999/xlink">
    <!-- Generator: sketchtool 55.2 (78181) - https://sketchapp.com -->
    <title>51E1E2BF-1404-4947-B99B-90D063077359</title>
    <desc>Created with sketchtool.</desc>
    <g id="APP-Designs" stroke="none" stroke-width="1" fill="none" fill-rule="evenodd">
        <g id="AB-APP-ShopSimpleL1-list" transform="translate(-110.000000, -40.000000)" fill="#FFFFFF">
            <g id="adorebeauty-logo/new-adorebeauty-logo-/-reverse" transform="translate(110.000000, 32.000000)">
                <path d="M54.3146911,17.2946782 L54.3146911,12.1285953 L55.1896946,12.1285953 C57.4527743,12.1285953 58.5844491,12.9614949 58.5844491,14.6272942 C58.5844491,16.4056402 57.4211964,17.2946782 55.0949611,17.2946782 L54.3146911,17.2946782 Z M59.9868294,17.5688931 C60.6472654,16.7395021 60.9776183,15.7484433 60.9776183,14.5957166 C60.9776183,13.1196543 60.4505111,11.932111 59.3962966,11.032277 C58.4405942,10.2242078 56.8870717,9.81990332 54.736269,9.81990332 L51.8583659,9.81990332 L51.8583659,26.0981529 L54.3146911,26.0981529 L54.3146911,19.4349555 L54.7575908,19.4349555 L59.4068225,26.0981529 L62.4115768,26.0981529 L57.3720752,19.1610108 C58.4543589,18.9289001 59.3261236,18.3982842 59.9868294,17.5688931 L59.9868294,17.5688931 Z" id="Fill-6"></path>
                <polygon id="Fill-8" points="64.857757 26.0980718 73.8401721 26.0980718 73.8401721 23.7891098 67.3143521 23.7891098 67.3143521 18.349082 73.6504351 18.349082 73.6504351 16.04012 67.3143521 16.04012 67.3143521 12.1287842 73.8401721 12.1287842 73.8401721 9.81982224 64.857757 9.81982224"></polygon>
                <path d="M83.4869373,23.1355289 C82.9665774,23.5714112 82.1514909,23.7892175 81.0408681,23.7892175 L79.522702,23.7892175 L79.522702,18.865771 L80.7669235,18.865771 C82.0880653,18.865771 83.0054425,19.1013903 83.5185152,19.5720893 C84.0456224,20.0500755 84.309311,20.6406084 84.309311,21.3431482 C84.309311,22.0672797 84.0350965,22.6648299 83.4869373,23.1355289 L83.4869373,23.1355289 Z M79.522702,12.0759924 L80.3874494,12.0759924 C81.2165705,12.0759924 81.8492072,12.274636 82.2850896,12.6716533 C82.720702,13.0689405 82.9387781,13.6505668 82.9387781,14.4165322 C82.9387781,15.2038194 82.7260999,15.7994803 82.3007435,16.2035149 C81.8753871,16.6078194 81.2060446,16.8097018 80.2924459,16.8097018 L79.522702,16.8097018 L79.522702,12.0759924 Z M83.9298369,17.3368092 C84.8221137,16.52874 85.2687919,15.5411898 85.2687919,14.3744285 C85.2687919,13.7347745 85.1316847,13.1024077 84.8574701,12.4765184 C84.5902729,11.8581862 84.228612,11.3416049 83.7716778,10.9267744 C83.3220307,10.5262485 82.770093,10.241508 82.1164044,10.0728228 C81.4694633,9.90413771 80.601747,9.8199301 79.5121761,9.8199301 L77.0663768,9.8199301 L77.0663768,26.0981796 L80.7879754,26.0981796 C81.8983283,26.0981796 82.8227228,25.9964288 83.5606189,25.7923873 C84.2353594,25.5815983 84.8431656,25.2056329 85.3845774,24.6642211 C86.2844113,23.785709 86.7340584,22.7104425 86.7340584,21.4381518 C86.7340584,20.4681449 86.4811656,19.6179719 85.9751103,18.8868231 C85.4758023,18.148657 84.7943144,17.6320756 83.9298369,17.3368092 L83.9298369,17.3368092 Z" id="Fill-10"></path>
                <polygon id="Fill-12" points="88.8621867 26.0980718 97.8446019 26.0980718 97.8446019 23.7891098 91.3187819 23.7891098 91.3187819 18.349082 97.6548648 18.349082 97.6548648 16.04012 91.3187819 16.04012 91.3187819 12.1287842 97.8446019 12.1287842 97.8446019 9.81982224 88.8621867 9.81982224"></polygon>
                <path d="M105.118681,19.8356427 L107.648958,14.3006116 L110.063179,19.8356427 L105.118681,19.8356427 Z M126.46369,19.6248539 C126.46369,21.0445079 126.235358,22.0674145 125.778424,22.692764 C125.096666,23.6276844 124.133677,24.0948747 122.889725,24.0948747 C121.652521,24.0948747 120.69304,23.6276844 120.011552,22.692764 C119.554348,22.0460927 119.326286,21.023456 119.326286,19.6248539 L119.326286,9.81979497 L116.869691,9.81979497 L116.869691,19.8348331 L112.648245,19.8348331 L107.691061,8.79715828 L99.6365497,26.0980443 L102.282612,26.0980443 L104.096044,22.1446048 L111.064764,22.1446048 L112.772667,26.0980443 L115.461103,26.0980443 L113.685456,22.144065 L117.108819,22.144065 C117.361712,23.0560442 117.814867,23.8546671 118.472334,24.5377743 C119.667165,25.7749785 121.139448,26.3933107 122.889725,26.3933107 C124.639732,26.3933107 126.115794,25.7749785 127.317642,24.5377743 C128.386161,23.4274214 128.920285,22.0145148 128.920285,20.2995944 L128.920285,9.81979497 L126.46369,9.81979497 L126.46369,19.6248539 Z" id="Fill-14"></path>
                <path d="M26.4805956,22.2710238 C25.8900628,22.8051484 25.2293569,23.1954183 24.498478,23.4412937 C23.7673293,23.6731346 22.850222,23.7891899 21.7468864,23.7891899 L20.6397723,23.7891899 L20.6397723,12.1285947 L21.7468864,12.1285947 C23.8412808,12.1285947 25.4263811,12.6241242 26.5016475,13.615183 C27.6964779,14.7258058 28.2940281,16.1737989 28.2940281,17.9588923 C28.2940281,19.7302211 27.6894606,21.1676882 26.4805956,22.2710238 L26.4805956,22.2710238 Z M5.4821315,19.8357506 L8.01240839,14.3004494 L10.4268998,19.8357506 L5.4821315,19.8357506 Z M28.2516544,11.9178058 C27.4222633,11.1588578 26.4978689,10.6209547 25.4790107,10.3049062 C24.5300557,9.9815706 23.2367131,9.81990278 21.5992529,9.81990278 L18.1834466,9.81990278 L18.1834466,19.8349405 L13.0119656,19.8349405 L8.05451222,8.79726614 L0,26.0981514 L2.64606232,26.0981514 L4.45949487,22.1444422 L11.4282147,22.1444422 L13.1363877,26.0981514 L15.8248237,26.0981514 L14.0489068,22.1439024 L18.1834466,22.1439024 L18.1834466,26.0981514 L21.5571491,26.0981514 C23.2086439,26.0981514 24.4844432,25.9470095 25.3842772,25.6447258 C26.3469969,25.342712 27.2676128,24.8050788 28.1463948,24.0315563 C29.8964018,22.4855909 30.7714053,20.4613696 30.7714053,17.9588921 C30.7714053,15.4639718 29.9314883,13.4502764 28.2516544,11.9178058 L28.2516544,11.9178058 Z" id="Fill-1"></path>
                <path d="M45.3947857,22.3237348 C44.2207373,23.5045307 42.7800315,24.0947937 41.0721284,24.0947937 C39.4975541,24.0947937 38.1097479,23.5150567 36.9079002,22.3553127 C35.6987652,21.1955687 35.0944677,19.7162677 35.0944677,17.9168697 C35.0944677,16.2019493 35.6777133,14.7609735 36.8444746,13.5942122 C38.0112358,12.4134164 39.4414157,11.8228835 41.135554,11.8228835 C42.8364398,11.8228835 44.263111,12.4134164 45.4158376,13.5942122 C46.5755815,14.7679908 47.1553186,16.2230012 47.1553186,17.9589735 C47.1553186,19.6741639 46.5685642,21.1289044 45.3947857,22.3237348 M41.1671321,9.51419151 C38.819575,9.51419151 36.8091182,10.3362953 35.1365715,11.9810426 C33.4567376,13.62579 32.6168207,15.5938729 32.6168207,17.8852915 C32.6168207,20.4930284 33.5374366,22.6014574 35.3792082,24.2108483 C37.0517549,25.6658587 38.9388691,26.3932289 41.0405507,26.3932289 C43.416177,26.3932289 45.4439071,25.5746338 47.123741,23.9369037 C48.7965576,22.3064609 49.6329659,20.3205648 49.6329659,17.9800251 C49.6329659,15.6537899 48.8000663,13.6611464 47.134267,12.0020945 C45.475485,10.3435825 43.4866199,9.51419151 41.1671321,9.51419151" id="Fill-3"></path>
                <polygon id="Fill-17" points="131.113065 12.1287032 134.855716 12.1287032 134.855716 26.0979907 137.312311 26.0979907 137.312311 12.1287032 141.044436 12.1287032 141.044436 9.81974115 131.113065 9.81974115"></polygon>
                <polygon id="Fill-19" points="152.98205 9.81982224 149.249925 16.3248605 145.528326 9.81982224 142.702783 9.81982224 148.016499 19.0659263 148.016499 26.0980718 150.472825 26.0980718 150.472825 19.0659263 155.807593 9.81982224"></polygon>
            </g>
        </g>
    </g>
</svg>