<?xml version="1.0" encoding="UTF-8"?>
<svg width="19px" height="19px" viewBox="0 0 19 19" version="1.1" xmlns="http://www.w3.org/2000/svg" xmlns:xlink="http://www.w3.org/1999/xlink">
    <!-- Generator: sketchtool 55.2 (78181) - https://sketchapp.com -->
    <title>3DBDB9BD-C961-4A0F-AEEB-CE327373075E</title>
    <desc>Created with sketchtool.</desc>
    <g id="Asset-Artboard-Page" stroke="none" stroke-width="1" fill="none" fill-rule="evenodd" stroke-linecap="round" stroke-linejoin="round">
        <g id="icon-/-address" stroke="#000000">
            <g id="Group-11">
                <path d="M8.90625,14.4324786 L8.90625,17.217562 C8.90625,17.873062 9.43745833,18.405062 10.09375,18.405062 L14.84375,18.405062 C15.5000417,18.405062 16.03125,17.873062 16.03125,17.217562 L16.03125,14.4324786" id="Stroke-1"></path>
                <path d="M18.40625,13.8394413 L13.2604168,9.21056634 C12.8091668,8.80523301 12.1235835,8.80523301 11.6723335,9.21056634 L6.52650034,13.8394413" id="Stroke-3"></path>
                <path d="M17.21875,12.7710081 L17.21875,9.49984145" id="Stroke-5"></path>
                <path d="M6.53125,9.5 C8.17079167,9.5 9.5,8.17079167 9.5,6.53125 C9.5,4.89170833 8.17079167,3.5625 6.53125,3.5625 C4.89170833,3.5625 3.5625,4.89170833 3.5625,6.53125 C3.5625,8.17079167 4.89170833,9.5 6.53125,9.5 Z" id="Stroke-7"></path>
                <path d="M6.53125,18.40625 C6.33254167,18.40625 6.1465,18.3065 6.03645833,18.14025 C4.61066667,15.9916667 0.59375,9.22845833 0.59375,6.53125 C0.59375,3.25216667 3.25216667,0.59375 6.53125,0.59375 C9.81033333,0.59375 12.46875,3.25216667 12.46875,6.53125" id="Stroke-9"></path>
            </g>
        </g>
    </g>
</svg>