<?xml version="1.0" encoding="UTF-8"?>
<svg width="36px" height="19px" viewBox="0 0 36 19" version="1.1" xmlns="http://www.w3.org/2000/svg" xmlns:xlink="http://www.w3.org/1999/xlink">
    <title>7BEACEA6-6269-4AF5-9BB8-20B2D48788E4</title>
    <defs>
        <polygon id="path-1" points="0 0 376 0 376 50 0 50"></polygon>
        <filter x="-0.4%" y="-3.0%" width="100.8%" height="106.0%" filterUnits="objectBoundingBox" id="filter-3">
            <feMorphology radius="0.5" operator="dilate" in="SourceAlpha" result="shadowSpreadOuter1"></feMorphology>
            <feOffset dx="0" dy="0" in="shadowSpreadOuter1" result="shadowOffsetOuter1"></feOffset>
            <feColorMatrix values="0 0 0 0 0.2471   0 0 0 0 0.2471   0 0 0 0 0.2667  0 0 0 0.108801355 0" type="matrix" in="shadowOffsetOuter1"></feColorMatrix>
        </filter>
        <polygon id="path-4" points="0 0 376 0 376 50 0 50"></polygon>
        <filter x="-0.4%" y="-3.0%" width="100.8%" height="106.0%" filterUnits="objectBoundingBox" id="filter-6">
            <feMorphology radius="0.5" operator="dilate" in="SourceAlpha" result="shadowSpreadOuter1"></feMorphology>
            <feOffset dx="0" dy="0" in="shadowSpreadOuter1" result="shadowOffsetOuter1"></feOffset>
            <feColorMatrix values="0 0 0 0 0.2471   0 0 0 0 0.2471   0 0 0 0 0.2667  0 0 0 0.108801355 0" type="matrix" in="shadowOffsetOuter1"></feColorMatrix>
        </filter>
        <rect id="path-7" x="-1.77635684e-15" y="-1.77635684e-15" width="31.6666667" height="17.7333333" rx="2"></rect>
        <filter x="-18.9%" y="-28.2%" width="137.9%" height="167.7%" filterUnits="objectBoundingBox" id="filter-9">
            <feOffset dx="0" dy="1" in="SourceAlpha" result="shadowOffsetOuter1"></feOffset>
            <feGaussianBlur stdDeviation="1.5" in="shadowOffsetOuter1" result="shadowBlurOuter1"></feGaussianBlur>
            <feColorMatrix values="0 0 0 0 0.2471   0 0 0 0 0.2471   0 0 0 0 0.2667  0 0 0 0.12 0" type="matrix" in="shadowBlurOuter1" result="shadowMatrixOuter1"></feColorMatrix>
            <feMorphology radius="0.5" operator="dilate" in="SourceAlpha" result="shadowSpreadOuter2"></feMorphology>
            <feOffset dx="0" dy="0" in="shadowSpreadOuter2" result="shadowOffsetOuter2"></feOffset>
            <feColorMatrix values="0 0 0 0 0.2471   0 0 0 0 0.2471   0 0 0 0 0.2667  0 0 0 0.07 0" type="matrix" in="shadowOffsetOuter2" result="shadowMatrixOuter2"></feColorMatrix>
            <feMerge>
                <feMergeNode in="shadowMatrixOuter1"></feMergeNode>
                <feMergeNode in="shadowMatrixOuter2"></feMergeNode>
            </feMerge>
        </filter>
    </defs>
    <g id="App---Account" stroke="none" stroke-width="1" fill="none" fill-rule="evenodd">
        <g id="AB-APP-Account-home" transform="translate(-10.000000, -634.000000)">
            <g id="UI-/-APP-/-menu-/-Accordian-Copy-11" transform="translate(0.000000, 619.000000)">
                <mask id="mask-2" fill="white">
                    <use xlink:href="#path-1"></use>
                </mask>
                <g id="Mask-Copy-8">
                    <use fill="black" fill-opacity="1" filter="url(#filter-3)" xlink:href="#path-1"></use>
                    <use fill="#FFFFFF" fill-rule="evenodd" xlink:href="#path-1"></use>
                </g>
                <mask id="mask-5" fill="white">
                    <use xlink:href="#path-4"></use>
                </mask>
                <g id="Mask-Copy-9">
                    <use fill="black" fill-opacity="1" filter="url(#filter-6)" xlink:href="#path-4"></use>
                    <use fill="#FFFFFF" fill-rule="evenodd" xlink:href="#path-4"></use>
                </g>
                <g id="Stars-/-1-/-filled-Copy-5" transform="translate(12.350953, 15.844444)">
                    <mask id="mask-8" fill="white">
                        <use xlink:href="#path-7"></use>
                    </mask>
                    <g id="Mask">
                        <use fill="black" fill-opacity="1" filter="url(#filter-9)" xlink:href="#path-7"></use>
                        <use fill="#000000" fill-rule="evenodd" xlink:href="#path-7"></use>
                    </g>
                    <g id="adorebeauty-logo-/-black" mask="url(#mask-8)">
                        <g transform="translate(2.009778, 3.377778)" id="Adore-Beauty-Logo-Black-RGB">
                            <g transform="translate(0.000000, 2.009778)">
                                <path d="M4.69541511,0.277923556 C4.52085156,0.218204444 4.28197511,0.188919111 3.98050844,0.188919111 L3.35058667,0.188919111 L3.35058667,2.03446933 L2.39737778,2.03446933 L1.48436444,0 L0,3.18808178 L0.487514667,3.18808178 L0.821712,2.45939378 L2.10624711,2.45939378 L2.42092089,3.18808178 L2.91647467,3.18808178 L2.589168,2.45939378 L3.35116089,2.45939378 L3.35116089,3.18808178 L3.97304356,3.18808178 C4.27738133,3.18808178 4.51223822,3.16051911 4.67818844,3.10424533 C4.85562311,3.04854578 5.02501867,2.94920533 5.18694933,2.80679822 C5.50966222,2.521984 5.67044444,2.14873956 5.67044444,1.68763911 C5.67044444,1.22768711 5.51540444,0.856739556 5.20589867,0.574222222 C5.05315556,0.435260444 4.88318578,0.33592 4.69541511,0.277923556 Z M1.01005689,2.03389511 L1.47632533,1.01407644 L1.92134756,2.03389511 L1.01005689,2.03389511 Z M4.87974044,2.48293689 C4.77063822,2.58112889 4.64947733,2.65348089 4.51453511,2.69884444 C4.37959289,2.74133689 4.21077156,2.76315733 4.00749689,2.76315733 L3.803648,2.76315733 L3.803648,0.613843556 L4.00749689,0.613843556 C4.39337422,0.613843556 4.68565333,0.705144889 4.88376,0.887747556 C5.10368711,1.09217067 5.21393778,1.359184 5.21393778,1.68821333 C5.21393778,2.01437156 5.10253867,2.27966222 4.87974044,2.48293689 Z" id="Shape" fill="#FFFFFF" fill-rule="nonzero"></path>
                                <path d="M7.58604978,0.132071111 C7.15366044,0.132071111 6.78271289,0.283665778 6.47492978,0.586855111 C6.165424,0.890044444 6.010384,1.25237867 6.010384,1.67500622 C6.010384,2.15563022 6.17977956,2.54380444 6.51914489,2.84067733 C6.82750222,3.10883911 7.17490667,3.24263289 7.56250667,3.24263289 C8.000064,3.24263289 8.37388267,3.09218667 8.68338844,2.79014578 C8.99174578,2.48982756 9.14563733,2.124048 9.14563733,1.69280711 C9.14563733,1.26386311 8.99174578,0.896935111 8.68511111,0.591448889 C8.38019911,0.284814222 8.01327111,0.132071111 7.58604978,0.132071111 Z M8.36526933,2.49269867 C8.14878756,2.71032889 7.88349689,2.81885689 7.56882311,2.81885689 C7.27884089,2.81885689 7.02273778,2.71205156 6.80166222,2.49844089 C6.578864,2.28483022 6.46746489,2.01207467 6.46746489,1.68017422 C6.46746489,1.364352 6.57484444,1.09848711 6.79017778,0.883728 C7.00493689,0.666097778 7.26850489,0.557569778 7.58088178,0.557569778 C7.89440711,0.557569778 8.15740089,0.666672 8.36986311,0.883728 C8.58347378,1.10020978 8.69027911,1.36837156 8.69027911,1.68821333 C8.68970489,2.00403556 8.58117689,2.27219733 8.36526933,2.49269867 Z" id="Shape" fill="#FFFFFF" fill-rule="nonzero"></path>
                                <path d="M11.0537778,1.61643556 C11.1755129,1.46369244 11.2363804,1.28108978 11.2363804,1.06862756 C11.2363804,0.796446222 11.1393369,0.577667556 10.9446756,0.411717333 C10.7689636,0.262993778 10.4824267,0.188344889 10.0862133,0.188344889 L9.555632,0.188344889 L9.555632,3.18808178 L10.0081191,3.18808178 L10.0081191,1.95982044 L10.0896587,1.95982044 L10.9463982,3.18750756 L11.4999484,3.18750756 L10.5714311,1.90928889 C10.7712604,1.86679644 10.9320427,1.76917867 11.0537778,1.61643556 Z M10.0086933,1.565904 L10.0086933,0.613843556 L10.1700498,0.613843556 C10.5869351,0.613843556 10.7953778,0.767735111 10.7953778,1.07436978 C10.7953778,1.40225067 10.5811929,1.565904 10.1522489,1.565904 L10.0086933,1.565904 L10.0086933,1.565904 Z" id="Shape" fill="#FFFFFF" fill-rule="nonzero"></path>
                                <polygon id="Path" fill="#FFFFFF" fill-rule="nonzero" points="11.9518613 3.18808178 13.6067698 3.18808178 13.6067698 2.76258311 12.4043484 2.76258311 12.4043484 1.75999111 13.5717422 1.75999111 13.5717422 1.33449244 12.4043484 1.33449244 12.4043484 0.613843556 13.6067698 0.613843556 13.6067698 0.188344889 11.9518613 0.188344889"></polygon>
                                <path d="M15.4661013,1.57336889 C15.6303289,1.42464533 15.7130169,1.24261689 15.7130169,1.02728356 C15.7130169,0.909568 15.6877511,0.793000889 15.6372196,0.677582222 C15.5878364,0.563312 15.5212267,0.468565333 15.436816,0.391619556 C15.354128,0.317544889 15.2524907,0.265290667 15.131904,0.234282667 C15.01304,0.203274667 14.852832,0.187770667 14.6518542,0.187770667 L14.2010898,0.187770667 L14.2010898,3.18750756 L14.8867111,3.18750756 C15.0911342,3.18750756 15.2616782,3.16855822 15.3977689,3.13123378 C15.5223751,3.09218667 15.6343484,3.02328 15.7336889,2.92336533 C15.8996391,2.76143467 15.9823271,2.563328 15.9823271,2.32904533 C15.9823271,2.15046222 15.9358151,1.99369956 15.8427911,1.85875733 C15.7509156,1.72324089 15.6251609,1.62792 15.4661013,1.57336889 Z M14.6541511,0.604081778 L14.8137849,0.604081778 C14.966528,0.604081778 15.0830951,0.640832 15.1634862,0.713758222 C15.2438773,0.786684444 15.2840729,0.894064 15.2840729,1.03532267 C15.2840729,1.18060089 15.2450258,1.29027733 15.1663573,1.364352 C15.0882631,1.43900089 14.9648053,1.47632533 14.795984,1.47632533 L14.6541511,1.47632533 L14.6541511,0.604081778 L14.6541511,0.604081778 Z M15.3845618,2.64199644 C15.2886667,2.72238756 15.1382204,2.76258311 14.9337973,2.76258311 L14.6541511,2.76258311 L14.6541511,1.855312 L14.8832658,1.855312 C15.126736,1.855312 15.2955573,1.89895289 15.390304,1.98508622 C15.4873476,2.07351644 15.5361564,2.18204444 15.5361564,2.31124444 C15.5361564,2.44503822 15.4856249,2.55528889 15.3845618,2.64199644 Z" id="Shape" fill="#FFFFFF" fill-rule="nonzero"></path>
                                <polygon id="Path" fill="#FFFFFF" fill-rule="nonzero" points="16.4744356 3.18808178 18.1299182 3.18808178 18.1299182 2.76258311 16.9269227 2.76258311 16.9269227 1.75999111 18.0948907 1.75999111 18.0948907 1.33449244 16.9269227 1.33449244 16.9269227 0.613843556 18.1299182 0.613843556 18.1299182 0.188344889 16.4744356 0.188344889"></polygon>
                                <path d="M23.3036604,1.99542222 C23.3036604,2.25726756 23.2617422,2.44561244 23.1773316,2.56103111 C23.0515769,2.73329778 22.8741422,2.81943111 22.6450276,2.81943111 C22.4170613,2.81943111 22.2402009,2.73329778 22.1144462,2.56103111 C22.0300356,2.44159289 21.9881173,2.253248 21.9881173,1.99542222 L21.9881173,0.188344889 L21.5356302,0.188344889 L21.5356302,2.03389511 L20.8574738,2.03389511 L19.9438862,0 L18.4595218,3.18808178 L18.9470364,3.18808178 L19.2812338,2.45939378 L20.5651947,2.45939378 L20.8798684,3.18808178 L21.3754222,3.18808178 L21.0481156,2.45939378 L21.5792711,2.45939378 C21.6257831,2.62764089 21.7090453,2.77464178 21.8302062,2.90039644 C22.0501333,3.12836267 22.3217404,3.24205867 22.6444533,3.24205867 C22.9671662,3.24205867 23.2387733,3.12778844 23.4604231,2.90039644 C23.6573813,2.69597333 23.7555733,2.43527644 23.7555733,2.11945422 L23.7555733,0.188344889 L23.3030862,0.188344889 L23.3030862,1.99542222 L23.3036604,1.99542222 Z M19.4701529,2.03389511 L19.9364213,1.01407644 L20.3814436,2.03389511 L19.4701529,2.03389511 Z" id="Shape" fill="#FFFFFF" fill-rule="nonzero"></path>
                                <polygon id="Path" fill="#FFFFFF" fill-rule="nonzero" points="24.1609742 0.613843556 24.8506151 0.613843556 24.8506151 3.18808178 25.3031022 3.18808178 25.3031022 0.613843556 25.9910204 0.613843556 25.9910204 0.188344889 24.1609742 0.188344889"></polygon>
                                <polygon id="Path" fill="#FFFFFF" fill-rule="nonzero" points="28.1908658 0.188344889 27.5029476 1.38732089 26.816752 0.188344889 26.2965067 0.188344889 27.2755556 1.89206222 27.2755556 3.18808178 27.7280427 3.18808178 27.7280427 1.89206222 28.7111111 0.188344889"></polygon>
                            </g>
                        </g>
                    </g>
                    <g id="Gift-card" mask="url(#mask-8)" fill="#FFFFFF" fill-rule="nonzero">
                        <g transform="translate(7.554046, 10.054378)">
                            <path d="M1.12311111,1.42162222 L1.71717778,1.42162222 C1.69944444,1.48467407 1.67382963,1.5428 1.64033333,1.596 C1.60683704,1.6492 1.56595185,1.69648889 1.51767778,1.73786667 C1.4694037,1.77924444 1.41177037,1.81126296 1.34477778,1.83392222 C1.27778519,1.85658148 1.20192593,1.86791111 1.1172,1.86791111 C0.989125926,1.86791111 0.874351852,1.83835556 0.772877778,1.77924444 C0.671403704,1.72013333 0.591111111,1.63688519 0.532,1.5295 C0.472888889,1.42211481 0.443333333,1.29748889 0.443333333,1.15562222 C0.443333333,1.01178519 0.473381481,0.887651852 0.533477778,0.783222222 C0.593574074,0.678792593 0.674851852,0.5985 0.777311111,0.542344444 C0.87977037,0.486188889 0.993066667,0.458111111 1.1172,0.458111111 C1.24921481,0.458111111 1.36103333,0.486188889 1.45265556,0.542344444 C1.54427778,0.5985 1.6157037,0.671896296 1.66693333,0.762533333 L2.02751111,0.552688889 C1.96445926,0.456140741 1.88909259,0.372892593 1.80141111,0.302944444 C1.71372963,0.232996296 1.61324074,0.178318519 1.49994444,0.138911111 C1.38664815,0.0995037037 1.25906667,0.0798 1.1172,0.0798 C0.9576,0.0798 0.809822222,0.105414815 0.673866667,0.156644444 C0.537911111,0.207874074 0.419688889,0.280777778 0.3192,0.375355556 C0.218711111,0.469933333 0.140388889,0.583722222 0.0842333333,0.716722222 C0.0280777778,0.849722222 0,0.996022222 0,1.15562222 C0,1.31522222 0.0270925926,1.46201481 0.0812777778,1.596 C0.135462963,1.72998519 0.212307407,1.84525185 0.311811111,1.9418 C0.411314815,2.03834815 0.528551852,2.11322222 0.663522222,2.16642222 C0.798492593,2.21962222 0.945777778,2.24622222 1.10537778,2.24622222 C1.27482963,2.24622222 1.42556296,2.21568148 1.55757778,2.1546 C1.68959259,2.09351852 1.80042593,2.00928519 1.89007778,1.9019 C1.97972963,1.79451481 2.04573704,1.67087407 2.0881,1.53097778 C2.13046296,1.39108148 2.14868889,1.24231852 2.14277778,1.08468889 L1.12311111,1.08468889 L1.12311111,1.42162222 Z" id="Path"></path>
                            <polygon id="Path" points="2.75726465 0.121177778 2.75726465 2.19006667 3.1858202 2.19006667 3.1858202 0.121177778"></polygon>
                            <path d="M4.17270707,0.490622222 L5.09779596,0.490622222 L5.09779596,0.121177778 L4.17270707,0.121177778 L4.17270707,0.490622222 Z M4.17270707,1.30635556 L5.0682404,1.30635556 L5.0682404,0.954644444 L4.17270707,0.954644444 L4.17270707,1.30635556 Z M3.90079596,0.121177778 L3.90079596,2.19006667 L4.30866263,2.19006667 L4.30866263,0.121177778 L3.90079596,0.121177778 Z" id="Shape"></path>
                            <polygon id="Path" points="5.45810505 0.502444444 6.01374949 0.502444444 6.01374949 2.19006667 6.43639394 2.19006667 6.43639394 0.502444444 6.99499394 0.502444444 6.99499394 0.121177778 5.45810505 0.121177778"></polygon>
                            <path d="M8.99832323,1.15562222 C8.99832323,1.0176963 9.02935657,0.898488889 9.09142323,0.798 C9.1534899,0.697511111 9.23476768,0.620174074 9.33525657,0.565988889 C9.43574545,0.511803704 9.54510101,0.484711111 9.66332323,0.484711111 C9.76184175,0.484711111 9.84952323,0.497518519 9.92636768,0.523133333 C10.0032121,0.548748148 10.0726677,0.58322963 10.1347343,0.626577778 C10.196801,0.669925926 10.2504936,0.717214815 10.2958121,0.768444444 L10.2958121,0.2926 C10.2110862,0.225607407 10.1189714,0.173392593 10.0194677,0.135955556 C9.91996397,0.0985185185 9.79435286,0.0798 9.64263434,0.0798 C9.48500471,0.0798 9.33870471,0.105414815 9.20373434,0.156644444 C9.06876397,0.207874074 8.95152694,0.281762963 8.85202323,0.378311111 C8.75251953,0.474859259 8.67567508,0.588648148 8.6214899,0.719677778 C8.56730471,0.850707407 8.54021212,0.996022222 8.54021212,1.15562222 C8.54021212,1.31522222 8.56730471,1.46053704 8.6214899,1.59156667 C8.67567508,1.7225963 8.75251953,1.83638519 8.85202323,1.93293333 C8.95152694,2.02948148 9.06876397,2.10337037 9.20373434,2.1546 C9.33870471,2.20582963 9.48500471,2.23144444 9.64263434,2.23144444 C9.79435286,2.23144444 9.91996397,2.21272593 10.0194677,2.17528889 C10.1189714,2.13785185 10.2110862,2.08563704 10.2958121,2.01864444 L10.2958121,1.5428 C10.2504936,1.59402963 10.196801,1.64131852 10.1347343,1.68466667 C10.0726677,1.72801481 10.0032121,1.7624963 9.92636768,1.78811111 C9.84952323,1.81372593 9.76184175,1.82653333 9.66332323,1.82653333 C9.54510101,1.82653333 9.43574545,1.79944074 9.33525657,1.74525556 C9.23476768,1.69107037 9.1534899,1.61324074 9.09142323,1.51176667 C9.02935657,1.41029259 8.99832323,1.29157778 8.99832323,1.15562222 Z" id="Path"></path>
                            <path d="M11.2265434,1.72013333 L12.320099,1.72013333 L12.2698545,1.38615556 L11.2767879,1.38615556 L11.2265434,1.72013333 Z M11.7674101,0.792088889 L12.0777434,1.51028889 L12.0718323,1.61668889 L12.3378323,2.19006667 L12.8166323,2.19006667 L11.7674101,0 L10.7181879,2.19006667 L11.1940323,2.19006667 L11.4659434,1.59895556 L11.4570768,1.50437778 L11.7674101,0.792088889 Z" id="Shape"></path>
                            <path d="M13.7798747,1.22655556 L14.4005414,2.19006667 L14.9000303,2.19006667 L14.2261636,1.22655556 L13.7798747,1.22655556 Z M13.3099414,0.121177778 L13.3099414,2.19006667 L13.7325859,2.19006667 L13.7325859,0.121177778 L13.3099414,0.121177778 Z M13.5670747,0.481755556 L13.977897,0.481755556 C14.052771,0.481755556 14.1173007,0.49407037 14.1714859,0.5187 C14.225671,0.54332963 14.2675414,0.578796296 14.297097,0.6251 C14.3266525,0.671403704 14.3414303,0.727066667 14.3414303,0.792088889 C14.3414303,0.857111111 14.3266525,0.912774074 14.297097,0.959077778 C14.2675414,1.00538148 14.225671,1.04084815 14.1714859,1.06547778 C14.1173007,1.09010741 14.052771,1.10242222 13.977897,1.10242222 L13.5670747,1.10242222 L13.5670747,1.43935556 L14.004497,1.43935556 C14.1680377,1.43935556 14.3069488,1.41177037 14.4212303,1.3566 C14.5355118,1.30142963 14.6231933,1.22409259 14.6842747,1.12458889 C14.7453562,1.02508519 14.775897,0.910311111 14.775897,0.780266667 C14.775897,0.648251852 14.7453562,0.532985185 14.6842747,0.434466667 C14.6231933,0.335948148 14.5355118,0.259103704 14.4212303,0.203933333 C14.3069488,0.148762963 14.1680377,0.121177778 14.004497,0.121177778 L13.5670747,0.121177778 L13.5670747,0.481755556 Z" id="Shape"></path>
                            <path d="M15.4110727,0.121177778 L15.4110727,2.19006667 L15.8425838,2.19006667 L15.8425838,0.121177778 L15.4110727,0.121177778 Z M16.1144949,2.19006667 C16.3312357,2.19006667 16.5208838,2.1477037 16.6834394,2.06297778 C16.8459949,1.97825185 16.9725912,1.85855185 17.0632283,1.70387778 C17.1538653,1.5492037 17.1991838,1.36645185 17.1991838,1.15562222 C17.1991838,0.944792593 17.1538653,0.762040741 17.0632283,0.607366667 C16.9725912,0.452692593 16.8459949,0.332992593 16.6834394,0.248266667 C16.5208838,0.163540741 16.3312357,0.121177778 16.1144949,0.121177778 L15.6829838,0.121177778 L15.6829838,0.5054 L16.0997172,0.5054 C16.1903542,0.5054 16.2760653,0.517714815 16.3568505,0.542344444 C16.4376357,0.566974074 16.508569,0.605888889 16.5696505,0.659088889 C16.630732,0.712288889 16.6785135,0.779774074 16.7129949,0.861544444 C16.7474764,0.943314815 16.7647172,1.04134074 16.7647172,1.15562222 C16.7647172,1.2699037 16.7474764,1.36792963 16.7129949,1.4497 C16.6785135,1.53147037 16.630732,1.59895556 16.5696505,1.65215556 C16.508569,1.70535556 16.4376357,1.74427037 16.3568505,1.7689 C16.2760653,1.79352963 16.1903542,1.80584444 16.0997172,1.80584444 L15.6829838,1.80584444 L15.6829838,2.19006667 L16.1144949,2.19006667 Z" id="Shape"></path>
                        </g>
                    </g>
                </g>
            </g>
        </g>
    </g>
</svg>