<?xml version="1.0" encoding="UTF-8"?>
<svg width="26px" height="26px" viewBox="0 0 26 26" version="1.1" xmlns="http://www.w3.org/2000/svg" xmlns:xlink="http://www.w3.org/1999/xlink">
    <!-- Generator: sketchtool 55.2 (78181) - https://sketchapp.com -->
    <title>19593031-79F7-4138-B02C-503016BB1E3C</title>
    <desc>Created with sketchtool.</desc>
    <g id="APP-Designs" stroke="none" stroke-width="1" fill="none" fill-rule="evenodd">
        <g id="AB-APP-ShopSimpleL2-Category-Filter" transform="translate(-250.000000, -615.000000)" fill="#000000" fill="#000000" stroke="#000000" stroke-width="0" >
            <g id="sticky-foot-nav" transform="translate(0.000000, 604.000000)" >
                <g id="Me" transform="translate(250.000000, 11.000000)" >
                    <g id="intro-account">
                        <g id="accounticon/">
                            <path d="M21.6363333,21.5197667 C21.3447,21.8153 21.0409333,22.0935 20.7259,22.3548 C20.6825667,22.3353 20.6409667,22.3127667 20.5954667,22.2963 L15.7365,20.4810667 L15.7365,18.2476667 C17.2267333,17.1067 18.2173333,15.1250667 18.2173333,12.8704333 C18.2173333,9.33963333 15.7941333,6.4675 12.8158333,6.4675 C9.8371,6.4675 7.41433333,9.33963333 7.41433333,12.8704333 C7.41433333,15.2659 8.53146667,17.3554333 10.1794333,18.4530667 L10.1794333,20.4806333 L5.29056667,22.2945667 C5.27063333,22.3015 5.25243333,22.3119 5.23336667,22.3201333 C4.9374,22.0722667 4.65053333,21.8101 4.37536667,21.5319 C2.11293333,19.2447667 0.866666667,16.2149 0.866666667,13 C0.866666667,6.30933333 6.30976667,0.866666667 13,0.866666667 C19.6906667,0.866666667 25.1333333,6.30933333 25.1333333,13 C25.1333333,16.2084 23.8914,19.2343667 21.6363333,21.5197667 M8.3174,11.6679333 C8.7711,9.15156667 10.6145,7.26136667 12.8158333,7.26136667 C15.1029667,7.26136667 17.0009667,9.30236667 17.3580333,11.9656333 C17.3207667,11.9695333 17.2852333,11.9721333 17.2449333,11.9799333 C15.7391,12.2685333 14.8074333,11.7827667 13.9264667,10.2409667 L13.5659333,9.61003333 L13.2296667,10.2544 C12.7525667,11.1696 11.1561667,11.9725667 9.81283333,11.9725667 C9.26596667,11.9725667 8.78453333,11.8703 8.3174,11.6679333 M9.81283333,12.7664333 C11.2112,12.7664333 12.7469333,12.0800333 13.5620333,11.1544333 C14.3559,12.3058 15.2927667,12.8513667 16.4918,12.8513667 C16.7773667,12.8513667 17.0781,12.8201667 17.3948667,12.7595 C17.4031,12.7577667 17.4109,12.7577667 17.4187,12.7564667 C17.4195667,12.7950333 17.4234667,12.8318667 17.4234667,12.8704333 C17.4234667,15.9627 15.3564667,18.4786333 12.8158333,18.4786333 C10.2752,18.4786333 8.2082,15.9627 8.2082,12.8704333 C8.2082,12.7421667 8.21686667,12.6169333 8.2238,12.4912667 C8.72213333,12.6767333 9.23866667,12.7664333 9.81283333,12.7664333 M13,25.1333333 C10.4429,25.1333333 8.01103333,24.3451 5.97176667,22.8882333 L10.9733,21.0327 L10.9733,18.8812 C11.5496333,19.1299333 12.168,19.2725 12.8158333,19.2725 C13.5707,19.2725 14.2896,19.0866 14.9426333,18.7533667 L14.9426333,21.0322667 L19.9879333,22.9168333 C17.9573333,24.3550667 15.5410667,25.1333333 13,25.1333333 M13,0 C5.8318,0 0,5.8318 0,13 C0,16.4445667 1.3351,19.6911 3.75916667,22.1416 C6.22093333,24.6298 9.503,26 13,26 C16.5039333,26 19.7899,24.6250333 22.2534,22.1281667 C24.6696667,19.6798333 26,16.4376333 26,13 C26,5.8318 20.1682,0 13,0" id="Fill-1"></path>
                        </g>
                    </g>
                </g>
            </g>
        </g>
    </g>
</svg>
