<?xml version="1.0" encoding="UTF-8"?>
<svg width="31px" height="24px" viewBox="0 0 31 24" version="1.1" xmlns="http://www.w3.org/2000/svg" xmlns:xlink="http://www.w3.org/1999/xlink">
    <title>icon / UI / addressbook</title>
    <g id="App---Account" stroke="none" stroke-width="1" fill="none" fill-rule="evenodd">
        <g id="AB-APP-Account-Default-Shipping-3.4" transform="translate(-23.000000, -283.000000)">
            <g id="Group" transform="translate(24.000000, 284.000000)">
                <rect id="Rectangle" x="5" y="1" width="18" height="18"></rect>
                <g>
                    <path d="M26.3636364,0.647058824 C24.9004545,0.194117647 23.2922727,0 21.75,0 C19.1795455,0 16.4113636,0.517647059 14.5,1.94117647 C12.5886364,0.517647059 9.82045455,0 7.25,0 C4.67954545,0 1.91136364,0.517647059 0,1.94117647 L0,20.9 C0,21.2235294 0.329545455,21.5470588 0.659090909,21.5470588 C0.790909091,21.5470588 0.856818182,21.4823529 0.988636364,21.4823529 C2.76818182,20.6411765 5.33863636,20.0588235 7.25,20.0588235 C9.82045455,20.0588235 12.5886364,20.5764706 14.5,22 C16.2795455,20.9 19.5090909,20.0588235 21.75,20.0588235 C23.925,20.0588235 26.1659091,20.4470588 28.0113636,21.4176471 C28.1431818,21.4823529 28.2090909,21.4823529 28.3409091,21.4823529 C28.6704545,21.4823529 29,21.1588235 29,20.8352941 L29,1.94117647 C28.2090909,1.35882353 27.3522727,0.970588235 26.3636364,0.647058824 Z" id="Shape" stroke="#000000" fill-rule="nonzero"></path>
                    <line x1="14.5" y1="1.5" x2="14.5" y2="20.5" id="Line-2" stroke="#000000" stroke-linecap="square"></line>
                    <path d="M21.6853832,4.27094474 C19.3571747,4.27094474 17.4741533,6.15396613 17.4741533,8.48217469 C17.4741533,11.6405971 21.6853832,16.3030303 21.6853832,16.3030303 C21.6853832,16.3030303 25.8966132,11.6405971 25.8966132,8.48217469 C25.8966132,6.15396613 24.0135918,4.27094474 21.6853832,4.27094474 Z M18.6773619,8.48217469 C18.6773619,6.82174688 20.0249554,5.4741533 21.6853832,5.4741533 C23.3458111,5.4741533 24.6934046,6.82174688 24.6934046,8.48217469 C24.6934046,10.214795 22.9607843,12.8077094 21.6853832,14.426025 C20.4340463,12.8197415 18.6773619,10.1967469 18.6773619,8.48217469 Z" id="Shape" fill="#000000" fill-rule="nonzero"></path>
                    <circle id="Oval" fill="#000000" fill-rule="nonzero" cx="21.6853832" cy="8.48217469" r="1.80481283"></circle>
                </g>
            </g>
        </g>
    </g>
</svg>