<?xml version="1.0" encoding="UTF-8"?>
<svg width="40px" height="40px" viewBox="0 0 40 40" version="1.1" xmlns="http://www.w3.org/2000/svg" xmlns:xlink="http://www.w3.org/1999/xlink">
    <title>icon / address</title>
    <g id="icon-/-address" stroke="none" stroke-width="0" fill="none" fill-rule="evenodd">
        <path d="M14.0625,1 C21.2765048,1 27.125,6.84849519 27.125,14.0625 C27.125,14.7183381 26.5933381,15.25 25.9375,15.25 C25.2816619,15.25 24.75,14.7183381 24.75,14.0625 C24.75,8.16017147 19.9648285,3.375 14.0625,3.375 C8.16017147,3.375 3.375,8.16017147 3.375,14.0625 C3.375,17.9092647 8.51093588,28.047822 13.4115923,35.6300266 L14.0631473,36.6250616 L14.2236367,36.6358405 C14.8032564,36.7144726 15.25,37.211315 15.25,37.8125 C15.25,38.4683381 14.7183381,39 14.0625,39 C13.2663238,39 12.5225055,38.6004139 12.083457,37.9371017 L11.3942083,36.8850034 C6.21939565,28.8853984 1,18.5571772 1,14.0625 C1,6.84849519 6.84849519,1 14.0625,1 Z M33.0625,28.6774583 C33.663685,28.6774583 34.1605274,29.124202 34.2391595,29.7038216 L34.25,29.8649583 L34.25,35.435125 C34.25,37.3204185 32.7856042,38.8640427 30.931466,38.989405 L30.6875,38.997625 L21.1875,38.997625 C19.3015027,38.997625 17.7585237,37.5325547 17.6332164,35.6790067 L17.625,35.435125 L17.625,29.8649583 C17.625,29.2091202 18.1566619,28.6774583 18.8125,28.6774583 C19.413685,28.6774583 19.9105274,29.124202 19.9891595,29.7038216 L20,29.8649583 L20,35.435125 C20,36.0363036 20.4465438,36.5331513 21.0263133,36.6117844 L21.1875,36.622625 L30.6875,36.622625 C31.288903,36.622625 31.7855637,36.1758755 31.8641641,35.5962603 L31.875,35.435125 L31.875,29.8649583 C31.875,29.2091202 32.4066619,28.6774583 33.0625,28.6774583 Z M28.0955167,18.3562757 L28.3150038,18.538269 L34.25,23.877 L34.25,19.9996833 C34.25,19.3438452 34.7816619,18.8121833 35.4375,18.8121833 C36.038685,18.8121833 36.5355274,19.258927 36.6141595,19.8385466 L36.625,19.9996833 L36.625,26.014 L38.6066705,27.796019 C39.094263,28.2346272 39.1339726,28.9854613 38.6953644,29.4730538 C38.2966296,29.9163197 37.639857,29.9894345 37.1574036,29.6695319 L37.0183295,29.5617477 L26.7272944,20.3045654 C26.3212602,19.9398469 25.7243564,19.9033751 25.2806087,20.194736 L25.1388371,20.3039977 L14.8471705,29.5617477 C14.3595779,30.000356 13.6087439,29.9606463 13.1701356,29.4730538 C12.7714009,29.0297879 12.7679701,28.3689669 13.1369772,27.9229482 L13.2588295,27.796019 L23.5511277,18.5377013 C24.8337233,17.3856154 26.7460922,17.3249794 28.0955167,18.3562757 Z M14.0625,6.9375 C17.9974215,6.9375 21.1875,10.1275785 21.1875,14.0625 C21.1875,17.9974215 17.9974215,21.1875 14.0625,21.1875 C10.1275785,21.1875 6.9375,17.9974215 6.9375,14.0625 C6.9375,10.1275785 10.1275785,6.9375 14.0625,6.9375 Z M14.0625,9.3125 C11.4392548,9.3125 9.3125,11.4392548 9.3125,14.0625 C9.3125,16.6857452 11.4392548,18.8125 14.0625,18.8125 C16.6857452,18.8125 18.8125,16.6857452 18.8125,14.0625 C18.8125,11.4392548 16.6857452,9.3125 14.0625,9.3125 Z" id="Combined-Shape" fill="#000000" fill-rule="nonzero"></path>
    </g>
</svg>