<?xml version="1.0" encoding="UTF-8"?>
<svg width="40px" height="40px" viewBox="0 0 40 40" version="1.1" xmlns="http://www.w3.org/2000/svg" xmlns:xlink="http://www.w3.org/1999/xlink">
    <title>Adore-Society-Icon-Logo-Black-RGB</title>
    <g id="Symbols" stroke="none" stroke-width="1" fill="none" fill-rule="evenodd">
        <g id="icon-/-logos-/-Adore-Society-/-Short" fill="#000000" fill-rule="nonzero">
            <g id="Adore-Society-Icon-Logo-Black-RGB">
                <polygon id="Path" points="10.959519 17.6913828 16.0977956 17.6913828 13.5887776 11.9390782"></polygon>
                <path d="M20.0056112,0 C8.96432866,0 0.0136272545,8.9490982 0.0136272545,19.9911824 C0.0136272545,31.0332665 8.96432866,39.9823647 20.0056112,39.9823647 C31.0468938,39.9823647 40,31.0332665 40,19.9911824 C40,8.9490982 31.0452906,0 20.0056112,0 Z M27.0252505,31.7947896 C25.0557114,31.7947896 23.8789579,31.0533066 23.0092184,30.0817635 C22.3699968,29.3845166 21.9228027,28.5332182 21.7114228,27.6112224 L24.4488978,27.6112224 C24.5588922,27.8803541 24.7027363,28.1343709 24.8769539,28.3671343 C25.3635271,28.9803607 26.0793587,29.38998 27.103006,29.38998 C28.6893788,29.38998 29.9166333,28.2388778 29.9166333,26.5250501 C29.9166333,24.7855711 28.5867735,24.0689379 27.4613226,23.6088176 L25.8236473,22.9186373 C24.7262525,22.4593186 23.2240481,21.6416834 22.6172345,20.0905812 L19.8621242,20.0905812 L21.7058116,24.1995992 L18.9178357,24.1995992 L17.1430862,20.0905812 L9.89659319,20.0905812 L8.01603206,24.1995992 L5.26653307,24.1995992 L13.6368737,6.5242485 L18.7847695,17.6913828 L22.4376754,17.6913828 C22.8432866,15.7490982 24.5579158,14.092986 27.3322645,14.092986 C29.1759519,14.092986 30.2236473,14.7831663 30.7599198,15.2432866 C31.2977276,15.7285433 31.7400639,16.3100782 32.0641283,16.9579158 L29.9663327,18.1859719 C29.8029907,17.7699787 29.5394846,17.4007397 29.1991984,17.111022 C28.6613226,16.6765531 28.0993988,16.4977956 27.355511,16.4977956 C25.7691383,16.4977956 24.9507014,17.444489 24.9507014,18.5442886 C24.9507014,19.0557114 25.1294589,19.9511022 26.7943888,20.6164329 L28.5082164,21.3074148 C31.654509,22.5859719 32.5242487,24.3759519 32.5242487,26.3206413 C32.5250501,29.5687375 30.2204409,31.7947896 27.0252505,31.7947896 Z" id="Shape"></path>
            </g>
        </g>
    </g>
</svg>