<?xml version="1.0" encoding="UTF-8"?>
<svg width="20px" height="17px" viewBox="0 0 20 17" version="1.1" xmlns="http://www.w3.org/2000/svg" xmlns:xlink="http://www.w3.org/1999/xlink">
    <!-- Generator: sketchtool 55.2 (78181) - https://sketchapp.com -->
    <title>95A54CFE-4D4A-4385-ADA6-2B0542E6E346</title>
    <desc>Created with sketchtool.</desc>
    <g id="Asset-Artboard-Page" stroke="none" stroke-width="1" fill="none" fill-rule="evenodd">
        <g id="icon-/-alert">
            <path d="M11.2480754,3.77350098 C11.1382232,3.60872255 10.9968287,3.46732812 10.8320503,3.35747583 C10.1427573,2.89794715 9.21145325,3.08420795 8.75192456,3.77350098 L2.48895874,13.1679497 C2.32469122,13.414351 2.23703418,13.7038625 2.23703418,14 C2.23703418,14.8284271 2.90860706,15.5 3.73703418,15.5 L16.2629658,15.5 C16.5591033,15.5 16.8486148,15.412343 17.0950161,15.2480754 C17.7843091,14.7885468 17.9705699,13.8572427 17.5110413,13.1679497 L11.2480754,3.77350098 Z" id="Rectangle" stroke="#000000"></path>
            <path d="M9.027,7 L10.701,7 L10.422,11.113 L9.306,11.113 L9.027,7 Z M9.864,13.372 C9.61799877,13.372 9.41250083,13.2925008 9.2475,13.1335 C9.08249917,12.9744992 9,12.7810011 9,12.553 C9,12.3249989 9.08099919,12.1345008 9.243,11.9815 C9.40500081,11.8284992 9.61199874,11.752 9.864,11.752 C10.1160013,11.752 10.3229992,11.8284992 10.485,11.9815 C10.6470008,12.1345008 10.728,12.3249989 10.728,12.553 C10.728,12.7810011 10.6455008,12.9744992 10.4805,13.1335 C10.3154992,13.2925008 10.1100012,13.372 9.864,13.372 Z" id="!" fill="#000000" fill-rule="nonzero"></path>
        </g>
    </g>
</svg>