<?xml version="1.0" encoding="UTF-8"?>
<svg width="17px" height="18px" viewBox="0 0 17 18" version="1.1" xmlns="http://www.w3.org/2000/svg" xmlns:xlink="http://www.w3.org/1999/xlink">
    <!-- Generator: sketchtool 55.2 (78181) - https://sketchapp.com -->
    <title>DCA798DC-C676-4B47-8D2B-3A2A440240D6</title>
    <desc>Created with sketchtool.</desc>
    <g id="Asset-Artboard-Page" stroke="none" stroke-width="1" fill="none" fill-rule="evenodd">
        <g id="Mini-Bag-Copy-Mini-Bag-icon/new-reverse" transform="translate(0.652174, 0.000000)" fill="#000000" fill-rule="nonzero">
            <g id="i_bag">
                <path d="M13.7759878,4.70527086 L11.9057848,4.70527086 L11.9057848,4.58962294 C11.9057848,2.06074747 9.90089267,0 7.43509157,0 C4.96929047,0 2.96501616,2.06074747 2.96501616,4.58962294 L2.96501616,4.70527086 L1.09481322,4.70527086 L0,17.2173913 L14.8695653,17.2173913 L13.7759878,4.70527086 Z M7.43509187,0.563476044 C9.06495497,0.563476044 10.4668349,1.59138921 11.0574904,3.0468306 C10.2753044,1.8460607 8.94571176,1.05251911 7.43509187,1.05251911 C5.9263255,1.05251911 4.59487934,1.8460607 3.81145765,3.0492912 C4.40458448,1.59138921 5.80646446,0.563476044 7.43509187,0.563476044 Z M3.79106876,4.70527081 C4.15621246,2.98285506 5.65200418,1.68981295 7.43509171,1.68981295 C9.22126844,1.68981295 10.7152066,2.98285506 11.0797325,4.70527081 L3.79106876,4.70527081 Z" id="Shape"></path>
            </g>
        </g>
    </g>
</svg>
