<?xml version="1.0" encoding="UTF-8"?>
<svg width="22px" height="26px" viewBox="0 0 22 26" version="1.1" xmlns="http://www.w3.org/2000/svg" xmlns:xlink="http://www.w3.org/1999/xlink">
    <!-- Generator: sketchtool 55.2 (78181) - https://sketchapp.com -->
    <title>77F3763A-01BE-483A-A1B0-C58CC7858297</title>
    <desc>Created with sketchtool.</desc>
    <g id="APP-Designs" stroke="none" stroke-width="1" fill="none" fill-rule="evenodd">
        <g id="AB-APP-Articles-4.0-L1" transform="translate(-177.000000, -615.000000)" fill-rule="nonzero" >
            <g id="sticky-foot-nav" transform="translate(0.000000, 604.000000)">
                <g id="Bag" transform="translate(172.000000, 10.000000)">
                    <g id="Mini-Bag-icon-/-minibag-/-black" transform="translate(4.000000, -0.000000)">
                        <path d="M21.3930474,8.06413428 L18.6448883,8.06413428 L18.6448883,7.89419609 C18.6448883,4.17815401 15.6988108,1.15000003 12.0754533,1.15000003 C8.45209583,1.15000003 5.50692626,4.17815401 5.50692626,7.89419609 L5.50692626,8.06413428 L2.75876712,8.06413428 L21.3930474,8.06413428 Z M12.0754541,1.9779968 C14.4704474,1.9779968 16.5304321,3.48845814 17.3983675,5.62714846 C16.2489886,3.86268375 14.2952261,2.69661844 12.0754541,2.69661844 C9.85840576,2.69661844 7.90191961,3.86268375 6.75072497,5.63076417 C7.62229189,3.48845814 9.68227662,1.9779968 12.0754541,1.9779968 Z M6.7207649,8.06413428 C7.25732328,5.53313996 9.4553061,3.63308636 12.0754541,3.63308636 C14.7001416,3.63308636 16.8954008,5.53313996 17.4310513,8.06413428 L6.7207649,8.06413428 Z" id="Shape" fill="#000000"></path>
                        <path d="M2.77133093,8.55000023 L1.74330355,25.9500008 L22.2072772,25.9500008 L21.3733891,8.55000023 L2.77133093,8.55000023 Z" id="Rectangle" stroke="#000000"></path>
                    </g>
                </g>
            </g>
        </g>
    </g>
</svg>
