<?xml version="1.0" encoding="UTF-8"?>
<svg width="40px" height="40px" viewBox="0 0 40 40" version="1.1" xmlns="http://www.w3.org/2000/svg" xmlns:xlink="http://www.w3.org/1999/xlink">
    <title>icon / minibag / black</title>
    <g id="icon-/-minibag-/-black" stroke="none" stroke-width="1" fill="none" fill-rule="evenodd">
        <path d="M19.6817156,1 C25.3692552,1 29.9936766,5.74462893 29.9936766,11.5670676 L29.9936766,11.5670676 L29.993,11.636 L34.8121449,11.6363636 L36.1714609,40 L3,40 L4.67578125,11.6363636 L9.371,11.636 L9.37117968,11.5670676 C9.37117968,5.84007874 13.8438448,1.15585126 19.4028745,1.00380913 Z M33.2620115,13.2611667 L6.20792815,13.2611667 L4.72376149,38.3739167 L34.4666782,38.3739167 L33.2620115,13.2611667 Z M19.6817394,5.33333333 C15.7063643,5.33333333 12.3715122,8.12056304 11.5574282,11.8333333 L11.603,11.636 L27.761658,11.6360075 C26.8960078,8.10400439 23.7404544,5.45547913 19.9462379,5.33744213 Z M19.6838137,2.08333333 C16.0314433,2.08333333 12.8875782,4.32318733 11.5574282,7.5 C13.3143347,4.87812423 16.3002445,3.14897303 19.6838137,3.14897303 C23.0715397,3.14897303 26.0532928,4.87812423 27.8074282,7.49463829 C26.4828204,4.32318733 23.3389553,2.08333333 19.6838137,2.08333333 Z" id="Combined-Shape" fill="#000000" fill-rule="nonzero"></path>
    </g>
</svg>