<?xml version="1.0" encoding="UTF-8"?>
<svg width="25px" height="24px" viewBox="0 0 25 24" version="1.1" xmlns="http://www.w3.org/2000/svg" xmlns:xlink="http://www.w3.org/1999/xlink">
    <title>icon / account / birthday</title>
    <defs>
        <polygon id="path-1" points="0 0.00783673469 3.91836735 0.00783673469 3.91836735 4.89786122 0 4.89786122"></polygon>
        <polygon id="path-3" points="0 0.00783673469 3.91836735 0.00783673469 3.91836735 4.89786122 0 4.89786122"></polygon>
        <polygon id="path-5" points="0 0.00783673469 3.91836735 0.00783673469 3.91836735 4.89786122 0 4.89786122"></polygon>
        <polygon id="path-7" points="0 23.9923592 23.5102041 23.9923592 23.5102041 0.489991837 0 0.489991837"></polygon>
    </defs>
    <g id="APP---Adore-Society" stroke="none" stroke-width="1" fill="none" fill-rule="evenodd">
        <g id="AB-APP-bit-Sign-In-Social---Refresh-required" transform="translate(-37.000000, -386.000000)">
            <g id="Group-20" transform="translate(37.877551, 386.000000)">
                <path d="M23.0204082,23.9923592 L0.489795918,23.9923592 C0.218938776,23.9923592 0,23.7734204 0,23.5025633 C0,23.2317061 0.218938776,23.0127673 0.489795918,23.0127673 L23.0204082,23.0127673 C23.2912653,23.0127673 23.5102041,23.2317061 23.5102041,23.5025633 C23.5102041,23.7734204 23.2912653,23.9923592 23.0204082,23.9923592" id="Fill-1" fill="#231F20"></path>
                <path d="M20.0816327,22.0331755 L3.42857143,22.0331755 C2.07820408,22.0331755 0.979591837,20.9345633 0.979591837,19.5841959 L0.979591837,13.216849 C0.979591837,12.9459918 1.19853061,12.7270531 1.46938776,12.7270531 C1.7402449,12.7270531 1.95918367,12.9459918 1.95918367,13.216849 L1.95918367,19.5841959 C1.95918367,20.3943184 2.61844898,21.0535837 3.42857143,21.0535837 L20.0816327,21.0535837 C20.8917551,21.0535837 21.5510204,20.3943184 21.5510204,19.5841959 L21.5510204,13.216849 C21.5510204,12.9459918 21.7699592,12.7270531 22.0408163,12.7270531 C22.3116735,12.7270531 22.5306122,12.9459918 22.5306122,13.216849 L22.5306122,19.5841959 C22.5306122,20.9345633 21.432,22.0331755 20.0816327,22.0331755" id="Fill-3" fill="#231F20"></path>
                <path d="M11.755102,12.7270531 C12.0259592,12.7270531 12.244898,12.9459918 12.244898,13.216849 C12.244898,14.4041143 13.4571429,15.4209306 14.4489796,15.4209306 C15.4408163,15.4209306 16.6530612,14.4041143 16.6530612,13.216849 C16.6530612,12.9459918 16.872,12.7270531 17.1428571,12.7270531 C17.4137143,12.7270531 17.6326531,12.9459918 17.6326531,13.216849 C17.6326531,14.2606041 18.8537143,15.1760327 19.5918367,15.1760327 C20.3299592,15.1760327 21.5510204,14.2606041 21.5510204,13.216849 L21.5510204,11.2576653 L1.95918367,11.2576653 L1.95918367,13.216849 C1.95918367,14.2606041 3.1802449,15.1760327 3.91836735,15.1760327 C4.6564898,15.1760327 5.87755102,14.2606041 5.87755102,13.216849 C5.87755102,12.9459918 6.0964898,12.7270531 6.36734694,12.7270531 C6.63820408,12.7270531 6.85714286,12.9459918 6.85714286,13.216849 C6.85714286,14.4041143 8.06938776,15.4209306 9.06122449,15.4209306 C10.0530612,15.4209306 11.2653061,14.4041143 11.2653061,13.216849 C11.2653061,12.9459918 11.4842449,12.7270531 11.755102,12.7270531 M14.4489796,16.4005224 C13.4630204,16.4005224 12.3697959,15.7770122 11.755102,14.8263184 C11.1404082,15.7770122 10.0471837,16.4005224 9.06122449,16.4005224 C8.05665306,16.4005224 6.94089796,15.7530122 6.33306122,14.771951 C5.72228571,15.6217469 4.69665306,16.1556245 3.91836735,16.1556245 C2.73502041,16.1556245 0.979591837,14.9213388 0.979591837,13.216849 L0.979591837,10.7678694 C0.979591837,10.4970122 1.19853061,10.2780735 1.46938776,10.2780735 L22.0408163,10.2780735 C22.3116735,10.2780735 22.5306122,10.4970122 22.5306122,10.7678694 L22.5306122,13.216849 C22.5306122,14.9213388 20.7751837,16.1556245 19.5918367,16.1556245 C18.813551,16.1556245 17.7879184,15.6217469 17.1771429,14.771951 C16.5693061,15.7530122 15.453551,16.4005224 14.4489796,16.4005224" id="Fill-5" fill="#231F20"></path>
                <g id="Group-9" transform="translate(3.428571, 0.482155)">
                    <mask id="mask-2" fill="white">
                        <use xlink:href="#path-1"></use>
                    </mask>
                    <g id="Clip-8"></g>
                    <path d="M1.95918367,1.24839184 C1.4395102,1.89737143 0.979591837,2.62667755 0.979591837,2.93867755 C0.979591837,3.47892245 1.41893878,3.91826939 1.95918367,3.91826939 C2.49942857,3.91826939 2.93877551,3.47892245 2.93877551,2.93867755 C2.93877551,2.62667755 2.47885714,1.89737143 1.95918367,1.24839184 M1.95918367,4.89786122 C0.878693878,4.89786122 0,4.01916735 0,2.93867755 C0,1.98847347 1.32832653,0.459820408 1.59477551,0.162514286 C1.78040816,-0.0441795918 2.13795918,-0.0441795918 2.32359184,0.162514286 C2.59004082,0.459820408 3.91836735,1.98847347 3.91836735,2.93867755 C3.91836735,4.01916735 3.03967347,4.89786122 1.95918367,4.89786122" id="Fill-7" fill="#231F20" mask="url(#mask-2)"></path>
                </g>
                <g id="Group-12" transform="translate(16.163265, 0.482155)">
                    <mask id="mask-4" fill="white">
                        <use xlink:href="#path-3"></use>
                    </mask>
                    <g id="Clip-11"></g>
                    <path d="M1.95918367,1.24839184 C1.4395102,1.89737143 0.979591837,2.62667755 0.979591837,2.93867755 C0.979591837,3.47892245 1.41893878,3.91826939 1.95918367,3.91826939 C2.49942857,3.91826939 2.93877551,3.47892245 2.93877551,2.93867755 C2.93877551,2.62667755 2.47885714,1.89737143 1.95918367,1.24839184 M1.95918367,4.89786122 C0.878693878,4.89786122 0,4.01916735 0,2.93867755 C0,1.98847347 1.32832653,0.459820408 1.59477551,0.162514286 C1.78040816,-0.0441795918 2.13795918,-0.0441795918 2.32359184,0.162514286 C2.59004082,0.459820408 3.91836735,1.98847347 3.91836735,2.93867755 C3.91836735,4.01916735 3.03967347,4.89786122 1.95918367,4.89786122" id="Fill-10" fill="#231F20" mask="url(#mask-4)"></path>
                </g>
                <g id="Group-15" transform="translate(9.795918, 0.482155)">
                    <mask id="mask-6" fill="white">
                        <use xlink:href="#path-5"></use>
                    </mask>
                    <g id="Clip-14"></g>
                    <path d="M1.95918367,1.24839184 C1.4395102,1.89737143 0.979591837,2.62667755 0.979591837,2.93867755 C0.979591837,3.47892245 1.41893878,3.91826939 1.95918367,3.91826939 C2.49942857,3.91826939 2.93877551,3.47892245 2.93877551,2.93867755 C2.93877551,2.62667755 2.47885714,1.89737143 1.95918367,1.24839184 M1.95918367,4.89786122 C0.878693878,4.89786122 0,4.01916735 0,2.93867755 C0,1.98847347 1.32832653,0.459820408 1.59477551,0.162514286 C1.78040816,-0.0441795918 2.13795918,-0.0441795918 2.32359184,0.162514286 C2.59004082,0.459820408 3.91836735,1.98847347 3.91836735,2.93867755 C3.91836735,4.01916735 3.03967347,4.89786122 1.95918367,4.89786122" id="Fill-13" fill="#231F20" mask="url(#mask-6)"></path>
                </g>
                <mask id="mask-8" fill="white">
                    <use xlink:href="#path-7"></use>
                </mask>
                <g id="Clip-17"></g>
                <path d="M11.2653061,10.2780735 L12.244898,10.2780735 L12.244898,7.33929796 L11.2653061,7.33929796 L11.2653061,10.2780735 Z M12.7346939,11.2576653 L10.7755102,11.2576653 C10.5046531,11.2576653 10.2857143,11.0387265 10.2857143,10.7678694 L10.2857143,6.84950204 C10.2857143,6.5786449 10.5046531,6.35970612 10.7755102,6.35970612 L12.7346939,6.35970612 C13.005551,6.35970612 13.2244898,6.5786449 13.2244898,6.84950204 L13.2244898,10.7678694 C13.2244898,11.0387265 13.005551,11.2576653 12.7346939,11.2576653 L12.7346939,11.2576653 Z" id="Fill-16" fill="#231F20" mask="url(#mask-8)"></path>
                <path d="M4.89795918,10.2780735 L5.87755102,10.2780735 L5.87755102,7.33929796 L4.89795918,7.33929796 L4.89795918,10.2780735 Z M6.36734694,11.2576653 L4.40816327,11.2576653 C4.13730612,11.2576653 3.91836735,11.0387265 3.91836735,10.7678694 L3.91836735,6.84950204 C3.91836735,6.5786449 4.13730612,6.35970612 4.40816327,6.35970612 L6.36734694,6.35970612 C6.63820408,6.35970612 6.85714286,6.5786449 6.85714286,6.84950204 L6.85714286,10.7678694 C6.85714286,11.0387265 6.63820408,11.2576653 6.36734694,11.2576653 L6.36734694,11.2576653 Z" id="Fill-18" fill="#231F20" mask="url(#mask-8)"></path>
                <path d="M17.6326531,10.2780735 L18.6122449,10.2780735 L18.6122449,7.33929796 L17.6326531,7.33929796 L17.6326531,10.2780735 Z M19.1020408,11.2576653 L17.1428571,11.2576653 C16.872,11.2576653 16.6530612,11.0387265 16.6530612,10.7678694 L16.6530612,6.84950204 C16.6530612,6.5786449 16.872,6.35970612 17.1428571,6.35970612 L19.1020408,6.35970612 C19.372898,6.35970612 19.5918367,6.5786449 19.5918367,6.84950204 L19.5918367,10.7678694 C19.5918367,11.0387265 19.372898,11.2576653 19.1020408,11.2576653 L19.1020408,11.2576653 Z" id="Fill-19" fill="#231F20" mask="url(#mask-8)"></path>
            </g>
        </g>
    </g>
</svg>