<?xml version="1.0" encoding="UTF-8"?>
<svg width="15px" height="15px" viewBox="0 0 15 15" version="1.1" xmlns="http://www.w3.org/2000/svg" xmlns:xlink="http://www.w3.org/1999/xlink">
    <!-- Generator: sketchtool 55.2 (78181) - https://sketchapp.com -->
    <title>EB5987A5-1658-403B-A60F-F6EFBB10DBD1</title>
    <desc>Created with sketchtool.</desc>
    <g id="APP-Designs" stroke="none" stroke-width="1"  fill-rule="evenodd">
        <g id="AB-APP-Shop-Product-Detail-1.1-All" transform="translate(-39.000000, -904.000000)" >
            <g id="Group-2" transform="translate(15.000000, 631.000000)">
                <g id="icon-/-checkitem-/-grey-copy-2-icon-/-checkitem-/-grey" transform="translate(24.000000, 273.000000)">
                    <path d="M5.47851551,6.70898438 L7.96874995,9.16992188 L14.2089845,2.95898439 C14.4238293,2.74413956 14.6386709,2.74413956 14.8535158,2.95898439 C15.0292979,3.17382921 15.0292979,3.38867081 14.8535158,3.60351563 L8.32031246,10.1074219 L8.26171871,10.1367188 C8.24218736,10.1562501 8.21289078,10.1757812 8.17382808,10.1953125 L8.05664058,10.2539063 C8.01757788,10.2734376 7.9882813,10.2832031 7.96874995,10.2832031 C7.91015591,10.2832031 7.8027351,10.2343755 7.64648432,10.1367188 L7.58789057,10.1074219 L4.83398424,7.35351563 C4.65820211,7.13867081 4.65820211,6.9238292 4.83398424,6.70898438 C5.04882907,6.49413956 5.26367068,6.49413956 5.47851551,6.70898438 Z M14.0039062,7.08984375 L14.8828125,6.24023438 C14.9609379,6.76758076 15,7.18749844 15,7.5 C15,9.45313477 14.3261786,11.1523365 12.9785156,12.5976562 C11.4941332,14.1992268 9.66797959,15 7.5,15 C5.54686523,15 3.84766348,14.3261786 2.40234375,12.9785156 C0.800773242,11.4941332 0,9.66797959 0,7.5 C0,5.54686523 0.673821387,3.84766348 2.02148438,2.40234375 C3.5058668,0.800773242 5.33202041,0 7.5,0 C9.37500937,0 11.0253835,0.62499375 12.4511719,1.875 L11.7480469,2.54882812 C10.517572,1.49413535 9.10157051,0.957031348 7.5,0.9375 C5.8593668,0.9375 4.41406875,1.48436953 3.1640625,2.578125 C1.67968008,3.88672529 0.9375,5.52733389 0.9375,7.5 C0.9375,9.1406332 1.48436953,10.5859313 2.578125,11.8359375 C3.88672529,13.3203199 5.52733389,14.0625 7.5,14.0625 C9.1406332,14.0625 10.5859312,13.5156305 11.8359375,12.421875 C13.3203199,11.1132747 14.0625,9.47266611 14.0625,7.5 C14.0625,7.42187461 14.0429689,7.28515723 14.0039062,7.08984375 Z" id="-copy"></path>
                </g>
            </g>
        </g>
    </g>
</svg>
