<?xml version="1.0" encoding="UTF-8"?>
<svg width="40px" height="40px" viewBox="0 0 40 40" version="1.1" xmlns="http://www.w3.org/2000/svg" xmlns:xlink="http://www.w3.org/1999/xlink">
    <title>UI / icon / BW / Diamond</title>
    <defs>
        <polygon id="path-1" points="2.51567764e-16 0 40 0 40 36.4307656 2.51567764e-16 36.4307656"></polygon>
    </defs>
    <g id="UI-/-icon-/-BW-/-Diamond" stroke="none" stroke-width="1" fill="none" fill-rule="evenodd">
        <g id="Group-3" transform="translate(0.000000, 2.000000)">
            <mask id="mask-2" fill="white">
                <use xlink:href="#path-1"></use>
            </mask>
            <g id="Clip-2"></g>
            <path d="M29.3631717,12.3843305 L37.2257828,12.3163678 L22.8310973,30.8558192 L29.3631717,12.3843305 Z M2.79072389,12.6169351 L10.6868378,12.5671597 L17.4677895,30.8950652 L2.79072389,12.6169351 Z M7.12501941,2.94039067 L10.0072111,10.7312103 L2.50164323,10.7953441 L7.12501941,2.94039067 Z M32.7086582,2.9231607 L37.4603019,10.495734 L30.0083385,10.5598678 L32.7086582,2.9231607 Z M21.9112082,1.81852796 L31.1704044,1.81852796 L28.1953624,10.2315411 L21.9112082,1.81852796 Z M11.6191708,9.84769554 L8.64891483,1.81852796 L18.1799618,1.81852796 L11.6191708,9.84769554 Z M20.0647294,2.38615986 L26.1957282,10.5924133 L13.2694193,10.7034509 L20.0647294,2.38615986 Z M20.1642804,32.9435176 L12.6108515,12.5279136 L27.4286286,12.4006033 L20.1642804,32.9435176 Z M39.9596053,11.6558855 C39.9634342,11.6415272 39.9710919,11.6290833 39.9749208,11.614725 C40.0007658,11.5142169 40.0045947,11.4117942 39.9959797,11.3103288 C39.993108,11.2835267 39.9873647,11.2586389 39.9825786,11.2318367 C39.9682203,11.1495158 39.9423753,11.0700664 39.9040865,10.9925316 C39.8945143,10.9724299 39.8887709,10.9513711 39.8772843,10.9322266 C39.8724982,10.9245689 39.8705838,10.9159539 39.8657977,10.9082961 L33.2896912,0.425771786 C33.1231347,0.16062164 32.8321396,-0.000191444148 32.5191285,-0.000191444148 L7.26573086,-0.000191444148 C6.94314747,-0.000191444148 6.64545182,0.171151069 6.48272429,0.448745084 L0.120078024,11.2586389 C0.112420258,11.2701256 0.110505817,11.2835267 0.103805272,11.2959705 C0.0980619471,11.3074572 0.0875325189,11.3160722 0.0817891945,11.328516 C0.0712597663,11.3514893 0.0683881041,11.3763771 0.0597731174,11.4003076 C0.0435003648,11.4433825 0.0281848329,11.4855002 0.0186126255,11.5304896 C0.0109548596,11.566864 0.00712597663,11.6032384 0.00425431441,11.6396128 C0.000425431441,11.6846021 -0.00148901004,11.7276771 0.00138265218,11.7726665 C0.00329709367,11.8099981 0.00808319737,11.8463725 0.0147837426,11.8837041 C0.0233987292,11.9258218 0.0339281574,11.9669823 0.0473292478,12.0081428 C0.0607303382,12.0464316 0.07604587,12.082806 0.0932758434,12.1191804 C0.10189083,12.1373676 0.105719713,12.156512 0.116249141,12.1737419 C0.12773579,12.1938436 0.144965763,12.2091591 0.158366854,12.2283035 C0.170810723,12.2484052 0.178468489,12.2704212 0.193784021,12.2886084 L19.2051452,35.9645063 C19.7794776,36.6144591 20.7252117,36.5464965 21.1406455,35.998009 L39.8131505,11.9487951 C39.8236799,11.9363512 39.8246372,11.9210357 39.8342094,11.9076346 C39.8533538,11.8808324 39.8763271,11.8569019 39.8925998,11.827228 C39.9232309,11.7726665 39.9414181,11.714276 39.9596053,11.6558855 L39.9596053,11.6558855 Z" id="Fill-1" fill="black" mask="url(#mask-2)"></path>
        </g>
    </g>
</svg>