<?xml version="1.0" encoding="UTF-8"?>
<svg width="38px" height="18px" viewBox="0 0 38 18" version="1.1" xmlns="http://www.w3.org/2000/svg" xmlns:xlink="http://www.w3.org/1999/xlink">
    <!-- Generator: sketchtool 55.2 (78181) - https://sketchapp.com -->
    <title>81BD8EDB-3FBF-4CF8-B969-3A1A59C0E584</title>
    <desc>Created with sketchtool.</desc>
    <g id="Asset-Artboard-Page" stroke="none" stroke-width="1" fill="none" fill-rule="evenodd" stroke-linecap="round" stroke-linejoin="round">
        <g id="icon---dispatch" stroke="#404040">
            <g id="Page-1" transform="translate(6.755556, 3.428571)">
                <path d="M21.0218437,9.52191429 C20.6744335,10.4172 19.6903122,11.1427714 18.8236545,11.1427714 L6.26334454,11.1427714 C5.39668689,11.1427714 4.97456485,10.4172 5.32155996,9.52191429 L8.25192539,1.95677143 C8.59933557,1.06148571 9.13145009,-8.57142835e-05 10.3766479,-8.57142835e-05 L22.8286256,-8.57142835e-05 C24.0738234,-8.57142835e-05 24.2992042,1.06148571 23.9526241,1.95677143 L21.0218437,9.52191429 Z" id="Stroke-1"></path>
                <polyline id="Stroke-3" points="21.6492977 2.49694286 14.2183729 6.81994281 10.1357847 2.49694286"></polyline>
                <path d="M7.47118666,9.42857143 L10.7917139,6.85714286" id="Stroke-5"></path>
                <path d="M19.0930319,9.42857143 L17.4327683,6.85714286" id="Stroke-7"></path>
                <path d="M5.39585694,0 L0,0" id="Stroke-9"></path>
                <path d="M2.07532952,10.2857143 L0,10.2857143" id="Stroke-11"></path>
                <path d="M3.14013959,5.14285714 L0.000166026366,5.14285714" id="Stroke-13"></path>
            </g>
        </g>
    </g>
</svg>