<?xml version="1.0" encoding="UTF-8"?>
<svg width="40px" height="40px" viewBox="0 0 40 40" version="1.1" xmlns="http://www.w3.org/2000/svg" xmlns:xlink="http://www.w3.org/1999/xlink">
    <title>icon - dispatch/bw</title>
    <g id="icon---dispatch/bw" stroke="none" stroke-width="1" fill="none" fill-rule="evenodd">
        <path d="M36.1422569,11 C38.5186941,11 39.4792389,12.9713374 38.7732548,15.0086769 L38.7086547,15.1834232 L34.3186201,26.3474187 C33.6848001,27.9565925 31.9813082,29.2382116 30.3400336,29.3344173 L30.1434517,29.340217 L11.3301192,29.340217 C9.38974291,29.340217 8.34752484,27.673434 8.97307692,25.8263059 L9.03663195,25.6526547 L13.4260616,14.4886166 C14.2806496,12.3189461 15.3401446,11.0897607 17.2728198,11.0047291 L17.4911887,11 L36.1422569,11 Z M5.05714328,26.1782371 C5.58105822,26.1782371 6.0057752,26.6029541 6.0057752,27.1268691 C6.0057752,27.6071244 5.64889496,28.0040259 5.18586701,28.0668411 L5.05714328,28.075501 L1.94863192,28.075501 C1.42471698,28.075501 1,27.650784 1,27.1268691 C1,26.6466137 1.35688024,26.2497122 1.81990818,26.186897 L1.94863192,26.1782371 L5.05714328,26.1782371 Z M36.1422569,12.8972638 L17.4911887,12.8972638 C16.4860733,12.8972638 15.8804679,13.5215271 15.2813999,14.961278 L15.1915396,15.1833807 L10.8022516,26.347059 C10.5342897,27.0281878 10.709077,27.3953884 11.2228711,27.4386278 L11.3301192,27.4429532 L30.1434517,27.4429532 C30.9901234,27.4429532 32.0468005,26.7095393 32.4828252,25.8124964 L32.5531589,25.6526121 L36.9429104,14.4893361 C37.3301412,13.5038604 37.0548863,12.8972638 36.1422569,12.8972638 Z M28.7681082,21.4359072 L28.8535502,21.5475155 L31.3403593,25.3420432 C31.6275382,25.7802385 31.5051151,26.3682705 31.0669198,26.6554494 C30.6685604,26.9165211 30.1463691,26.8390788 29.8389557,26.4936181 L29.7535136,26.3820098 L27.2667045,22.5874822 C26.9795256,22.1492868 27.1019487,21.5612548 27.540144,21.274076 C27.9385034,21.0130043 28.4606948,21.0904466 28.7681082,21.4359072 Z M18.8670896,21.4920973 C19.1559855,21.8707631 19.1160916,22.3971561 18.7935037,22.7284914 L18.6882925,22.8216975 L13.7146744,26.6162251 C13.298142,26.9340106 12.7028597,26.8539604 12.3850742,26.437428 C12.0961783,26.0587622 12.1360722,25.5323692 12.4586602,25.2010339 L12.5638713,25.1078279 L17.5374895,21.3133002 C17.9540219,20.9955147 18.5493041,21.0755649 18.8670896,21.4920973 Z M17.7107972,14.8828374 L17.8152285,14.9769164 L23.4155398,20.8203641 L33.9041,14.8103353 C34.3586502,14.5498147 34.9383296,14.7071068 35.1988502,15.161657 C35.4376607,15.578328 35.3253926,16.1001423 34.9549034,16.384885 L34.8475285,16.4564072 L23.7171927,22.8356406 C23.3811757,23.0282252 22.9669516,22.995338 22.667291,22.7647451 L22.5606649,22.6690595 L16.4456013,16.289826 C16.0830514,15.911614 16.095748,15.3111077 16.4739601,14.9485577 C16.8177893,14.6189668 17.3453327,14.5994971 17.7107972,14.8828374 Z M6.65205829,18.5891818 C7.17597323,18.5891818 7.60069021,19.0138988 7.60069021,19.5378137 C7.60069021,20.0180691 7.24380997,20.4149706 6.78078202,20.4777858 L6.65205829,20.4864456 L1.9488806,20.4864456 C1.42496566,20.4864456 1.00024868,20.0617287 1.00024868,19.5378137 C1.00024868,19.0575584 1.35712892,18.6606569 1.82015687,18.5978417 L1.9488806,18.5891818 L6.65205829,18.5891818 Z M10.0307615,11.0001265 C10.5546764,11.0001265 10.9793934,11.4248435 10.9793934,11.9487584 C10.9793934,12.4290138 10.6225131,12.8259153 10.1594852,12.8887304 L10.0307615,12.8973903 L1.94863192,12.8973903 C1.42471698,12.8973903 1,12.4726733 1,11.9487584 C1,11.468503 1.35688024,11.0716015 1.81990818,11.0087864 L1.94863192,11.0001265 L10.0307615,11.0001265 Z" id="Combined-Shape" fill="black" fill-rule="nonzero"></path>
    </g>
</svg>