<?xml version="1.0" encoding="UTF-8"?>
<svg width="15px" height="10px" viewBox="0 0 15 10" version="1.1" xmlns="http://www.w3.org/2000/svg" xmlns:xlink="http://www.w3.org/1999/xlink">
    <title>icon / close / black</title>
    <defs>
        <polygon id="path-1" points="7.5 10 0 10 0 0 7.5 0 15 0 15 10"></polygon>
    </defs>
    <g id="APP-Designs-Main" stroke="none" stroke-width="1" fill="none" fill-rule="evenodd">
        <g id="AB-APP-Brand-Page-v1" transform="translate(-31.000000, -683.000000)">
            <g id="product1" transform="translate(0.000000, 401.000000)">
                <g id="Group" transform="translate(31.000000, 282.000000)">
                    <mask id="mask-2" fill="white">
                        <use xlink:href="#path-1"></use>
                    </mask>
                    <g id="Clip-2"></g>
                    <path d="M1.79452857,0.967741935 L7.50062746,5.68516129 L13.2067263,0.967741935 L1.79452857,0.967741935 Z M14.0889316,1.48129032 L7.8532586,6.59225806 L7.82439555,6.62322581 C7.72651217,6.70322581 7.61858948,6.75354839 7.50062746,6.77419355 C7.40274408,6.77419355 7.29482138,6.72387097 7.17685937,6.62322581 L7.14799632,6.62322581 L0.912323266,1.48129032 L0.912323266,8.5483871 C0.971304275,8.81032258 1.12816866,8.9716129 1.38291642,9.03225806 L13.6183385,9.03225806 C13.8730863,8.9716129 14.0299506,8.81032258 14.0889316,8.5483871 L14.0889316,1.48129032 Z M15,9.51612903 C14.9811763,9.79870968 14.8243119,9.96 14.5294068,10 L0.44173011,10 C0.205806074,9.93935484 0.058981009,9.77806452 0,9.51612903 L0,0.483870968 L0,0.454193548 C0,0.352258065 0.0401572827,0.261935484 0.117962018,0.181935484 L0.117962018,0.121290323 L0.14807998,0.121290323 C0.205806074,0.0812903226 0.294905045,0.04 0.411612148,0 L0.470593157,0 L14.5294068,0 L14.5883879,0 C14.6862712,0.04 14.7753702,0.0812903226 14.8531749,0.121290323 L14.8832929,0.121290323 L14.8832929,0.150967742 C14.9422739,0.232258065 14.9811763,0.332903226 15,0.454193548 L15,0.483870968 L15,9.51612903 Z" id="Fill-1" fill="#1D1D1B" mask="url(#mask-2)"></path>
                </g>
            </g>
        </g>
    </g>
</svg>