<?xml version="1.0" encoding="UTF-8"?>
<svg width="21px" height="21px" viewBox="0 0 21 21" version="1.1" xmlns="http://www.w3.org/2000/svg" xmlns:xlink="http://www.w3.org/1999/xlink">
    <title>7D2E5194-6979-4317-A1EE-4006462DDA17</title>
    <g id="APP---Adore-Society" stroke="none" stroke-width="1" fill="none" fill-rule="evenodd">
        <g id="AB-APP-Account-AS-Rewards-L2" transform="translate(-217.000000, -1237.000000)" fill="#000000" fill-rule="nonzero">
            <g id="Refer-friendL3" transform="translate(22.000000, 893.000000)">
                <g id="http://www.adorebeau" transform="translate(17.000000, 282.000000)">
                    <g id="share-icons" transform="translate(29.000000, 59.000000)">
                        <g id="brand_facebook_messenger_icon_157342" transform="translate(149.000000, 0.000000)">
                            <g id="icon-/-social-/-fb-messenger" transform="translate(0.000000, 3.000000)">
                                <path d="M10.5,0 C4.70100544,0 0,4.35277395 0,9.72222225 C0,12.7818056 1.526875,15.5109009 3.91304348,17.2930517 L3.91304348,21 L7.48819294,19.0378666 C8.44226902,19.3018519 9.45312499,19.4444445 10.5,19.4444445 C16.2989946,19.4444445 21,15.0916706 21,9.72222225 C21,4.35277393 16.2989946,0 10.5,0 Z M11.5434783,13.0925926 L8.8695652,10.2407408 L3.65217391,13.0925926 L9.39130435,7.00000002 L12.1304348,9.85185187 L17.2826087,7.00000002 L11.5434783,13.0925926 L11.5434783,13.0925926 Z" id="Shape"></path>
                            </g>
                        </g>
                    </g>
                </g>
            </g>
        </g>
    </g>
</svg>