
<svg width="84px" height="16px" viewBox="0 0 84 16" version="1.1" xmlns="http://www.w3.org/2000/svg" xmlns:xlink="http://www.w3.org/1999/xlink">
    <!-- Generator: Sketch 45.2 (43514) - http://www.bohemiancoding.com/sketch -->
    <desc>Created with Sketch.</desc>
    <defs></defs>
    <g id="Page-1" stroke="none" stroke-width="1" fill="none" fill-rule="evenodd">
        <path d="M1.53,14.9 L1.53,6.5 L0.64,6.36 C0.4466657,6.3199998 0.29166725,6.25166715 0.175,6.155 C0.05833275,6.05833285 0,5.9200009 0,5.74 L0,4.73 L1.53,4.73 L1.53,4.4 C1.53,3.7733302 1.6333323,3.19166935 1.84,2.655 C2.0466677,2.11833065 2.3599979,1.6533353 2.78,1.26 C3.2000021,0.8666647 3.73166345,0.55833445 4.375,0.335 C5.01833655,0.11166555 5.7766623,0 6.65,0 C6.9300014,0 7.21499855,0.01499985 7.505,0.045 C7.79500145,0.07500015 8.0466656,0.123333 8.26,0.19 L8.18,1.47 C8.1666666,1.6233341 8.0833341,1.71499985 7.93,1.745 C7.7766659,1.77500015 7.5866678,1.79 7.36,1.79 C6.7133301,1.79 6.17166885,1.8466661 5.735,1.96 C5.29833115,2.0733339 4.94500135,2.24166555 4.675,2.465 C4.40499865,2.68833445 4.21166725,2.96833165 4.095,3.305 C3.97833275,3.64166835 3.92,4.0333311 3.92,4.48 L3.92,4.73 L10.28,4.73 L10.28,14.9 L7.81,14.9 L7.81,6.49 L4,6.49 L4,14.9 L1.53,14.9 Z M15.12,5.9 C15.3266677,5.6933323 15.5449989,5.50166755 15.775,5.325 C16.0050012,5.14833245 16.2483321,4.99833395 16.505,4.875 C16.7616679,4.75166605 17.0366652,4.65500035 17.33,4.585 C17.6233348,4.51499965 17.9433316,4.48 18.29,4.48 C18.8500028,4.48 19.3466645,4.57499905 19.78,4.765 C20.2133355,4.95500095 20.5749986,5.22166495 20.865,5.565 C21.1550015,5.90833505 21.3749992,6.31833095 21.525,6.795 C21.6750008,7.27166905 21.75,7.7966638 21.75,8.37 L21.75,14.9 L19.28,14.9 L19.28,8.37 C19.28,7.7433302 19.1366681,7.25833505 18.85,6.915 C18.5633319,6.57166495 18.1266696,6.4 17.54,6.4 C17.1133312,6.4 16.7133352,6.4966657 16.34,6.69 C15.9666648,6.8833343 15.613335,7.146665 15.28,7.48 L15.28,14.9 L12.81,14.9 L12.81,4.64 L14.32,4.64 C14.6400016,4.64 14.8499995,4.7899985 14.95,5.09 L15.12,5.9 Z M30.53,7.26 C30.2499986,6.9199983 29.9450017,6.6800007 29.615,6.54 C29.2849984,6.3999993 28.9300019,6.33 28.55,6.33 C28.1766648,6.33 27.8400015,6.3999993 27.54,6.54 C27.2399985,6.6800007 26.9833344,6.89166525 26.77,7.175 C26.5566656,7.45833475 26.3933339,7.81833115 26.28,8.255 C26.1666661,8.69166885 26.11,9.2066637 26.11,9.8 C26.11,10.400003 26.1583329,10.9083313 26.255,11.325 C26.3516671,11.7416688 26.4899991,12.0816654 26.67,12.345 C26.8500009,12.6083347 27.0699987,12.7983328 27.33,12.915 C27.5900013,13.0316672 27.8799984,13.09 28.2,13.09 C28.7133359,13.09 29.1499982,12.9833344 29.51,12.77 C29.8700018,12.5566656 30.2099984,12.2533353 30.53,11.86 L30.53,7.26 Z M33,0.04 L33,14.9 L31.49,14.9 C31.1633317,14.9 30.9566671,14.7500015 30.87,14.45 L30.66,13.46 C30.2466646,13.9333357 29.7716694,14.3166652 29.235,14.61 C28.6983306,14.9033348 28.0733369,15.05 27.36,15.05 C26.7999972,15.05 26.286669,14.9333345 25.82,14.7 C25.353331,14.4666655 24.9516683,14.1283356 24.615,13.685 C24.2783317,13.2416645 24.0183343,12.6933366 23.835,12.04 C23.6516657,11.3866634 23.56,10.6400042 23.56,9.8 C23.56,9.0399962 23.6633323,8.3333366 23.87,7.68 C24.0766677,7.0266634 24.3733314,6.4600024 24.76,5.98 C25.1466686,5.4999976 25.6099973,5.12500135 26.15,4.855 C26.6900027,4.58499865 27.2966633,4.45 27.97,4.45 C28.5433362,4.45 29.0333313,4.5399991 29.44,4.72 C29.8466687,4.9000009 30.2099984,5.1433318 30.53,5.45 L30.53,0.04 L33,0.04 Z M40.86,10.52 C40.1466631,10.5533335 39.5466691,10.6149995 39.06,10.705 C38.5733309,10.7950005 38.1833348,10.9099993 37.89,11.05 C37.5966652,11.1900007 37.3866673,11.3533324 37.26,11.54 C37.1333327,11.7266676 37.07,11.9299989 37.07,12.15 C37.07,12.5833355 37.198332,12.8933324 37.455,13.08 C37.711668,13.2666676 38.0466646,13.36 38.46,13.36 C38.9666692,13.36 39.4049982,13.2683343 39.775,13.085 C40.1450018,12.9016658 40.5066649,12.6233352 40.86,12.25 L40.86,10.52 Z M35.2,6.07 C36.3800059,4.9899946 37.7999917,4.45 39.46,4.45 C40.060003,4.45 40.5966643,4.54833235 41.07,4.745 C41.5433357,4.94166765 41.9433317,5.21499825 42.27,5.565 C42.5966683,5.91500175 42.8449992,6.3333309 43.015,6.82 C43.1850009,7.3066691 43.27,7.8399971 43.27,8.42 L43.27,14.9 L42.15,14.9 C41.9166655,14.9 41.7366673,14.8650004 41.61,14.795 C41.4833327,14.7249997 41.3833337,14.5833344 41.31,14.37 L41.09,13.63 C40.8299987,13.8633345 40.5766679,14.0683325 40.33,14.245 C40.0833321,14.4216675 39.826668,14.5699994 39.56,14.69 C39.293332,14.8100006 39.0083349,14.9016663 38.705,14.965 C38.4016652,15.0283337 38.0666685,15.06 37.7,15.06 C37.2666645,15.06 36.8666685,15.0016672 36.5,14.885 C36.1333315,14.7683328 35.816668,14.5933345 35.55,14.36 C35.283332,14.1266655 35.0766674,13.8366684 34.93,13.49 C34.7833326,13.1433316 34.71,12.7400023 34.71,12.28 C34.71,12.0199987 34.7533329,11.761668 34.84,11.505 C34.9266671,11.2483321 35.0683324,11.0033345 35.265,10.77 C35.4616677,10.5366655 35.7166651,10.3166677 36.03,10.11 C36.3433349,9.9033323 36.7283311,9.7233341 37.185,9.57 C37.641669,9.4166659 38.1733303,9.29166715 38.78,9.195 C39.3866697,9.09833285 40.0799961,9.0400001 40.86,9.02 L40.86,8.42 C40.86,7.7333299 40.7133348,7.22500165 40.42,6.895 C40.1266652,6.56499835 39.7033361,6.4 39.15,6.4 C38.749998,6.4 38.4183347,6.4466662 38.155,6.54 C37.8916654,6.6333338 37.660001,6.73833275 37.46,6.855 C37.259999,6.97166725 37.0783342,7.0766662 36.915,7.17 C36.7516659,7.2633338 36.570001,7.31 36.37,7.31 C36.1966658,7.31 36.0500006,7.26500045 35.93,7.175 C35.8099994,7.08499955 35.7133337,6.9800006 35.64,6.86 L35.2,6.07 Z M55.8,14.9 L53.33,14.9 L53.33,6.49 L48.57,6.49 L48.57,12.05 C48.57,12.3700016 48.6483325,12.6199991 48.805,12.8 C48.9616675,12.9800009 49.1766653,13.07 49.45,13.07 C49.6033341,13.07 49.7316662,13.0516669 49.835,13.015 C49.9383339,12.9783331 50.028333,12.9400002 50.105,12.9 C50.1816671,12.8599998 50.2499997,12.8216669 50.31,12.785 C50.3700003,12.7483332 50.4299997,12.73 50.49,12.73 C50.5633337,12.73 50.6233331,12.7483332 50.67,12.785 C50.7166669,12.8216669 50.7666664,12.8766663 50.82,12.95 L51.56,14.15 C51.1999982,14.4500015 50.786669,14.6766659 50.32,14.83 C49.853331,14.9833341 49.3700025,15.06 48.87,15.06 C47.9766622,15.06 47.2916691,14.8083359 46.815,14.305 C46.338331,13.8016641 46.1,13.1066711 46.1,12.22 L46.1,6.49 L45.05,6.49 C44.916666,6.49 44.8033338,6.4466671 44.71,6.36 C44.6166662,6.2733329 44.57,6.1433342 44.57,5.97 L44.57,4.99 L46.22,4.71 L46.74,1.92 C46.7733335,1.786666 46.8366662,1.6833337 46.93,1.61 C47.0233338,1.5366663 47.1433326,1.5 47.29,1.5 L48.57,1.5 L48.57,4.73 L55.8,4.73 L55.8,14.9 Z M56.23,1.61 C56.23,1.8233344 56.1866671,2.02499905 56.1,2.215 C56.0133329,2.40500095 55.8983341,2.5699993 55.755,2.71 C55.611666,2.8500007 55.4416677,2.96166625 55.245,3.045 C55.0483324,3.12833375 54.8400011,3.17 54.62,3.17 C54.4066656,3.17 54.2066676,3.12833375 54.02,3.045 C53.8333324,2.96166625 53.6700007,2.8500007 53.53,2.71 C53.3899993,2.5699993 53.2783338,2.40500095 53.195,2.215 C53.1116663,2.02499905 53.07,1.8233344 53.07,1.61 C53.07,1.3899989 53.1116663,1.18500095 53.195,0.995 C53.2783338,0.80499905 53.3899993,0.63833405 53.53,0.495 C53.6700007,0.35166595 53.8333324,0.23833375 54.02,0.155 C54.2066676,0.07166625 54.4066656,0.03 54.62,0.03 C54.8400011,0.03 55.0483324,0.07166625 55.245,0.155 C55.4416677,0.23833375 55.611666,0.35166595 55.755,0.495 C55.8983341,0.63833405 56.0133329,0.80499905 56.1,0.995 C56.1866671,1.18500095 56.23,1.3899989 56.23,1.61 Z M62.86,4.48 C63.6200038,4.48 64.3116636,4.6033321 64.935,4.85 C65.5583365,5.0966679 66.0916645,5.4466644 66.535,5.9 C66.9783355,6.3533356 67.3199988,6.9066634 67.56,7.56 C67.8000012,8.2133366 67.92,8.9433293 67.92,9.75 C67.92,10.5633374 67.8000012,11.2966634 67.56,11.95 C67.3199988,12.6033366 66.9783355,13.1599977 66.535,13.62 C66.0916645,14.0800023 65.5583365,14.4333321 64.935,14.68 C64.3116636,14.9266679 63.6200038,15.05 62.86,15.05 C62.0933295,15.05 61.3966698,14.9266679 60.77,14.68 C60.1433302,14.4333321 59.6083356,14.0800023 59.165,13.62 C58.7216645,13.1599977 58.3783345,12.6033366 58.135,11.95 C57.8916654,11.2966634 57.77,10.5633374 57.77,9.75 C57.77,8.9433293 57.8916654,8.2133366 58.135,7.56 C58.3783345,6.9066634 58.7216645,6.3533356 59.165,5.9 C59.6083356,5.4466644 60.1433302,5.0966679 60.77,4.85 C61.3966698,4.6033321 62.0933295,4.48 62.86,4.48 Z M62.86,13.15 C63.7133376,13.15 64.344998,12.8633362 64.755,12.29 C65.1650021,11.7166638 65.37,10.8766722 65.37,9.77 C65.37,8.6633278 65.1650021,7.8200029 64.755,7.24 C64.344998,6.6599971 63.7133376,6.37 62.86,6.37 C61.993329,6.37 61.3516688,6.66166375 60.935,7.245 C60.5183313,7.82833625 60.31,8.6699945 60.31,9.77 C60.31,10.8700055 60.5183313,11.7083305 60.935,12.285 C61.3516688,12.8616696 61.993329,13.15 62.86,13.15 Z M72.12,5.9 C72.3266677,5.6933323 72.5449989,5.50166755 72.775,5.325 C73.0050011,5.14833245 73.2483321,4.99833395 73.505,4.875 C73.761668,4.75166605 74.0366652,4.65500035 74.33,4.585 C74.6233348,4.51499965 74.9433316,4.48 75.29,4.48 C75.8500028,4.48 76.3466645,4.57499905 76.78,4.765 C77.2133355,4.95500095 77.5749986,5.22166495 77.865,5.565 C78.1550015,5.90833505 78.3749993,6.31833095 78.525,6.795 C78.6750008,7.27166905 78.75,7.7966638 78.75,8.37 L78.75,14.9 L76.28,14.9 L76.28,8.37 C76.28,7.7433302 76.1366681,7.25833505 75.85,6.915 C75.5633319,6.57166495 75.1266696,6.4 74.54,6.4 C74.1133312,6.4 73.7133352,6.4966657 73.34,6.69 C72.9666648,6.8833343 72.613335,7.146665 72.28,7.48 L72.28,14.9 L69.81,14.9 L69.81,4.64 L71.32,4.64 C71.6400016,4.64 71.8499995,4.7899985 71.95,5.09 L72.12,5.9 Z M80.73,13.54 C80.73,13.3333323 80.768333,13.1366676 80.845,12.95 C80.921667,12.7633324 81.026666,12.603334 81.16,12.47 C81.293334,12.336666 81.4533324,12.2300004 81.64,12.15 C81.8266676,12.0699996 82.0266656,12.03 82.24,12.03 C82.4533344,12.03 82.6516658,12.0699996 82.835,12.15 C83.0183343,12.2300004 83.1783326,12.336666 83.315,12.47 C83.4516674,12.603334 83.5599996,12.7633324 83.64,12.95 C83.7200004,13.1366676 83.76,13.3333323 83.76,13.54 C83.76,13.7533344 83.7200004,13.9516657 83.64,14.135 C83.5599996,14.3183342 83.4516674,14.476666 83.315,14.61 C83.1783326,14.743334 83.0183343,14.848333 82.835,14.925 C82.6516658,15.0016671 82.4533344,15.04 82.24,15.04 C82.0266656,15.04 81.8266676,15.0016671 81.64,14.925 C81.4533324,14.848333 81.293334,14.743334 81.16,14.61 C81.026666,14.476666 80.921667,14.3183342 80.845,14.135 C80.768333,13.9516657 80.73,13.7533344 80.73,13.54 Z" id="findation." fill="#000000"></path>
    </g>
</svg>