<?xml version="1.0" encoding="UTF-8"?>
<svg width="110px" height="34px" viewBox="0 0 110 34" version="1.1" xmlns="http://www.w3.org/2000/svg" xmlns:xlink="http://www.w3.org/1999/xlink">
    <title>A3725B4B-147F-4905-BC86-D03499D5E206</title>
    <g id="App---Account" stroke="none" stroke-width="1" fill="none" fill-rule="evenodd">
        <g id="AB-APP-Account-GiftCard" transform="translate(-221.000000, -375.000000)" fill="#000000" fill-rule="nonzero">
            <g id="UI-/-Product-/-Giftcard-Balance-Copy" transform="translate(24.000000, 351.000000)">
                <g id="adorebeauty-logo-/-Giftcard-/-reverse" transform="translate(197.000000, 24.000000)">
                    <g id="Adore-Beauty-Logo-Black-RGB" transform="translate(0.000000, 7.560000)">
                        <path d="M17.9894,1.04544 C17.3206,0.8208 16.4054,0.71064 15.2504,0.71064 L12.837,0.71064 L12.837,7.65288 L9.185,7.65288 L5.687,0 L0,11.99232 L1.8678,11.99232 L3.1482,9.25128 L8.0696,9.25128 L9.2752,11.99232 L11.1738,11.99232 L9.9198,9.25128 L12.8392,9.25128 L12.8392,11.99232 L15.2218,11.99232 C16.3878,11.99232 17.2876,11.88864 17.9234,11.67696 C18.6032,11.46744 19.2522,11.09376 19.8726,10.55808 C21.109,9.48672 21.725,8.08272 21.725,6.34824 C21.725,4.61808 21.131,3.22272 19.9452,2.16 C19.36,1.63728 18.7088,1.2636 17.9894,1.04544 Z M3.8698,7.65072 L5.6562,3.81456 L7.3612,7.65072 L3.8698,7.65072 Z M18.6956,9.33984 C18.2776,9.7092 17.8134,9.98136 17.2964,10.152 C16.7794,10.31184 16.1326,10.39392 15.3538,10.39392 L14.5728,10.39392 L14.5728,2.30904 L15.3538,2.30904 C16.8322,2.30904 17.952,2.65248 18.711,3.33936 C19.5536,4.10832 19.976,5.11272 19.976,6.3504 C19.976,7.57728 19.5492,8.5752 18.6956,9.33984 Z" id="Shape"></path>
                        <path d="M29.0642,0.4968 C27.4076,0.4968 25.9864,1.06704 24.8072,2.20752 C23.6214,3.348 23.0274,4.71096 23.0274,6.30072 C23.0274,8.10864 23.6764,9.5688 24.9766,10.68552 C26.158,11.69424 27.489,12.19752 28.974,12.19752 C30.6504,12.19752 32.0826,11.6316 33.2684,10.49544 C34.4498,9.36576 35.0394,7.98984 35.0394,6.36768 C35.0394,4.75416 34.4498,3.37392 33.275,2.2248 C32.1068,1.07136 30.701,0.4968 29.0642,0.4968 Z M32.0496,9.37656 C31.2202,10.1952 30.2038,10.60344 28.9982,10.60344 C27.8872,10.60344 26.906,10.20168 26.059,9.39816 C25.2054,8.59464 24.7786,7.56864 24.7786,6.32016 C24.7786,5.13216 25.19,4.13208 26.015,3.32424 C26.8378,2.5056 27.8476,2.09736 29.0444,2.09736 C30.2456,2.09736 31.2532,2.50776 32.0672,3.32424 C32.8856,4.13856 33.2948,5.14728 33.2948,6.3504 C33.2926,7.5384 32.8768,8.54712 32.0496,9.37656 Z" id="Shape"></path>
                        <path d="M42.35,6.0804 C42.8164,5.50584 43.0496,4.81896 43.0496,4.01976 C43.0496,2.99592 42.6778,2.17296 41.932,1.54872 C41.2588,0.98928 40.161,0.70848 38.643,0.70848 L36.6102,0.70848 L36.6102,11.99232 L38.3438,11.99232 L38.3438,7.37208 L38.6562,7.37208 L41.9386,11.99016 L44.0594,11.99016 L40.502,7.182 C41.2676,7.02216 41.8836,6.65496 42.35,6.0804 Z M38.346,5.89032 L38.346,2.30904 L38.9642,2.30904 C40.5614,2.30904 41.36,2.88792 41.36,4.04136 C41.36,5.27472 40.5394,5.89032 38.896,5.89032 L38.346,5.89032 L38.346,5.89032 Z" id="Shape"></path>
                        <polygon id="Path" points="45.7908 11.99232 52.1312 11.99232 52.1312 10.39176 47.5244 10.39176 47.5244 6.6204 51.997 6.6204 51.997 5.01984 47.5244 5.01984 47.5244 2.30904 52.1312 2.30904 52.1312 0.70848 45.7908 0.70848"></polygon>
                        <path d="M59.2548,5.9184 C59.884,5.35896 60.2008,4.67424 60.2008,3.86424 C60.2008,3.42144 60.104,2.98296 59.9104,2.5488 C59.7212,2.11896 59.466,1.76256 59.1426,1.47312 C58.8258,1.19448 58.4364,0.99792 57.9744,0.88128 C57.519,0.76464 56.9052,0.70632 56.1352,0.70632 L54.4082,0.70632 L54.4082,11.99016 L57.035,11.99016 C57.8182,11.99016 58.4716,11.91888 58.993,11.77848 C59.4704,11.6316 59.8994,11.3724 60.28,10.99656 C60.9158,10.38744 61.2326,9.64224 61.2326,8.76096 C61.2326,8.0892 61.0544,7.49952 60.698,6.99192 C60.346,6.48216 59.8642,6.1236 59.2548,5.9184 Z M56.144,2.27232 L56.7556,2.27232 C57.3408,2.27232 57.7874,2.41056 58.0954,2.68488 C58.4034,2.9592 58.5574,3.36312 58.5574,3.89448 C58.5574,4.44096 58.4078,4.85352 58.1064,5.13216 C57.8072,5.41296 57.3342,5.55336 56.6874,5.55336 L56.144,5.55336 L56.144,2.27232 L56.144,2.27232 Z M58.9424,9.93816 C58.575,10.24056 57.9986,10.39176 57.2154,10.39176 L56.144,10.39176 L56.144,6.97896 L57.0218,6.97896 C57.9546,6.97896 58.6014,7.14312 58.9644,7.46712 C59.3362,7.79976 59.5232,8.208 59.5232,8.694 C59.5232,9.19728 59.3296,9.612 58.9424,9.93816 Z" id="Shape"></path>
                        <polygon id="Path" points="63.118 11.99232 69.4606 11.99232 69.4606 10.39176 64.8516 10.39176 64.8516 6.6204 69.3264 6.6204 69.3264 5.01984 64.8516 5.01984 64.8516 2.30904 69.4606 2.30904 69.4606 0.70848 63.118 0.70848"></polygon>
                        <path d="M89.2826,7.506 C89.2826,8.49096 89.122,9.19944 88.7986,9.6336 C88.3168,10.2816 87.637,10.6056 86.7592,10.6056 C85.8858,10.6056 85.2082,10.2816 84.7264,9.6336 C84.403,9.18432 84.2424,8.47584 84.2424,7.506 L84.2424,0.70848 L82.5088,0.70848 L82.5088,7.65072 L79.9106,7.65072 L76.4104,0 L70.7234,11.99232 L72.5912,11.99232 L73.8716,9.25128 L78.7908,9.25128 L79.9964,11.99232 L81.895,11.99232 L80.641,9.25128 L82.676,9.25128 C82.8542,9.88416 83.1732,10.43712 83.6374,10.91016 C84.48,11.76768 85.5206,12.19536 86.757,12.19536 C87.9934,12.19536 89.034,11.76552 89.8832,10.91016 C90.6378,10.1412 91.014,9.16056 91.014,7.97256 L91.014,0.70848 L89.2804,0.70848 L89.2804,7.506 L89.2826,7.506 Z M74.5954,7.65072 L76.3818,3.81456 L78.0868,7.65072 L74.5954,7.65072 Z" id="Shape"></path>
                        <polygon id="Path" points="92.5672 2.30904 95.2094 2.30904 95.2094 11.99232 96.943 11.99232 96.943 2.30904 99.5786 2.30904 99.5786 0.70848 92.5672 0.70848"></polygon>
                        <polygon id="Path" points="108.0068 0.70848 105.3712 5.21856 102.7422 0.70848 100.749 0.70848 104.5 7.1172 104.5 11.99232 106.2336 11.99232 106.2336 7.1172 110 0.70848"></polygon>
                    </g>
                    <path d="M26.1909799,30.9549795 L28.4077878,30.9549795 C28.3416144,31.1878126 28.2460306,31.4024557 28.1210365,31.5989086 C27.9960424,31.7953615 27.843476,31.9699864 27.6633374,32.1227831 C27.4831988,32.2755798 27.2681353,32.3938154 27.018147,32.4774898 C26.7681588,32.5611642 26.4850838,32.6030014 26.1689222,32.6030014 C25.6910034,32.6030014 25.2627146,32.4938608 24.8840559,32.2755798 C24.5053972,32.0572988 24.2057789,31.7498863 23.985201,31.3533424 C23.7646231,30.9567985 23.6543342,30.4965894 23.6543342,29.9727149 C23.6543342,29.4415643 23.7664613,28.9831742 23.9907155,28.5975443 C24.2149697,28.2119145 24.5182643,27.9154161 24.9005993,27.7080491 C25.2829343,27.5006821 25.7057086,27.3969986 26.1689222,27.3969986 C26.6615461,27.3969986 27.078806,27.5006821 27.4207017,27.7080491 C27.7625974,27.9154161 28.029129,28.1864484 28.2202965,28.521146 L29.5658217,27.7462483 C29.3305386,27.3897226 29.0493018,27.0823101 28.7221112,26.8240109 C28.3949207,26.5657117 28.0199383,26.3638017 27.597164,26.218281 C27.1743897,26.0727603 26.6983091,26 26.1689222,26 C25.5733618,26 25.0219171,26.0945884 24.514588,26.2837653 C24.0072588,26.4729422 23.566103,26.7421555 23.1911206,27.0914052 C22.8161382,27.4406548 22.5238725,27.8608458 22.3143235,28.3519782 C22.1047745,28.8431105 22,29.3833561 22,29.9727149 C22,30.5620737 22.1010982,31.1041382 22.3032946,31.5989086 C22.505491,32.0936789 22.7922423,32.519327 23.1635484,32.8758527 C23.5348545,33.2323784 23.972334,33.5088677 24.4759868,33.7053206 C24.9796397,33.9017735 25.5292463,34 26.1248066,34 C26.7571299,34 27.3196035,33.8872215 27.8122274,33.6616644 C28.3048514,33.4361073 28.7184349,33.1250568 29.0529781,32.728513 C29.3875212,32.3319691 29.6338332,31.8753979 29.791914,31.3587995 C29.9499948,30.842201 30.0180064,30.2928604 29.9959486,29.7107776 L26.1909799,29.7107776 L26.1909799,30.9549795 Z" id="Path"></path>
                    <polygon id="Path" points="33 26 33 34 34 34 34 26"></polygon>
                    <path d="M37.1358025,27.4285714 L41,27.4285714 L41,26 L37.1358025,26 L37.1358025,27.4285714 Z M37.1358025,30.5828571 L40.8765432,30.5828571 L40.8765432,29.2228571 L37.1358025,29.2228571 L37.1358025,30.5828571 Z M36,26 L36,34 L37.7037037,34 L37.7037037,26 L36,26 Z" id="Shape"></path>
                    <polygon id="Path" points="43 27.4742857 45.1692308 27.4742857 45.1692308 34 46.8192308 34 46.8192308 27.4742857 49 27.4742857 49 26 43 26"></polygon>
                    <path d="M55.8265993,30 C55.8265993,29.4871795 55.9503367,29.043956 56.1978114,28.6703297 C56.4452862,28.2967033 56.7693603,28.0091575 57.1700337,27.8076923 C57.5707071,27.6062271 58.006734,27.5054945 58.4781145,27.5054945 C58.8709315,27.5054945 59.2205387,27.5531136 59.526936,27.6483516 C59.8333333,27.7435897 60.1102694,27.8717949 60.3577441,28.032967 C60.6052189,28.1941392 60.8193042,28.3699634 61,28.5604396 L61,26.7912088 C60.6621773,26.5421245 60.2948934,26.3479853 59.8981481,26.2087912 C59.5014029,26.0695971 59.0005612,26 58.3956229,26 C57.7671156,26 57.1837823,26.0952381 56.6456229,26.2857143 C56.1074635,26.4761905 55.6400112,26.7509158 55.243266,27.1098901 C54.8465208,27.4688645 54.5401235,27.8919414 54.3240741,28.3791209 C54.1080247,28.8663004 54,29.4065934 54,30 C54,30.5934066 54.1080247,31.1336996 54.3240741,31.6208791 C54.5401235,32.1080586 54.8465208,32.5311355 55.243266,32.8901099 C55.6400112,33.2490842 56.1074635,33.5238095 56.6456229,33.7142857 C57.1837823,33.9047619 57.7671156,34 58.3956229,34 C59.0005612,34 59.5014029,33.9304029 59.8981481,33.7912088 C60.2948934,33.6520147 60.6621773,33.4578755 61,33.2087912 L61,31.4395604 C60.8193042,31.6300366 60.6052189,31.8058608 60.3577441,31.967033 C60.1102694,32.1282051 59.8333333,32.2564103 59.526936,32.3516484 C59.2205387,32.4468864 58.8709315,32.4945055 58.4781145,32.4945055 C58.006734,32.4945055 57.5707071,32.3937729 57.1700337,32.1923077 C56.7693603,31.9908425 56.4452862,31.7014652 56.1978114,31.3241758 C55.9503367,30.9468864 55.8265993,30.5054945 55.8265993,30 Z" id="Path"></path>
                    <path d="M63.9380282,32.2834008 L68.1070423,32.2834008 L67.915493,31.0634278 L64.1295775,31.0634278 L63.9380282,32.2834008 Z M66,28.8933873 L67.1830986,31.5168691 L67.1605634,31.9055331 L68.1746479,34 L70,34 L66,26 L62,34 L63.8140845,34 L64.8507042,31.8407557 L64.8169014,31.4952767 L66,28.8933873 Z" id="Shape"></path>
                    <path d="M73.7732342,30.2742857 L76.1152416,34 L78,34 L75.4572491,30.2742857 L73.7732342,30.2742857 Z M72,26 L72,34 L73.5947955,34 L73.5947955,26 L72,26 Z M72.9702602,27.3942857 L74.5204461,27.3942857 C74.802974,27.3942857 75.0464684,27.4419048 75.2509294,27.5371429 C75.4553903,27.632381 75.6133829,27.7695238 75.7249071,27.9485714 C75.8364312,28.127619 75.8921933,28.3428571 75.8921933,28.5942857 C75.8921933,28.8457143 75.8364312,29.0609524 75.7249071,29.24 C75.6133829,29.4190476 75.4553903,29.5561905 75.2509294,29.6514286 C75.0464684,29.7466667 74.802974,29.7942857 74.5204461,29.7942857 L72.9702602,29.7942857 L72.9702602,31.0971429 L74.6208178,31.0971429 C75.2379182,31.0971429 75.7620818,30.9904762 76.1933086,30.7771429 C76.6245353,30.5638095 76.9553903,30.2647619 77.1858736,29.88 C77.4163569,29.4952381 77.5315985,29.0514286 77.5315985,28.5485714 C77.5315985,28.0380952 77.4163569,27.592381 77.1858736,27.2114286 C76.9553903,26.8304762 76.6245353,26.5333333 76.1933086,26.32 C75.7620818,26.1066667 75.2379182,26 74.6208178,26 L72.9702602,26 L72.9702602,27.3942857 Z" id="Shape"></path>
                    <path d="M80,26 L80,34 L81.6892562,34 L81.6892562,26 L80,26 Z M82.753719,34 C83.6022039,34 84.3446281,33.8361905 84.9809917,33.5085714 C85.6173554,33.1809524 86.1129477,32.7180952 86.4677686,32.12 C86.8225895,31.5219048 87,30.8152381 87,30 C87,29.1847619 86.8225895,28.4780952 86.4677686,27.88 C86.1129477,27.2819048 85.6173554,26.8190476 84.9809917,26.4914286 C84.3446281,26.1638095 83.6022039,26 82.753719,26 L81.0644628,26 L81.0644628,27.4857143 L82.6958678,27.4857143 C83.0506887,27.4857143 83.3862259,27.5333333 83.7024793,27.6285714 C84.0187328,27.7238095 84.2964187,27.8742857 84.5355372,28.08 C84.7746556,28.2857143 84.961708,28.5466667 85.0966942,28.8628571 C85.2316804,29.1790476 85.2991736,29.5580952 85.2991736,30 C85.2991736,30.4419048 85.2316804,30.8209524 85.0966942,31.1371429 C84.961708,31.4533333 84.7746556,31.7142857 84.5355372,31.92 C84.2964187,32.1257143 84.0187328,32.2761905 83.7024793,32.3714286 C83.3862259,32.4666667 83.0506887,32.5142857 82.6958678,32.5142857 L81.0644628,32.5142857 L81.0644628,34 L82.753719,34 Z" id="Shape"></path>
                </g>
            </g>
        </g>
    </g>
</svg>