<?xml version="1.0" encoding="UTF-8"?>
<svg width="27px" height="27px" viewBox="0 0 27 27" version="1.1" xmlns="http://www.w3.org/2000/svg" xmlns:xlink="http://www.w3.org/1999/xlink">
    <title>07CB4031-5C32-4836-9B9D-E62863E8AD45</title>
    <g id="APP---Adore-Society" stroke="none" stroke-width="1" fill="none" fill-rule="evenodd" stroke-linecap="round" stroke-linejoin="round">
        <g id="AB-APP-AdoreSociety---v2-new-customer" transform="translate(-84.000000, -1083.000000)" stroke="#231F20" stroke-width="2">
            <g id="Group" transform="translate(35.000000, 1084.000000)">
                <g id="icon-/-UI-/-AS-/-Gift" transform="translate(50.000000, 0.000000)">
                    <path d="M21.59375,24.7294715 L3.25,24.7294715 C2.65625,24.7294715 2.15625,24.2607215 2.15625,23.6357215 L2.15625,11.7607215 L22.65625,11.7607215 L22.65625,23.6357215 C22.65625,24.2607215 22.1875,24.7294715 21.59375,24.7294715 Z" id="Path"></path>
                    <path d="M24.8125,11.7919715 L0,11.7919715 L0,8.54197154 C0,7.94822154 0.46875,7.44822154 1.09375,7.44822154 L23.75,7.44822154 C24.34375,7.44822154 24.84375,7.91697154 24.84375,8.54197154 L24.84375,11.7919715 L24.8125,11.7919715 Z" id="Path"></path>
                    <path d="M10.375,1.72947154 L11.875,6.97947154 L7,4.54197154 C5.53125,3.82322154 5.21875,1.85447154 6.375,0.69822154 L6.375,0.69822154 C7.6875,-0.58302846 9.875,-0.0205284596 10.375,1.72947154 Z" id="Path"></path>
                    <path d="M13.65625,1.72947154 L12.15625,6.97947154 L17.03125,4.54197154 C18.5,3.82322154 18.8125,1.85447154 17.65625,0.69822154 L17.65625,0.69822154 C16.34375,-0.58302846 14.15625,-0.0205284596 13.65625,1.72947154 Z" id="Path"></path>
                    <line x1="11.875" y1="8.01072154" x2="11.875" y2="24.7294715" id="Path"></line>
                </g>
            </g>
        </g>
    </g>
</svg>