<?xml version="1.0" encoding="UTF-8"?>
<svg width="16px" height="17px" viewBox="0 0 16 17" version="1.1" xmlns="http://www.w3.org/2000/svg" xmlns:xlink="http://www.w3.org/1999/xlink">
    <!-- Generator: sketchtool 55.2 (78181) - https://sketchapp.com -->
    <title>C356277F-F6F7-4464-8592-864147E5BB35</title>
    <desc>Created with sketchtool.</desc>
    <g id="Asset-Artboard-Page" stroke="none" stroke-width="1" fill="none" fill-rule="evenodd">
        <g id="Stars-/-1-/-filled-Copy-4" fill="#FFAF54">
            <g id="Page-1" transform="translate(0.888889, 0.944444)">
                <path d="M10.0200215,9.03663019 C9.89287077,9.1753537 9.83470609,9.37439177 9.86446476,9.56890625 L10.4555802,13.4094363 L7.3620308,11.5969836 C7.28357612,11.5502398 7.19700543,11.5276218 7.11043474,11.5276218 C7.02386405,11.5276218 6.93864603,11.5502398 6.86019135,11.5969836 L7.11043474,1.93308204 L8.65788579,5.42831121 C8.73634048,5.60473132 8.88783919,5.72837618 9.0636859,5.7570256 L12.5224554,6.31795108 L10.0200215,9.03663019 Z M13.7601456,5.30165061 L9.50059732,4.61104879 L7.59468955,0.307604301 C7.41343218,-0.102534767 6.80879004,-0.102534767 6.62753267,0.307604301 L4.7216249,4.61104879 L0.462076603,5.30165061 C0.259176557,5.33482362 0.0900931853,5.49314936 0.0265178375,5.71028181 C-0.0370575102,5.92892212 0.0156965017,6.16867253 0.163137202,6.32850614 L3.24586523,9.67747258 L2.51677774,14.4076426 C2.48296106,14.6338223 2.56547375,14.8615098 2.73185178,14.9957097 C2.89958249,15.1314175 3.11871454,15.148004 3.29997191,15.0424535 L7.11043478,12.8077987 L10.9208976,15.0424535 C11.000705,15.0876894 11.085923,15.1103074 11.1724937,15.1103074 C11.2834124,15.1103074 11.3956837,15.0726108 11.4890178,14.9957097 C11.6553958,14.8615098 11.7392612,14.6338223 11.7040918,14.4076426 L10.976357,9.67747258 L14.059085,6.32850614 C14.2065257,6.16867253 14.2592797,5.92892212 14.1957044,5.71028181 C14.132129,5.49314936 13.9630457,5.33482362 13.7601456,5.30165061 Z" id="Fill-3"></path>
            </g>
        </g>
    </g>
</svg>