<?xml version="1.0" encoding="UTF-8"?>
<svg width="40px" height="40px" viewBox="0 0 40 40" version="1.1" xmlns="http://www.w3.org/2000/svg" xmlns:xlink="http://www.w3.org/1999/xlink">
    <title>UI / icon / Heart / Outline</title>
    <g id="UI-/-icon-/-Heart-/-Outline" stroke="none" stroke-width="1" fill="none" fill-rule="evenodd">
        <path d="M28.8638393,3 L28.5262344,3.00658876 C25.6036601,3.12044153 22.7698229,4.70063867 20.1828133,7.03261095 L20,7.199 L19.8171867,7.03261095 C17.1306767,4.61094743 14.1779873,3 11.1361607,3 C4.24622598,3 0,7.15574324 0,13.9241071 C0,16.3898377 0.951997356,18.807825 2.53082717,21.0950137 C3.08158144,21.8928698 3.67456482,22.6223266 4.272785,23.2708282 L4.54936859,23.5643601 C4.815431,23.8407534 5.04355083,24.0605136 5.17631682,24.1766838 L18.372658,36.9094118 C18.7979803,37.3349618 19.3891474,37.5714286 20,37.5714286 C20.6108526,37.5714286 21.2020197,37.3349618 21.6401425,36.8968389 L35.1022686,23.9297196 C35.2868816,23.7467643 35.482028,23.5451263 35.6896834,23.3198078 C36.273083,22.6867847 36.8486696,21.9832602 37.3880361,21.2132302 C39.0155817,18.8896545 40,16.4336357 40,13.9241071 C40,7.15574324 35.753774,3 28.8638393,3 Z M28.8638393,5 C34.6587315,5 38,8.27006944 38,13.9241071 C38,15.9598672 37.1626971,18.0488489 35.7499177,20.0658123 C35.2650082,20.7580963 34.7451105,21.3935536 34.2190007,21.964414 L34.0366194,22.1593973 L33.6517851,22.5511451 L20.2393496,35.4694547 C20.1692601,35.5392942 20.0889241,35.5714286 20,35.5714286 C19.9110759,35.5714286 19.8307399,35.5392942 19.7740711,35.4826254 L6.52912773,22.7044275 C5.97054543,22.2140974 5.0289265,21.1933338 4.17676212,19.9588367 C2.80841049,17.9765595 2,15.9232699 2,13.9241071 C2,8.27006944 5.34126846,5 11.1361607,5 C13.8448068,5 16.7243824,6.75149443 19.2974113,9.29195335 L20,9.98564849 L20.7025887,9.29195335 C23.2756176,6.75149443 26.1551932,5 28.8638393,5 Z" id="" fill="#000000" fill-rule="nonzero"></path>
    </g>
</svg>