<?xml version="1.0" encoding="UTF-8"?>
<svg width="37px" height="34px" viewBox="0 0 37 34" version="1.1" xmlns="http://www.w3.org/2000/svg" xmlns:xlink="http://www.w3.org/1999/xlink">
  <g fill="none" fill-rule="evenodd"><path d="M30.19 6.524c1.594 1.607 2.392 3.571 2.392 5.89 0 2.318-.798 4.282-2.392 5.89L17.948 30.772 5.706 18.304c-1.594-1.608-2.393-3.572-2.393-5.89 0-2.319.799-4.283 2.393-5.89 1.406-1.47 3.13-2.205 5.17-2.205s3.765.735 5.171 2.205l1.9 1.93 1.971-1.93c1.407-1.47 3.119-2.205 5.135-2.205 2.018 0 3.73.735 5.137 2.205z" fill="#DBA5AE"/><path d="M27.482 0c-2.55 0-4.714.93-6.492 2.79L18.5 5.23l-2.403-2.44C14.32.93 12.141 0 9.561 0c-2.58 0-4.757.93-6.538 2.79C1.008 4.823 0 7.306 0 10.24c0 2.935 1.008 5.418 3.023 7.453L18.5 33.47l15.475-15.777C35.99 15.659 37 13.176 37 10.24c0-2.934-1.01-5.417-3.025-7.452C32.196.93 30.033 0 27.482 0m0 2.922c1.729 0 3.1.594 4.317 1.865l.019.02.018.019c1.468 1.48 2.18 3.25 2.18 5.415s-.712 3.937-2.19 5.428L18.5 29.253 5.164 15.657c-1.468-1.48-2.182-3.25-2.182-5.416 0-2.165.714-3.936 2.182-5.415l.016-.018.02-.02C6.416 3.515 7.803 2.921 9.56 2.921c1.758 0 3.144.594 4.362 1.865l.015.016.015.015 2.4 2.44 2.107 2.143 2.147-2.104 2.49-2.44.036-.035.033-.035c1.216-1.271 2.588-1.865 4.316-1.865" fill="#1D1D1B"/></g>
</svg>
