<?xml version="1.0" encoding="UTF-8"?>
<svg width="31px" height="23px" viewBox="0 0 31 23" version="1.1" xmlns="http://www.w3.org/2000/svg" xmlns:xlink="http://www.w3.org/1999/xlink">
    <title>icon / new</title>
    <g id="App---Account" stroke="none" stroke-width="1" fill="none" fill-rule="evenodd">
        <g id="AB-APP-Account-Rewards-Avatar-2" transform="translate(-322.000000, -746.000000)" fill="#000000" stroke="#000000" stroke-width="0.3">
            <g id="UI-/-Menu-/-App-Bottom-Copy-4" transform="translate(0.000000, 732.000000)">
                <g id="B-IQ" transform="translate(315.000000, 9.867188)">
                    <g id="Group-3" transform="translate(8.130791, 5.217391)">
                        <path d="M28.7384177,20.8695652 L27.7624168,20.8695652 C25.0039432,20.8695652 23.0827523,19.9057347 21.9568419,19.0972372 C20.9887165,18.4020693 20.4326005,17.7102036 20.2306026,17.4326912 C20.0169987,17.4539571 19.5968375,17.4877711 19.0781644,17.4877711 C16.4894961,17.4877711 14.0785087,16.5741332 12.2891277,14.9152669 C10.5164647,13.2715905 9.54018751,11.0798899 9.54018751,8.74381948 C9.54018751,6.40788112 10.5164647,4.21618052 12.2891277,2.57250413 C14.0785087,0.913637865 16.4894961,0 19.0781644,0 C21.6668326,0 24.0778201,0.913637865 25.8670629,2.57250413 C27.639864,4.21618052 28.6161412,6.40788112 28.6161412,8.74381948 C28.6161412,11.5303027 27.296661,13.4546615 26.1896793,14.5783159 C25.31523,15.466197 24.4472745,15.999956 24.023521,16.2321629 C24.430142,16.6565548 25.6096606,17.6088938 28.0071078,17.6088938 L28.7384177,17.6088938 L28.7384177,20.8695652 Z M20.4746028,16.9376335 L20.5569494,17.0666813 C20.5621997,17.0748707 21.1079533,17.9141442 22.2656418,18.7408696 C23.330483,19.5012878 25.1483261,20.4075289 27.7624168,20.4075289 L28.2542859,20.4075289 L28.2542859,18.070798 L28.0071078,18.070798 C24.7093744,18.070798 23.4998739,16.3597578 23.4499962,16.2868465 L23.2992576,16.0666593 L23.5476791,15.9524051 C23.5590087,15.9472537 24.7132431,15.4072867 25.849654,14.2490259 C27.3640858,12.7054706 28.1318713,10.8532306 28.1318713,8.74381948 C28.1318713,6.53375894 27.2078206,4.45974684 25.5296628,2.90390754 C23.8313329,1.32917997 21.5401349,0.462036324 19.0781644,0.462036324 C16.6161939,0.462036324 14.3249959,1.32917997 12.6265278,2.90390754 C10.9485081,4.45974684 10.0243193,6.53375894 10.0243193,8.74381948 C10.0243193,10.9540121 10.9485081,13.0280242 12.6265278,14.5838635 C14.3249959,16.1585911 16.6161939,17.0258668 19.0781644,17.0258668 C19.7850189,17.0258668 20.3123965,16.9586351 20.3176468,16.9579747 L20.4746028,16.9376335 Z M0,16.5603963 L4.15353035,16.5603963 L4.15353035,0.754078151 L0,0.754078151 L0,16.5603963 Z M0.484131805,16.0983599 L3.66939854,16.0983599 L3.66939854,1.21598239 L0.484131805,1.21598239 L0.484131805,16.0983599 Z M19.0781644,14.3391084 C15.8558693,14.3391084 13.3318625,11.8813869 13.3318625,8.74381948 C13.3318625,5.60638415 15.8558693,3.14853054 19.0781644,3.14853054 C22.3003213,3.14853054 24.8243281,5.60638415 24.8243281,8.74381948 C24.8243281,11.8813869 22.3003213,14.3391084 19.0781644,14.3391084 L19.0781644,14.3391084 Z M19.0781644,3.61056687 C16.1273644,3.61056687 13.8159943,5.86540451 13.8159943,8.74381948 C13.8159943,11.6223665 16.1273644,13.8772042 19.0781644,13.8772042 C22.0288261,13.8772042 24.3401963,11.6223665 24.3401963,8.74381948 C24.3401963,5.86540451 22.0288261,3.61056687 19.0781644,3.61056687 L19.0781644,3.61056687 Z" id="Fill-1"></path>
                    </g>
                </g>
            </g>
        </g>
    </g>
</svg>