<?xml version="1.0" encoding="UTF-8"?>
<svg width="139px" height="49px" viewBox="0 0 139 49">
  <g stroke="none" strokeWidth="1" fill="none" fillRule="evenodd">
    <g transform="translate(-119.000000, -346.000000)" fill="#000000" fillRule="nonzero">
      <g transform="translate(27.000000, 123.000000)">
        <g transform="translate(58.000000, 152.000000)">
          <g transform="translate(34.325581, 71.511628)">
            <path d="M28.5643629,0.211225091 C28.8172835,0.475336893 29.0634895,0.739448696 29.3164101,1.00579873 C29.2256865,1.46649052 29.0446381,1.90465822 28.78371,2.29502245 C28.4725953,2.75386075 28.1614805,3.21269905 27.8615569,3.68049029 C27.1900863,4.71679338 26.5790479,5.78890824 25.8471449,6.78268486 C25.3569713,7.45415554 24.9518506,8.17934388 24.4527241,8.84186162 C23.9535976,9.50437937 23.4522328,10.1736118 22.9352003,10.8249384 C22.6710885,11.1606737 22.5166503,11.590415 22.0846708,11.8500503 L21.3706737,11.7179944 C21.3043956,11.7549768 21.2446568,11.8026165 21.193853,11.8590032 C20.4932853,12.8303975 19.797194,13.80403 19.1570586,14.8157125 C18.4520144,15.9348303 17.6820614,17.0136599 16.9501583,18.1148718 C16.64352,18.5781865 16.3547876,19.048216 16.0660552,19.5204837 C14.5619609,21.964637 13.0533901,24.4043139 11.560487,26.8529436 C10.7905339,28.1153085 10.0377407,29.3873724 9.30210722,30.6691353 C7.95916585,32.9939161 6.62965389,35.3239193 5.31357135,37.6591452 C4.49437712,39.1095218 3.72442406,40.5845191 2.88508571,42.0237046 C2.16300071,43.2422893 1.53520866,44.5143351 1.00720603,45.8287052 C0.92440471,46.0275711 0.86288361,46.2346421 0.823670706,46.4464582 C0.829391809,46.559339 0.858346646,46.6698245 0.90872366,46.7710024 C1.21374545,46.8732777 1.54508571,46.8645582 1.84430615,46.7463818 C3.03632603,46.3296706 4.20100736,45.8385309 5.33147724,45.275861 C7.03029807,44.4700961 8.72016596,43.641949 10.4525603,42.9212371 C12.3572988,42.1266635 14.3090403,41.4551928 16.2719729,40.8240103 C17.9215526,40.298025 19.5890381,39.8638073 21.2744295,39.481069 C23.0775149,39.0652247 24.9157674,38.8201744 26.7648215,38.7491659 C27.756453,38.6861237 28.748296,38.8691149 29.6521454,39.281866 C29.7864396,39.3512513 29.9117808,39.4385425 29.8513484,39.6534131 C29.7668112,39.6642903 29.6809761,39.6589731 29.5984278,39.6377455 C28.9761983,39.3154395 28.3024894,39.2594836 27.6175893,39.234863 C26.598785,39.2096664 25.5799699,39.2846344 24.5758271,39.4586866 C22.8679462,39.7159811 21.1805336,40.0944521 19.5263675,40.5912338 C18.3512938,40.9583045 17.1784583,41.3365663 16.0123376,41.7372105 C14.6156786,42.2206694 13.223496,42.7227802 11.8357899,43.243543 C11.085981,43.5255607 10.354078,43.8568196 9.61993667,44.1813638 C8.18522764,44.8214991 6.75723332,45.4773022 5.32028606,46.1174376 C4.64881537,46.4195994 3.96391527,46.6926641 3.28349165,46.9791583 C2.76982794,47.1857911 2.23974894,47.3490075 1.69882083,47.4670936 C1.231624,47.6014193 0.729891592,47.5400156 0.308876515,47.2969877 C0.21934709,47.1246436 0.10743531,46.909773 0,46.71057 C0.0660416347,45.808448 0.333750516,44.9326575 0.783382465,44.1477902 C1.81297085,42.151284 2.8574808,40.1629847 3.91691233,38.1828923 C4.9226262,36.3117273 5.94549987,34.4502614 6.98553336,32.5984944 C7.85844525,31.0317295 8.75373949,29.4895852 9.64455727,27.9384879 C10.3809368,26.6582171 11.1173163,25.3757081 11.8671252,24.102152 C12.491593,23.0412284 13.1317284,21.9847812 13.7785784,20.9328104 C14.4254285,19.8808397 15.1349492,18.7997719 15.7929905,17.7164658 C16.2965935,16.8704128 16.804673,16.0310744 17.346326,15.2118802 C18.3826291,13.6451153 19.4055028,12.0783503 20.4418059,10.5115854 C21.0685118,9.56108133 21.7019325,8.61281551 22.3420679,7.66678792 C22.9978709,6.70210837 23.6648652,5.7419053 24.3251447,4.77722575 C24.9518506,4.32957862 25.1510536,3.56634028 25.6233213,3.00006667 C26.2724097,2.22339891 26.8946392,1.41987232 27.5258216,0.629775151 C27.7720275,0.338804521 28.0988099,0.260466274 28.5643629,0.211225091 Z" />
            <path d="M40.9485206,25.7875435 C40.9861747,25.9949866 40.8894242,26.2037166 40.7067911,26.3090524 C40.1382793,26.7343171 39.5764821,27.1685348 38.9967791,27.5758937 C38.2671143,28.0884497 37.5262583,28.5875762 36.7809259,29.0799881 C35.4510743,29.9698771 34.0290114,30.7135522 32.5394694,31.2980796 C31.3790216,31.7854407 30.1888845,32.1988489 28.9761983,32.5358238 C27.6713069,32.8558915 26.3507479,32.9431827 25.0436183,32.5582062 C23.7371191,32.2035692 22.7093848,31.1944901 22.3308767,29.8947058 C22.2346326,29.6059734 22.1070532,29.3217175 22.0175237,29.0710351 C22.1003385,28.5540027 22.1742002,28.0660673 22.2547767,27.5826084 C22.4181679,26.5888318 22.8904356,25.7226346 23.4365651,24.8967257 C24.0526953,23.9735694 24.8208445,23.1615259 25.7083743,22.4950989 C26.6663391,21.7676723 27.653401,21.0738193 28.8575718,20.796278 C29.2156895,20.7134633 29.5738072,20.6306486 29.9386396,20.5612633 C30.0601625,20.54106 30.1841873,20.54106 30.3057102,20.5612633 C31.4942133,20.6731751 32.0470575,21.4834164 31.7918987,22.6271548 C31.7191608,22.8941735 31.6139229,23.1512545 31.4785457,23.3926314 C30.9727044,24.3975991 30.2161808,25.2056022 29.3969866,25.9554111 C28.9000983,26.4030583 28.3383011,26.8014642 27.8011246,27.2110613 C26.717142,28.0284338 25.5168055,28.6787732 24.2400917,29.1404204 C23.9558358,29.2478557 23.6738181,29.364244 23.4029916,29.4739175 C23.3134622,29.8902293 23.5529534,30.1700088 23.6268152,30.4833618 C24.3609564,31.2533148 25.2696801,31.5644296 26.2880773,31.6405296 C27.4570189,31.706544 28.6288912,31.5810403 29.7573425,31.2689825 C31.266587,30.8468218 32.7221047,30.2519973 34.0950431,29.4962999 C34.9410962,29.0486528 35.7759581,28.6010056 36.61082,28.1354526 C37.8508025,27.4460761 39.0191615,26.6447877 40.2412381,25.9218376 C40.3666462,25.8360342 40.5038693,25.7689305 40.648597,25.7226346 C40.752117,25.722061 40.854501,25.7442187 40.9485206,25.7875435 Z M23.3694181,27.7706202 C23.3628114,27.8955458 23.3787326,28.0206411 23.416421,28.1399291 C23.582608,28.1050647 23.7452033,28.0548624 23.9021181,27.9899673 C25.8247625,26.9984289 27.6556393,25.8770729 29.1955454,24.3282138 C29.8132984,23.7059843 30.3348073,23.0322754 30.5138797,22.1481724 C30.5144109,22.0448573 30.4985456,21.9421111 30.4668632,21.8437723 L29.7953925,21.6803811 C28.2818499,22.0581406 26.8984133,22.8376286 25.791189,23.9365226 C25.2204389,24.4938433 24.69893,25.1048816 24.2020417,25.6398199 C24.0453652,25.9845082 23.9043564,26.2575729 23.7946828,26.5463053 C23.6365142,26.9491878 23.4947593,27.3572927 23.3694181,27.7706202 Z" />
            <path d="M60.4345998,25.270511 C60.9471558,24.7176668 61.3903265,24.2498756 61.8223059,23.7708932 C63.019762,22.4279518 64.539524,21.6378546 66.2517742,21.2125899 C67.0356979,21.0156268 67.8519839,20.9836156 68.6489246,21.118584 C69.0431151,21.2008066 69.4172863,21.3597533 69.7501365,21.5863752 C69.898909,21.6952394 70.0156477,21.8421293 70.0881101,22.01164 C70.1850611,22.2337977 70.2680375,22.4617958 70.3365542,22.6943018 C70.2347954,23.344306 69.8789181,23.9272362 69.3472541,24.3147844 C68.4385304,25.0511639 67.3664155,25.3264669 66.3054919,25.630867 C64.6963667,26.0994606 63.0183736,26.2864932 61.3455617,26.1837112 C61.2434825,26.1896901 61.1418414,26.2016479 61.0411617,26.2195229 C60.4148118,27.0624842 60.0659681,28.079293 60.0429086,29.1292292 C60.0093351,30.2259647 60.5935146,31.0227766 61.5537177,31.4883296 C62.8407031,32.1150356 64.188121,32.0546032 65.537777,31.6673884 C66.7772005,31.2794479 67.9506758,30.7059165 69.0182334,29.9663294 C70.3611748,29.0844645 71.6503985,28.1085938 72.9194781,27.1237701 C73.5909488,26.5977848 74.3586636,26.1523759 74.8667431,25.4227111 C74.9271755,25.3376581 75.0771372,25.3152758 75.2091931,25.2548434 L75.6210285,25.5323846 C75.7361655,25.7429279 75.7301926,25.9989113 75.6053608,26.2038553 C75.4480315,26.4316641 75.2744919,26.6478405 75.0860902,26.8507054 C74.4209318,27.5428399 73.6875424,28.1659959 72.8970958,28.7106792 C72.1047603,29.250094 71.3616661,29.8611323 70.5760454,30.4050235 C69.2842938,31.3099615 67.8675136,32.0217447 66.3704007,32.517918 C64.9816561,32.9783558 63.488458,33.0219301 62.0752266,32.6432592 C61.0755302,32.3755637 60.2118476,31.7441654 59.6534556,30.8728148 C59.3926451,30.4477894 59.2447225,29.9631887 59.2237144,29.4649646 C59.1477275,28.9111561 59.197453,28.3473445 59.3691997,27.8153849 C59.5348291,27.3834055 59.6803144,26.9447113 59.8302762,26.5060171 C59.863869,26.374041 59.8900229,26.2402823 59.9086145,26.1053729 C59.7340321,26.0561317 59.5952615,26.0046523 59.4609674,25.9777935 C57.8715287,25.7099471 56.3271994,25.2217884 54.8725843,24.5274168 C53.6616989,23.9477138 52.5649634,23.2046196 51.8352986,22.0340223 C51.6719074,21.774387 51.5577574,21.4834164 51.4145103,21.2081134 C51.360501,21.1154334 51.301473,21.0257706 51.2376897,20.9395251 C51.0312255,20.9463059 50.8488104,21.075847 50.7743749,21.2685458 C50.2693738,22.1255001 49.6832505,22.9319818 49.0240747,23.6768873 C48.314554,24.4938433 47.6386068,25.3443728 46.9156567,26.1389465 C45.9218801,27.2431427 44.9087055,28.3279409 43.8761328,29.393341 C42.9920297,30.2998265 42.0721149,31.1839295 41.1589147,32.0478885 C40.8478,32.3478121 40.4986352,32.6074474 40.1763293,32.8917033 C39.7702889,33.2664375 39.2596557,33.5084808 38.7125232,33.5855563 L38.1238672,33.3841151 C37.8158249,33.008285 37.6722094,32.5241879 37.7254613,32.0411738 C37.794266,30.8354831 38.0549374,29.6484835 38.4976526,28.5249056 C38.8266732,27.6945202 39.0795938,26.837276 39.4220439,26.0158435 C40.2412381,24.0461962 41.1499618,22.1168371 42.1258325,20.2188133 C42.3568851,19.7006998 42.683381,19.2306975 43.0882738,18.8333454 L43.963424,18.9609248 C44.1622102,19.22683 44.1975315,19.5809049 44.0551916,19.8808397 C43.9694751,20.0802551 43.8723234,20.2745585 43.764221,20.4627809 C43.1867562,21.5237046 42.6943444,22.6249165 42.1549296,23.7059843 C41.4610765,25.0869757 40.9171853,26.5328759 40.3195764,27.958632 C39.8517851,29.0777498 39.5026204,30.2259647 39.099738,31.3629884 C39.0303527,31.5644296 38.9587291,31.7658708 38.8759144,31.9874561 C38.9229173,32.0926532 38.9699203,32.1978503 39.014685,32.2851415 C39.1131674,32.2851415 39.1825527,32.3209532 39.2273174,32.2985709 C40.0644175,31.8733061 40.7269353,31.2175031 41.4185501,30.6042265 C41.8796266,30.1946294 42.3138443,29.7559352 42.7614914,29.317241 C43.4329621,28.6457703 44.1044328,27.9474408 44.7759035,27.264779 C45.8950213,26.1120876 46.9783273,24.9213463 48.0213451,23.7059843 C48.7644393,22.8375489 49.4471012,21.9153959 50.109619,20.9775751 C50.3848895,20.5430557 50.6294531,20.0898277 50.841522,19.6212043 C50.8191396,18.8445366 50.7967573,18.1954483 50.7878043,17.5485982 C50.7809368,17.1110363 50.9108266,16.6822436 51.1593515,16.322045 C51.3559152,15.9870927 51.7662836,15.8439851 52.1285075,15.9840715 C52.4123361,16.0432286 52.6197692,16.2875386 52.6321105,16.5772039 C52.6972358,17.0704132 52.634816,17.5720835 52.4508134,18.0342953 C52.2986134,18.3700306 52.2269898,18.743816 52.0658369,19.0773131 C51.8621574,19.5070543 51.9449722,19.8965073 52.0815045,20.3284868 C52.3399275,21.1887516 52.8074735,21.9715836 53.4423518,22.6070107 C53.7535419,22.9051733 54.0974275,23.1672172 54.4674637,23.3881549 C55.4802913,23.988741 56.5708011,24.4473877 57.7084289,24.7512404 C58.5895537,25.0465687 59.5066059,25.2212453 60.4345998,25.270511 Z M69.3405394,22.3608047 C68.6287804,21.85944 67.874495,21.7967694 67.0888743,21.9131576 C65.765229,22.088633 64.5076937,22.5968836 63.4338356,23.3903931 C62.8465418,23.7889951 62.328603,24.281226 61.9006442,24.8474845 C61.7976853,24.9952081 61.661153,25.1384551 61.7417294,25.346611 C61.7948438,25.3752353 61.852318,25.3948975 61.9118354,25.4048052 C63.6427656,25.4398243 65.3665778,25.1732242 67.0060596,24.6169462 C67.6494776,24.3952226 68.2487899,24.0618504 68.776504,23.6321226 C69.1525276,23.3299608 69.4211158,22.9696048 69.3338247,22.3719959 L69.3405394,22.3608047 Z" />
            <path d="M96.8462168,1.55864293 C96.9069767,1.98742357 96.8880064,2.42373931 96.7902609,2.84562841 C96.5268086,3.92784193 96.0931585,4.96134935 95.5055137,5.90753473 C94.3897988,7.75469639 93.1223149,9.50581561 91.7161808,11.1427678 C90.6283983,12.4431827 89.5204717,13.7212153 88.3588274,14.9656743 C87.879845,15.4827067 87.3896714,15.9885479 86.8950213,16.492151 C86.1586418,17.2374834 85.4177858,17.9738629 84.6746916,18.7147189 C82.9713943,20.4090633 81.2278087,22.0608812 79.4103614,23.6388373 C78.5732613,24.3640256 77.7361612,25.0854836 76.899061,25.8032111 C76.2454962,26.36277 75.5896932,26.9223289 74.8645049,27.5378437 C74.2318475,29.2104416 73.7377715,30.9322215 73.3872694,32.6857856 C73.0913607,33.9752024 73.0074474,35.3042083 73.1388252,36.6206038 C73.1899005,37.1756254 73.354455,37.7142366 73.6222841,38.2030364 C73.9481432,38.7872426 74.6089692,39.1001235 75.2673873,38.9819424 C75.7807664,38.8735676 76.281743,38.7130751 76.7625287,38.50296 C77.7376471,38.0396697 78.6688228,37.4890549 79.5446555,36.8578568 C81.8724206,35.2642331 83.8890709,33.3169681 85.9101976,31.3697031 C86.2213124,31.0697795 86.5413801,30.7788089 86.8457801,30.4744088 C88.3110784,29.0210479 89.7733923,27.5647025 91.2327219,26.1053729 C91.6244131,25.7136817 91.9892456,25.2928934 92.3876515,24.9101551 C92.5958074,24.7109521 92.7793427,24.4423639 93.1553663,24.415505 C93.1553663,24.5341315 93.200131,24.6393286 93.1553663,24.6975227 C92.9815116,24.9882072 92.7814782,25.2624102 92.5577574,25.516717 C91.0029297,27.1431682 89.4361648,28.7606664 87.8574626,30.3692118 C86.8219056,31.4286433 85.7721731,32.4731532 84.7082651,33.5027416 C83.1177349,35.0562337 81.3952818,36.4686453 79.5603232,37.724054 C78.762734,38.2494196 77.9337883,38.7255588 77.0781199,39.1498101 C76.6337793,39.3627277 76.1656817,39.5220162 75.6836991,39.624316 C74.3116607,39.9533367 73.3380282,39.5056896 72.6978928,38.2567541 C72.5097455,37.9055763 72.3747283,37.5284331 72.2972486,37.1376363 C72.1545597,36.3500245 72.096781,35.5493773 72.1249045,34.7494389 C72.2456961,32.5404268 72.6612105,30.3574706 73.3604105,28.2585556 C73.3995552,28.107693 73.4287154,27.9544148 73.4477017,27.7997173 L73.1813517,27.3296878 C73.1544928,26.7455083 73.67824,26.5843553 74.0565018,26.1568523 C74.2803254,25.6174376 74.5735342,24.9728257 74.8242166,24.310308 C75.3535698,22.960324 75.9557946,21.6400619 76.6282345,20.3553456 C76.9236816,19.7801191 77.221367,19.209369 77.5235288,18.6430954 C78.1368053,17.5418835 78.7433672,16.4361951 79.3857408,15.3506508 C79.9990174,14.3210624 80.6167704,13.2869976 81.2949558,12.2976974 C82.617753,10.3683383 83.9248826,8.42778803 85.3954034,6.60138777 C86.355506,5.35850912 87.3955003,4.17945021 88.5087892,3.07169021 C89.6704335,1.96376358 90.9574189,1.00579873 92.468228,0.417142767 C93.4284311,0.0411191838 94.4199694,-0.146892608 95.4562725,0.137363315 C96.230702,0.3186604 96.7387815,0.817786942 96.8462168,1.55864293 Z M96.192652,1.90333122 C96.192652,1.12442522 95.8524402,0.692445748 94.8698548,0.560389847 C94.6851469,0.550862655 94.499992,0.565915905 94.3192488,0.605154559 C93.6492673,0.715735939 92.9987164,0.92228397 92.3876515,1.21843112 C90.9439895,1.8518518 89.8293482,2.91277548 88.7236598,3.98712857 C87.6828802,4.99881107 86.816683,6.16493183 85.9370564,7.31090846 C85.4894093,7.89732619 85.1089093,8.53074687 84.6679769,9.1171646 C83.4459002,10.7443619 82.4409324,12.512568 81.344197,14.22258 C80.8294028,15.0238684 80.4220439,15.8923038 79.9206791,16.7025451 C79.4193143,17.5127864 79.0253849,18.3118365 78.609073,19.1265543 C77.8726935,20.5500721 77.1967464,22.002687 76.5118463,23.4485872 C76.3358608,23.7734101 76.2119941,24.1238622 76.1447756,24.4871286 C76.3079998,24.4107366 76.4657926,24.3232401 76.6170433,24.225255 C77.2146523,23.7395579 77.8234523,23.2672902 78.3942024,22.7547342 C80.2496997,21.0917251 82.1589147,19.4958632 83.9338356,17.7455629 C84.7239327,16.9644187 85.572224,16.245945 86.3533683,15.4648008 C87.1345125,14.6836566 87.9201332,13.8017917 88.7012774,12.978121 C90.6798777,10.9055149 92.5801398,8.77247632 94.2252429,6.42232892 C94.8775038,5.5224656 95.4228249,4.54975097 95.850202,3.5238138 C96.0675898,3.01072963 96.1838679,2.46049875 96.192652,1.90333122 Z" />
            <path d="M135.995196,11.8500503 C134.795502,11.0800972 133.575663,11.0845737 132.353587,11.1293384 C129.667704,11.2255826 126.471503,12.1745945 124.504094,13.4727711 C124.186265,13.9204182 123.928868,14.3009183 123.633421,14.6612742 C123.548368,14.7687095 123.364832,14.7933301 123.185774,14.8739066 L122.478491,14.2919653 C122.534447,13.8957976 122.58145,13.5488711 122.621738,13.2467093 C123,12.4946621 123.675947,12.1477356 124.322797,11.7918562 C125.567449,11.1282777 126.900836,10.6466305 128.282236,10.3616236 C129.699794,10.0450899 131.147338,9.88225068 132.599793,9.87592648 C133.384489,9.88317529 134.166231,9.97320313 134.932034,10.1445148 C135.508819,10.2783563 136.042866,10.5546137 136.48537,10.9480413 C137.454526,11.7538062 137.539579,12.8281593 137.351567,13.9607065 C137.150633,15.0501461 136.636507,16.0573961 135.872093,16.8592216 C135.203733,17.5752582 134.459214,18.2162047 133.651763,18.7706748 C132.015613,19.950225 130.227263,20.8298516 128.389671,21.6311399 C127.895021,21.8549635 127.413801,22.0922165 126.854242,22.3585665 C126.995251,22.4839077 127.057921,22.5823901 127.147451,22.6114871 C128.468153,22.9903496 129.743929,23.5111662 130.952451,24.1648226 C132.886287,25.2637963 134.392619,26.7768436 135.267769,28.8181145 C135.967391,30.3273437 136.125483,32.0315817 135.715417,33.6437505 C135.158096,35.7678361 133.924828,37.3323628 132.230484,38.6484453 C131.134571,39.475272 129.959779,40.1919924 128.723168,40.7881986 C127.055232,41.5797787 125.284809,42.1342603 123.463315,42.43554 C121.51605,42.8026106 119.550879,42.7735136 117.590185,42.6817459 C116.058309,42.590387 114.552663,42.2423482 113.136096,41.6521575 C111.858063,41.1373633 110.674036,40.4099367 109.87051,39.234863 C108.751392,37.6031893 108.281363,35.8416978 108.809586,33.8854799 C108.990128,33.2811713 109.302825,32.7245862 109.725025,32.2560444 C109.973773,31.9002935 110.365238,31.6706448 110.797139,31.6271002 C110.888525,31.6736087 110.950354,31.7630019 110.961629,31.86492 C110.972903,31.9668382 110.932107,32.0675837 110.853095,32.1329414 C110.473591,32.5310953 110.170161,32.9953435 109.957801,33.5027416 C109.632764,34.3922447 109.600609,35.3623653 109.866033,36.2714391 C110.376351,38.2478011 111.699148,39.510166 113.525549,40.2868338 C114.032833,40.5004455 114.556862,40.671878 115.092314,40.7993897 C117.197536,41.2931056 119.372099,41.4203084 121.520526,41.1754133 C121.909979,41.1351251 122.297194,41.0567868 122.686647,41.0187368 C124.2176,40.8620603 125.67693,40.3808397 127.102686,39.8570925 C128.507277,39.3513849 129.823163,38.6269675 131.001692,37.7106246 C131.977563,36.945148 132.910907,36.0856655 133.548804,34.9755007 C134.945463,32.5447768 134.497816,29.6171646 132.828093,27.5893231 C131.690894,26.2377458 130.248593,25.1759667 128.62021,24.491605 C127.467261,24.0120761 126.266872,23.6557105 125.039033,23.4284431 C124.464097,23.3019004 123.866045,23.3281375 123.3044,23.5045431 C122.068894,23.882805 120.802053,24.1760138 119.541926,24.4468403 C119.117169,24.5206182 118.685433,24.546147 118.25494,24.5229403 C117.919918,24.5206702 117.614198,24.3315385 117.462605,24.0327667 C117.462605,23.2695284 118.004258,22.8957431 118.601867,22.5846283 C119.341374,22.2111433 120.153152,22.0026623 120.981111,21.97359 C121.604732,21.9289144 122.231157,21.9424021 122.852276,22.0138782 C123.751074,22.118183 124.661576,21.9886619 125.495633,21.6378546 C126.299159,21.3177869 127.120592,21.0491987 127.926357,20.7425604 C129.482842,20.1129784 130.994877,19.3786471 132.452069,18.544613 C133.435875,17.9696238 134.339049,17.2666535 135.137952,16.454101 C135.94987,15.6959661 136.457564,14.6678473 136.565946,13.5623005 C136.639793,13.1353297 136.551165,12.6961806 136.317502,12.3312709 C136.198875,12.1723562 136.098155,12.0022503 135.995196,11.8500503 Z" />
          </g>
        </g>
      </g>
    </g>
  </g>
</svg>
