<?xml version="1.0" encoding="UTF-8"?>
<svg width="133px" height="48px" viewBox="0 0 133 48" version="1.1" xmlns="http://www.w3.org/2000/svg" xmlns:xlink="http://www.w3.org/1999/xlink">
  <g stroke="none" strokeWidth="1" fill="none" fillRule="evenodd">
    <g transform="translate(-119.000000, -340.000000)" fill="#000000" fillRule="nonzero">
      <g transform="translate(27.000000, 130.000000)">
        <g transform="translate(64.000000, 129.000000)">
          <g transform="translate(28.000000, 81.000000)">
            <path d="M28.7722448,0.212667603 C29.0270061,0.478583096 29.2750038,0.744498589 29.5297651,1.0126676 C29.4383813,1.47650558 29.2560152,1.91766564 28.9931882,2.31069577 C28.6798093,2.7726676 28.3664303,3.23463943 28.064324,3.70562535 C27.3879666,4.74900563 26.7724813,5.82844225 26.0352517,6.82900563 C25.5415108,7.50506197 25.1334418,8.23520281 24.6306828,8.90224507 C24.1279238,9.56928732 23.6229103,10.2430901 23.102115,10.8988648 C22.8360811,11.236893 22.6805189,11.669569 22.2453956,11.9309775 L21.5262023,11.7980197 C21.4594418,11.8352547 21.3992683,11.8832198 21.3480948,11.9399915 C20.6424286,12.9180197 19.9412714,13.8983014 19.2964773,14.916893 C18.586302,16.0436535 17.8107455,17.1298507 17.0735159,18.2385831 C16.764646,18.705062 16.4738123,19.1783014 16.1829786,19.6537944 C14.667938,22.1146394 13.1483883,24.5709775 11.6446203,27.0363296 C10.8690638,28.3073155 10.110792,29.5880667 9.36980483,30.8785831 C8.01708999,33.2192404 6.67790229,35.5651559 5.35224174,37.9163296 C4.52708569,39.3766113 3.75152917,40.8616817 2.90608239,42.3106958 C2.1787423,43.5376025 1.5463814,44.8183355 1.01453613,46.1416817 C0.931132217,46.3419057 0.869163387,46.5503909 0.829665106,46.7636535 C0.835427844,46.8773052 0.864593405,46.9885453 0.915337046,47.0904141 C1.22257869,47.1933879 1.55633033,47.1846088 1.85772839,47.0656253 C3.05842339,46.6460683 4.23158088,46.1515745 5.37027794,45.585062 C7.08146222,44.7737944 8.7836284,43.9399915 10.5286306,43.2143577 C12.4472311,42.4143577 14.4131767,41.7383014 16.3903949,41.1028084 C18.0519796,40.573231 19.7316006,40.1360479 21.4292577,39.7506958 C23.2454653,39.3320116 25.097096,39.0852878 26.9596069,39.0137944 C27.9584551,38.9503216 28.9575164,39.1345625 29.8679438,39.5501324 C30.0032153,39.6199915 30.1294687,39.7078789 30.0685965,39.9242169 C29.9834441,39.9351684 29.8969843,39.9298149 29.8138352,39.9084423 C29.1870773,39.5839352 28.5084654,39.5275972 27.8185808,39.5028084 C26.792362,39.4774398 25.7661323,39.5529197 24.7546817,39.7281606 C23.0343714,39.9872121 21.3346784,40.3682679 19.6684739,40.8684423 C18.4848484,41.2380197 17.3034774,41.6188648 16.12887,42.0222451 C14.7220466,42.5090056 13.3197322,43.0145455 11.9219268,43.5388648 C11.1666611,43.8228084 10.4294315,44.1563296 9.68994735,44.4830901 C8.24479699,45.1275972 6.8064102,45.7878789 5.35900532,46.4323859 C4.68264789,46.7366113 3.99276332,47.0115408 3.3073878,47.2999915 C2.78998582,47.5080355 2.25604908,47.6723666 1.71118428,47.7912592 C1.24058735,47.9265021 0.735203498,47.8646791 0.311124415,47.6199915 C0.220943425,47.4464704 0.108217188,47.2301324 -2.90030545e-14,47.029569 C0.0665222636,46.1212862 0.33617944,45.2395147 0.78908366,44.4492873 C1.82616504,42.4391465 2.87827659,40.4372685 3.9454183,38.4436535 C4.95845142,36.5597099 5.98876923,34.6855315 7.03637172,32.8211183 C7.91563637,31.2436535 8.81744627,29.6909775 9.71474712,28.1292873 C10.4564858,26.8402732 11.1982244,25.5490056 11.9534902,24.2667521 C12.5825026,23.1985831 13.2272967,22.1349211 13.8788543,21.0757662 C14.530412,20.0166113 15.2450963,18.9281606 15.9079266,17.8374563 C16.4151947,16.9856253 16.9269718,16.1405549 17.4725668,15.3157662 C18.5164117,13.7383014 19.5467295,12.1608366 20.5905745,10.5833718 C21.2218414,9.62637652 21.8598719,8.67163474 22.504666,7.71914648 C23.1652417,6.74787887 23.8370901,5.78111831 24.5021749,4.8098507 C25.1334418,4.35914648 25.3340945,3.59069577 25.8097993,3.02055493 C26.4636114,2.2385831 27.0903693,1.42956901 27.7261453,0.634076054 C27.974143,0.341118308 28.3033036,0.262245068 28.7722448,0.212667603 Z" />
            <path d="M41.2465302,25.9636535 C41.2844583,26.1725133 41.1870038,26.3826688 41.0030415,26.4887239 C40.4303922,26.916893 39.8645065,27.3540761 39.2805846,27.7642169 C38.5456095,28.2802732 37.7993619,28.7828084 37.0486051,29.2785831 C35.7090754,30.1745494 34.2766631,30.9233033 32.7762807,31.5118225 C31.6073876,32.002512 30.408589,32.4187435 29.1870773,32.7580197 C27.8726894,33.0802732 26.5425198,33.1681606 25.2258774,32.7805549 C23.9098699,32.423496 22.8746561,31.4075256 22.4933934,30.0988648 C22.3964488,29.8081606 22.2679409,29.5219634 22.1777599,29.269569 C22.2611773,28.7490056 22.3355766,28.257738 22.4167395,27.7709775 C22.5813198,26.7704141 23.0570246,25.8983014 23.6071286,25.0667521 C24.2277427,24.1372913 25.0014823,23.3197021 25.8954712,22.6487239 C26.8604078,21.9163296 27.8546532,21.217738 29.0675875,20.9383014 C29.4283115,20.8549211 29.7890354,20.7715408 30.156523,20.7016817 C30.2789303,20.6813404 30.4038577,20.6813404 30.526265,20.7016817 C31.7234177,20.8143577 32.2802853,21.6301324 32.0232695,22.7816817 C31.9500022,23.0505239 31.8439985,23.3093606 31.707636,23.5523859 C31.1981134,24.5642169 30.436084,25.377738 29.610928,26.1326676 C29.1104235,26.5833718 28.5445378,26.9844986 28.0034518,27.396893 C26.9115804,28.2198475 25.7025082,28.8746283 24.416503,29.3394282 C24.1301783,29.4475972 23.8461082,29.5647803 23.5733107,29.6752028 C23.4831297,30.0943577 23.7243639,30.3760479 23.7987632,30.6915408 C24.5382473,31.4667521 25.4535844,31.7799915 26.4793931,31.8566113 C27.6568419,31.9230765 28.8372427,31.7967157 29.9739065,31.4825268 C31.4941348,31.0574831 32.9602452,30.4585963 34.3431754,29.697738 C35.1953858,29.2470338 36.0363235,28.7963296 36.8772612,28.3275972 C38.1262679,27.6335127 39.3031299,26.8267521 40.5341004,26.0988648 C40.6604211,26.0124754 40.7986429,25.9449135 40.9444239,25.8983014 C41.0486972,25.8977238 41.1518263,25.9200329 41.2465302,25.9636535 Z M23.5394928,27.9602732 C23.5328381,28.086052 23.5488752,28.2120015 23.5868379,28.3321042 C23.7542343,28.2970017 23.9180129,28.2464566 24.0760697,28.1811183 C26.0127065,27.1828084 27.8569077,26.0537944 29.4080208,24.4943577 C30.0302696,23.8678789 30.5555738,23.189569 30.7359495,22.2994282 C30.7364845,22.1954075 30.7205038,22.0919597 30.6885908,21.9929493 L30.0122334,21.8284423 C28.4876757,22.2087816 27.0941709,22.9935929 25.9788886,24.0999915 C25.4039848,24.6611183 24.8786805,25.2763296 24.3781761,25.8149211 C24.2203593,26.1619634 24.0783243,26.436893 23.9678525,26.7275972 C23.8085328,27.133231 23.6657462,27.544123 23.5394928,27.9602732 Z" />
            <path d="M60.8744226,25.4430901 C61.3907088,24.8864704 61.8371047,24.4154845 62.2722279,23.933231 C63.4783987,22.5811183 65.009221,21.7856253 66.7339324,21.3574563 C67.5235613,21.1591481 68.3457879,21.1269183 69.1485284,21.2628084 C69.5455878,21.3455926 69.922482,21.5056248 70.2577546,21.7337944 C70.4076098,21.843402 70.5251982,21.991295 70.5981878,22.1619634 C70.6958445,22.3856383 70.7794247,22.6151935 70.8484401,22.8492873 C70.7459406,23.5037305 70.3874734,24.0906417 69.8519401,24.4808366 C68.9366031,25.2222451 67.8566857,25.4994282 66.788041,25.805907 C65.1672052,26.2777008 63.4770002,26.4660107 61.7920142,26.3625268 C61.689192,26.3685465 61.5868113,26.380586 61.4853988,26.3985831 C60.8544905,27.2473011 60.5031081,28.271054 60.4798808,29.3281606 C60.4460629,30.4323859 61.0344939,31.2346394 62.001685,31.7033718 C63.2980367,32.3343577 64.6552606,32.2735127 66.014739,31.8836535 C67.2631826,31.4930636 68.4451981,30.9156155 69.520525,30.1709775 C70.8732398,29.2830901 72.1718461,28.3005549 73.4501616,27.3090056 C74.126519,26.7794282 74.899821,26.3309775 75.4115981,25.5963296 C75.4724703,25.5106958 75.6235235,25.4881606 75.7565404,25.4273155 L76.171373,25.7067521 C76.2873479,25.9187333 76.2813315,26.1764648 76.1555913,26.3828084 C75.997117,26.612173 75.8223145,26.8298258 75.6325416,27.0340761 C74.9625424,27.7309373 74.2238156,28.3583491 73.4276164,28.9067521 C72.6295146,29.4498507 71.8810124,30.065062 71.0896742,30.6126676 C69.7885217,31.5237857 68.3614306,32.2404297 66.8534222,32.7399915 C65.4545708,33.2035739 63.9505057,33.2474457 62.5269892,32.8661887 C61.5200174,32.5966651 60.6500493,31.9609549 60.0875935,31.0836535 C59.8248849,30.6557256 59.6758857,30.1678154 59.6547247,29.6661887 C59.5781848,29.1085981 59.6282723,28.5409361 59.8012688,28.0053437 C59.9681037,27.5704141 60.1146478,27.1287239 60.2657009,26.6870338 C60.2995382,26.5541564 60.3258824,26.4194842 60.3446093,26.2836535 C60.1687564,26.2340761 60.0289758,26.1822451 59.8937043,26.1552028 C58.2926983,25.8855272 56.7371299,25.3940347 55.2719286,24.6949211 C54.0522307,24.1112592 52.9475136,23.3630901 52.2125385,22.1844986 C52.0479582,21.9230901 51.9329775,21.6301324 51.7886879,21.3529493 C51.7342855,21.2596364 51.6748279,21.1693612 51.6105804,21.0825268 C51.4026136,21.0893538 51.218871,21.2197796 51.1438938,21.4137944 C50.6352174,22.2766011 50.0448285,23.0885904 49.3808555,23.8385831 C48.6661711,24.6611183 47.9853046,25.5174563 47.2570931,26.3174563 C46.2560842,27.4291934 45.235536,28.5214 44.1954485,29.5940761 C43.3049113,30.5067521 42.3783016,31.396893 41.4584555,32.2667521 C41.1450766,32.5687239 40.7933707,32.8301324 40.4687191,33.1163296 C40.0597237,33.493623 39.5453743,33.7373192 38.99426,33.8149211 L38.40132,33.6121042 C38.0910358,33.2337074 37.9463751,32.7463043 38.0000146,32.2599915 C38.06932,31.0460669 38.3318885,29.850961 38.7778256,28.7197099 C39.1092407,27.8836535 39.364002,27.0205549 39.7089443,26.1935127 C40.5341004,24.2104141 41.4494374,22.2678789 42.4324102,20.356893 C42.6651443,19.8352411 42.9940163,19.3620291 43.4018558,18.9619634 L44.283375,19.0904141 C44.483608,19.3581352 44.5191864,19.7146282 44.3758105,20.0166113 C44.2894702,20.2173886 44.1916115,20.4130189 44.0827223,20.6025268 C43.5010549,21.6706958 43.0050595,22.7794282 42.461719,23.8678789 C41.7628163,25.2583014 41.2149668,26.7140761 40.6130087,28.149569 C40.1418131,29.2763296 39.7901072,30.4323859 39.3842927,31.5771746 C39.3144025,31.7799915 39.2422577,31.9828084 39.1588403,32.205907 C39.2061853,32.3118225 39.2535303,32.417738 39.2986208,32.5056253 C39.3978199,32.5056253 39.4677102,32.5416817 39.5128007,32.5191465 C40.3559929,32.0909775 41.0233322,31.4306958 41.7199804,30.813231 C42.1844125,30.4008366 42.6217903,29.9591465 43.0726952,29.5174563 C43.7490526,28.8414 44.4254101,28.1383014 45.1017675,27.4509775 C46.2290299,26.2904141 47.3202198,25.0915408 48.3708284,23.8678789 C49.1193306,22.9935127 49.8069606,22.065062 50.4743,21.1208366 C50.7515739,20.6833497 50.9979173,20.2270265 51.2115295,19.7552028 C51.1889843,18.973231 51.1664391,18.3197099 51.157421,17.6684423 C51.1505035,17.2278921 51.2813385,16.7961711 51.5316721,16.4335127 C51.7296663,16.0962729 52.1430212,15.9521879 52.5078813,16.093231 C52.7937756,16.1527921 53.0027183,16.3987706 53.0151493,16.6904141 C53.0807486,17.1869917 53.0178745,17.6920879 52.8325328,18.1574563 C52.6792252,18.4954845 52.6070804,18.8718225 52.4447546,19.2075972 C52.2395928,19.6402732 52.3230102,20.0323859 52.4605363,20.4673155 C52.7208399,21.3334553 53.1917886,22.1216335 53.8312873,22.7614 C54.1447422,23.0615989 54.4911304,23.3254323 54.8638596,23.5478789 C55.8840583,24.1525666 56.9825044,24.6143455 58.1284115,24.9202732 C59.0159488,25.2176185 59.939675,25.393488 60.8744226,25.4430901 Z M69.8451766,22.5135127 C69.1282377,22.0087239 68.3684628,21.9456253 67.5771247,22.0628084 C66.2438463,22.2394822 64.9771591,22.7512038 63.8954858,23.5501324 C63.3039179,23.9514565 62.7822097,24.447049 62.3511363,25.0171746 C62.2474282,25.165907 62.1099022,25.3101324 62.1910651,25.5197099 C62.2445659,25.5485296 62.3024584,25.5683261 62.3624089,25.5783014 C64.1059363,25.6135597 65.8422938,25.3451389 67.4937072,24.785062 C68.1418079,24.5618241 68.7454818,24.2261753 69.2770363,23.7935127 C69.6557965,23.4892873 69.9263394,23.1264704 69.838413,22.5247803 L69.8451766,22.5135127 Z" />
            <path d="M97.5510311,1.56928732 C97.6122332,2.00099622 97.5931249,2.44029167 97.494668,2.86506197 C97.2292983,3.95466622 96.7924923,4.99523173 96.2005708,5.94787887 C95.0767362,7.80765529 93.8000279,9.57073337 92.3836604,11.2188648 C91.2879614,12.5281606 90.1719716,13.8149211 89.0018733,15.0678789 C88.519405,15.5884423 88.0256641,16.097738 87.5274141,16.6047803 C86.7856755,17.3552028 86.0394278,18.0966113 85.2909256,18.8425268 C83.5752322,20.5484423 81.8189575,22.2115408 79.9882834,23.8002732 C79.1450911,24.5304141 78.3018989,25.2567991 77.4587066,25.9794282 C76.8003854,26.5428084 76.1398096,27.1061887 75.4093436,27.725907 C74.772082,29.4099275 74.2744103,31.1434659 73.9213573,32.9090056 C73.6232951,34.2072281 73.5387711,35.5453102 73.671105,36.8706958 C73.7225521,37.4295077 73.8883042,37.9717973 74.1580824,38.4639352 C74.486313,39.0521311 75.1519483,39.3671487 75.8151581,39.2481606 C76.3322734,39.1390456 76.836896,38.9774571 77.3211806,38.765907 C78.3033956,38.2994528 79.2413481,37.7450777 80.1235549,37.109569 C82.4682606,35.505062 84.4995874,33.5444986 86.5354232,31.5839352 C86.8488022,31.2819634 87.1711992,30.9890056 87.4778146,30.6825268 C88.9537768,29.2192404 90.4267329,27.7529493 91.8966831,26.2836535 C92.2912249,25.8892873 92.6587124,25.4656253 93.0600178,25.0802732 C93.2696886,24.8797099 93.4545597,24.6092873 93.8333198,24.5822451 C93.8333198,24.7016817 93.8784103,24.8075972 93.8333198,24.8661887 C93.6581998,25.1588583 93.4567107,25.434934 93.2313617,25.6909775 C91.6652185,27.3285361 90.0870512,28.9570807 88.4968598,30.5766113 C87.4537663,31.6432779 86.3963942,32.6949211 85.3247434,33.7315408 C83.7226379,35.2956422 81.9876493,36.7176995 80.1393365,37.9816817 C79.3359427,38.5106351 78.5009642,38.990026 77.6390686,39.4171746 C77.1914942,39.6315463 76.71999,39.7919226 76.2344997,39.8949211 C74.852476,40.2261887 73.8717577,39.7754845 73.2269637,38.5180197 C73.0374471,38.1644436 72.9014473,37.7847248 72.8234037,37.3912592 C72.6796764,36.5982686 72.6214772,35.7921535 72.6498053,34.9867521 C72.7714761,32.7626541 73.1900145,30.5647899 73.894303,28.4515408 C73.9337325,28.299648 73.963105,28.145323 73.9822295,27.989569 L73.713941,27.5163296 C73.6868867,26.9281606 74.2144455,26.765907 74.5954602,26.3354845 C74.8209127,25.7923859 75.1162554,25.1433718 75.3687622,24.4763296 C75.9019678,23.1171262 76.5085754,21.7878477 77.1859091,20.4943577 C77.4835064,19.9152028 77.7833582,19.3405549 78.087719,18.7704141 C78.7054588,17.6616817 79.316435,16.5484423 79.9634836,15.4554845 C80.5812234,14.4188648 81.2034722,13.377738 81.8865932,12.3816817 C83.2190173,10.4391465 84.5356598,8.48534366 86.0168825,6.64647042 C86.9839724,5.39510382 88.0315354,4.20799279 89.1529265,3.0926676 C90.3230248,1.97717465 91.6193765,1.0126676 93.1411807,0.419991547 C94.1083718,0.0413999978 95.1071263,-0.147895777 96.1509713,0.138301406 C96.9310368,0.320836617 97.4428139,0.823371829 97.5510311,1.56928732 Z M96.8927099,1.91632958 C96.8927099,1.13210422 96.5500221,0.697174646 95.5602858,0.564216899 C95.3742337,0.554624644 95.1877312,0.569780697 95.0056727,0.609287322 C94.3308153,0.720623892 93.6755299,0.928582495 93.0600178,1.22675211 C91.6058494,1.86449859 90.4830961,2.9326676 89.3693608,4.01435774 C88.3210068,5.03294929 87.4485058,6.2070338 86.5624775,7.36083662 C86.1115726,7.95125915 85.7283034,8.58900563 85.284162,9.17942817 C84.0531915,10.817738 83.0409099,12.5980197 81.9361928,14.3197099 C81.4176521,15.1264704 81.0073286,16.0008366 80.502315,16.8166113 C79.9973015,17.6323859 79.6005051,18.436893 79.1811635,19.2571746 C78.4394249,20.6904141 77.7585584,22.1529493 77.0686738,23.6087239 C76.8914076,23.9357651 76.7666394,24.2886105 76.6989318,24.6543577 C76.8633439,24.5774441 77.022285,24.4893501 77.1746365,24.3906958 C77.7765946,23.9016817 78.3898253,23.4261887 78.9647291,22.9101324 C80.8337302,21.2357662 82.7568398,19.6290056 84.5446779,17.8667521 C85.3405251,17.0802732 86.19499,16.356893 86.9818191,15.5704141 C87.7686483,14.7839352 88.5599865,13.8960479 89.3468156,13.0667521 C91.3398155,10.9799915 93.253907,8.83238591 94.9109827,6.46618873 C95.5679905,5.56018 96.1172802,4.58082244 96.5477676,3.54787887 C96.7667375,3.03129072 96.8838618,2.47730215 96.8927099,1.91632958 Z" />
            <path d="M108.798855,38.4729493 C108.962684,38.0602439 109.190974,37.6761279 109.475212,37.3349211 C110.377022,36.0436535 111.278832,34.7478789 112.209951,33.4723859 C113.668629,31.4599915 115.129561,29.4521042 116.619801,27.4622451 C117.776373,25.9185831 118.937453,24.3771746 120.168423,22.8921042 C121.200996,21.645907 122.068988,20.2825268 123.099306,19.0453437 C124.591801,17.2628084 126.102332,15.4937944 127.608355,13.7157662 C128.014169,13.2335127 128.397439,12.7287239 128.810017,12.2509775 C129.222595,11.773231 129.711827,11.2571746 130.131168,10.7906958 L131.109632,10.6509775 L131.461338,10.9416817 C131.654665,11.2772021 131.634402,11.6946159 131.409484,12.0098507 C131.103194,12.514 130.746667,12.9858858 130.345348,13.4183014 C128.882496,14.9127985 127.521472,16.5035916 126.271422,18.1799915 C124.384385,20.6588648 122.526656,23.1557662 120.63511,25.6323859 C119.773882,26.7591465 118.878835,27.8611183 117.981534,28.9608366 C116.836236,30.3640291 115.680416,31.7582075 114.514075,33.1433718 C113.900845,33.8644986 113.23576,34.5405549 112.604493,35.2481606 C111.817664,36.1337944 111.042107,37.0329493 110.255278,37.9163296 C110.024002,38.1850989 109.76896,38.4324847 109.493249,38.6554845 C109.292596,38.8064704 109.046853,38.7861887 108.798855,38.4729493 Z" />
          </g>
        </g>
      </g>
    </g>
  </g>
</svg>