<?xml version="1.0" encoding="UTF-8"?>
<svg width="132px" height="46px" viewBox="0 0 132 46">
  <g stroke="none" strokeWidth="1" fill="none" fillRule="evenodd">
    <g transform="translate(-119.000000, -340.000000)" fill="#000000" fillRule="nonzero">
      <g transform="translate(23.000000, 124.000000)">
        <g transform="translate(68.000000, 135.000000)">
          <g transform="translate(28.000000, 81.000000)">
            <path d="M27.2718796,0.201233861 C27.513356,0.452852822 27.7484216,0.704471783 27.989898,0.958223109 C27.9032795,1.39712356 27.7304232,1.81456534 27.4813016,2.18646482 C27.1842642,2.62359945 26.8872268,3.06073409 26.6008742,3.50639818 C25.9597863,4.49368275 25.3763963,5.51508514 24.6776105,6.46185479 C24.2096163,7.10156401 23.8228266,7.79244998 23.3462846,8.42362974 C22.8697426,9.05480951 22.3910636,9.69238637 21.8974259,10.3129043 C21.6452647,10.6327589 21.4978145,11.0421728 21.0853813,11.2895271 L20.4036911,11.1637176 C20.340412,11.1989507 20.2833763,11.244337 20.2348713,11.2980565 C19.5660029,12.2235025 18.9014085,13.1510809 18.290238,14.1149095 C17.6170957,15.1810915 16.8819815,16.208891 16.1831957,17.2580141 C15.8904322,17.6994135 15.6147644,18.1472099 15.3390966,18.5971388 C13.9030597,20.9256803 12.4627489,23.2499572 11.0373968,25.5827635 C10.3022827,26.7854168 9.58355189,27.9973104 8.88120447,29.2184442 C7.59902865,31.4332597 6.3296746,33.6530507 5.0731423,35.8778172 C4.29101506,37.2595892 3.55590092,38.6648171 2.75454104,40.0359272 C2.06512902,41.1968712 1.46574338,42.4087476 0.96163186,43.6609461 C0.882577146,43.8504054 0.823839759,44.0476817 0.786401166,44.2494786 C0.791863399,44.35702 0.819508084,44.4622794 0.867605634,44.5586714 C1.15882577,44.6561089 1.47517351,44.6478019 1.76085478,44.5352154 C2.89893802,44.1382152 4.01091972,43.6703071 5.09023798,43.1342522 C6.71219038,42.3666011 8.32559495,41.5776264 9.97960175,40.8910052 C11.7981544,40.1340159 13.6615833,39.4943067 15.5356969,38.89298 C17.1106362,38.3918745 18.7026712,37.9781958 20.3118018,37.6135616 C22.033301,37.2173874 23.788376,36.9839282 25.553764,36.9162785 C26.500526,36.8562183 27.44749,37.0305538 28.310442,37.4237812 C28.4386595,37.4898845 28.5583293,37.5730467 28.5006314,37.7777536 C28.4199194,37.7881163 28.3379681,37.7830506 28.2591549,37.7628271 C27.6650801,37.4557666 27.0218553,37.4024575 26.3679456,37.3790015 C25.3952403,37.3549968 24.4225247,37.4264187 23.4638174,37.592238 C21.8332149,37.837362 20.2221545,38.1979309 18.6428363,38.6712142 C17.5209325,39.0209219 16.4011656,39.3812914 15.2878096,39.7629846 C13.9543468,40.2235752 12.6251578,40.7019356 11.3002428,41.1980656 C10.5843613,41.4667435 9.88557552,41.7823334 9.18465274,42.0915262 C7.81486158,42.7013823 6.4514813,43.326165 5.07955318,43.9360211 C4.43846527,44.2238902 3.78455561,44.4840386 3.13491986,44.7569812 C2.64449847,44.9538401 2.13840453,45.1093362 1.6219524,45.2218366 C1.17589535,45.3498085 0.696865378,45.2913093 0.294900437,45.0597769 C0.20942205,44.8955849 0.102574065,44.690878 0,44.5010976 C0.0630533757,43.6416471 0.318648937,42.8072827 0.747935891,42.0595407 C1.73093735,40.1574719 2.7281852,38.2632218 3.73967946,36.3767904 C4.69988668,34.5941341 5.67647725,32.8207179 6.66945119,31.0565421 C7.50286547,29.5638872 8.35764934,28.0946884 9.2081593,26.61696 C9.91121904,25.3972478 10.6142788,24.1754032 11.3301603,22.962088 C11.926372,21.9513474 12.5375425,20.9448716 13.1551238,19.9426605 C13.7727052,18.9404494 14.4501214,17.9105175 15.0783876,16.8784533 C15.5592035,16.0724197 16.0442933,15.2727832 16.5614376,14.4923379 C17.5508499,12.9996831 18.5274405,11.5070282 19.5168528,10.0143733 C20.1152016,9.1088294 20.7199611,8.20541782 21.3311316,7.3041386 C21.9572608,6.38508968 22.5940748,5.4703055 23.2244779,4.55125658 C23.8228266,4.12478376 24.013016,3.39764761 24.4639145,2.8581595 C25.0836328,2.11822917 25.6777076,1.35271046 26.2803303,0.599985944 C26.5153958,0.322778614 26.8273919,0.248145871 27.2718796,0.201233861 Z" />
            <path d="M39.0956775,24.5677582 C39.1316278,24.7653889 39.0392552,24.9642458 38.8648859,25.064599 C38.3220981,25.4697482 37.7857212,25.8834268 37.2322487,26.2715171 C36.5355998,26.7598284 35.8282661,27.2353456 35.1166586,27.7044657 C33.8469803,28.5522618 32.489263,29.2607601 31.06712,29.8176385 C29.9591803,30.2819468 28.8228946,30.6758003 27.6650801,30.9968359 C26.4192326,31.3017639 25.1584264,31.3849261 23.910442,31.0181595 C22.6630594,30.6802973 21.6818281,29.718949 21.3204468,28.4806462 C21.2285576,28.2055713 21.1067508,27.934761 21.0212725,27.6959363 C21.10034,27.2033602 21.1708596,26.7385048 21.2477902,26.2779142 C21.4037882,25.3311445 21.8546867,24.5059196 22.3761049,23.7190773 C22.9643563,22.8395875 23.6977483,22.0659547 24.545119,21.4310506 C25.4597377,20.7380323 26.402137,20.0769994 27.5518213,19.8125863 C27.8937348,19.7336888 28.2356484,19.6547913 28.5839728,19.588688 C28.699997,19.5694404 28.81841,19.5694404 28.9344342,19.588688 C30.0691598,19.6953063 30.5969888,20.467222 30.3533754,21.5568601 C30.2839288,21.8112484 30.1834527,22.0561692 30.0542011,22.2861286 C29.5712482,23.2435601 28.8489558,24.0133435 28.0668286,24.7276855 C27.5924235,25.1541583 27.0560466,25.5337191 26.5431763,25.9239417 C25.5082418,26.7026514 24.3622183,27.3222289 23.1432734,27.7620396 C22.8718796,27.864393 22.6026226,27.975276 22.3440505,28.0797618 C22.2585721,28.4763815 22.4872268,28.742927 22.5577465,29.041458 C23.2586693,29.7749912 24.1262749,30.0713899 25.0985915,30.1438902 C26.2146408,30.2067821 27.333488,30.0872148 28.4108791,29.7899178 C29.8518331,29.3877259 31.2414913,28.8210374 32.5523069,28.1010854 C33.3600777,27.6746126 34.1571637,27.2481398 34.9542496,26.8046081 C36.1381253,26.1478399 37.2536183,25.3844536 38.4203983,24.6957 C38.5401318,24.6139552 38.6711459,24.5500257 38.8093249,24.5059196 C38.9081608,24.5053731 39.0059121,24.5264827 39.0956775,24.5677582 Z M22.3119961,26.4570327 C22.3056884,26.5760492 22.3208892,26.6952273 22.3568723,26.8088728 C22.5155396,26.7756575 22.6707778,26.7278299 22.8205925,26.6660044 C24.6562409,25.7213671 26.4042739,24.6530527 27.8745022,23.1774568 C28.4643031,22.5846596 28.9622147,21.942818 29.1331844,21.1005342 C29.1336915,21.002106 29.1185442,20.9042199 29.0882953,20.8105327 L28.4472074,20.6548701 C27.0021497,21.0147611 25.681311,21.7573783 24.6241865,22.8042931 C24.0792618,23.3352517 23.5813502,23.9173871 23.1069451,24.4270221 C22.9573579,24.7554062 22.8227295,25.0155546 22.7180185,25.2906296 C22.5670066,25.6744551 22.4316659,26.0632562 22.3119961,26.4570327 Z" />
            <path d="M57.7000486,24.0751821 C58.1894123,23.5484881 58.6125304,23.102824 59.0249636,22.6464981 C60.168237,21.3670797 61.6192326,20.6143552 63.2540068,20.209206 C64.0024595,20.0215595 64.78181,19.9910625 65.5426906,20.1196467 C65.9190448,20.1979801 66.2762854,20.3494084 66.5940748,20.5653108 C66.7361156,20.6690256 66.8475722,20.8089674 66.9167557,20.97046 C67.0093199,21.1821094 67.0885418,21.3993228 67.1539582,21.620831 C67.0568038,22.2400891 66.7170293,22.7954459 66.209422,23.1646626 C65.3418164,23.8662104 64.3182127,24.1284912 63.3052938,24.4184927 C61.7689786,24.8649212 60.1669115,25.0431069 58.5697912,24.9451866 C58.4723308,24.9508827 58.3752888,24.9622749 58.2791646,24.9793044 C57.6811558,25.7823925 57.3480967,26.7511049 57.3260806,27.7513777 C57.2940262,28.7962361 57.8517727,29.5553577 58.7685284,29.9988895 C59.9972802,30.5959514 61.28373,30.5383776 62.5723167,30.1694786 C63.7556586,29.7998881 64.8760363,29.2534856 65.895289,28.5488819 C67.1774648,27.7087305 68.4083536,26.7790197 69.6200097,25.8407795 C70.2610976,25.339674 70.9940748,24.9153335 71.4791646,24.2201828 C71.5368626,24.139153 71.6800389,24.1178293 71.8061195,24.0602555 L72.1993201,24.3246687 C72.3092474,24.525253 72.3035447,24.769128 72.1843613,24.9643779 C72.0341508,25.181411 71.8684636,25.387362 71.6885867,25.5806311 C71.0535255,26.2400267 70.3533205,26.8337066 69.5986401,27.3526257 C68.8421564,27.8665254 68.1326858,28.4486608 67.3826129,28.9668253 C66.1493106,29.8289585 64.7966371,30.5070733 63.3672657,30.9797769 C62.0413591,31.4184355 60.6157254,31.4599487 59.26644,31.0991893 C58.311978,30.8441562 57.4873755,30.242624 56.9542496,29.4124894 C56.7052403,29.0075683 56.5640109,28.5458898 56.5439534,28.0712323 C56.4714047,27.5436197 56.5188803,27.0064772 56.6828558,26.49968 C56.8409908,26.0881338 56.9798932,25.6701904 57.1230695,25.252247 C57.1551422,25.1265135 57.1801127,24.9990818 57.197863,24.8705539 C57.0311802,24.8236419 56.8986887,24.7745975 56.7704711,24.7490091 C55.2529516,24.4938322 53.7785002,24.028764 52.3897037,23.3672372 C51.2336085,22.8149549 50.1864983,22.10701 49.4898494,20.9917836 C49.3338514,20.7444294 49.2248664,20.467222 49.088101,20.2049413 C49.0365355,20.1166452 48.9801784,20.0312235 48.9192812,19.9490576 C48.7221591,19.9555176 48.547998,20.0789313 48.4769305,20.2625151 C47.9947797,21.0789344 47.4351774,21.8472684 46.8058281,22.5569388 C46.1284119,23.3352517 45.48305,24.1455501 44.792812,24.9025393 C43.8440019,25.9545056 42.8766715,26.9879914 41.8908208,28.0029967 C41.0467217,28.8666041 40.1684313,29.708888 39.2965517,30.5319805 C38.9995143,30.8177173 38.6661486,31.0650715 38.3584264,31.3358817 C37.9707586,31.6928906 37.4832305,31.9234849 36.9608548,31.9969146 L36.3988344,31.8050018 C36.1047303,31.4469489 35.9676132,30.9857503 36.0184556,30.5255834 C36.084147,29.3769235 36.3330235,28.2460706 36.7557067,27.1756394 C37.0698397,26.3845324 37.3113162,25.5678369 37.638271,24.7852593 C38.4203983,22.9087789 39.2880039,21.0706811 40.2197183,19.2624363 C40.4403162,18.7688303 40.7520388,18.3210598 41.138611,17.942503 L41.9741622,18.0640477 C42.1639538,18.3173752 42.1976769,18.6547019 42.0617776,18.9404494 C41.9799395,19.1304322 41.8871838,19.3155447 41.7839728,19.494864 C41.2326372,20.5056046 40.7625061,21.5547277 40.2474988,22.5846596 C39.5850413,23.9003282 39.0657601,25.2778354 38.4951918,26.6361513 C38.0485673,27.7023334 37.7152016,28.7962361 37.3305488,29.8794771 C37.2643031,30.0713899 37.1959203,30.2633026 37.1168528,30.4744067 C37.161729,30.5746278 37.2066051,30.6748489 37.2493443,30.7580111 C37.3433706,30.7580111 37.4096163,30.7921289 37.4523555,30.7708053 C38.2515784,30.3656561 38.8841185,29.7408734 39.544439,29.1566057 C39.9846527,28.766383 40.3992229,28.3484397 40.8266149,27.9304963 C41.4677028,27.2907871 42.1087907,26.6254895 42.7498786,25.9751185 C43.8183584,24.876951 44.8526469,23.7425333 45.8484701,22.5846596 C46.5579407,21.7573023 47.2097135,20.8787683 47.8422535,19.9853078 C48.1050686,19.5713417 48.3385662,19.139552 48.5410393,18.6930951 C48.5196697,17.9531648 48.4983001,17.3347792 48.4897523,16.718526 C48.4831955,16.3016614 48.607208,15.8931511 48.8444876,15.5499905 C49.0321572,15.2308819 49.4239572,15.0945434 49.7697912,15.2280035 C50.0407771,15.2843624 50.2388242,15.5171163 50.2506071,15.79308 C50.3127856,16.2629599 50.2531902,16.7409004 50.0775134,17.181249 C49.9322001,17.5011036 49.8638174,17.8572084 49.7099563,18.1749307 C49.515493,18.5843446 49.5945605,18.9553759 49.724915,19.3669222 C49.9716448,20.1864953 50.4180353,20.9322983 51.0241865,21.5376688 C51.3212959,21.821728 51.6496213,22.0713768 52.002914,22.2818639 C52.9699131,22.8540415 54.0110794,23.2909936 55.0972317,23.5804736 C55.9384873,23.8618325 56.8140446,24.0282467 57.7000486,24.0751821 Z M66.2030112,21.3031088 C65.523458,20.8254592 64.8033026,20.765753 64.0532297,20.876636 C62.7894768,21.0438111 61.5888427,21.5280208 60.5635746,22.2839962 C60.0028547,22.6637438 59.5083516,23.1326915 59.0997572,23.6721653 C59.001457,23.8129013 58.8711025,23.9493726 58.948033,24.1476824 C58.998744,24.1749527 59.0536177,24.1936849 59.110442,24.2031239 C60.7630509,24.2364866 62.4088638,23.982497 63.9741622,23.4525318 C64.5884668,23.241296 65.1606614,22.9236927 65.6644973,22.5142916 C66.0235066,22.2264224 66.2799417,21.8831118 66.1966003,21.3137706 L66.2030112,21.3031088 Z" />
            <path d="M92.4641088,1.48491704 C92.5221194,1.89341578 92.5040075,2.3090932 92.4106848,2.71102638 C92.1591532,3.74204975 91.745125,4.72667089 91.1840699,5.62810044 C90.1188391,7.38788887 88.9087064,9.05617781 87.5661972,10.6157 C86.5276348,11.8546035 85.4698397,13.0721834 84.3607576,14.2577779 C83.9034483,14.750354 83.4354541,15.2322682 82.963186,15.7120502 C82.2601263,16.4221274 81.5527926,17.1236752 80.843322,17.8294877 C79.2170957,19.4436873 77.5524041,21.017372 75.8171928,22.5206887 C75.0179699,23.2115746 74.218747,23.8989066 73.419524,24.5826847 C72.7955318,25.1157757 72.1694026,25.6488668 71.4770277,26.2352669 C70.8729969,27.8287486 70.4012769,29.4690861 70.0666343,31.1397043 C69.784115,32.3681299 69.7039986,33.634272 69.8294318,34.8884003 C69.878196,35.4171686 70.0353048,35.9303028 70.2910151,36.3959817 C70.6021297,36.9525542 71.2330546,37.2506354 71.8616804,37.1380444 C72.3518301,37.0347959 72.8301385,36.8818948 73.2891695,36.6817185 C74.2201657,36.2403424 75.1092075,35.7157724 75.9454104,35.1144309 C78.1678485,33.5961877 80.0932492,31.7410309 82.0229237,29.8858742 C82.3199611,29.6001374 82.6255464,29.3229301 82.9161729,29.0329285 C84.3151692,27.6483135 85.7113162,26.2608552 87.1046139,24.8705539 C87.4785818,24.4973902 87.8269063,24.0965057 88.2072851,23.7318715 C88.4060223,23.542091 88.581253,23.2862074 88.9402623,23.260619 C88.9402623,23.3736343 88.9830015,23.4738554 88.9402623,23.5292969 C88.7742741,23.8062315 88.5832919,24.0674644 88.369694,24.3097421 C86.8852194,25.85926 85.3893476,27.4002485 83.8820787,28.9327074 C82.8933787,29.9420264 81.8911446,30.9371297 80.8753764,31.9180171 C79.3568147,33.398027 77.7122993,34.7436296 75.9603691,35.9396558 C75.1988693,36.4401709 74.4074318,36.8937881 73.5904808,37.2979717 C73.1662458,37.500818 72.7193287,37.6525719 72.2591549,37.7500329 C70.9491986,38.0634904 70.0196212,37.6370176 69.4084507,36.4471584 C69.2288167,36.1125918 69.0999088,35.753288 69.0259349,35.3809764 C68.8897024,34.6306197 68.8345381,33.8678442 68.861389,33.1057439 C68.9767151,31.0012211 69.3734283,28.9215217 70.0409908,26.9218881 C70.0783642,26.7781616 70.106205,26.6321336 70.1243322,26.4847535 L69.870034,26.036957 C69.8443905,25.48041 70.344439,25.3268798 70.7055852,24.9195982 C70.9192812,24.4056985 71.1992229,23.7915776 71.4385624,23.1603979 C71.9439634,21.87427 72.5189386,20.6164581 73.1609519,19.3925106 C73.4430306,18.844493 73.7272462,18.3007401 74.0157358,17.761252 C74.6012627,16.7121289 75.1803788,15.6587411 75.7936863,14.6245445 C76.3792132,13.643657 76.9690141,12.6585048 77.6165129,11.7159999 C78.879456,9.87790204 80.1274405,8.02914239 81.531423,6.2891333 C82.4480828,5.10504448 83.4410193,3.98175662 84.5039339,2.92639515 C85.613016,1.87087493 86.8417678,0.958223109 88.2842156,0.397411356 C89.2009713,0.0391741914 90.1476445,-0.139944391 91.1370568,0.130865847 C91.8764449,0.303587337 92.3615347,0.779104526 92.4641088,1.48491704 Z M91.8401166,1.8133011 C91.8401166,1.0712384 91.5152987,0.659692138 90.5771734,0.533882657 C90.4008232,0.524806115 90.2240462,0.539147326 90.0514813,0.576529939 C89.4118152,0.681880672 88.7907005,0.878658705 88.2072851,1.1607977 C86.8289461,1.76425673 85.7647402,2.7749973 84.7090821,3.79853206 C83.7153958,4.76236062 82.8883924,5.87332231 82.0485673,6.96509271 C81.6211753,7.5237721 81.2578922,8.12723114 80.8369111,8.68591052 C79.6701311,10.2361392 78.7106362,11.9207068 77.663526,13.549833 C77.1720253,14.3132193 76.7830986,15.1405766 76.3044196,15.9124924 C75.8257407,16.6844082 75.4496357,17.4456622 75.0521612,18.2218427 C74.3491015,19.5780262 73.7037397,20.9619305 73.04983,22.3394377 C72.8818075,22.648896 72.7635455,22.9827713 72.6993686,23.3288546 C72.8552072,23.2560761 73.0058602,23.1727184 73.1502671,23.079368 C73.7208354,22.616645 74.3020884,22.1667162 74.8470131,21.6784048 C76.6185527,20.0940583 78.4413793,18.5736827 80.1359883,16.906174 C80.8903351,16.161979 81.7002428,15.4774901 82.4460418,14.733295 C83.1918407,13.9891 83.9419136,13.1489485 84.6877125,12.3642386 C86.5767848,10.3896694 88.3910636,8.35752646 89.961729,6.11854417 C90.5844763,5.26124559 91.1051226,4.33454166 91.5131617,3.3571327 C91.7207131,2.8683181 91.8317299,2.34411386 91.8401166,1.8133011 Z" />
            <path d="M129.927149,12.882403 C129.715088,12.6160893 129.389592,12.4651501 129.048859,12.4751215 C128.305904,12.4758549 127.566626,12.5791886 126.852064,12.7821819 C124.9288,13.3621849 123.388052,14.5243234 121.868674,15.7440356 C121.552404,15.9956546 121.332297,16.3645536 121.058766,16.6694816 C120.857892,16.882718 120.652744,17.1215428 120.203983,17.0618366 C120.099271,16.906174 119.956095,16.7014671 119.821467,16.507422 C119.899345,16.0131354 120.131108,15.5558296 120.483924,15.2002828 C120.932071,14.7548731 121.403576,14.3334947 121.896455,13.9379232 C122.838342,13.1947093 123.859585,12.557537 124.941622,12.0379869 C126.121224,11.51769 127.339291,11.1615852 128.644973,11.2575416 C129.055329,11.2808991 129.460691,11.3590719 129.850219,11.4899693 C130.465579,11.7026127 130.925513,12.2197336 131.064012,12.8546823 C131.226193,13.5527765 131.19517,14.28173 130.974259,14.9635904 C130.683655,15.9703318 130.284563,16.9426808 129.783973,17.8636055 C128.601834,19.9895491 127.181634,21.9746981 125.550656,23.7809158 C124.804857,24.6168025 124.065469,25.4612187 123.287615,26.2672523 C122.58883,26.9922561 121.855852,27.6895392 121.110053,28.367631 C120.197572,29.1971206 119.274405,30.0180807 118.319184,30.7942613 C117.190433,31.7218588 115.988397,32.5569099 114.724818,33.2912596 C113.979019,33.7177324 113.246042,34.1761907 112.513065,34.6282519 C112.457504,34.6623697 112.43186,34.7476643 112.372025,34.8414883 C112.436134,34.9054592 112.493832,35.0099451 112.585721,35.0397982 C114.900534,35.8112344 117.343243,36.1276837 119.778728,35.9716413 C121.093434,35.9300706 122.387504,35.633864 123.588927,35.0995043 C124.319428,34.7753945 124.989875,34.3305924 125.572025,33.7838357 L125.817776,33.0055228 C126.101991,32.8946399 126.127635,32.9159635 126.356289,33.4874371 C126.173201,34.2028127 125.729857,34.8245931 125.112579,35.2317109 C124.044099,35.9823031 122.823895,36.344805 121.575911,36.5857621 C119.764102,36.915161 117.907942,36.9194935 116.094609,36.5985563 C114.583779,36.3533344 113.077222,36.0270827 111.660418,35.395903 C111.542497,35.3531038 111.421847,35.3181978 111.299271,35.2914171 C110.60476,35.5920804 109.88033,35.8906114 109.162312,36.2147308 C108.135514,36.6714758 107.073588,37.0451318 105.98679,37.3320895 C105.260804,37.5218031 104.508971,37.5938008 103.760078,37.5453259 C103.075255,37.5188856 102.432152,37.2099951 101.984264,36.6923803 C101.828564,36.5305889 101.708465,36.3381165 101.631666,36.1273038 C101.155124,34.5749428 101.281204,33.0972145 102.309082,31.7858106 C103.102104,30.8330127 104.415194,30.4900111 105.574356,30.9328649 C106.112469,31.195086 106.623511,31.5093368 107.100146,31.8711051 C107.867314,32.4063285 108.608839,32.9778021 109.371734,33.5215549 C109.611073,33.6921441 109.88033,33.8243506 110.126081,33.9650867 C110.713745,33.8136888 111.177465,33.4895695 111.675376,33.2400829 C113.829432,32.1739008 115.78475,30.7772024 117.70374,29.3527832 C119.050024,28.3548368 120.248859,27.1521834 121.473337,26.0028392 C122.541816,25.0027604 123.571831,23.9706962 124.567654,22.9045142 C126.567848,20.7721501 128.358621,18.4691969 129.482661,15.7248443 C129.865177,14.8228543 130.128023,13.8931436 129.927149,12.882403 Z M104.939679,31.3657348 C104.512288,31.3977203 104.04643,31.4147792 103.691695,31.7346338 C102.748385,32.5168566 102.311722,33.7527739 102.554832,34.9523712 C102.646081,35.6528355 103.257901,36.1680647 103.965226,36.140098 C104.188943,36.1352161 104.411905,36.1123974 104.631957,36.0718624 C106.127829,35.8479641 107.49762,35.2743582 108.875959,34.7071494 C109.063471,34.5904213 109.23269,34.4467151 109.378145,34.2806765 C108.433609,33.5556728 107.555318,32.8647868 106.662069,32.1973568 C106.15981,31.7914471 105.570347,31.5068364 104.939679,31.3657348 Z" />
          </g>
        </g>
      </g>
    </g>
  </g>
</svg>
