<?xml version="1.0" encoding="UTF-8"?>
<svg width="22px" height="22px" viewBox="0 0 22 22" version="1.1" xmlns="http://www.w3.org/2000/svg" xmlns:xlink="http://www.w3.org/1999/xlink">
    <!-- Generator: sketchtool 55.2 (78181) - https://sketchapp.com -->
    <title>8D293EC3-1D75-417B-8DAB-36C4A1374829</title>
    <desc>Created with sketchtool.</desc>
    <g id="APP-Designs-Main" stroke="none" stroke-width="1" fill="none" fill-rule="evenodd">
        <g id="AB-APP-designv1" transform="translate(-28.000000, -616.000000)" fill="#000000" fill-rule="nonzero" fill="#000000" stroke="#000000" stroke-width=".1">
            <g id="Group" transform="translate(0.000000, 604.000000)">
                <g id="icon-/-new-/-line" transform="translate(29.000000, 13.000000)">
                    <g id="Group-11">
                        <path d="M0,20.3448276 L20,20.3448276 C20.190443,20.3448276 20.3448276,20.190443 20.3448276,20 L20.3448276,0 C20.3448276,-0.190443017 20.190443,-0.344827586 20,-0.344827586 L0,-0.344827586 C-0.190443017,-0.344827586 -0.344827586,-0.190443017 -0.344827586,0 L-0.344827586,20 C-0.344827586,20.190443 -0.190443017,20.3448276 0,20.3448276 Z M0.344827586,19.6551724 L0.344827586,0.344827586 L19.6551724,0.344827586 L19.6551724,19.6551724 L0.344827586,19.6551724 Z" id="Stroke-1"></path>
                        <path d="M11.7241379,5.17241379 L17.2413793,5.17241379 C17.4318223,5.17241379 17.5862069,5.01802922 17.5862069,4.82758621 C17.5862069,4.63714319 17.4318223,4.48275862 17.2413793,4.48275862 L11.7241379,4.48275862 C11.5336949,4.48275862 11.3793103,4.63714319 11.3793103,4.82758621 C11.3793103,5.01802922 11.5336949,5.17241379 11.7241379,5.17241379 Z" id="Stroke-3"></path>
                        <path d="M8.96551724,7.93103448 L17.2413793,7.93103448 C17.4318223,7.93103448 17.5862069,7.77664991 17.5862069,7.5862069 C17.5862069,7.39576388 17.4318223,7.24137931 17.2413793,7.24137931 L8.96551724,7.24137931 C8.77507422,7.24137931 8.62068966,7.39576388 8.62068966,7.5862069 C8.62068966,7.77664991 8.77507422,7.93103448 8.96551724,7.93103448 Z" id="Stroke-4"></path>
                        <path d="M8.96551724,10.6896552 L17.2413793,10.6896552 C17.4318223,10.6896552 17.5862069,10.5352706 17.5862069,10.3448276 C17.5862069,10.1543846 17.4318223,10 17.2413793,10 L8.96551724,10 C8.77507422,10 8.62068966,10.1543846 8.62068966,10.3448276 C8.62068966,10.5352706 8.77507422,10.6896552 8.96551724,10.6896552 Z" id="Stroke-5"></path>
                        <path d="M8.96551724,13.4482759 L17.2413793,13.4482759 C17.4318223,13.4482759 17.5862069,13.2938913 17.5862069,13.1034483 C17.5862069,12.9130053 17.4318223,12.7586207 17.2413793,12.7586207 L8.96551724,12.7586207 C8.77507422,12.7586207 8.62068966,12.9130053 8.62068966,13.1034483 C8.62068966,13.2938913 8.77507422,13.4482759 8.96551724,13.4482759 Z" id="Stroke-6"></path>
                        <path d="M8.96551724,16.2068966 L14.4827586,16.2068966 C14.6732016,16.2068966 14.8275862,16.052512 14.8275862,15.862069 C14.8275862,15.6716259 14.6732016,15.5172414 14.4827586,15.5172414 L8.96551724,15.5172414 C8.77507422,15.5172414 8.62068966,15.6716259 8.62068966,15.862069 C8.62068966,16.052512 8.77507422,16.2068966 8.96551724,16.2068966 Z" id="Stroke-7"></path>
                        <path d="M2.75862069,6.55172414 L6.20689655,6.55172414 C6.39733957,6.55172414 6.55172414,6.39733957 6.55172414,6.20689655 L6.55172414,2.75862069 C6.55172414,2.56817767 6.39733957,2.4137931 6.20689655,2.4137931 L2.75862069,2.4137931 C2.56817767,2.4137931 2.4137931,2.56817767 2.4137931,2.75862069 L2.4137931,6.20689655 C2.4137931,6.39733957 2.56817767,6.55172414 2.75862069,6.55172414 Z M3.10344828,5.86206897 L3.10344828,3.10344828 L5.86206897,3.10344828 L5.86206897,5.86206897 L3.10344828,5.86206897 Z" id="Stroke-8"></path>
                        <path d="M2.75862069,12.0689655 L6.20689655,12.0689655 C6.39733957,12.0689655 6.55172414,11.9145809 6.55172414,11.7241379 L6.55172414,8.27586207 C6.55172414,8.08541905 6.39733957,7.93103448 6.20689655,7.93103448 L2.75862069,7.93103448 C2.56817767,7.93103448 2.4137931,8.08541905 2.4137931,8.27586207 L2.4137931,11.7241379 C2.4137931,11.9145809 2.56817767,12.0689655 2.75862069,12.0689655 Z M3.10344828,11.3793103 L3.10344828,8.62068966 L5.86206897,8.62068966 L5.86206897,11.3793103 L3.10344828,11.3793103 Z" id="Stroke-9"></path>
                        <path d="M2.75862069,17.5862069 L6.20689655,17.5862069 C6.39733957,17.5862069 6.55172414,17.4318223 6.55172414,17.2413793 L6.55172414,13.7931034 C6.55172414,13.6026604 6.39733957,13.4482759 6.20689655,13.4482759 L2.75862069,13.4482759 C2.56817767,13.4482759 2.4137931,13.6026604 2.4137931,13.7931034 L2.4137931,17.2413793 C2.4137931,17.4318223 2.56817767,17.5862069 2.75862069,17.5862069 Z M3.10344828,16.8965517 L3.10344828,14.137931 L5.86206897,14.137931 L5.86206897,16.8965517 L3.10344828,16.8965517 Z" id="Stroke-10"></path>
                    </g>
                </g>
            </g>
        </g>
    </g>
</svg>
