<?xml version="1.0" encoding="UTF-8"?>
<svg width="33px" height="35px" viewBox="0 0 33 35" version="1.1" xmlns="http://www.w3.org/2000/svg" xmlns:xlink="http://www.w3.org/1999/xlink">
    <title>A3639BD8-BAF5-4690-9AB4-03E14819241D</title>
    <g id="APP-2021-Updates" stroke="none" stroke-width="1" fill="none" fill-rule="evenodd">
        <g id="AB-APP-homeBIQ-2021-Podcasts" transform="translate(-177.000000, -153.000000)" fill="#231F20" fill-rule="nonzero">
            <g id="icon-/-BIQ-/-Listen" transform="translate(177.000000, 153.000000)">
                <path d="M31.224254,24.333227 L31.1207553,24.333227 C34.7417857,17.3490289 33.0080165,8.75541357 26.9702077,3.76058818 C20.9323989,-1.23423721 12.2522442,-1.25562349 6.19039825,3.70939061 C0.128552267,8.67440471 -1.64667606,17.2593745 1.9406,24.2613326 L0.646866666,24.2613326 C0.289612071,24.2613326 0,24.553953 0,24.9149185 L0,28.9214003 C0,29.2823658 0.289612071,29.5749862 0.646866666,29.5749862 L2.96264933,29.5749862 L6.72741332,34.646813 C6.85089776,34.8175892 7.0485369,34.9174353 7.25784399,34.9147832 L9.89705999,34.9147832 C10.2543146,34.9147832 10.5439267,34.6221629 10.5439267,34.2611973 L10.5439267,19.5620498 C10.5439267,19.2010842 10.2543146,18.9084638 9.89705999,18.9084638 L7.28371866,18.9084638 C7.07557271,18.9042879 6.87815915,19.0015875 6.75328799,19.1698982 L3.22786466,23.9214679 C-0.264208842,17.4285889 1.33089135,9.3421716 7.01979901,4.69812161 C12.7087067,0.0540716258 20.8684884,0.177245022 26.4175501,4.99093421 C31.9666118,9.8046234 33.3219154,17.9355775 29.6394306,24.3201553 L28.9084713,24.3201553 L25.1437073,19.2483285 C25.0188996,19.0756448 24.8183834,18.9755657 24.606808,18.9803583 L21.9740606,18.9803583 C21.616806,18.9803583 21.327194,19.2729787 21.327194,19.6339442 L21.327194,34.3461635 C21.327194,34.707129 21.616806,34.9998786 21.9740606,34.9998786 L24.6132766,34.9998786 C24.8214226,35.0039253 25.0188361,34.9066257 25.1437073,34.738315 L28.9084713,29.6599524 L31.224254,29.6599524 C31.5815086,29.6599524 31.8711206,29.367332 31.8711206,29.0063664 L31.8711206,24.9998847 C31.8745971,24.8242893 31.8079831,24.6546691 31.6862933,24.5292561 C31.5646034,24.4038431 31.3980789,24.3331919 31.224254,24.333227 Z M9.26313065,33.6076114 L7.96939732,33.6076114 L7.96939732,20.2548508 L9.26313065,20.2548508 L9.26313065,33.6076114 Z M1.33254533,25.5946479 L2.658622,25.5946479 L2.658622,28.2678143 L1.33254533,28.2678143 L1.33254533,25.5946479 Z M4.01057333,25.1502095 L6.59803999,21.5881661 L6.59803999,32.2742961 L4.01057333,28.7122528 L4.01057333,25.1502095 Z M3.02086733,24.2613326 L2.95618066,24.2613326 L3.066148,24.195974 L3.02086733,24.2613326 Z M22.666208,20.339817 L23.9599413,20.339817 L23.9599413,33.6795058 L22.666208,33.6795058 L22.666208,20.339817 Z M27.94464,28.7841472 L25.2989553,32.3461905 L25.2989553,21.6600606 L27.94464,25.2221039 L27.94464,28.7841472 Z M30.5903246,28.3397088 L29.2383733,28.3397088 L29.2383733,25.6665423 L30.5321066,25.6665423 L30.5903246,28.3397088 Z" id="Shape"></path>
            </g>
        </g>
    </g>
</svg>