<?xml version="1.0" encoding="UTF-8"?>
<svg width="40px" height="40px" viewBox="0 0 40 40" version="1.1" xmlns="http://www.w3.org/2000/svg" xmlns:xlink="http://www.w3.org/1999/xlink">
    <title>icon / lock / black</title>
    <g id="icon-/-lock-/-black" stroke="none" stroke-width="1" fill="none" fill-rule="evenodd">
        <path d="M30.125,16.25 C30.8671912,16.25 31.584632,16.4231754 32.2773438,16.7695312 C34.0091232,17.6601607 34.875,19.0703029 34.875,21 L34.875,40 L4,40 L4,21 C4,20.2578088 4.17317535,19.540368 4.51953125,18.8476562 C5.4101607,17.1158768 6.82030285,16.25 8.75,16.25 L8.75,12.6875 C8.75,10.3619675 9.46744074,8.20964531 10.9023438,6.23046875 C13.079438,3.41014215 15.9244616,2 19.4375,2 C21.7630325,2 23.9153547,2.71744074 25.8945313,4.15234375 C28.7148579,6.32943797 30.125,9.1744616 30.125,12.6875 L30.125,16.25 Z M11.125,12.6875 L11.125,16.25 L27.75,16.25 L27.75,12.6875 C27.75,11.0051999 27.2799526,9.44662176 26.3398438,8.01171875 C24.7070231,5.58722746 22.4062648,4.375 19.4375,4.375 C17.7551999,4.375 16.1966218,4.84504738 14.7617188,5.78515625 C12.3372275,7.41797691 11.125,9.71873516 11.125,12.6875 Z M32.5,35.25 L32.5,21 C32.5,20.8020823 32.4752607,20.554689 32.4257812,20.2578125 C32.0794254,19.1692654 31.3125059,18.625 30.125,18.625 L8.75,18.625 C8.55208234,18.625 8.30468898,18.6497393 8.0078125,18.6992188 C6.91926539,19.0455746 6.375,19.8124941 6.375,21 L6.375,35.25 C6.375,35.4479177 6.39973934,35.695311 6.44921875,35.9921875 C6.79557465,37.0807346 7.56249406,37.625 8.75,37.625 L30.125,37.625 C30.3229177,37.625 30.570311,37.6002607 30.8671875,37.5507812 C31.9557346,37.2044254 32.5,36.4375059 32.5,35.25 Z M19.4375,23.375 C20.1302118,23.4244794 20.5260412,23.8203088 20.625,24.5625 L20.625,31.6875 C20.5755206,32.3802118 20.1796912,32.7760412 19.4375,32.875 C18.7447882,32.8255206 18.3489588,32.4296912 18.25,31.6875 L18.25,24.5625 C18.2994794,23.8697882 18.6953088,23.4739588 19.4375,23.375 Z" id="" fill="#000000"></path>
    </g>
</svg>