<?xml version="1.0" encoding="UTF-8"?>
<svg width="24px" height="24px" viewBox="0 0 24 24" version="1.1" xmlns="http://www.w3.org/2000/svg" xmlns:xlink="http://www.w3.org/1999/xlink">
    <!-- Generator: sketchtool 55.2 (78181) - https://sketchapp.com -->
    <title>C9F0B8C3-48AC-45BF-8F7F-AA87F009439F</title>
    <desc>Created with sketchtool.</desc>
    <defs>
        <polygon id="path-1" points="0 0.242531502 16.2389919 0.242531502 16.2389919 19.7259291 0 19.7259291"></polygon>
        <polygon id="path-3" points="0.0640109598 0.05927654 6.42575337 0.05927654 6.42575337 5.86530389 0.0640109598 5.86530389"></polygon>
    </defs>
    <g id="APP-Designs-Main" stroke="none" stroke-width="1" fill="none" fill-rule="evenodd">
        <g id="AB-APP-designv1" transform="translate(-100.000000, -615.000000)" fill="#000000" stroke="#000000" stroke-width="0">
            <g id="Group" transform="translate(0.000000, 604.000000)">
                <g id="icon-/-makeup" transform="translate(100.000000, 11.000000)">
                    <g id="Group-15">
                        <path d="M13.5768992,15.8214246 C13.5768992,18.8303015 11.1288991,21.2786303 8.11936465,21.2786303 C5.11048777,21.2786303 2.66248763,18.8303015 2.66248763,15.8214246 C2.66248763,12.812219 5.11048777,10.3638902 8.11936465,10.3638902 C11.1288991,10.3638902 13.5768992,12.812219 13.5768992,15.8214246 M8.1193645,9.46504086 C4.61470689,9.46504086 1.76363833,12.3164382 1.76363833,15.8210958 C1.76363833,19.3257534 4.61470689,22.176822 8.1193645,22.176822 C11.6243509,22.176822 14.4754194,19.3257534 14.4754194,15.8210958 C14.4754194,12.3164382 11.6243509,9.46504086 8.1193645,9.46504086" id="Fill-1" fill="#000000"></path>
                        <g id="Group-5" transform="translate(0.000000, 4.214729)">
                            <mask id="mask-2" fill="white">
                                <use xlink:href="#path-1"></use>
                            </mask>
                            <g id="Clip-4"></g>
                            <path d="M15.3404706,11.6066957 C15.3404706,15.5880654 12.1011283,18.8274077 8.11942982,18.8274077 C4.13773136,18.8274077 0.898717798,15.5880654 0.898717798,11.6066957 C0.898717798,7.6249972 4.13773136,4.38565487 8.11942982,4.38565487 C12.1011283,4.38565487 15.3404706,7.6249972 15.3404706,11.6066957 M2.98375883,1.14105206 L13.2527996,1.14105206 C14.4024982,1.14105206 15.3378407,2.07639455 15.3378407,3.2260932 L15.3378407,3.36614799 L0.898717798,3.36614799 L0.898717798,3.2260932 C0.898717798,2.07639455 1.83373147,1.14105206 2.98375883,1.14105206 M11.582992,4.26466856 L15.7872661,4.26466856 C16.0348277,4.26466856 16.2366907,4.06313431 16.2366907,3.81557266 L16.2366907,3.2260932 C16.2366907,1.58094248 14.897951,0.242531502 13.2528003,0.242531502 L2.98375896,0.242531502 C1.33860825,0.242531502 -0.000131506846,1.58094248 -0.000131506846,3.2260932 L-0.000131506846,3.81557266 C-0.000131506846,4.06313431 0.201731511,4.26466856 0.44929316,4.26466856 L4.65586859,4.26466856 C1.84030689,5.59584666 -0.000131506846,8.44921658 -0.000131506846,11.6066961 C-0.000131506846,16.0835181 3.64227953,19.7259291 8.1194303,19.7259291 C12.5965811,19.7259291 16.2389921,16.0835181 16.2389921,11.6066961 C16.2389921,8.44921658 14.3992113,5.59584666 11.582992,4.26466856" id="Fill-3" fill="#000000" mask="url(#mask-2)"></path>
                        </g>
                        <path d="M10.9294355,15.4838134 C10.565819,17.0730737 8.65436705,18.0846901 8.11847666,18.3401422 C7.5822575,18.0853476 5.67146304,17.0753751 5.30718908,15.4838134 C5.09250415,14.5445258 5.58927126,13.8744984 6.14160001,13.6492929 L6.14160001,13.6492929 C6.28987398,13.5887998 6.4506411,13.5569094 6.60680547,13.5569094 C6.92012053,13.5569094 7.37053148,13.6818409 7.7351342,14.2772381 C7.81370954,14.4057861 7.95672324,14.4827176 8.11781912,14.4827176 L8.11847666,14.4827176 C8.27957254,14.4827176 8.42258623,14.4061148 8.50181911,14.2772381 C8.9637369,13.5227176 9.62718893,13.4582792 10.0950245,13.6492929 C10.647682,13.8744984 11.1441204,14.5445258 10.9294355,15.4838134 M10.4339834,12.8171833 C9.61929849,12.4851286 8.74806564,12.6771286 8.11847662,13.3142792 C7.48921637,12.6771286 6.61732599,12.4847998 5.80231232,12.8171833 C4.90938084,13.1814573 4.09929867,14.2338409 4.43135346,15.6837039 C4.96099727,18.0008545 7.82653143,19.1988819 7.94850402,19.2491833 C8.00242183,19.2708819 8.05929854,19.28206 8.11847662,19.28206 C8.17732593,19.28206 8.23420264,19.2708819 8.28812045,19.2491833 C8.40976428,19.1992107 11.2749697,18.0028271 11.8055998,15.6837039 C12.1373258,14.2335121 11.3272436,13.1811285 10.4339834,12.8171833" id="Fill-6" fill="#000000"></path>
                        <path d="M21.7989693,7.38407676 L19.5370515,7.38407676 L19.983846,23.0202416 L21.3485584,23.0202416 L21.7989693,7.38407676 Z M21.3485583,23.7764677 L19.9874624,23.7764677 C19.5732159,23.7816661 19.2332707,23.4509264 19.2280104,23.0366798 L19.2280104,23.0301045 L18.7907209,7.4038028 C18.7871337,6.98988498 19.119846,6.65125484 19.533435,6.6476384 L19.5370515,6.6476384 L21.7989693,6.6476384 C22.2112432,6.6476384 22.5452706,6.9816658 22.5452706,7.39393978 L22.0945309,23.0399675 C22.0912432,23.4492825 21.7575446,23.7783784 21.3485583,23.7764677 L21.3485583,23.7764677 Z" id="Fill-8" fill="#000000"></path>
                        <path d="M19.7278024,6.64773686 L21.6182134,6.64773686 L21.6182134,6.38143549 L19.7208983,6.38143549 L19.7278024,6.64773686 Z M18.9782134,7.39075062 L22.3579393,7.39075062 L22.3579393,5.63513414 L18.9782134,5.63513414 L18.9782134,7.39075062 Z" id="Fill-10" fill="#000000"></path>
                        <g id="Group-14" transform="translate(17.424658, 0.269523)">
                            <mask id="mask-4" fill="white">
                                <use xlink:href="#path-3"></use>
                            </mask>
                            <g id="Clip-13"></g>
                            <path d="M1.57305203,5.86530398 L0.0640109598,1.5420164 L0.215243834,1.37763285 C0.997709575,0.5392767 2.09316161,0.0628931485 3.23990132,0.0625643814 L3.23990132,0.808865735 C2.37557257,0.808865735 1.54412053,1.13927669 0.915517796,1.73270133 L2.27332599,5.61872864 L1.57305203,5.86530398 Z M4.91332605,5.86530389 L4.2100932,5.61872855 L5.56757259,1.7327013 C4.93995618,1.1399342 4.10981924,0.809523257 3.24647681,0.808865723 L3.24647681,0.05927654 C4.39453155,0.0589479429 5.49096985,0.535331487 6.27442187,1.37434515 L6.42598351,1.53872871 L4.91332605,5.86530389 Z" id="Fill-12" fill="#000000" mask="url(#mask-4)"></path>
                        </g>
                    </g>
                </g>
            </g>
        </g>
    </g>
</svg>
