<?xml version="1.0" encoding="UTF-8"?>
<svg width="13px" height="20px" viewBox="0 0 13 20" version="1.1" xmlns="http://www.w3.org/2000/svg" xmlns:xlink="http://www.w3.org/1999/xlink">
    <title>B8757F5E-8533-44E1-A801-D26D39C4E8D6</title>
    <g id="App---Account" stroke="none" stroke-width="1" fill="none" fill-rule="evenodd">
        <g id="AB-APP-bit-Sign-In-New-Cust_AS-CheckoutASv1" transform="translate(-40.000000, -473.000000)" fill="#171111">
            <g id="Group-4" transform="translate(40.000000, 473.000000)">
                <path d="M1.03409091,18.8733143 L11.6704545,18.8733143 L11.6704545,8.3316 L1.03409091,8.3316 L1.03409091,18.8733143 Z M2.16154545,7.3316 L2.16154545,3.98245714 C2.16154545,2.33788571 4.05245455,1.00017143 6.37709091,1.00017143 C8.70172727,1.00017143 10.5926364,2.33788571 10.5926364,3.98245714 L10.5926364,5.17502857 L11.6267273,5.17502857 L11.6267273,3.98245714 C11.6267273,1.78645714 9.27136364,0.000171428571 6.37709091,0.000171428571 C3.48222727,0.000171428571 1.12745455,1.78645714 1.12745455,3.98245714 L1.12745455,7.3316 L0,7.3316 L0,19.8733143 L12.7045455,19.8733143 L12.7045455,7.3316 L2.16154545,7.3316 Z" id="Fill-1"></path>
                <path d="M6.44025909,12.7393714 C7.09794091,12.7393714 7.63271364,13.2570857 7.63271364,13.8930857 C7.63271364,14.5285143 7.09794091,15.0456571 6.44025909,15.0456571 C5.78257727,15.0456571 5.24780455,14.5285143 5.24780455,13.8930857 C5.24780455,13.2570857 5.78257727,12.7393714 6.44025909,12.7393714 M6.44025909,16.0456571 C7.66816818,16.0456571 8.66680455,15.0799429 8.66680455,13.8930857 C8.66680455,12.7050857 7.66816818,11.7393714 6.44025909,11.7393714 C5.21235,11.7393714 4.21371364,12.7050857 4.21371364,13.8930857 C4.21371364,15.0799429 5.21235,16.0456571 6.44025909,16.0456571" id="Fill-3"></path>
            </g>
        </g>
    </g>
</svg>