<?xml version="1.0" encoding="UTF-8"?>
<svg width="18px" height="18px" viewBox="0 0 18 18" version="1.1" xmlns="http://www.w3.org/2000/svg" xmlns:xlink="http://www.w3.org/1999/xlink">
    <title>287D5166-A8EA-4C63-A6F7-8C7A4CC34A3C</title>
    <defs>
        <polygon id="path-1" points="0 0 376 0 376 50 0 50"></polygon>
        <filter x="-0.4%" y="-3.0%" width="100.8%" height="106.0%" filterUnits="objectBoundingBox" id="filter-3">
            <feMorphology radius="0.5" operator="dilate" in="SourceAlpha" result="shadowSpreadOuter1"></feMorphology>
            <feOffset dx="0" dy="0" in="shadowSpreadOuter1" result="shadowOffsetOuter1"></feOffset>
            <feColorMatrix values="0 0 0 0 0.2471   0 0 0 0 0.2471   0 0 0 0 0.2667  0 0 0 0.108801355 0" type="matrix" in="shadowOffsetOuter1"></feColorMatrix>
        </filter>
    </defs>
    <g id="App---Account" stroke="none" stroke-width="1" fill="none" fill-rule="evenodd">
        <g id="AB-APP-Account-home-Credit-only" transform="translate(-21.000000, -793.000000)">
            <g id="UI-/-APP-/-menu-/-Accordian-Copy-8" transform="translate(0.000000, 778.000000)">
                <mask id="mask-2" fill="white">
                    <use xlink:href="#path-1"></use>
                </mask>
                <g id="Mask-Copy-8">
                    <use fill="black" fill-opacity="1" filter="url(#filter-3)" xlink:href="#path-1"></use>
                    <use fill="#FFFFFF" fill-rule="evenodd" xlink:href="#path-1"></use>
                </g>
                <g id="Stars-/-1-/-filled-Copy-4" transform="translate(21.000000, 15.000000)" fill="#000000">
                    <g id="order-status" transform="translate(0.000000, -0.000000)">
                        <path d="M17.21259,9.51714 C17.22321,9.346095 17.228565,9.1737 17.228565,9 C17.228565,8.8263 17.22321,8.653905 17.21259,8.48286 L17.98254,8.435115 C17.994105,8.622045 18,8.81037 18,9 C18,9.18963 17.994105,9.378 17.98254,9.564885 L17.21259,9.51714 Z M16.97193,6.95304 L17.71929,6.7617 C17.62497,6.39342 17.508015,6.03423 17.369865,5.685705 L16.6527,5.96988 C16.778925,6.288345 16.8858,6.61653 16.97193,6.95304 Z M15.94854,4.590405 L16.599465,4.17645 C16.39674,3.85767 16.174575,3.55257 15.93459,3.26277 L15.340455,3.754845 C15.559965,4.019895 15.76314,4.298895 15.94854,4.590405 Z M14.245155,2.659545 L14.737185,2.065419 C14.44743,1.825443 14.14233,1.603251 13.82355,1.4005215 L13.409595,2.0514735 C13.70106,2.2368375 13.980105,2.440044 14.245155,2.659545 Z M12.03012,1.3472865 L12.314295,0.630117 C11.96577,0.4920075 11.60658,0.375012 11.2383,0.2807235 L11.04696,1.028052 C11.38347,1.1142 11.711655,1.221093 12.03012,1.3472865 Z M9.51714,0.7874145 L9.564885,0.0174645 C9.378,0.005877 9.18963,0 9,0 C8.81037,0 8.622045,0.005877 8.435115,0.0174645 L8.48286,0.7874145 C8.653905,0.776808 8.8263,0.7714305 9,0.7714305 C9.1737,0.7714305 9.346095,0.776808 9.51714,0.7874145 Z M6.95304,1.028052 L6.7617,0.2807235 C6.39342,0.375012 6.03423,0.4920075 5.685705,0.630117 L5.96988,1.3472865 C6.288345,1.221093 6.61653,1.1142 6.95304,1.028052 Z M4.590405,2.0514735 L4.17645,1.4005215 C3.85767,1.603251 3.55257,1.8254475 3.26277,2.065419 L3.754845,2.6595495 C4.019895,2.440044 4.298895,2.2368375 4.590405,2.0514735 Z M2.659545,3.754845 L2.065419,3.262815 C1.825443,3.55257 1.603251,3.85767 1.4005215,4.17645 L2.0514735,4.590405 C2.2368375,4.29894 2.440044,4.019895 2.659545,3.754845 Z M1.3472865,5.96988 L0.630117,5.685705 C0.4920075,6.03423 0.375012,6.39342 0.2807235,6.7617 L1.028052,6.95304 C1.1142,6.61653 1.221093,6.288345 1.3472865,5.96988 Z M0.7874145,8.48286 C0.776808,8.653905 0.7714305,8.8263 0.7714305,9 C0.7714305,9.1737 0.776808,9.346095 0.7874145,9.51714 L0.0174645,9.564885 C0.005877,9.378 0,9.18963 0,9 C0,8.81037 0.005877,8.622045 0.0174645,8.435115 L0.7874145,8.48286 Z M1.028052,11.04696 L0.2807235,11.2383 C0.375012,11.60658 0.4920075,11.96577 0.630117,12.314295 L1.3472865,12.03012 C1.221093,11.711655 1.1142,11.38347 1.028052,11.04696 Z M2.0514735,13.409595 L1.4005215,13.82355 C1.603251,14.14233 1.8254475,14.44743 2.065419,14.73723 L2.6595495,14.245155 C2.440044,13.980105 2.2368375,13.701105 2.0514735,13.409595 Z M3.754845,15.340455 L3.262815,15.93459 C3.55257,16.174575 3.85767,16.39674 4.17645,16.599465 L4.590405,15.94854 C4.29894,15.763185 4.019895,15.559965 3.754845,15.340455 Z M5.96988,16.6527 L5.685705,17.369865 C6.03423,17.508015 6.39342,17.62497 6.7617,17.71929 L6.95304,16.97193 C6.61653,16.8858 6.288345,16.778925 5.96988,16.6527 Z M8.48286,17.21259 L8.435115,17.98254 C8.622045,17.994105 8.81037,18 9,18 C9.18963,18 9.378,17.994105 9.564885,17.98254 L9.51714,17.21259 C9.346095,17.22321 9.1737,17.228565 9,17.228565 C8.8263,17.228565 8.653905,17.22321 8.48286,17.21259 Z M11.04696,16.97193 L11.2383,17.71929 C11.60658,17.62497 11.96577,17.508015 12.314295,17.369865 L12.03012,16.6527 C11.711655,16.778925 11.38347,16.8858 11.04696,16.97193 Z M13.409595,15.94854 L13.82355,16.599465 C14.14233,16.39674 14.44743,16.174575 14.73723,15.93459 L14.245155,15.340455 C13.980105,15.559965 13.701105,15.76314 13.409595,15.94854 Z M15.340455,14.245155 L15.93459,14.737185 C16.174575,14.44743 16.39674,14.14233 16.599465,13.82355 L15.94854,13.409595 C15.763185,13.70106 15.559965,13.980105 15.340455,14.245155 Z M16.6527,12.03012 L17.369865,12.314295 C17.508015,11.96577 17.62497,11.60658 17.71929,11.2383 L16.97193,11.04696 C16.8858,11.38347 16.778925,11.711655 16.6527,12.03012 Z" id="Shape"></path>
                        <path d="M9,4.5 C7.2585,4.5 5.85,5.9085 5.85,7.65 C5.85,10.0125 9,13.5 9,13.5 C9,13.5 12.15,10.0125 12.15,7.65 C12.15,5.9085 10.7415,4.5 9,4.5 Z M6.75,7.65 C6.75,6.408 7.758,5.4 9,5.4 C10.242,5.4 11.25,6.408 11.25,7.65 C11.25,8.946 9.954,10.8855 9,12.096 C8.064,10.8945 6.75,8.9325 6.75,7.65 Z" id="Shape" fill-rule="nonzero"></path>
                        <circle id="Oval" fill-rule="nonzero" cx="9" cy="7.65" r="1.35"></circle>
                    </g>
                </g>
            </g>
        </g>
    </g>
</svg>