<?xml version="1.0" encoding="UTF-8"?>
<svg width="30px" height="24px" viewBox="0 0 30 24" version="1.1" xmlns="http://www.w3.org/2000/svg" xmlns:xlink="http://www.w3.org/1999/xlink">
    <!-- Generator: sketchtool 55.2 (78181) - https://sketchapp.com -->
    <title>8844B4D3-2106-48EE-8593-B3535248C033</title>
    <desc>Created with sketchtool.</desc>
    <g id="Asset-Artboard-Page" stroke="none" stroke-width="1" fill="none" fill-rule="evenodd">
        <g id="icon-/-arrow-/-retry" fill="#000000" fill-rule="nonzero">
            <path d="M14.8491879,22.125 C17.9427842,22.0859373 20.5529669,20.8359498 22.6798144,18.375 L25,18.375 C24.7293103,18.8046896 24.4199553,19.2343729 24.0719258,19.6640625 C21.6743886,22.554702 18.6001734,24 14.8491879,24 C12.7223405,24 10.7308677,23.4726615 8.87470998,22.4179688 C5.8584536,20.6601475 3.94431961,18.0625172 3.13225058,14.625 L0,14.625 L3.71229698,9 L7.42459397,14.625 L5.04640371,14.625 C5.43310325,15.9531316 6.07114791,17.1835881 6.96055684,18.3164062 C8.97139443,20.8554814 11.6009118,22.125 14.8491879,22.125 Z M26.8677494,9.375 L30,9.375 L26.287703,15 L22.575406,9.375 L24.9535963,9.375 C24.5668968,8.08593105 23.9481868,6.87500566 23.0974478,5.7421875 C21.0479403,3.16404961 18.3990882,1.875 15.1508121,1.875 C12.0572158,1.9140627 9.44703306,3.1640502 7.32018561,5.625 L5,5.625 C5.27068968,5.19531035 5.58004466,4.76562715 5.92807425,4.3359375 C8.32561137,1.44529805 11.3998266,0 15.1508121,0 C17.2776595,0 19.2691323,0.527338477 21.12529,1.58203125 C24.1415464,3.33985254 26.0556804,5.93748281 26.8677494,9.375 Z" id="î"></path>
        </g>
    </g>
</svg>