<?xml version="1.0" encoding="UTF-8"?>
<svg width="18px" height="18px" viewBox="0 0 18 18" version="1.1" xmlns="http://www.w3.org/2000/svg" xmlns:xlink="http://www.w3.org/1999/xlink">
    <title>88714279-C69D-4F93-ABF3-99417EC1BE6F</title>
    <g id="App---Account" stroke="none" stroke-width="1" fill="none" fill-rule="evenodd">
        <g id="AB-APP-Account-Rewards-Avatar-1" transform="translate(-22.000000, -562.000000)" stroke="#000000">
            <g id="UI-/-APP-/-menu-/-Accordian" transform="translate(1.000000, 547.000000)">
                <g id="Stars-/-1-/-filled-Copy-4" transform="translate(21.000000, 15.000000)">
                    <path d="M17.4743142,6.52342585 L16.4564993,3.63259488 C16.4014813,3.4761046 16.2700243,3.375 16.1216468,3.375 C16.0890965,3.375 16.056616,3.38003146 16.0250426,3.38997553 L12.8823202,4.38160883 L5.11770513,4.38160883 L1.97473853,3.38997553 C1.9432349,3.38007108 1.9107893,3.375 1.87830882,3.375 C1.72993127,3.375 1.59854404,3.47614422 1.54359585,3.63255526 L0.52588563,6.52322776 C0.487892883,6.63079007 0.491870085,6.75202051 0.53684038,6.85585874 C0.581845563,6.95993467 0.663796861,7.0377044 0.761656968,7.06924016 L3.71033375,8.02466281 L3.71500871,16.2459091 C3.71500871,16.5928025 3.96351407,16.875 4.26899111,16.875 L13.7356394,16.875 C14.0411165,16.875 14.2896218,16.5928025 14.2896218,16.2459487 L14.291436,8.02414778 L17.2383335,7.06927978 C17.3363681,7.03762516 17.4182496,6.95989506 17.4631152,6.85609644 C17.5080157,6.75225821 17.5121325,6.63106739 17.4743142,6.52342585 Z M4.75525641,4.84291839 L3.81426433,7.48146328 L1.03189739,6.57996044 L1.95457342,3.95920395 L4.75525641,4.84291839 Z M13.7356046,16.3203113 L4.269026,16.3203113 C4.2328823,16.3203113 4.20347194,16.2868343 4.20347194,16.245711 L4.19883187,8.10445304 L13.8029728,8.101244 L13.8011935,16.2458695 C13.8011586,16.2869135 13.7717831,16.3203113 13.7356046,16.3203113 Z M4.31692686,7.54976435 L5.24898769,4.93629753 L12.6842626,4.93629753 L13.6760163,7.54663454 L4.31692686,7.54976435 Z M16.9682326,6.58000006 L14.1834585,7.48229525 L13.1876577,4.86094449 L16.0454868,3.95920395 L16.9682326,6.58000006 Z" id="Shape" stroke-width="0.4" fill="#000000" fill-rule="nonzero"></path>
                    <polyline id="Line-6" stroke-width=".9" stroke-linecap="square" points="4.75 4.21875 6.02519531 1.34956055 12 1.40625 13.25 4.5"></polyline>
                </g>
            </g>
        </g>
    </g>
</svg>