<?xml version="1.0" encoding="UTF-8"?>
<svg id="sad" viewBox="0 0 13 13"><path d="M4.469 6.5c-.068 0-.153-.008-.254-.025-.373-.119-.559-.381-.559-.787 0-.068.009-.153.026-.254.118-.373.38-.559.787-.559.067 0 .152.008.254.025.372.119.558.381.558.787 0 .068-.008.153-.025.254-.119.373-.381.559-.787.559zm4.062 0c-.067 0-.152-.008-.254-.025-.372-.119-.558-.381-.558-.787 0-.068.008-.153.025-.254.119-.373.381-.559.787-.559.068 0 .153.008.254.025.373.119.559.381.559.787 0 .068-.009.153-.026.254-.118.373-.38.559-.787.559zm-1.828.813c.322 0 .652.033.99.101 1.422.288 2.514 1.066 3.276 2.336h-.99a.295.295 0 0 1-.051-.076C9.115 8.64 8.04 8.125 6.703 8.125c-1.32.034-2.412.576-3.275 1.625h-.99c.135-.22.287-.432.457-.635.998-1.202 2.268-1.803 3.808-1.803zM6.5 0c1.693 0 3.165.584 4.418 1.752C12.306 3.038 13 4.622 13 6.5c0 1.693-.584 3.165-1.752 4.418C9.962 12.306 8.378 13 6.5 13c-1.693 0-3.165-.584-4.418-1.752C.694 9.962 0 8.378 0 6.5c0-1.693.584-3.165 1.752-4.418C3.038.694 4.622 0 6.5 0zm0 12.188c1.422 0 2.674-.474 3.758-1.422 1.286-1.134 1.93-2.556 1.93-4.266 0-1.422-.474-2.674-1.422-3.758C9.632 1.456 8.21.812 6.5.812c-1.422 0-2.674.474-3.758 1.422C1.456 3.368.812 4.79.812 6.5c0 1.422.474 2.674 1.422 3.758 1.134 1.286 2.556 1.93 4.266 1.93z" fill-rule="evenodd"></path></svg>