<?xml version="1.0" encoding="UTF-8"?>
<svg width="23px" height="23px" viewBox="0 0 23 23" version="1.1" xmlns="http://www.w3.org/2000/svg" xmlns:xlink="http://www.w3.org/1999/xlink">
    <!-- Generator: sketchtool 55.2 (78181) - https://sketchapp.com -->
    <title>2C5BB3BD-841B-47B9-A71F-C3D0317885D5</title>
    <desc>Created with sketchtool.</desc>
    <defs>
        <polygon id="path-1" points="0 0.353448069 20.9172844 0.353448069 20.9172844 21.6730774 0 21.6730774"></polygon>
    </defs>
    <g id="Asset-Artboard-Page" stroke="none" stroke-width="1" fill="none" fill-rule="evenodd">
        <g id="icon-/-app-/-share">
            <g>
                <path d="M18.308651,0.247073068 C17.963651,-0.0912923043 17.4138208,-0.0811192277 17.0814057,0.270957682 C16.7489906,0.623034592 16.7598397,1.18299611 17.1052736,1.52180379 L19.4903302,3.86116909 C13.4786511,4.24288061 8.71200965,8.9331112 8.71200965,14.6477264 C8.71200965,15.136034 9.10040586,15.5323417 9.57993416,15.5323417 C10.0590285,15.5323417 10.4478587,15.136034 10.4478587,14.6477264 C10.4478587,9.96811116 14.3313869,6.10720746 19.2898396,5.6480921 L17.1278397,7.93791893 C16.7958585,8.28999584 16.8062736,8.84995736 17.1517076,9.18876504 C17.3200849,9.3537458 17.5370661,9.43601503 17.7536132,9.43601503 C17.9810095,9.43601503 18.2088396,9.34534196 18.3789529,9.16488043 L22.7168396,4.5706306 L18.308651,0.247073068 Z" id="Fill-1" fill="#19171C"></path>
                <g id="Group-5" transform="translate(0.000000, 1.303835)">
                    <mask id="mask-2" fill="white">
                        <use xlink:href="#path-1"></use>
                    </mask>
                    <g id="Clip-4"></g>
                    <path d="M20.9073039,11.792852 C20.8569642,11.354525 20.4950397,11.0130635 20.0510963,11.0130635 C19.6075869,11.0130635 19.2460963,11.354525 19.1953227,11.792852 L19.1814359,11.792852 L19.1814359,19.9038905 L1.73571888,19.9038905 L1.73571888,2.12267885 L10.336417,2.12267885 L10.336417,2.11869808 C10.8142095,2.11869808 11.2021717,1.72371731 11.2021717,1.23629423 C11.2021717,0.74842884 10.8142095,0.353448069 10.336417,0.353448069 L-0.000130188685,0.353448069 L-0.000130188685,21.6731212 L20.917285,21.6731212 L20.917285,11.792852 L20.9073039,11.792852 Z" id="Fill-3" fill="#231F20" mask="url(#mask-2)"></path>
                </g>
            </g>
        </g>
    </g>
</svg>