<?xml version="1.0" encoding="UTF-8"?>
<svg width="91px" height="51px" viewBox="0 0 91 51" version="1.1" xmlns="http://www.w3.org/2000/svg" xmlns:xlink="http://www.w3.org/1999/xlink">
    <title>Group</title>
    <g id="Loyalty-Program" stroke="none" stroke-width="1" fill="none" fill-rule="evenodd">
        <g id="Account-Loyalty-Desktop-L3" transform="translate(-411.000000, -843.000000)" fill="#000000">
            <g id="L3-Desktop" transform="translate(386.000000, 819.000000)">
                <g id="Group" transform="translate(25.000000, 24.000000)">
                    <g id="icon-/-account-/-Profile-Copy-2">
                        <path d="M41.6083333,41.3841667 C41.0475,41.9525 40.4633333,42.4875 39.8575,42.99 C39.7741667,42.9525 39.6941667,42.9091667 39.6066667,42.8775 L30.2625,39.3866667 L30.2625,35.0916667 C33.1283333,32.8975 35.0333333,29.0866667 35.0333333,24.7508333 C35.0333333,17.9608333 30.3733333,12.4375 24.6458333,12.4375 C18.9175,12.4375 14.2583333,17.9608333 14.2583333,24.7508333 C14.2583333,29.3575 16.4066667,33.3758333 19.5758333,35.4866667 L19.5758333,39.3858333 L10.1741667,42.8741667 C10.1358333,42.8875 10.1008333,42.9075 10.0641667,42.9233333 C9.495,42.4466667 8.94333333,41.9425 8.41416667,41.4075 C4.06333333,37.0091667 1.66666667,31.1825 1.66666667,25 C1.66666667,12.1333333 12.1341667,1.66666667 25,1.66666667 C37.8666667,1.66666667 48.3333333,12.1333333 48.3333333,25 C48.3333333,31.17 45.945,36.9891667 41.6083333,41.3841667 M15.995,22.4383333 C16.8675,17.5991667 20.4125,13.9641667 24.6458333,13.9641667 C29.0441667,13.9641667 32.6941667,17.8891667 33.3808333,23.0108333 C33.3091667,23.0183333 33.2408333,23.0233333 33.1633333,23.0383333 C30.2675,23.5933333 28.4758333,22.6591667 26.7816667,19.6941667 L26.0883333,18.4808333 L25.4416667,19.72 C24.5241667,21.48 21.4541667,23.0241667 18.8708333,23.0241667 C17.8191667,23.0241667 16.8933333,22.8275 15.995,22.4383333 M18.8708333,24.5508333 C21.56,24.5508333 24.5133333,23.2308333 26.0808333,21.4508333 C27.6075,23.665 29.4091667,24.7141667 31.715,24.7141667 C32.2641667,24.7141667 32.8425,24.6541667 33.4516667,24.5375 C33.4675,24.5341667 33.4825,24.5341667 33.4975,24.5316667 C33.4991667,24.6058333 33.5066667,24.6766667 33.5066667,24.7508333 C33.5066667,30.6975 29.5316667,35.5358333 24.6458333,35.5358333 C19.76,35.5358333 15.785,30.6975 15.785,24.7508333 C15.785,24.5041667 15.8016667,24.2633333 15.815,24.0216667 C16.7733333,24.3783333 17.7666667,24.5508333 18.8708333,24.5508333 M25,48.3333333 C20.0825,48.3333333 15.4058333,46.8175 11.4841667,44.0158333 L21.1025,40.4475 L21.1025,36.31 C22.2108333,36.7883333 23.4,37.0625 24.6458333,37.0625 C26.0975,37.0625 27.48,36.705 28.7358333,36.0641667 L28.7358333,40.4466667 L38.4383333,44.0708333 C34.5333333,46.8366667 29.8866667,48.3333333 25,48.3333333 M25,0 C11.215,0 0,11.215 0,25 C0,31.6241667 2.5675,37.8675 7.22916667,42.58 C11.9633333,47.365 18.275,50 25,50 C31.7383333,50 38.0575,47.3558333 42.795,42.5541667 C47.4416667,37.8458333 50,31.6108333 50,25 C50,11.215 38.785,0 25,0" id="Fill-1"></path>
                    </g>
                    <g id="Combined-Shape" transform="translate(40.250000, 0.500000)">
                        <path d="M25,0 C38.785,0 50,11.215 50,25 C50,31.6108333 47.4416667,37.8458333 42.795,42.5541667 C38.0575,47.3558333 31.7383333,50 25,50 C18.275,50 11.9633333,47.365 7.22916667,42.58 C2.5675,37.8675 0,31.6241667 0,25 C0,11.215 11.215,0 25,0 Z M33,12.25 C29.4359476,12.25 26.0451613,15.2852538 25.6266078,18.9160542 L25.6266078,18.9160542 L24.3733922,18.9160542 C23.9548387,15.2852538 20.5640524,12.25 17,12.25 C16.5857864,12.25 16.25,12.5857864 16.25,13 C16.25,15.3559981 17.5320505,17.5380754 19.3739301,18.9167107 L19.3739301,18.9167107 L14.6,18.9166667 L14.4438287,18.9221386 C13.205826,19.0092135 12.25,20.1240579 12.25,21.4444444 L12.25,21.4444444 L12.25,24.1111111 L12.2562319,24.2691591 C12.3182093,25.0474544 12.8373229,25.6396975 13.5827435,25.7361879 L13.5827435,25.7361879 L13.5833333,35.3333333 L13.5888551,35.4980598 C13.6730654,36.7504408 14.7099313,37.75 15.974359,37.75 L15.974359,37.75 L34.025641,37.75 L34.1892163,37.7443928 C35.4324853,37.6588862 36.4166667,36.6062872 36.4166667,35.3333333 L36.4166667,35.3333333 L36.4172565,25.7361879 C37.2123718,25.6332648 37.75,24.9662853 37.75,24.1111111 L37.75,24.1111111 L37.75,21.4444444 L37.7450705,21.2805261 C37.6665878,19.9786956 36.6603479,18.9166667 35.4,18.9166667 L35.4,18.9166667 L30.6260699,18.9167107 C32.4679495,17.5380754 33.75,15.3559981 33.75,13 C33.75,12.5857864 33.4142136,12.25 33,12.25 Z M21.583,25.75 L21.583,36.25 L15.974359,36.25 L15.863844,36.2428378 L15.7570717,36.2219304 C15.3735187,36.121133 15.0833333,35.7606695 15.0833333,35.3333333 L15.0833333,35.3333333 L15.083,25.75 L21.583,25.75 Z M34.916,25.75 L34.9166667,35.3333333 L34.9096199,35.4480767 C34.8538369,35.8992594 34.4740029,36.25 34.025641,36.25 L34.025641,36.25 L28.416,36.25 L28.416,25.75 L34.916,25.75 Z M26.916,25.75 L26.916,36.249 L23.083,36.249 L23.083,25.75 L26.916,25.75 Z M28.416,20.416 L35.4,20.4166667 C35.8471376,20.4166667 36.25,20.8642916 36.25,21.4444444 L36.25,21.4444444 L36.251303,23.196837 C36.1138339,23.0259942 35.9030177,22.9166667 35.6666667,22.9166667 L35.6666667,22.9166667 L28.416,22.916 L28.416,20.416 Z M21.583,20.416 L21.583,22.916 L14.3333333,22.9166667 L14.2177368,22.9255204 C14.0293414,22.954666 13.8641069,23.0539256 13.7495344,23.1957981 L13.7495344,23.1957981 L13.75,21.4444444 L13.7560356,21.3222693 C13.8077777,20.8026289 14.1848008,20.4166667 14.6,20.4166667 L14.6,20.4166667 L21.583,20.416 Z M26.916,20.416 L26.916,22.916 L23.083,22.916 L23.083,20.416 L26.916,20.416 Z M17.8172652,13.818526 C20.2405745,14.2222297 22.4426213,16.3580495 22.8494015,18.8481407 C20.4325518,18.4455131 18.2357867,16.3199916 17.8203589,13.8389076 L17.8203589,13.8389076 Z M32.1829497,13.8189096 C31.7760114,16.3085622 29.5739391,18.4444317 27.1503994,18.8476609 C27.5463767,16.4253518 29.6416803,14.3379646 31.9867211,13.8550365 L31.9867211,13.8550365 Z"></path>
                    </g>
                </g>
            </g>
        </g>
    </g>
</svg>