<?xml version="1.0" encoding="UTF-8"?>
<svg width="36px" height="25px" viewBox="0 0 36 25" version="1.1" xmlns="http://www.w3.org/2000/svg" xmlns:xlink="http://www.w3.org/1999/xlink">
    <title>icon / UI / AS / ship</title>
    <g id="APP---Adore-Society" stroke="none" stroke-width="1" fill="none" fill-rule="evenodd">
        <g id="AB-APP-bit-Sign-In-Update-w-Birthday" transform="translate(-258.000000, -240.000000)" fill="#231F20" fill-rule="nonzero">
            <g id="Group-4" transform="translate(209.000000, 235.000000)">
                <g id="icon-/-UI-/-AS-/-ship" transform="translate(49.000000, 5.600000)">
                    <path d="M11.5779285,20.8009038 C11.3785399,22.6004488 9.85271132,24 8,24 C6.14728868,24 4.62146006,22.6004488 4.42207153,20.8009038 L0.8,20.8 C0.378255282,20.8 0.0327339513,20.4736489 0.00219429457,20.0597049 L0,20 L0,0.8 C0,0.378255282 0.326351116,0.0327339513 0.740295062,0.00219429457 L0.8,-1.77635684e-15 L23.2,-1.77635684e-15 C23.6217447,-1.77635684e-15 23.967266,0.326351116 23.9978057,0.740295062 L24,0.8 L24,5.599 L28.7451994,5.6 C29.4733611,5.60132053 30.1553215,5.9487891 30.5869409,6.53235234 L30.6442272,6.6133822 L30.6807194,6.67285524 L33.0208,10.8888 L33.3,10.8888889 C34.6183594,10.8888889 35.556568,11.8309139 35.5985329,13.2618259 L35.6,13.3624444 L35.6,18.4888889 C35.6,19.7343111 34.6188592,20.751683 33.3883106,20.7983291 L33.3,20.8 L32.367,20.8 C32.1786117,22.5032495 30.8059109,23.847155 29.0925042,23.9878289 L28.9007664,23.9984648 L28.7947587,24 C27.013505,24 25.5352829,22.7027231 25.2498121,21.0006354 L22.8,21 L22.799,20.8 Z M28.7977438,18.3999806 C27.6934247,18.3999806 26.8,19.2951057 26.8,20.4000099 C26.8,21.5049085 27.6934192,22.4 28.7947587,22.4 C29.8460374,22.4 30.7078679,21.5844311 30.7840441,20.549313 L30.7895174,20.4000099 L30.7915405,20.3421197 L30.7968,20.29 L30.7890819,20.190945 C30.7513799,19.8311754 30.6170243,19.4887378 30.4011312,19.2000941 L30.2864599,19.0604239 L30.2134595,18.9834928 C29.8376833,18.6079508 29.3282123,18.3980151 28.7977438,18.3999806 Z M7.99800063,18.3999975 C6.8954305,18.3999975 6,19.2954305 6,20.3999975 C6,21.5045695 6.8954305,22.3999975 8,22.3999975 C9.04643426,22.3999975 9.90516483,21.5963449 9.99265881,20.5725677 L9.99265881,20.5725677 L9.9976,20.4896 L9.99498918,20.4613034 L9.99126456,20.315815 C9.94724864,19.2523551 9.07255163,18.402683 7.99800063,18.3999975 Z M28.74375,7.2 L24,7.199 L24,19.4 L25.3404222,19.4003188 C25.7560931,17.9572977 27.0489661,16.8864754 28.6038146,16.8049911 L28.7947587,16.8 L28.9163429,16.8017001 C29.8280198,16.8299176 30.6967277,17.2044232 31.3444775,17.8517692 C31.728526,18.2355782 32.0169402,18.6973431 32.194397,19.199942 L33.3,19.2 C33.6660087,19.2 33.9683509,18.9138542 33.9976701,18.5473892 L34,18.4888889 L34,13.3624444 C34,12.7728834 33.7731204,12.5119327 33.3577991,12.4903558 L33.3,12.4888889 L32.55,12.4888889 C32.4991308,12.4888889 32.448962,12.4840602 32.4000504,12.4747305 L32.4,12.8 L31.1504,12.8 L29.8764441,13.5009727 C29.7819513,13.5529438 29.6781781,13.5851386 29.5714297,13.5959377 L29.4909091,13.6 L24.4,13.6 L24.4,12 L29.2848,12 L30.5599195,11.2990273 C30.6544123,11.2470562 30.7581855,11.2148614 30.8649339,11.2040623 L30.9454545,11.2 L31.363,11.2 L29.3048,7.4908 L29.2806217,7.45809367 C29.1616696,7.3118303 28.9901893,7.22009086 28.8056811,7.20293044 L28.74375,7.2 Z M22.4,1.6 L1.6,1.6 L1.6,19.2 L4.60470712,19.2003954 C5.09879916,17.801958 6.43238966,16.8 8,16.8 L8,16.8 L8.10804727,16.8017998 C9.62586496,16.8495099 10.9060075,17.8363203 11.3880456,19.1996949 L22.4,19.2 L22.4,1.6 Z" id="Combined-Shape"></path>
                </g>
            </g>
        </g>
    </g>
</svg>