<?xml version="1.0" encoding="UTF-8"?>
<svg width="31px" height="24px" viewBox="0 0 31 24" version="1.1" xmlns="http://www.w3.org/2000/svg" xmlns:xlink="http://www.w3.org/1999/xlink">
    <title>E3CF20C0-5FC8-4392-B728-F5A9F6650F72</title>
    <g id="APP-Product" stroke="none" stroke-width="1" fill="none" fill-rule="evenodd" opacity="0.332612537">
        <g id="AB-APP-Shop-Product-QUICK-VIEW-SOLD-OUT" transform="translate(-52.000000, -511.000000)">
            <g id="Group" transform="translate(28.000000, 501.000000)">
                <g id="sentiment_very_dissatisfied_black_24dp" transform="translate(24.666667, 8.000000)">
                    <g id="icon-/-UI-/-Box-open" transform="translate(0.000000, 2.000000)">
                        <path d="M27.7114713,8.69790114 L26.1847489,4.84345984 C26.102222,4.63480614 25.9050365,4.5 25.6824702,4.5 C25.6336448,4.5 25.5849241,4.50670861 25.5375639,4.51996737 L20.8234804,5.84214511 L9.17655769,5.84214511 L4.46210779,4.51996737 C4.41485235,4.50676144 4.36618396,4.5 4.31746323,4.5 C4.0948969,4.5 3.89781606,4.63485896 3.81539378,4.84340701 L2.28882845,8.69763702 C2.23183932,8.84105342 2.23780513,9.00269401 2.30526057,9.14114498 C2.37276834,9.2799129 2.49569529,9.38360586 2.64248545,9.42565355 L7.06550063,10.6995504 L7.07251306,21.6612121 C7.07251306,22.1237366 7.44527111,22.5 7.90348667,22.5 L22.1034592,22.5 C22.5616747,22.5 22.9344328,22.1237366 22.9344328,21.661265 L22.937154,10.6988637 L27.3575003,9.42570637 C27.5045521,9.38350022 27.6273744,9.27986008 27.6946728,9.14146193 C27.7620236,9.00301095 27.7681987,8.84142319 27.7114713,8.69790114 Z M8.63288462,6.45722452 L7.22139649,9.97528437 L3.04784609,8.77328059 L4.43186012,5.2789386 L8.63288462,6.45722452 Z M22.1034068,21.7604151 L7.903539,21.7604151 C7.84932345,21.7604151 7.80520791,21.715779 7.80520791,21.660948 L7.7982478,10.8059374 L22.2044592,10.8016587 L22.2017903,21.6611593 C22.2017379,21.7158847 22.1576747,21.7604151 22.1034068,21.7604151 Z M7.9753903,10.0663525 L9.37348153,6.58173004 L20.5263938,6.58173004 L22.0140244,10.0621794 L7.9753903,10.0663525 Z M26.952349,8.77333341 L22.7751877,9.97639367 L21.2814866,6.48125932 L25.5682303,5.2789386 L26.952349,8.77333341 Z" id="Shape" stroke="#171717" stroke-width="0.5" fill="#000000" fill-rule="nonzero"></path>
                        <polyline id="Line-6" stroke="#121212" stroke-width="1.5" stroke-linecap="square" points="8.625 5.625 10.537793 1.79941406 19.5 1.875 21.375 6"></polyline>
                    </g>
                </g>
            </g>
        </g>
    </g>
</svg>