<?xml version="1.0" encoding="UTF-8"?>
<svg width="40px" height="40px" viewBox="0 0 40 40" version="1.1" xmlns="http://www.w3.org/2000/svg" xmlns:xlink="http://www.w3.org/1999/xlink">
    <title>icon / speech</title>
    <g id="icon-/-speech" stroke="none" stroke-width="1" fill="none" fill-rule="evenodd">
        <path d="M20.5,1 C25.5781504,1 29.996075,2.52342227 33.7539062,5.5703125 C37.9179896,8.92189176 40,13.0859126 40,18.0625 C40,22.3281463 38.3496259,26.1113116 35.0488281,29.4121094 C31.1894338,33.2207222 26.3398729,35.125 20.5,35.125 C20.2460925,35.125 19.8779321,35.1123048 19.3955078,35.0869141 C18.9130835,35.0615233 18.5449231,35.0488281 18.2910156,35.0488281 L8.3125,40 L8.3125,31.3925781 C7.95702947,31.1386706 7.60156428,30.8593765 7.24609375,30.5546875 C3.08201043,27.1523267 1,22.9883059 1,18.0625 C1,13.7968537 2.65037412,10.0136884 5.95117188,6.71289062 C9.81056617,2.90427783 14.6601271,1 20.5,1 Z M20.5,32.6875 C24.7656463,32.6875 28.5234213,31.4687622 31.7734375,29.03125 C35.6328318,26.1367043 37.5625,22.4804908 37.5625,18.0625 C37.5625,14.5585762 36.2422007,11.4355606 33.6015625,8.69335938 C30.1992017,5.18943561 25.8320579,3.4375 20.5,3.4375 C16.2343537,3.4375 12.4765787,4.65623781 9.2265625,7.09375 C5.3671682,9.98829572 3.4375,13.6445092 3.4375,18.0625 C3.4882815,20.6015752 5.01170377,23.6992005 8.0078125,27.3554688 L10.75,30.25 L10.75,36.34375 L18.0625,32.6875 L20.5,32.6875 Z" id="speech-icon" fill="black"></path>
    </g>
</svg>