<?xml version="1.0" encoding="UTF-8"?>
<svg width="26px" height="26px" viewBox="0 0 26 26" version="1.1" xmlns="http://www.w3.org/2000/svg" xmlns:xlink="http://www.w3.org/1999/xlink">
    <title>E7C638EF-1659-4543-A704-87D4FA12CF65</title>
    <g id="APP---Adore-Society" stroke="none" stroke-width="1" fill="none" fill-rule="evenodd">
        <g id="AB-APP-Account-AS-Rewards-L2" transform="translate(-283.000000, -1234.000000)">
            <g id="Refer-friendL3" transform="translate(22.000000, 893.000000)">
                <g id="http://www.adorebeau" transform="translate(17.000000, 282.000000)">
                    <g id="share-icons" transform="translate(29.000000, 59.000000)">
                        <g id="brand_facebook_messenger_icon_157342" transform="translate(149.000000, 0.000000)">
                            <g id="icon-/-social-/-twitter" transform="translate(66.000000, 0.000000)">
                                <path d="M13,0 C20.1797017,-1.31888981e-15 26,5.82029825 26,13 C26,20.1797017 20.1797017,26 13,26 C5.82029825,26 8.79259876e-16,20.1797017 0,13 C-8.79259876e-16,5.82029825 5.82029825,1.31888981e-15 13,0 Z" id="App-Icon" fill="#FFFFFF"></path>
                                <path d="M8.38709677,11.5322581 C9.19770826,11.5322581 9.85483871,12.1893885 9.85483871,13 C9.85483871,13.8106115 9.19770826,14.4677419 8.38709677,14.4677419 C7.57648529,14.4677419 6.91935484,13.8106115 6.91935484,13 C6.91935484,12.1893885 7.57648529,11.5322581 8.38709677,11.5322581 Z M13,11.5322581 C13.8106115,11.5322581 14.4677419,12.1893885 14.4677419,13 C14.4677419,13.8106115 13.8106115,14.4677419 13,14.4677419 C12.1893885,14.4677419 11.5322581,13.8106115 11.5322581,13 C11.5322581,12.1893885 12.1893885,11.5322581 13,11.5322581 Z M17.6129032,11.5322581 C18.4235147,11.5322581 19.0806452,12.1893885 19.0806452,13 C19.0806452,13.8106115 18.4235147,14.4677419 17.6129032,14.4677419 C16.8022917,14.4677419 16.1451613,13.8106115 16.1451613,13 C16.1451613,12.1893885 16.8022917,11.5322581 17.6129032,11.5322581 Z" id="Dot" fill="#686872"></path>
                            </g>
                        </g>
                    </g>
                </g>
            </g>
        </g>
    </g>
</svg>