<?xml version="1.0" encoding="UTF-8"?>
<svg width="12px" height="11px" viewBox="0 0 12 11" version="1.1" xmlns="http://www.w3.org/2000/svg" xmlns:xlink="http://www.w3.org/1999/xlink">
  <path d="M11.32 1.804a.42.42 0 0 1 .055.164.42.42 0 0 1-.055.164l-6.808 8.75c-.11.11-.192.164-.246.164-.092 0-.183-.046-.274-.137L.137 7.19l-.082-.082A.42.42 0 0 1 0 6.944a.48.48 0 0 1 .055-.136l.054-.055c.51-.547.912-.966 1.204-1.258.109-.11.182-.164.218-.164.073 0 .164.055.274.164l2.187 2.133L9.461.6c.036-.037.091-.055.164-.055A.44.44 0 0 1 9.816.6l1.504 1.203z" fill-rule="evenodd"/>
</svg>
