<?xml version="1.0" encoding="UTF-8"?>
<svg width="31px" height="27px" viewBox="0 0 31 27" version="1.1" xmlns="http://www.w3.org/2000/svg" xmlns:xlink="http://www.w3.org/1999/xlink">
    <title>2E4679F9-7CDB-4E9B-B819-929C307F3E58</title>
    <g id="APP---Adore-Society" stroke="none" stroke-width="1" fill="none" fill-rule="evenodd" stroke-linecap="round" stroke-linejoin="round">
        <g id="AB-APP-AdoreSociety---v2-new-customer" transform="translate(-256.000000, -1084.000000)" stroke="#231F20" stroke-width="2">
            <g id="Group-4" transform="translate(212.000000, 1085.000000)">
                <g id="icon-/-UI-/-AS-/-ship" transform="translate(45.000000, 0.000000)">
                    <path d="M25.7052186,17.4188999 C25.7052186,15.6205924 27.1861777,14.1396333 28.9844852,14.1396333 L28.9844852,9.76727786 L0,9.76727786 L0,14.1043724 C0,14.1043724 0,14.1043724 0,14.1043724 C1.79830748,14.1043724 3.27926657,15.5853315 3.27926657,17.3836389 C3.27926657,19.1819464 1.79830748,20.6629055 0,20.6629055 C0,20.6629055 0,20.6629055 0,20.6629055 L0,25 L28.9844852,25 L28.9844852,20.6981664 C27.1861777,20.6981664 25.7052186,19.2172073 25.7052186,17.4188999 Z" id="Path"></path>
                    <line x1="20.6276446" y1="11.6713681" x2="20.6276446" y2="13.3991537" id="Path"></line>
                    <line x1="20.6276446" y1="15.0211566" x2="20.6276446" y2="16.7489422" id="Path"></line>
                    <line x1="20.6276446" y1="18.3356841" x2="20.6276446" y2="20.0634697" id="Path"></line>
                    <line x1="20.6276446" y1="21.6854725" x2="20.6276446" y2="23.4132581" id="Path"></line>
                    <path d="M27.5035261,9.76727786 L5.21861777,0 L3.45557123,3.98448519 C3.45557123,3.98448519 3.45557123,3.98448519 3.45557123,3.98448519 C5.11283498,4.72496474 5.85331453,6.62905501 5.14809591,8.32157969 C4.86600846,8.95627645 4.44287729,9.44992948 3.91396333,9.76727786" id="Path"></path>
                </g>
            </g>
        </g>
    </g>
</svg>