<?xml version="1.0" encoding="UTF-8"?>
<svg width="54px" height="54px" viewBox="0 0 54 54" version="1.1" xmlns="http://www.w3.org/2000/svg" xmlns:xlink="http://www.w3.org/1999/xlink">
    <title>icon / checkitem / grey</title>
    <g id="APP-Cart" stroke="none" stroke-width="1" fill="none" fill-rule="evenodd">
        <g id="AB-APP-Shop-Confirmation-2.0" transform="translate(-153.000000, -107.000000)" fill="#008000">
            <g id="icon-/-checkitem-/-grey" transform="translate(153.000000, 107.000000)">
                <path d="M19.7226562,24.1523438 L28.6875,33.0117188 L51.1523437,10.6523438 C51.9257851,9.87890238 52.6992149,9.87890238 53.4726562,10.6523438 C54.1054719,11.4257851 54.1054719,12.1992149 53.4726562,12.9726563 L29.953125,36.3867188 L29.7421875,36.4921875 C29.6718746,36.5625004 29.566407,36.6328121 29.4257812,36.703125 L29.0039062,36.9140625 C28.8632805,36.9843754 28.7578129,37.0195312 28.6875,37.0195312 C28.4765614,37.0195312 28.0898466,36.8437518 27.5273438,36.4921875 L27.3164062,36.3867188 L17.4023438,26.4726562 C16.7695281,25.6992149 16.7695281,24.9257851 17.4023438,24.1523438 C18.1757851,23.3789024 18.9492149,23.3789024 19.7226562,24.1523438 Z M50.4140625,25.5234375 L53.578125,22.4648438 C53.8593764,24.3632907 54,25.8749944 54,27 C54,34.0312852 51.574243,40.1484115 46.7226562,45.3515625 C41.3788795,51.1172163 34.8047265,54 27,54 C19.9687148,54 13.8515885,51.574243 8.6484375,46.7226562 C2.88278367,41.3788795 0,34.8047265 0,27 C0,19.9687148 2.42575699,13.8515885 7.27734375,8.6484375 C12.6211205,2.88278367 19.1952735,0 27,0 C33.7500338,0 39.6913806,2.2499775 44.8242188,6.75 L42.2929688,9.17578125 C37.8632591,5.37888727 32.7656538,3.44531285 27,3.375 C21.0937205,3.375 15.8906475,5.34373031 11.390625,9.28125 C6.04684828,13.9922111 3.375,19.898402 3.375,27 C3.375,32.9062795 5.34373031,38.1093525 9.28125,42.609375 C13.9922111,47.9531517 19.898402,50.625 27,50.625 C32.9062795,50.625 38.1093525,48.6562697 42.609375,44.71875 C47.9531517,40.0077889 50.625,34.101598 50.625,27 C50.625,26.7187486 50.5546882,26.226566 50.4140625,25.5234375 Z" id="-copy"></path>
            </g>
        </g>
    </g>
</svg>