<?xml version="1.0" encoding="UTF-8"?>
<svg width="20px" height="20px" viewBox="0 0 20 20" version="1.1" xmlns="http://www.w3.org/2000/svg" xmlns:xlink="http://www.w3.org/1999/xlink">
    <title>742C7EE6-B002-4AC2-B581-C9769C59F492</title>
    <g id="APP---Adore-Society" stroke="none" stroke-width="1" fill="none" fill-rule="evenodd">
        <g id="AB-APP-Account-AS-Rewards-L2" transform="translate(-252.000000, -1237.000000)" fill="#231F20">
            <g id="Refer-friendL3" transform="translate(22.000000, 893.000000)">
                <g id="http://www.adorebeau" transform="translate(17.000000, 282.000000)">
                    <g id="share-icons" transform="translate(29.000000, 59.000000)">
                        <g id="icon-/-logos-/-whatsapp" transform="translate(184.000000, 3.000000)">
                            <path d="M10.1675285,3.61216638e-05 C6.62665933,-0.00564939994 3.35774441,1.88626926 1.61543175,4.9496878 C-0.12688091,8.01310635 -0.0719019664,11.7720857 1.75926701,14.7838852 L0,20 L5.42979653,18.2612951 C9.01849639,20.2440157 13.4702266,19.7946515 16.5844795,17.1353249 C19.6987324,14.4759983 20.8158997,10.1699628 19.3837614,6.34570858 C17.951623,2.52145432 14.2735102,-0.0110300113 10.1675285,3.61216638e-05 L10.1675285,3.61216638e-05 Z M10.1675285,17.8531415 C8.57315815,17.8553939 7.01370741,17.3891209 5.68527832,16.5129485 L2.54835001,17.5092489 L3.56704323,14.4978506 C1.357584,11.4619459 1.52985996,7.31673347 3.98370992,4.47223835 C6.43755988,1.62774324 10.533401,0.825367845 13.8899127,2.53161294 C17.2464244,4.23785804 18.9887498,8.008 18.1039016,11.6500796 C17.2190534,15.2921592 13.9376625,17.8568879 10.1675285,17.8531415 Z M14.7629668,11.9588914 C14.5171868,11.8239088 13.3109247,11.1747066 13.0845484,11.0847182 C12.8581721,10.9947297 12.6932409,10.9465216 12.5153738,11.1875621 C12.3375067,11.4286025 11.8297771,11.9717469 11.6874834,12.1324405 C11.5451898,12.2931341 11.3899603,12.3092035 11.1441804,12.1742209 C10.4163224,11.8581753 9.75060815,11.4163953 9.17794078,10.8693887 C8.64979484,10.3459696 8.20195524,9.74822517 7.84878868,9.09533118 C7.71296291,8.84143526 7.84878868,8.71288037 7.97814654,8.5939671 C8.10750441,8.47505382 8.24009623,8.31114633 8.3694541,8.16973595 C8.47902301,8.04902352 8.56952571,7.9124867 8.63787167,7.76478803 C8.7108882,7.62812748 8.7108882,7.46436195 8.63787167,7.3277014 C8.57966063,7.20236038 8.12690809,5.95859178 7.93610524,5.45401383 C7.74530238,4.94943587 7.53509584,5.02335493 7.38956824,5.01692719 C7.24404064,5.01049945 7.06617357,4.98478847 6.91094413,4.9783597 C6.65419968,4.97798223 6.40860466,5.08258388 6.23181532,5.26760923 C5.63225442,5.78068507 5.27968685,6.52232072 5.2616313,7.30841816 C5.21635605,8.52968965 6.06688404,9.74774726 6.18654006,9.9180825 C6.30619609,10.0884177 7.80351342,12.7398624 10.319524,13.832579 C12.8355345,14.9252956 12.8387685,14.587839 13.2979889,14.5653419 C13.7572093,14.5428448 14.8017741,14.0189836 15.0313843,13.4469143 C15.2100746,13.0808766 15.2764316,12.6706757 15.2221872,12.2674232 C15.173678,12.1549376 15.0087467,12.0906602 14.7629668,11.9588914 Z" id="Shape"></path>
                        </g>
                    </g>
                </g>
            </g>
        </g>
    </g>
</svg>