<?xml version="1.0" encoding="UTF-8"?>
<svg width="27px" height="25px" viewBox="0 0 27 25" version="1.1" xmlns="http://www.w3.org/2000/svg" xmlns:xlink="http://www.w3.org/1999/xlink">
    <title>Expand</title>
    <g id="APP-2021/22-Updates" stroke="none" stroke-width="1" fill="none" fill-rule="evenodd">
        <g id="Product-2022-New" transform="translate(-364.000000, -488.000000)" fill="#000000" fill-rule="nonzero">
            <g id="Expand" transform="translate(364.000000, 488.000000)">
                <path d="M10.8024663,0 C16.7685037,0 21.6049326,4.83642891 21.6049326,10.8024663 C21.6049326,13.2899892 20.7641436,15.5811353 19.3512514,17.4072187 L25.9314804,23.3889383 C26.309867,23.7329261 26.3377527,24.3185262 25.9937649,24.6969128 C25.6712763,25.0516502 25.1364331,25.0983302 24.7590566,24.8193423 L24.6857903,24.7591973 L18.0975359,18.7696892 C16.1755697,20.5304671 13.6144954,21.6049326 10.8024663,21.6049326 C4.83642891,21.6049326 0,16.7685037 0,10.8024663 C0,4.83642891 4.83642891,0 10.8024663,0 Z M10.8024663,1.85185137 C5.85917818,1.85185137 1.85185137,5.85917818 1.85185137,10.8024663 C1.85185137,15.7457545 5.85917818,19.7530813 10.8024663,19.7530813 C15.7457545,19.7530813 19.7530813,15.7457545 19.7530813,10.8024663 C19.7530813,5.85917818 15.7457545,1.85185137 10.8024663,1.85185137 Z" id="Combined-Shape"></path>
                <g id="Group" transform="translate(6.481480, 6.481480)">
                    <rect id="Rectangle" x="3.70370274" y="0" width="1.23456758" height="8.64197305"></rect>
                    <polygon id="Rectangle-Copy" transform="translate(4.320987, 4.320987) rotate(90.000000) translate(-4.320987, -4.320987) " points="3.70370274 4.97457799e-15 4.93827031 4.97457799e-15 4.93827031 8.64197305 3.70370274 8.64197305"></polygon>
                </g>
            </g>
        </g>
    </g>
</svg>